<svg width="680" height="695" viewBox="0 0 680 695" fill="none" xmlns="http://www.w3.org/2000/svg">
<rect width="680" height="695" fill="white"/>
<path d="M220.698 312.192C219.54 312.076 218.5 313.041 218.507 314.204C219.798 511.056 394.052 549.555 466.183 433.463C467.24 431.761 465.221 429.852 463.433 430.757C308.069 509.385 323.871 322.541 220.698 312.192Z" fill="#4B1F0E"/>
<path d="M402.038 441.458C403.196 441.574 404.237 440.61 404.229 439.447C402.938 242.595 228.684 204.096 156.553 320.188C155.496 321.89 157.515 323.798 159.303 322.894C314.667 244.266 298.865 431.11 402.038 441.458Z" fill="#4B1F0E"/>
<path d="M208 305C208 523.493 403.011 565.827 478.578 432" stroke="#4B1F0E" stroke-width="5"/>
<path d="M208.5 400.5C69.5 481.5 54 231 208.5 304" stroke="#D0A074" stroke-width="5" stroke-linecap="round"/>
<path d="M301.136 407V349.208C301.136 345.048 302.32 341.72 304.688 339.224C307.12 336.664 310.576 335.384 315.056 335.384C316.912 335.384 318.736 335.672 320.528 336.248C322.32 336.76 323.792 337.56 324.944 338.648L323.024 342.296C322.064 341.336 320.912 340.632 319.568 340.184C318.224 339.736 316.784 339.512 315.248 339.512C312.176 339.512 309.84 340.376 308.24 342.104C306.64 343.768 305.84 346.264 305.84 349.592V358.04L305.936 360.344V407H301.136ZM291.92 361.016V356.888H321.872V361.016H291.92ZM334.837 407V349.208C334.837 345.048 336.021 341.72 338.389 339.224C340.821 336.664 344.277 335.384 348.757 335.384C350.613 335.384 352.437 335.672 354.229 336.248C356.021 336.76 357.493 337.56 358.645 338.648L356.725 342.296C355.765 341.336 354.613 340.632 353.269 340.184C351.925 339.736 350.485 339.512 348.949 339.512C345.877 339.512 343.541 340.376 341.941 342.104C340.341 343.768 339.541 346.264 339.541 349.592V358.04L339.637 360.344V407H334.837ZM325.621 361.016V356.888H355.573V361.016H325.621ZM386.805 407.384C381.749 407.384 377.269 406.296 373.365 404.12C369.525 401.944 366.485 398.936 364.245 395.096C362.069 391.256 360.981 386.872 360.981 381.944C360.981 376.952 362.005 372.568 364.053 368.792C366.165 364.952 369.045 361.944 372.693 359.768C376.341 357.592 380.437 356.504 384.981 356.504C389.525 356.504 393.589 357.56 397.173 359.672C400.821 361.784 403.669 364.76 405.718 368.6C407.83 372.376 408.885 376.76 408.885 381.752C408.885 381.944 408.854 382.168 408.79 382.424C408.79 382.616 408.79 382.84 408.79 383.096H364.533V379.352H406.198L404.277 381.176C404.341 377.272 403.51 373.784 401.781 370.712C400.117 367.576 397.845 365.144 394.965 363.416C392.085 361.624 388.757 360.728 384.981 360.728C381.269 360.728 377.941 361.624 374.997 363.416C372.117 365.144 369.845 367.576 368.181 370.712C366.517 373.784 365.685 377.304 365.685 381.272V382.136C365.685 386.232 366.581 389.88 368.373 393.08C370.229 396.216 372.757 398.68 375.957 400.472C379.157 402.2 382.805 403.064 386.901 403.064C390.101 403.064 393.077 402.488 395.829 401.336C398.645 400.184 401.013 398.424 402.933 396.056L405.718 399.224C403.542 401.912 400.789 403.96 397.461 405.368C394.197 406.712 390.645 407.384 386.805 407.384ZM446.007 407.384C440.951 407.384 436.471 406.296 432.567 404.12C428.727 401.944 425.687 398.936 423.447 395.096C421.271 391.256 420.183 386.872 420.183 381.944C420.183 376.952 421.207 372.568 423.255 368.792C425.367 364.952 428.247 361.944 431.895 359.768C435.543 357.592 439.639 356.504 444.183 356.504C448.727 356.504 452.791 357.56 456.375 359.672C460.023 361.784 462.871 364.76 464.919 368.6C467.031 372.376 468.087 376.76 468.087 381.752C468.087 381.944 468.055 382.168 467.991 382.424C467.991 382.616 467.991 382.84 467.991 383.096H423.735V379.352H465.399L463.479 381.176C463.543 377.272 462.711 373.784 460.983 370.712C459.319 367.576 457.047 365.144 454.167 363.416C451.287 361.624 447.959 360.728 444.183 360.728C440.471 360.728 437.143 361.624 434.199 363.416C431.319 365.144 429.047 367.576 427.383 370.712C425.719 373.784 424.887 377.304 424.887 381.272V382.136C424.887 386.232 425.783 389.88 427.575 393.08C429.431 396.216 431.959 398.68 435.159 400.472C438.359 402.2 442.007 403.064 446.103 403.064C449.303 403.064 452.279 402.488 455.031 401.336C457.847 400.184 460.215 398.424 462.135 396.056L464.919 399.224C462.743 401.912 459.991 403.96 456.663 405.368C453.399 406.712 449.847 407.384 446.007 407.384Z" fill="#D0A074"/>
<path d="M260.569 351.414C260.532 351.385 260.491 351.361 260.447 351.343C254.976 349.187 245.1 357.218 244.141 374.484C243.2 391.431 246.86 403.47 258.423 405.799C258.789 405.873 259.093 405.523 258.981 405.167C257.721 401.146 257.239 398.407 256.684 393.625C256.661 387.004 258.535 383.462 260.834 378.657C262.962 374.265 263.846 371.494 265.008 366.137C265.646 358.797 263.704 353.956 260.569 351.414Z" fill="#D0A074"/>
<path d="M264.431 406.541C264.468 406.571 264.509 406.595 264.553 406.613C270.024 408.769 279.9 400.738 280.859 383.472C281.8 366.525 278.14 354.486 266.577 352.157C266.211 352.083 265.907 352.433 266.019 352.789C267.279 356.81 267.761 359.549 268.316 364.331C268.339 370.952 266.465 374.494 264.166 379.299C262.038 383.691 261.154 386.462 259.992 391.819C259.354 399.159 261.296 404 264.431 406.541Z" fill="#D0A074"/>
<path d="M38.6482 68V42.8H44.4802V63.248H57.1162V68H38.6482ZM72.1928 68.432C70.2008 68.432 68.3528 68.108 66.6488 67.46C64.9688 66.812 63.5048 65.9 62.2568 64.724C61.0328 63.548 60.0728 62.168 59.3768 60.584C58.7048 59 58.3688 57.272 58.3688 55.4C58.3688 53.528 58.7048 51.8 59.3768 50.216C60.0728 48.632 61.0448 47.252 62.2928 46.076C63.5408 44.9 65.0048 43.988 66.6848 43.34C68.3648 42.692 70.1888 42.368 72.1568 42.368C74.1488 42.368 75.9728 42.692 77.6288 43.34C79.3088 43.988 80.7608 44.9 81.9848 46.076C83.2328 47.252 84.2048 48.632 84.9008 50.216C85.5968 51.776 85.9448 53.504 85.9448 55.4C85.9448 57.272 85.5968 59.012 84.9008 60.62C84.2048 62.204 83.2328 63.584 81.9848 64.76C80.7608 65.912 79.3088 66.812 77.6288 67.46C75.9728 68.108 74.1608 68.432 72.1928 68.432ZM72.1568 63.464C73.2848 63.464 74.3168 63.272 75.2528 62.888C76.2128 62.504 77.0528 61.952 77.7728 61.232C78.4928 60.512 79.0448 59.66 79.4288 58.676C79.8368 57.692 80.0408 56.6 80.0408 55.4C80.0408 54.2 79.8368 53.108 79.4288 52.124C79.0448 51.14 78.4928 50.288 77.7728 49.568C77.0768 48.848 76.2488 48.296 75.2888 47.912C74.3288 47.528 73.2848 47.336 72.1568 47.336C71.0288 47.336 69.9848 47.528 69.0248 47.912C68.0888 48.296 67.2608 48.848 66.5408 49.568C65.8208 50.288 65.2568 51.14 64.8488 52.124C64.4648 53.108 64.2728 54.2 64.2728 55.4C64.2728 56.576 64.4648 57.668 64.8488 58.676C65.2568 59.66 65.8088 60.512 66.5048 61.232C67.2248 61.952 68.0648 62.504 69.0248 62.888C69.9848 63.272 71.0288 63.464 72.1568 63.464ZM47.5818 112.432C45.5898 112.432 43.7538 112.12 42.0738 111.496C40.4178 110.848 38.9658 109.936 37.7178 108.76C36.4938 107.584 35.5338 106.204 34.8378 104.62C34.1658 103.036 33.8298 101.296 33.8298 99.4C33.8298 97.504 34.1658 95.764 34.8378 94.18C35.5338 92.596 36.5058 91.216 37.7538 90.04C39.0018 88.864 40.4658 87.964 42.1458 87.34C43.8258 86.692 45.6738 86.368 47.6898 86.368C49.9218 86.368 51.9258 86.74 53.7018 87.484C55.5018 88.228 57.0138 89.308 58.2378 90.724L54.4938 94.18C53.5818 93.22 52.5858 92.512 51.5058 92.056C50.4258 91.576 49.2498 91.336 47.9778 91.336C46.7538 91.336 45.6378 91.528 44.6298 91.912C43.6218 92.296 42.7458 92.848 42.0018 93.568C41.2818 94.288 40.7178 95.14 40.3098 96.124C39.9258 97.108 39.7338 98.2 39.7338 99.4C39.7338 100.576 39.9258 101.656 40.3098 102.64C40.7178 103.624 41.2818 104.488 42.0018 105.232C42.7458 105.952 43.6098 106.504 44.5938 106.888C45.6018 107.272 46.7058 107.464 47.9058 107.464C49.0578 107.464 50.1738 107.284 51.2538 106.924C52.3578 106.54 53.4258 105.904 54.4578 105.016L57.7698 109.228C56.4018 110.26 54.8058 111.052 52.9818 111.604C51.1818 112.156 49.3818 112.432 47.5818 112.432ZM52.4418 108.472V99.004H57.7698V109.228L52.4418 108.472ZM75.4272 112.432C73.4352 112.432 71.5872 112.108 69.8832 111.46C68.2032 110.812 66.7392 109.9 65.4912 108.724C64.2672 107.548 63.3072 106.168 62.6112 104.584C61.9392 103 61.6032 101.272 61.6032 99.4C61.6032 97.528 61.9392 95.8 62.6112 94.216C63.3072 92.632 64.2792 91.252 65.5272 90.076C66.7752 88.9 68.2392 87.988 69.9192 87.34C71.5992 86.692 73.4232 86.368 75.3912 86.368C77.3832 86.368 79.2072 86.692 80.8632 87.34C82.5432 87.988 83.9952 88.9 85.2192 90.076C86.4672 91.252 87.4392 92.632 88.1352 94.216C88.8312 95.776 89.1792 97.504 89.1792 99.4C89.1792 101.272 88.8312 103.012 88.1352 104.62C87.4392 106.204 86.4672 107.584 85.2192 108.76C83.9952 109.912 82.5432 110.812 80.8632 111.46C79.2072 112.108 77.3952 112.432 75.4272 112.432ZM75.3912 107.464C76.5192 107.464 77.5512 107.272 78.4872 106.888C79.4472 106.504 80.2872 105.952 81.0072 105.232C81.7272 104.512 82.2792 103.66 82.6632 102.676C83.0712 101.692 83.2752 100.6 83.2752 99.4C83.2752 98.2 83.0712 97.108 82.6632 96.124C82.2792 95.14 81.7272 94.288 81.0072 93.568C80.3112 92.848 79.4832 92.296 78.5232 91.912C77.5632 91.528 76.5192 91.336 75.3912 91.336C74.2632 91.336 73.2192 91.528 72.2592 91.912C71.3232 92.296 70.4952 92.848 69.7752 93.568C69.0552 94.288 68.4912 95.14 68.0832 96.124C67.6992 97.108 67.5072 98.2 67.5072 99.4C67.5072 100.576 67.6992 101.668 68.0832 102.676C68.4912 103.66 69.0432 104.512 69.7392 105.232C70.4592 105.952 71.2992 106.504 72.2592 106.888C73.2192 107.272 74.2632 107.464 75.3912 107.464Z" fill="#ACACAC"/>
<path d="M283.224 663.828C282.253 663.828 281.367 663.669 280.564 663.352C279.761 663.035 279.071 662.591 278.492 662.022C277.913 661.453 277.465 660.781 277.148 660.006C276.831 659.222 276.672 658.368 276.672 657.444C276.672 656.52 276.831 655.671 277.148 654.896C277.465 654.121 277.913 653.449 278.492 652.88C279.08 652.311 279.78 651.872 280.592 651.564C281.404 651.256 282.3 651.102 283.28 651.102C284.241 651.102 285.119 651.251 285.912 651.55C286.705 651.849 287.391 652.273 287.97 652.824C288.558 653.365 289.011 654.014 289.328 654.77C289.645 655.517 289.804 656.343 289.804 657.248C289.804 658.041 289.706 658.723 289.51 659.292C289.314 659.861 289.029 660.305 288.656 660.622C288.292 660.93 287.844 661.084 287.312 661.084C286.789 661.084 286.369 660.925 286.052 660.608C285.744 660.291 285.59 659.838 285.59 659.25V658.298L285.66 657.444L285.534 655.834V653.972H286.752V659.012C286.752 659.385 286.827 659.647 286.976 659.796C287.135 659.945 287.326 660.02 287.55 660.02C287.821 660.02 288.054 659.913 288.25 659.698C288.455 659.483 288.605 659.171 288.698 658.76C288.801 658.34 288.852 657.841 288.852 657.262C288.852 656.478 288.717 655.769 288.446 655.134C288.185 654.49 287.802 653.935 287.298 653.468C286.803 653.001 286.215 652.647 285.534 652.404C284.862 652.152 284.111 652.026 283.28 652.026C282.449 652.026 281.689 652.161 280.998 652.432C280.317 652.693 279.729 653.067 279.234 653.552C278.739 654.028 278.357 654.597 278.086 655.26C277.825 655.923 277.694 656.651 277.694 657.444C277.694 658.247 277.825 658.984 278.086 659.656C278.347 660.319 278.721 660.888 279.206 661.364C279.701 661.849 280.284 662.223 280.956 662.484C281.637 662.755 282.393 662.89 283.224 662.89C283.653 662.89 284.106 662.839 284.582 662.736C285.058 662.643 285.506 662.489 285.926 662.274L286.234 663.17C285.805 663.385 285.319 663.548 284.778 663.66C284.237 663.772 283.719 663.828 283.224 663.828ZM282.972 661.084C282.309 661.084 281.721 660.93 281.208 660.622C280.695 660.305 280.289 659.875 279.99 659.334C279.691 658.793 279.542 658.177 279.542 657.486C279.542 656.786 279.691 656.17 279.99 655.638C280.289 655.097 280.695 654.677 281.208 654.378C281.721 654.07 282.309 653.916 282.972 653.916C283.616 653.916 284.181 654.056 284.666 654.336C285.151 654.607 285.529 655.008 285.8 655.54C286.08 656.072 286.22 656.721 286.22 657.486C286.22 658.251 286.085 658.9 285.814 659.432C285.543 659.964 285.165 660.375 284.68 660.664C284.195 660.944 283.625 661.084 282.972 661.084ZM283.168 659.992C283.625 659.992 284.031 659.894 284.386 659.698C284.75 659.493 285.035 659.203 285.24 658.83C285.455 658.447 285.562 657.999 285.562 657.486C285.562 656.963 285.455 656.515 285.24 656.142C285.035 655.769 284.75 655.484 284.386 655.288C284.031 655.092 283.625 654.994 283.168 654.994C282.701 654.994 282.286 655.097 281.922 655.302C281.567 655.498 281.287 655.783 281.082 656.156C280.886 656.529 280.788 656.973 280.788 657.486C280.788 657.99 280.886 658.429 281.082 658.802C281.287 659.175 281.567 659.469 281.922 659.684C282.286 659.889 282.701 659.992 283.168 659.992ZM290.055 661.868V661H297.055V661.868H290.055ZM298.329 661V653.58H299.673V661H298.329ZM299.001 652.152C298.739 652.152 298.52 652.068 298.343 651.9C298.175 651.732 298.091 651.527 298.091 651.284C298.091 651.032 298.175 650.822 298.343 650.654C298.52 650.486 298.739 650.402 299.001 650.402C299.262 650.402 299.477 650.486 299.645 650.654C299.822 650.813 299.911 651.013 299.911 651.256C299.911 651.508 299.827 651.723 299.659 651.9C299.491 652.068 299.271 652.152 299.001 652.152ZM306.173 661.084C305.538 661.084 304.964 660.944 304.451 660.664C303.947 660.375 303.546 659.95 303.247 659.39C302.958 658.83 302.813 658.13 302.813 657.29C302.813 656.45 302.962 655.75 303.261 655.19C303.569 654.63 303.975 654.21 304.479 653.93C304.992 653.65 305.557 653.51 306.173 653.51C306.901 653.51 307.545 653.669 308.105 653.986C308.665 654.303 309.108 654.747 309.435 655.316C309.762 655.876 309.925 656.534 309.925 657.29C309.925 658.046 309.762 658.709 309.435 659.278C309.108 659.847 308.665 660.291 308.105 660.608C307.545 660.925 306.901 661.084 306.173 661.084ZM302.239 661V650.612H303.583V655.554L303.443 657.276L303.527 658.998V661H302.239ZM306.061 659.908C306.537 659.908 306.962 659.801 307.335 659.586C307.718 659.371 308.016 659.068 308.231 658.676C308.455 658.275 308.567 657.813 308.567 657.29C308.567 656.758 308.455 656.301 308.231 655.918C308.016 655.526 307.718 655.223 307.335 655.008C306.962 654.793 306.537 654.686 306.061 654.686C305.594 654.686 305.17 654.793 304.787 655.008C304.414 655.223 304.115 655.526 303.891 655.918C303.676 656.301 303.569 656.758 303.569 657.29C303.569 657.813 303.676 658.275 303.891 658.676C304.115 659.068 304.414 659.371 304.787 659.586C305.17 659.801 305.594 659.908 306.061 659.908ZM315.744 653.51C316.35 653.51 316.882 653.627 317.34 653.86C317.806 654.093 318.17 654.448 318.432 654.924C318.693 655.4 318.824 656.002 318.824 656.73V661H317.48V656.884C317.48 656.165 317.302 655.624 316.948 655.26C316.602 654.896 316.112 654.714 315.478 654.714C315.002 654.714 314.586 654.807 314.232 654.994C313.877 655.181 313.602 655.456 313.406 655.82C313.219 656.184 313.126 656.637 313.126 657.178V661H311.782V653.58H313.07V655.582L312.86 655.05C313.102 654.565 313.476 654.187 313.98 653.916C314.484 653.645 315.072 653.51 315.744 653.51ZM324.433 661.084C323.798 661.084 323.238 660.967 322.753 660.734C322.277 660.501 321.904 660.146 321.633 659.67C321.372 659.185 321.241 658.578 321.241 657.85V653.58H322.585V657.696C322.585 658.424 322.758 658.97 323.103 659.334C323.458 659.698 323.952 659.88 324.587 659.88C325.054 659.88 325.46 659.787 325.805 659.6C326.15 659.404 326.416 659.124 326.603 658.76C326.79 658.387 326.883 657.939 326.883 657.416V653.58H328.227V661H326.953V658.998L327.163 659.53C326.92 660.025 326.556 660.407 326.071 660.678C325.586 660.949 325.04 661.084 324.433 661.084ZM333.908 661.084C333.273 661.084 332.713 660.967 332.228 660.734C331.752 660.501 331.378 660.146 331.108 659.67C330.846 659.185 330.716 658.578 330.716 657.85V653.58H332.06V657.696C332.06 658.424 332.232 658.97 332.578 659.334C332.932 659.698 333.427 659.88 334.062 659.88C334.528 659.88 334.934 659.787 335.28 659.6C335.625 659.404 335.891 659.124 336.078 658.76C336.264 658.387 336.358 657.939 336.358 657.416V653.58H337.702V661H336.428V658.998L336.638 659.53C336.395 660.025 336.031 660.407 335.546 660.678C335.06 660.949 334.514 661.084 333.908 661.084ZM343.382 661.084C342.748 661.084 342.188 660.967 341.702 660.734C341.226 660.501 340.853 660.146 340.582 659.67C340.321 659.185 340.19 658.578 340.19 657.85V653.58H341.534V657.696C341.534 658.424 341.707 658.97 342.052 659.334C342.407 659.698 342.902 659.88 343.536 659.88C344.003 659.88 344.409 659.787 344.754 659.6C345.1 659.404 345.366 659.124 345.552 658.76C345.739 658.387 345.832 657.939 345.832 657.416V653.58H347.176V661H345.902V658.998L346.112 659.53C345.87 660.025 345.506 660.407 345.02 660.678C344.535 660.949 343.989 661.084 343.382 661.084ZM352.801 661.084C352.082 661.084 351.438 660.925 350.869 660.608C350.309 660.291 349.866 659.847 349.539 659.278C349.212 658.709 349.049 658.046 349.049 657.29C349.049 656.534 349.212 655.876 349.539 655.316C349.866 654.747 350.309 654.303 350.869 653.986C351.438 653.669 352.082 653.51 352.801 653.51C353.426 653.51 353.991 653.65 354.495 653.93C354.999 654.21 355.4 654.63 355.699 655.19C356.007 655.75 356.161 656.45 356.161 657.29C356.161 658.13 356.012 658.83 355.713 659.39C355.424 659.95 355.027 660.375 354.523 660.664C354.019 660.944 353.445 661.084 352.801 661.084ZM352.913 659.908C353.38 659.908 353.8 659.801 354.173 659.586C354.556 659.371 354.854 659.068 355.069 658.676C355.293 658.275 355.405 657.813 355.405 657.29C355.405 656.758 355.293 656.301 355.069 655.918C354.854 655.526 354.556 655.223 354.173 655.008C353.8 654.793 353.38 654.686 352.913 654.686C352.437 654.686 352.012 654.793 351.639 655.008C351.266 655.223 350.967 655.526 350.743 655.918C350.519 656.301 350.407 656.758 350.407 657.29C350.407 657.813 350.519 658.275 350.743 658.676C350.967 659.068 351.266 659.371 351.639 659.586C352.012 659.801 352.437 659.908 352.913 659.908ZM355.447 661V658.998L355.531 657.276L355.391 655.554V650.612H356.735V661H355.447ZM362.582 661.084C361.789 661.084 361.089 660.921 360.482 660.594C359.885 660.267 359.418 659.819 359.082 659.25C358.755 658.681 358.592 658.027 358.592 657.29C358.592 656.553 358.751 655.899 359.068 655.33C359.395 654.761 359.838 654.317 360.398 654C360.967 653.673 361.607 653.51 362.316 653.51C363.035 653.51 363.669 653.669 364.22 653.986C364.771 654.303 365.2 654.751 365.508 655.33C365.825 655.899 365.984 656.567 365.984 657.332C365.984 657.388 365.979 657.453 365.97 657.528C365.97 657.603 365.965 657.673 365.956 657.738H359.642V656.772H365.256L364.71 657.108C364.719 656.632 364.621 656.207 364.416 655.834C364.211 655.461 363.926 655.171 363.562 654.966C363.207 654.751 362.792 654.644 362.316 654.644C361.849 654.644 361.434 654.751 361.07 654.966C360.706 655.171 360.421 655.465 360.216 655.848C360.011 656.221 359.908 656.651 359.908 657.136V657.36C359.908 657.855 360.02 658.298 360.244 658.69C360.477 659.073 360.799 659.371 361.21 659.586C361.621 659.801 362.092 659.908 362.624 659.908C363.063 659.908 363.459 659.833 363.814 659.684C364.178 659.535 364.495 659.311 364.766 659.012L365.508 659.88C365.172 660.272 364.752 660.571 364.248 660.776C363.753 660.981 363.198 661.084 362.582 661.084ZM369.978 661.084C369.362 661.084 368.774 661 368.214 660.832C367.664 660.664 367.23 660.459 366.912 660.216L367.472 659.152C367.79 659.367 368.182 659.549 368.648 659.698C369.115 659.847 369.591 659.922 370.076 659.922C370.702 659.922 371.15 659.833 371.42 659.656C371.7 659.479 371.84 659.231 371.84 658.914C371.84 658.681 371.756 658.499 371.588 658.368C371.42 658.237 371.196 658.139 370.916 658.074C370.646 658.009 370.342 657.953 370.006 657.906C369.67 657.85 369.334 657.785 368.998 657.71C368.662 657.626 368.354 657.514 368.074 657.374C367.794 657.225 367.57 657.024 367.402 656.772C367.234 656.511 367.15 656.165 367.15 655.736C367.15 655.288 367.276 654.896 367.528 654.56C367.78 654.224 368.135 653.967 368.592 653.79C369.059 653.603 369.61 653.51 370.244 653.51C370.73 653.51 371.22 653.571 371.714 653.692C372.218 653.804 372.629 653.967 372.946 654.182L372.372 655.246C372.036 655.022 371.686 654.868 371.322 654.784C370.958 654.7 370.594 654.658 370.23 654.658C369.642 654.658 369.204 654.756 368.914 654.952C368.625 655.139 368.48 655.381 368.48 655.68C368.48 655.932 368.564 656.128 368.732 656.268C368.91 656.399 369.134 656.501 369.404 656.576C369.684 656.651 369.992 656.716 370.328 656.772C370.664 656.819 371 656.884 371.336 656.968C371.672 657.043 371.976 657.15 372.246 657.29C372.526 657.43 372.75 657.626 372.918 657.878C373.096 658.13 373.184 658.466 373.184 658.886C373.184 659.334 373.054 659.721 372.792 660.048C372.531 660.375 372.162 660.631 371.686 660.818C371.21 660.995 370.641 661.084 369.978 661.084ZM374.864 661V653.58H376.208V661H374.864ZM375.536 652.152C375.275 652.152 375.055 652.068 374.878 651.9C374.71 651.732 374.626 651.527 374.626 651.284C374.626 651.032 374.71 650.822 374.878 650.654C375.055 650.486 375.275 650.402 375.536 650.402C375.797 650.402 376.012 650.486 376.18 650.654C376.357 650.813 376.446 651.013 376.446 651.256C376.446 651.508 376.362 651.723 376.194 651.9C376.026 652.068 375.807 652.152 375.536 652.152ZM382.022 663.8C381.341 663.8 380.678 663.702 380.034 663.506C379.399 663.319 378.881 663.049 378.48 662.694L379.124 661.658C379.469 661.957 379.894 662.19 380.398 662.358C380.902 662.535 381.429 662.624 381.98 662.624C382.857 662.624 383.501 662.419 383.912 662.008C384.323 661.597 384.528 660.972 384.528 660.132V658.564L384.668 657.094L384.598 655.61V653.58H385.872V659.992C385.872 661.299 385.545 662.26 384.892 662.876C384.239 663.492 383.282 663.8 382.022 663.8ZM381.854 660.692C381.135 660.692 380.491 660.543 379.922 660.244C379.362 659.936 378.914 659.511 378.578 658.97C378.251 658.429 378.088 657.803 378.088 657.094C378.088 656.375 378.251 655.75 378.578 655.218C378.914 654.677 379.362 654.257 379.922 653.958C380.491 653.659 381.135 653.51 381.854 653.51C382.489 653.51 383.067 653.641 383.59 653.902C384.113 654.154 384.528 654.546 384.836 655.078C385.153 655.61 385.312 656.282 385.312 657.094C385.312 657.897 385.153 658.564 384.836 659.096C384.528 659.628 384.113 660.029 383.59 660.3C383.067 660.561 382.489 660.692 381.854 660.692ZM382.008 659.516C382.503 659.516 382.941 659.413 383.324 659.208C383.707 659.003 384.005 658.718 384.22 658.354C384.444 657.99 384.556 657.57 384.556 657.094C384.556 656.618 384.444 656.198 384.22 655.834C384.005 655.47 383.707 655.19 383.324 654.994C382.941 654.789 382.503 654.686 382.008 654.686C381.513 654.686 381.07 654.789 380.678 654.994C380.295 655.19 379.992 655.47 379.768 655.834C379.553 656.198 379.446 656.618 379.446 657.094C379.446 657.57 379.553 657.99 379.768 658.354C379.992 658.718 380.295 659.003 380.678 659.208C381.07 659.413 381.513 659.516 382.008 659.516ZM392.402 653.51C393.009 653.51 393.541 653.627 393.998 653.86C394.465 654.093 394.829 654.448 395.09 654.924C395.351 655.4 395.482 656.002 395.482 656.73V661H394.138V656.884C394.138 656.165 393.961 655.624 393.606 655.26C393.261 654.896 392.771 654.714 392.136 654.714C391.66 654.714 391.245 654.807 390.89 654.994C390.535 655.181 390.26 655.456 390.064 655.82C389.877 656.184 389.784 656.637 389.784 657.178V661H388.44V653.58H389.728V655.582L389.518 655.05C389.761 654.565 390.134 654.187 390.638 653.916C391.142 653.645 391.73 653.51 392.402 653.51ZM396.695 661.868V661H403.695V661.868H396.695Z" fill="#ACACAC"/>
</svg>
