<svg width="680" height="695" viewBox="0 0 680 695" fill="none" xmlns="http://www.w3.org/2000/svg">
<rect width="680" height="695" fill="#505050"/>
<g clip-path="url(#clip0_305_39)">
<path d="M529.362 321.872H210.745C210.451 321.872 210.213 322.123 210.213 322.417C210.537 554.383 417.734 599.236 498.062 456.979" stroke="#E2CEBD" stroke-width="5"/>
<path d="M223.721 329.523C222.489 329.4 221.383 330.427 221.39 331.664C222.764 541.081 408.14 582.037 484.876 458.535C486 456.724 483.852 454.694 481.95 455.656C316.669 539.303 333.48 340.533 223.721 329.523Z" fill="#3C2621"/>
<path d="M586.277 536.766H160.745C158.688 536.766 157.021 538.433 157.021 540.489C157.021 542.546 158.688 544.213 160.745 544.213H586.277C588.333 544.213 590 542.546 590 540.489C590 538.433 588.333 536.766 586.277 536.766Z" fill="#E2CEBD"/>
<path d="M526.17 564.426H213.404C211.642 564.426 210.213 565.854 210.213 567.617C210.213 569.38 211.642 570.809 213.404 570.809H526.17C527.933 570.809 529.362 569.38 529.362 567.617C529.362 565.854 527.933 564.426 526.17 564.426Z" fill="#E2CEBD"/>
<path d="M210.745 423.468C62.8723 509.638 46.383 243.149 210.745 320.809" stroke="#E2CEBD" stroke-width="5" stroke-linecap="round"/>
<path d="M309.294 430.383V368.902C309.294 364.477 310.553 360.936 313.072 358.281C315.66 355.557 319.336 354.196 324.102 354.196C326.077 354.196 328.017 354.502 329.923 355.115C331.83 355.66 333.396 356.511 334.621 357.668L332.579 361.549C331.557 360.528 330.332 359.779 328.902 359.302C327.472 358.826 325.94 358.587 324.306 358.587C321.038 358.587 318.553 359.506 316.851 361.345C315.149 363.115 314.298 365.77 314.298 369.311V378.298L314.4 380.749V430.383H309.294ZM299.489 381.464V377.072H331.353V381.464H299.489ZM345.146 430.383V368.902C345.146 364.477 346.405 360.936 348.924 358.281C351.512 355.557 355.188 354.196 359.954 354.196C361.929 354.196 363.869 354.502 365.776 355.115C367.682 355.66 369.248 356.511 370.473 357.668L368.431 361.549C367.41 360.528 366.184 359.779 364.754 359.302C363.325 358.826 361.793 358.587 360.159 358.587C356.89 358.587 354.405 359.506 352.703 361.345C351.001 363.115 350.15 365.77 350.15 369.311V378.298L350.252 380.749V430.383H345.146ZM335.342 381.464V377.072H367.205V381.464H335.342ZM400.431 430.791C395.052 430.791 390.286 429.634 386.133 427.319C382.048 425.004 378.814 421.804 376.431 417.719C374.116 413.634 372.959 408.97 372.959 403.728C372.959 398.417 374.048 393.753 376.227 389.736C378.473 385.651 381.537 382.451 385.418 380.136C389.299 377.821 393.656 376.664 398.49 376.664C403.324 376.664 407.648 377.787 411.461 380.034C415.342 382.281 418.371 385.447 420.551 389.532C422.798 393.549 423.92 398.213 423.92 403.523C423.92 403.728 423.887 403.966 423.819 404.238C423.819 404.443 423.819 404.681 423.819 404.953H376.737V400.97H421.062L419.018 402.911C419.086 398.757 418.202 395.047 416.363 391.779C414.593 388.443 412.176 385.855 409.112 384.017C406.048 382.111 402.507 381.157 398.49 381.157C394.541 381.157 391.001 382.111 387.869 384.017C384.805 385.855 382.388 388.443 380.618 391.779C378.848 395.047 377.963 398.791 377.963 403.013V403.932C377.963 408.289 378.916 412.17 380.822 415.574C382.797 418.911 385.486 421.532 388.89 423.438C392.295 425.277 396.176 426.196 400.533 426.196C403.937 426.196 407.103 425.583 410.031 424.357C413.027 423.132 415.546 421.26 417.588 418.74L420.551 422.111C418.236 424.97 415.307 427.149 411.767 428.647C408.295 430.077 404.516 430.791 400.431 430.791ZM463.412 430.791C458.033 430.791 453.267 429.634 449.114 427.319C445.029 425.004 441.795 421.804 439.412 417.719C437.097 413.634 435.939 408.97 435.939 403.728C435.939 398.417 437.029 393.753 439.207 389.736C441.454 385.651 444.518 382.451 448.399 380.136C452.28 377.821 456.637 376.664 461.471 376.664C466.305 376.664 470.629 377.787 474.442 380.034C478.322 382.281 481.352 385.447 483.531 389.532C485.778 393.549 486.901 398.213 486.901 403.523C486.901 403.728 486.867 403.966 486.799 404.238C486.799 404.443 486.799 404.681 486.799 404.953H439.718V400.97H484.041L481.999 402.911C482.067 398.757 481.182 395.047 479.344 391.779C477.573 388.443 475.156 385.855 472.093 384.017C469.029 382.111 465.488 381.157 461.471 381.157C457.522 381.157 453.982 382.111 450.85 384.017C447.786 385.855 445.369 388.443 443.599 391.779C441.829 395.047 440.944 398.791 440.944 403.013V403.932C440.944 408.289 441.897 412.17 443.803 415.574C445.778 418.911 448.467 421.532 451.871 423.438C455.276 425.277 459.156 426.196 463.514 426.196C466.918 426.196 470.084 425.583 473.012 424.357C476.007 423.132 478.527 421.26 480.569 418.74L483.531 422.111C481.216 424.97 478.288 427.149 474.748 428.647C471.276 430.077 467.497 430.791 463.412 430.791Z" fill="#E2CEBD"/>
<path d="M289.61 380.521C273.977 367.745 236.549 394.5 244.215 414.041C246.319 415.394 254.285 406.676 265.109 398.709C276.382 390.411 289.882 385.381 289.61 380.521Z" fill="#E2CEBD"/>
<path d="M246.773 417.638C262.406 430.415 299.834 403.659 292.168 384.118C290.064 382.765 282.098 391.483 271.274 399.45C260.001 407.749 246.501 412.779 246.773 417.638Z" fill="#E2CEBD"/>
<path d="M359.841 291.189C359.34 291.58 358.679 290.895 359.082 290.404C433.11 200.38 303.941 211.089 355.88 124C317.116 194.445 456.756 215.542 359.841 291.189Z" fill="#3C2621"/>
<path d="M321.876 291.151C321.39 291.56 320.727 290.91 321.112 290.404C357.924 242.147 290.549 247.423 318.08 199.532C297.524 238.285 370.53 250.19 321.876 291.151Z" fill="#3C2621"/>
<path d="M411.319 291.204C410.821 291.6 410.164 290.926 410.563 290.431C460.487 228.616 371.206 235.664 407.407 175.064C380.38 224.097 477.038 238.976 411.319 291.204Z" fill="#3C2621"/>
</g>
<path d="M38.6482 68V42.8H44.4802V63.248H57.1162V68H38.6482ZM72.1928 68.432C70.2008 68.432 68.3528 68.108 66.6488 67.46C64.9688 66.812 63.5048 65.9 62.2568 64.724C61.0328 63.548 60.0728 62.168 59.3768 60.584C58.7048 59 58.3688 57.272 58.3688 55.4C58.3688 53.528 58.7048 51.8 59.3768 50.216C60.0728 48.632 61.0448 47.252 62.2928 46.076C63.5408 44.9 65.0048 43.988 66.6848 43.34C68.3648 42.692 70.1888 42.368 72.1568 42.368C74.1488 42.368 75.9728 42.692 77.6288 43.34C79.3088 43.988 80.7608 44.9 81.9848 46.076C83.2328 47.252 84.2048 48.632 84.9008 50.216C85.5968 51.776 85.9448 53.504 85.9448 55.4C85.9448 57.272 85.5968 59.012 84.9008 60.62C84.2048 62.204 83.2328 63.584 81.9848 64.76C80.7608 65.912 79.3088 66.812 77.6288 67.46C75.9728 68.108 74.1608 68.432 72.1928 68.432ZM72.1568 63.464C73.2848 63.464 74.3168 63.272 75.2528 62.888C76.2128 62.504 77.0528 61.952 77.7728 61.232C78.4928 60.512 79.0448 59.66 79.4288 58.676C79.8368 57.692 80.0408 56.6 80.0408 55.4C80.0408 54.2 79.8368 53.108 79.4288 52.124C79.0448 51.14 78.4928 50.288 77.7728 49.568C77.0768 48.848 76.2488 48.296 75.2888 47.912C74.3288 47.528 73.2848 47.336 72.1568 47.336C71.0288 47.336 69.9848 47.528 69.0248 47.912C68.0888 48.296 67.2608 48.848 66.5408 49.568C65.8208 50.288 65.2568 51.14 64.8488 52.124C64.4648 53.108 64.2728 54.2 64.2728 55.4C64.2728 56.576 64.4648 57.668 64.8488 58.676C65.2568 59.66 65.8088 60.512 66.5048 61.232C67.2248 61.952 68.0648 62.504 69.0248 62.888C69.9848 63.272 71.0288 63.464 72.1568 63.464ZM47.5818 112.432C45.5898 112.432 43.7538 112.12 42.0738 111.496C40.4178 110.848 38.9658 109.936 37.7178 108.76C36.4938 107.584 35.5338 106.204 34.8378 104.62C34.1658 103.036 33.8298 101.296 33.8298 99.4C33.8298 97.504 34.1658 95.764 34.8378 94.18C35.5338 92.596 36.5058 91.216 37.7538 90.04C39.0018 88.864 40.4658 87.964 42.1458 87.34C43.8258 86.692 45.6738 86.368 47.6898 86.368C49.9218 86.368 51.9258 86.74 53.7018 87.484C55.5018 88.228 57.0138 89.308 58.2378 90.724L54.4938 94.18C53.5818 93.22 52.5858 92.512 51.5058 92.056C50.4258 91.576 49.2498 91.336 47.9778 91.336C46.7538 91.336 45.6378 91.528 44.6298 91.912C43.6218 92.296 42.7458 92.848 42.0018 93.568C41.2818 94.288 40.7178 95.14 40.3098 96.124C39.9258 97.108 39.7338 98.2 39.7338 99.4C39.7338 100.576 39.9258 101.656 40.3098 102.64C40.7178 103.624 41.2818 104.488 42.0018 105.232C42.7458 105.952 43.6098 106.504 44.5938 106.888C45.6018 107.272 46.7058 107.464 47.9058 107.464C49.0578 107.464 50.1738 107.284 51.2538 106.924C52.3578 106.54 53.4258 105.904 54.4578 105.016L57.7698 109.228C56.4018 110.26 54.8058 111.052 52.9818 111.604C51.1818 112.156 49.3818 112.432 47.5818 112.432ZM52.4418 108.472V99.004H57.7698V109.228L52.4418 108.472ZM75.4272 112.432C73.4352 112.432 71.5872 112.108 69.8832 111.46C68.2032 110.812 66.7392 109.9 65.4912 108.724C64.2672 107.548 63.3072 106.168 62.6112 104.584C61.9392 103 61.6032 101.272 61.6032 99.4C61.6032 97.528 61.9392 95.8 62.6112 94.216C63.3072 92.632 64.2792 91.252 65.5272 90.076C66.7752 88.9 68.2392 87.988 69.9192 87.34C71.5992 86.692 73.4232 86.368 75.3912 86.368C77.3832 86.368 79.2072 86.692 80.8632 87.34C82.5432 87.988 83.9952 88.9 85.2192 90.076C86.4672 91.252 87.4392 92.632 88.1352 94.216C88.8312 95.776 89.1792 97.504 89.1792 99.4C89.1792 101.272 88.8312 103.012 88.1352 104.62C87.4392 106.204 86.4672 107.584 85.2192 108.76C83.9952 109.912 82.5432 110.812 80.8632 111.46C79.2072 112.108 77.3952 112.432 75.4272 112.432ZM75.3912 107.464C76.5192 107.464 77.5512 107.272 78.4872 106.888C79.4472 106.504 80.2872 105.952 81.0072 105.232C81.7272 104.512 82.2792 103.66 82.6632 102.676C83.0712 101.692 83.2752 100.6 83.2752 99.4C83.2752 98.2 83.0712 97.108 82.6632 96.124C82.2792 95.14 81.7272 94.288 81.0072 93.568C80.3112 92.848 79.4832 92.296 78.5232 91.912C77.5632 91.528 76.5192 91.336 75.3912 91.336C74.2632 91.336 73.2192 91.528 72.2592 91.912C71.3232 92.296 70.4952 92.848 69.7752 93.568C69.0552 94.288 68.4912 95.14 68.0832 96.124C67.6992 97.108 67.5072 98.2 67.5072 99.4C67.5072 100.576 67.6992 101.668 68.0832 102.676C68.4912 103.66 69.0432 104.512 69.7392 105.232C70.4592 105.952 71.2992 106.504 72.2592 106.888C73.2192 107.272 74.2632 107.464 75.3912 107.464Z" fill="#ACACAC"/>
<path d="M283.224 663.828C282.253 663.828 281.367 663.669 280.564 663.352C279.761 663.035 279.071 662.591 278.492 662.022C277.913 661.453 277.465 660.781 277.148 660.006C276.831 659.222 276.672 658.368 276.672 657.444C276.672 656.52 276.831 655.671 277.148 654.896C277.465 654.121 277.913 653.449 278.492 652.88C279.08 652.311 279.78 651.872 280.592 651.564C281.404 651.256 282.3 651.102 283.28 651.102C284.241 651.102 285.119 651.251 285.912 651.55C286.705 651.849 287.391 652.273 287.97 652.824C288.558 653.365 289.011 654.014 289.328 654.77C289.645 655.517 289.804 656.343 289.804 657.248C289.804 658.041 289.706 658.723 289.51 659.292C289.314 659.861 289.029 660.305 288.656 660.622C288.292 660.93 287.844 661.084 287.312 661.084C286.789 661.084 286.369 660.925 286.052 660.608C285.744 660.291 285.59 659.838 285.59 659.25V658.298L285.66 657.444L285.534 655.834V653.972H286.752V659.012C286.752 659.385 286.827 659.647 286.976 659.796C287.135 659.945 287.326 660.02 287.55 660.02C287.821 660.02 288.054 659.913 288.25 659.698C288.455 659.483 288.605 659.171 288.698 658.76C288.801 658.34 288.852 657.841 288.852 657.262C288.852 656.478 288.717 655.769 288.446 655.134C288.185 654.49 287.802 653.935 287.298 653.468C286.803 653.001 286.215 652.647 285.534 652.404C284.862 652.152 284.111 652.026 283.28 652.026C282.449 652.026 281.689 652.161 280.998 652.432C280.317 652.693 279.729 653.067 279.234 653.552C278.739 654.028 278.357 654.597 278.086 655.26C277.825 655.923 277.694 656.651 277.694 657.444C277.694 658.247 277.825 658.984 278.086 659.656C278.347 660.319 278.721 660.888 279.206 661.364C279.701 661.849 280.284 662.223 280.956 662.484C281.637 662.755 282.393 662.89 283.224 662.89C283.653 662.89 284.106 662.839 284.582 662.736C285.058 662.643 285.506 662.489 285.926 662.274L286.234 663.17C285.805 663.385 285.319 663.548 284.778 663.66C284.237 663.772 283.719 663.828 283.224 663.828ZM282.972 661.084C282.309 661.084 281.721 660.93 281.208 660.622C280.695 660.305 280.289 659.875 279.99 659.334C279.691 658.793 279.542 658.177 279.542 657.486C279.542 656.786 279.691 656.17 279.99 655.638C280.289 655.097 280.695 654.677 281.208 654.378C281.721 654.07 282.309 653.916 282.972 653.916C283.616 653.916 284.181 654.056 284.666 654.336C285.151 654.607 285.529 655.008 285.8 655.54C286.08 656.072 286.22 656.721 286.22 657.486C286.22 658.251 286.085 658.9 285.814 659.432C285.543 659.964 285.165 660.375 284.68 660.664C284.195 660.944 283.625 661.084 282.972 661.084ZM283.168 659.992C283.625 659.992 284.031 659.894 284.386 659.698C284.75 659.493 285.035 659.203 285.24 658.83C285.455 658.447 285.562 657.999 285.562 657.486C285.562 656.963 285.455 656.515 285.24 656.142C285.035 655.769 284.75 655.484 284.386 655.288C284.031 655.092 283.625 654.994 283.168 654.994C282.701 654.994 282.286 655.097 281.922 655.302C281.567 655.498 281.287 655.783 281.082 656.156C280.886 656.529 280.788 656.973 280.788 657.486C280.788 657.99 280.886 658.429 281.082 658.802C281.287 659.175 281.567 659.469 281.922 659.684C282.286 659.889 282.701 659.992 283.168 659.992ZM290.055 661.868V661H297.055V661.868H290.055ZM298.329 661V653.58H299.673V661H298.329ZM299.001 652.152C298.739 652.152 298.52 652.068 298.343 651.9C298.175 651.732 298.091 651.527 298.091 651.284C298.091 651.032 298.175 650.822 298.343 650.654C298.52 650.486 298.739 650.402 299.001 650.402C299.262 650.402 299.477 650.486 299.645 650.654C299.822 650.813 299.911 651.013 299.911 651.256C299.911 651.508 299.827 651.723 299.659 651.9C299.491 652.068 299.271 652.152 299.001 652.152ZM306.173 661.084C305.538 661.084 304.964 660.944 304.451 660.664C303.947 660.375 303.546 659.95 303.247 659.39C302.958 658.83 302.813 658.13 302.813 657.29C302.813 656.45 302.962 655.75 303.261 655.19C303.569 654.63 303.975 654.21 304.479 653.93C304.992 653.65 305.557 653.51 306.173 653.51C306.901 653.51 307.545 653.669 308.105 653.986C308.665 654.303 309.108 654.747 309.435 655.316C309.762 655.876 309.925 656.534 309.925 657.29C309.925 658.046 309.762 658.709 309.435 659.278C309.108 659.847 308.665 660.291 308.105 660.608C307.545 660.925 306.901 661.084 306.173 661.084ZM302.239 661V650.612H303.583V655.554L303.443 657.276L303.527 658.998V661H302.239ZM306.061 659.908C306.537 659.908 306.962 659.801 307.335 659.586C307.718 659.371 308.016 659.068 308.231 658.676C308.455 658.275 308.567 657.813 308.567 657.29C308.567 656.758 308.455 656.301 308.231 655.918C308.016 655.526 307.718 655.223 307.335 655.008C306.962 654.793 306.537 654.686 306.061 654.686C305.594 654.686 305.17 654.793 304.787 655.008C304.414 655.223 304.115 655.526 303.891 655.918C303.676 656.301 303.569 656.758 303.569 657.29C303.569 657.813 303.676 658.275 303.891 658.676C304.115 659.068 304.414 659.371 304.787 659.586C305.17 659.801 305.594 659.908 306.061 659.908ZM315.744 653.51C316.35 653.51 316.882 653.627 317.34 653.86C317.806 654.093 318.17 654.448 318.432 654.924C318.693 655.4 318.824 656.002 318.824 656.73V661H317.48V656.884C317.48 656.165 317.302 655.624 316.948 655.26C316.602 654.896 316.112 654.714 315.478 654.714C315.002 654.714 314.586 654.807 314.232 654.994C313.877 655.181 313.602 655.456 313.406 655.82C313.219 656.184 313.126 656.637 313.126 657.178V661H311.782V653.58H313.07V655.582L312.86 655.05C313.102 654.565 313.476 654.187 313.98 653.916C314.484 653.645 315.072 653.51 315.744 653.51ZM324.433 661.084C323.798 661.084 323.238 660.967 322.753 660.734C322.277 660.501 321.904 660.146 321.633 659.67C321.372 659.185 321.241 658.578 321.241 657.85V653.58H322.585V657.696C322.585 658.424 322.758 658.97 323.103 659.334C323.458 659.698 323.952 659.88 324.587 659.88C325.054 659.88 325.46 659.787 325.805 659.6C326.15 659.404 326.416 659.124 326.603 658.76C326.79 658.387 326.883 657.939 326.883 657.416V653.58H328.227V661H326.953V658.998L327.163 659.53C326.92 660.025 326.556 660.407 326.071 660.678C325.586 660.949 325.04 661.084 324.433 661.084ZM333.908 661.084C333.273 661.084 332.713 660.967 332.228 660.734C331.752 660.501 331.378 660.146 331.108 659.67C330.846 659.185 330.716 658.578 330.716 657.85V653.58H332.06V657.696C332.06 658.424 332.232 658.97 332.578 659.334C332.932 659.698 333.427 659.88 334.062 659.88C334.528 659.88 334.934 659.787 335.28 659.6C335.625 659.404 335.891 659.124 336.078 658.76C336.264 658.387 336.358 657.939 336.358 657.416V653.58H337.702V661H336.428V658.998L336.638 659.53C336.395 660.025 336.031 660.407 335.546 660.678C335.06 660.949 334.514 661.084 333.908 661.084ZM343.382 661.084C342.748 661.084 342.188 660.967 341.702 660.734C341.226 660.501 340.853 660.146 340.582 659.67C340.321 659.185 340.19 658.578 340.19 657.85V653.58H341.534V657.696C341.534 658.424 341.707 658.97 342.052 659.334C342.407 659.698 342.902 659.88 343.536 659.88C344.003 659.88 344.409 659.787 344.754 659.6C345.1 659.404 345.366 659.124 345.552 658.76C345.739 658.387 345.832 657.939 345.832 657.416V653.58H347.176V661H345.902V658.998L346.112 659.53C345.87 660.025 345.506 660.407 345.02 660.678C344.535 660.949 343.989 661.084 343.382 661.084ZM352.801 661.084C352.082 661.084 351.438 660.925 350.869 660.608C350.309 660.291 349.866 659.847 349.539 659.278C349.212 658.709 349.049 658.046 349.049 657.29C349.049 656.534 349.212 655.876 349.539 655.316C349.866 654.747 350.309 654.303 350.869 653.986C351.438 653.669 352.082 653.51 352.801 653.51C353.426 653.51 353.991 653.65 354.495 653.93C354.999 654.21 355.4 654.63 355.699 655.19C356.007 655.75 356.161 656.45 356.161 657.29C356.161 658.13 356.012 658.83 355.713 659.39C355.424 659.95 355.027 660.375 354.523 660.664C354.019 660.944 353.445 661.084 352.801 661.084ZM352.913 659.908C353.38 659.908 353.8 659.801 354.173 659.586C354.556 659.371 354.854 659.068 355.069 658.676C355.293 658.275 355.405 657.813 355.405 657.29C355.405 656.758 355.293 656.301 355.069 655.918C354.854 655.526 354.556 655.223 354.173 655.008C353.8 654.793 353.38 654.686 352.913 654.686C352.437 654.686 352.012 654.793 351.639 655.008C351.266 655.223 350.967 655.526 350.743 655.918C350.519 656.301 350.407 656.758 350.407 657.29C350.407 657.813 350.519 658.275 350.743 658.676C350.967 659.068 351.266 659.371 351.639 659.586C352.012 659.801 352.437 659.908 352.913 659.908ZM355.447 661V658.998L355.531 657.276L355.391 655.554V650.612H356.735V661H355.447ZM362.582 661.084C361.789 661.084 361.089 660.921 360.482 660.594C359.885 660.267 359.418 659.819 359.082 659.25C358.755 658.681 358.592 658.027 358.592 657.29C358.592 656.553 358.751 655.899 359.068 655.33C359.395 654.761 359.838 654.317 360.398 654C360.967 653.673 361.607 653.51 362.316 653.51C363.035 653.51 363.669 653.669 364.22 653.986C364.771 654.303 365.2 654.751 365.508 655.33C365.825 655.899 365.984 656.567 365.984 657.332C365.984 657.388 365.979 657.453 365.97 657.528C365.97 657.603 365.965 657.673 365.956 657.738H359.642V656.772H365.256L364.71 657.108C364.719 656.632 364.621 656.207 364.416 655.834C364.211 655.461 363.926 655.171 363.562 654.966C363.207 654.751 362.792 654.644 362.316 654.644C361.849 654.644 361.434 654.751 361.07 654.966C360.706 655.171 360.421 655.465 360.216 655.848C360.011 656.221 359.908 656.651 359.908 657.136V657.36C359.908 657.855 360.02 658.298 360.244 658.69C360.477 659.073 360.799 659.371 361.21 659.586C361.621 659.801 362.092 659.908 362.624 659.908C363.063 659.908 363.459 659.833 363.814 659.684C364.178 659.535 364.495 659.311 364.766 659.012L365.508 659.88C365.172 660.272 364.752 660.571 364.248 660.776C363.753 660.981 363.198 661.084 362.582 661.084ZM369.978 661.084C369.362 661.084 368.774 661 368.214 660.832C367.664 660.664 367.23 660.459 366.912 660.216L367.472 659.152C367.79 659.367 368.182 659.549 368.648 659.698C369.115 659.847 369.591 659.922 370.076 659.922C370.702 659.922 371.15 659.833 371.42 659.656C371.7 659.479 371.84 659.231 371.84 658.914C371.84 658.681 371.756 658.499 371.588 658.368C371.42 658.237 371.196 658.139 370.916 658.074C370.646 658.009 370.342 657.953 370.006 657.906C369.67 657.85 369.334 657.785 368.998 657.71C368.662 657.626 368.354 657.514 368.074 657.374C367.794 657.225 367.57 657.024 367.402 656.772C367.234 656.511 367.15 656.165 367.15 655.736C367.15 655.288 367.276 654.896 367.528 654.56C367.78 654.224 368.135 653.967 368.592 653.79C369.059 653.603 369.61 653.51 370.244 653.51C370.73 653.51 371.22 653.571 371.714 653.692C372.218 653.804 372.629 653.967 372.946 654.182L372.372 655.246C372.036 655.022 371.686 654.868 371.322 654.784C370.958 654.7 370.594 654.658 370.23 654.658C369.642 654.658 369.204 654.756 368.914 654.952C368.625 655.139 368.48 655.381 368.48 655.68C368.48 655.932 368.564 656.128 368.732 656.268C368.91 656.399 369.134 656.501 369.404 656.576C369.684 656.651 369.992 656.716 370.328 656.772C370.664 656.819 371 656.884 371.336 656.968C371.672 657.043 371.976 657.15 372.246 657.29C372.526 657.43 372.75 657.626 372.918 657.878C373.096 658.13 373.184 658.466 373.184 658.886C373.184 659.334 373.054 659.721 372.792 660.048C372.531 660.375 372.162 660.631 371.686 660.818C371.21 660.995 370.641 661.084 369.978 661.084ZM374.864 661V653.58H376.208V661H374.864ZM375.536 652.152C375.275 652.152 375.055 652.068 374.878 651.9C374.71 651.732 374.626 651.527 374.626 651.284C374.626 651.032 374.71 650.822 374.878 650.654C375.055 650.486 375.275 650.402 375.536 650.402C375.797 650.402 376.012 650.486 376.18 650.654C376.357 650.813 376.446 651.013 376.446 651.256C376.446 651.508 376.362 651.723 376.194 651.9C376.026 652.068 375.807 652.152 375.536 652.152ZM382.022 663.8C381.341 663.8 380.678 663.702 380.034 663.506C379.399 663.319 378.881 663.049 378.48 662.694L379.124 661.658C379.469 661.957 379.894 662.19 380.398 662.358C380.902 662.535 381.429 662.624 381.98 662.624C382.857 662.624 383.501 662.419 383.912 662.008C384.323 661.597 384.528 660.972 384.528 660.132V658.564L384.668 657.094L384.598 655.61V653.58H385.872V659.992C385.872 661.299 385.545 662.26 384.892 662.876C384.239 663.492 383.282 663.8 382.022 663.8ZM381.854 660.692C381.135 660.692 380.491 660.543 379.922 660.244C379.362 659.936 378.914 659.511 378.578 658.97C378.251 658.429 378.088 657.803 378.088 657.094C378.088 656.375 378.251 655.75 378.578 655.218C378.914 654.677 379.362 654.257 379.922 653.958C380.491 653.659 381.135 653.51 381.854 653.51C382.489 653.51 383.067 653.641 383.59 653.902C384.113 654.154 384.528 654.546 384.836 655.078C385.153 655.61 385.312 656.282 385.312 657.094C385.312 657.897 385.153 658.564 384.836 659.096C384.528 659.628 384.113 660.029 383.59 660.3C383.067 660.561 382.489 660.692 381.854 660.692ZM382.008 659.516C382.503 659.516 382.941 659.413 383.324 659.208C383.707 659.003 384.005 658.718 384.22 658.354C384.444 657.99 384.556 657.57 384.556 657.094C384.556 656.618 384.444 656.198 384.22 655.834C384.005 655.47 383.707 655.19 383.324 654.994C382.941 654.789 382.503 654.686 382.008 654.686C381.513 654.686 381.07 654.789 380.678 654.994C380.295 655.19 379.992 655.47 379.768 655.834C379.553 656.198 379.446 656.618 379.446 657.094C379.446 657.57 379.553 657.99 379.768 658.354C379.992 658.718 380.295 659.003 380.678 659.208C381.07 659.413 381.513 659.516 382.008 659.516ZM392.402 653.51C393.009 653.51 393.541 653.627 393.998 653.86C394.465 654.093 394.829 654.448 395.09 654.924C395.351 655.4 395.482 656.002 395.482 656.73V661H394.138V656.884C394.138 656.165 393.961 655.624 393.606 655.26C393.261 654.896 392.771 654.714 392.136 654.714C391.66 654.714 391.245 654.807 390.89 654.994C390.535 655.181 390.26 655.456 390.064 655.82C389.877 656.184 389.784 656.637 389.784 657.178V661H388.44V653.58H389.728V655.582L389.518 655.05C389.761 654.565 390.134 654.187 390.638 653.916C391.142 653.645 391.73 653.51 392.402 653.51ZM396.695 661.868V661H403.695V661.868H396.695Z" fill="#ACACAC"/>
<defs>
<clipPath id="clip0_305_39">
<rect width="500" height="446.809" fill="white" transform="translate(90 124)"/>
</clipPath>
</defs>
</svg>
