<svg width="1080" height="1080" viewBox="0 0 1080 1080" fill="none" xmlns="http://www.w3.org/2000/svg">
<g clip-path="url(#clip0_301_2)">
<path fill-rule="evenodd" clip-rule="evenodd" d="M824.364 813.08C835.564 826.68 849.164 824.98 847.464 802.466L824.364 813.08Z" fill="#84894C"/>
<path d="M886.564 656.679C880.712 708.434 877.099 735.9 857.664 797.78L847.464 802.466C849.164 824.98 835.564 826.68 824.364 813.08L794.764 826.68C809.706 832.959 821.81 832.771 845.764 830.08C860.433 820.845 867.525 815.267 878.064 804.58C891.73 792.198 898.24 782.871 908.665 763.779C915.031 747.483 915.827 730.159 913.765 688.979C908.925 672.096 903.518 664.618 886.564 656.679Z" fill="#FAEADD"/>
<path d="M221.862 731.479C212.084 798.568 212.365 818.55 221.862 826.68C251.865 863.84 285.456 881.041 361.262 908.28C411.975 922.526 440.294 928.913 490.463 935.48C551.479 934.387 590.653 926.605 670.664 898.08C719.999 875.862 747.221 860.554 794.764 826.68L753.964 838.58C770.504 812.627 794.217 742.499 791.364 733.179C767.544 789.995 750.084 817.211 711.464 857.28C740.611 800.71 754.73 757.196 770.964 643.079C708.317 591.093 686.908 555.363 651.964 490.078C662.97 550.042 676.031 582.552 704.664 639.679C664.135 640.054 648.496 638.798 638.363 632.879C600.326 568.332 585.726 530.739 563.563 462.878C569.684 533.533 575.99 571.504 592.463 636.279C500.663 542.779 493.863 469.678 481.963 335.378C405.463 454.378 391.862 541.079 362.962 697.479L283.062 714.479C277.27 637.477 281.635 594.297 291.562 517.278C265.841 594.487 261.331 639.634 259.262 721.279L221.862 731.479Z" fill="#F9E9DC"/>
<path d="M794.764 826.68C747.221 860.554 719.999 875.862 670.664 898.08C590.653 926.605 551.479 934.387 490.463 935.48C440.294 928.913 411.975 922.526 361.262 908.28C285.456 881.041 251.865 863.84 221.862 826.68C212.365 818.55 212.084 798.568 221.862 731.479L259.262 721.279C261.331 639.634 265.841 594.487 291.562 517.278C281.635 594.297 277.27 637.477 283.062 714.479L362.962 697.479C391.862 541.079 405.463 454.378 481.963 335.378C493.863 469.678 500.663 542.779 592.463 636.279C575.99 571.504 569.684 533.533 563.563 462.878C585.726 530.739 600.326 568.332 638.364 632.879C648.496 638.798 664.135 640.054 704.664 639.679C676.031 582.552 662.97 550.042 651.964 490.078C686.908 555.363 708.317 591.093 770.964 643.079C754.73 757.196 740.611 800.71 711.464 857.28C750.084 817.211 767.544 789.995 791.364 733.179C794.217 742.499 770.504 812.627 753.964 838.58L794.764 826.68ZM794.764 826.68C809.706 832.959 821.81 832.771 845.764 830.08C860.433 820.845 867.525 815.267 878.064 804.58C891.73 792.198 898.24 782.871 908.665 763.779C915.031 747.483 915.827 730.159 913.765 688.979C908.925 672.096 903.518 664.618 886.564 656.679C880.712 708.434 877.099 735.9 857.664 797.78L847.464 802.466M794.764 826.68L824.364 813.08M824.364 813.08C835.564 826.68 849.164 824.98 847.464 802.466M824.364 813.08L847.464 802.466" stroke="black" stroke-width="0.4"/>
<path d="M378.262 626.079H266.062C260.047 659.001 260.87 686.206 266.062 707.462L283.062 695.779V711.079L376.584 695.779C380.277 676.714 381.229 653.517 378.262 626.079Z" fill="url(#paint0_linear_301_2)"/>
<path d="M283.062 695.779L266.062 707.462C284.696 783.758 359.607 783.417 376.584 695.779L283.062 711.079V695.779Z" fill="#DED659"/>
<path d="M266.062 626.079H378.262L396.962 624.379L395.262 619.279L400.362 617.579L396.962 612.479L402.062 607.379L396.962 603.979L386.762 602.279H352.762H274.562L233.762 607.379L220.162 609.079L221.862 614.179L216.762 617.579L221.862 619.279L215.062 627.779L266.062 626.079Z" fill="url(#paint1_linear_301_2)"/>
<path d="M378.262 626.079H266.062M378.262 626.079C381.229 653.517 380.277 676.714 376.584 695.779M378.262 626.079L396.962 624.379L395.262 619.279L400.362 617.579L396.962 612.479L402.062 607.379L396.962 603.979L386.762 602.279H352.762H274.562L233.762 607.379L220.162 609.079L221.862 614.179L216.762 617.579L221.862 619.279L215.062 627.779L266.062 626.079M266.062 626.079C260.047 659.001 260.87 686.206 266.062 707.462M266.062 707.462L283.062 695.779V711.079L376.584 695.779M266.062 707.462C284.696 783.758 359.607 783.417 376.584 695.779" stroke="black" stroke-width="0.5"/>
<path d="M579.573 694.079C593.92 779.453 673.099 776.56 698.648 705.979C665.563 668.579 624.763 663.479 579.573 694.079Z" fill="#DED659"/>
<path d="M704.663 629.479L580.563 626.079C576.4 653.015 576.47 675.612 579.573 694.079C624.763 663.479 665.563 668.579 698.648 705.979C705.94 685.834 708.864 660.174 704.663 629.479Z" fill="url(#paint2_linear_301_2)"/>
<path d="M580.563 626.079L704.663 629.479C743.076 631.672 758.059 633.388 764.163 637.979H772.664L760.763 629.479L767.564 622.679L760.763 617.579V612.479C694.463 600.579 614.563 600.579 543.163 605.679L548.263 609.079L543.163 615.879L548.263 619.279L543.163 626.079H580.563Z" fill="#262624"/>
<path d="M702.963 768.416C702.963 767.658 703.391 766.965 704.069 766.627L705.469 765.927C706.032 765.645 706.695 765.645 707.258 765.927L708.658 766.627C709.335 766.965 709.763 767.658 709.763 768.416V769.343C709.763 770.101 709.335 770.793 708.658 771.132L707.258 771.832C706.695 772.114 706.032 772.114 705.469 771.832L704.069 771.132C703.391 770.793 702.963 770.101 702.963 769.343V768.416Z" fill="black"/>
<path d="M580.563 626.079L704.663 629.479M580.563 626.079C576.4 653.015 576.47 675.612 579.573 694.079M580.563 626.079H543.163L548.263 619.279L543.163 615.879L548.263 609.079L543.163 605.679C614.563 600.579 694.463 600.579 760.763 612.479V617.579L767.564 622.679L760.763 629.479L772.664 637.979H764.163C758.059 633.388 743.076 631.672 704.663 629.479M704.663 629.479C708.864 660.174 705.94 685.834 698.648 705.979M579.573 694.079C593.92 779.453 673.099 776.56 698.648 705.979M579.573 694.079C624.763 663.479 665.563 668.579 698.648 705.979M704.069 771.132L705.469 771.832C706.032 772.114 706.695 772.114 707.258 771.832L708.658 771.132C709.335 770.793 709.763 770.101 709.763 769.343V768.416C709.763 767.658 709.335 766.965 708.658 766.627L707.258 765.927C706.695 765.645 706.032 765.645 705.469 765.927L704.069 766.627C703.391 766.965 702.963 767.658 702.963 768.416V769.343C702.963 770.101 703.391 770.793 704.069 771.132Z" stroke="black" stroke-width="0.5"/>
<path d="M468.363 870.88H473.729C476.34 870.88 478.905 871.561 481.171 872.856L483.663 874.28" stroke="black" stroke-linecap="round"/>
<path d="M408.862 959.28C408.862 952.48 432.663 942.28 442.863 928.68C365.285 911.815 329.534 899.97 259.262 861.609V872.58L264.362 879.38V882.78L266.062 884.48C295.287 920.367 318.367 935.437 368.062 955.88C359.972 941.825 356.704 932.818 352.762 915.08C377.017 927.691 389.258 937.453 408.862 959.28Z" fill="#4769A6"/>
<path d="M264.362 879.38L259.262 872.58L131.761 850.771L130.061 850.48C128.059 865.237 127.433 873.793 133.461 879.38L138.561 880.236C184.069 887.865 212.053 892.318 260.962 899.296L264.362 899.78V882.78V879.38Z" fill="#494D59"/>
<path d="M267.762 957.58L260.962 899.296C212.053 892.318 184.069 887.865 138.561 880.236V882.78C141.286 901.987 143.81 918.423 146.557 933.78C152.346 966.152 159.126 993.732 170.862 1032.38L187.862 1018.78L186.162 957.58L201.462 1006.88L267.762 957.58Z" fill="#4769A6"/>
<path d="M133.461 879.38C127.433 873.793 128.059 865.237 130.061 850.48L131.761 850.771C127.498 829.749 126.367 817.79 126.661 796.08H123.261C119.12 794.37 117.47 792.983 116.461 789.279L118.161 767.179L123.261 767.355V715.263C120.405 709.231 117.656 702.719 115.064 695.779C103.82 710.801 98.4878 720.869 90.8862 741.679C92.8267 750.514 95.1105 758.547 97.7612 765.479C92.8175 759.651 88.2964 754.097 84.1612 748.725C62.0611 784.18 59.2643 814.873 77.3611 857.28C97.3328 889.586 111.943 906.523 146.557 933.78C143.81 918.423 141.286 901.987 138.561 882.78V880.236L133.461 879.38Z" fill="#4769A6"/>
<path d="M215.062 796.08C215.105 785.843 215.431 780.238 216.762 770.579L123.261 767.355L118.161 767.179L116.461 789.279C117.47 792.983 119.12 794.37 123.261 796.08H126.661H215.062Z" fill="#494D59"/>
<path d="M131.761 850.771L259.262 872.58V861.609V860.68C244.091 850.911 235.462 843.68 218.462 823.28C215.741 813.427 215.12 807.403 215.062 796.08H126.661C126.367 817.79 127.498 829.749 131.761 850.771Z" fill="#4769A6"/>
<path d="M182.762 741.679L148.761 753.579C140.159 745.368 131.286 732.209 123.261 715.263V767.355L216.762 770.579L221.862 731.479L201.462 736.579C179.879 690.066 170.82 661.178 158.961 605.679C160.522 656.519 165.148 686.125 182.762 741.679Z" fill="#4769A6"/>
<path d="M376.425 624.379C377.763 617.002 379.116 609.636 380.506 602.279C351.039 599.916 289.642 600.094 281.961 602.279L281.034 624.379H328.962H376.425Z" fill="#212534"/>
<path d="M215.062 629.479L225.262 620.979L218.462 617.579L223.562 614.179L216.762 610.779L218.462 607.379L267.762 603.979L264.362 627.779L215.062 629.479Z" fill="#212534"/>
<path d="M686.504 600.579H620.016C624.711 609.261 629.761 618.2 635.293 627.658L699.75 629.479C694.935 619.372 690.535 609.783 686.504 600.579Z" fill="#212534"/>
<path d="M584.185 627.658H590.241C588.048 619.037 586.036 610.777 584.185 602.783L563.563 604.124C569.899 611.914 576.757 619.741 584.185 627.658Z" fill="#212534"/>
<path d="M760.764 610.779H735.479C744.167 619.609 753.601 628.342 764.164 637.362L767.564 632.879L764.164 627.658L767.564 622.679L764.164 619.279L759.064 614.179L760.764 610.779Z" fill="#212534"/>
<path fill-rule="evenodd" clip-rule="evenodd" d="M665.564 986.48C664.493 973.491 664.344 961.919 666.421 950.78C732.202 934.19 765.241 909.585 812.224 850.494C808.196 886.229 796.868 905.837 772.664 933.78C850.864 921.88 929.065 857.28 942.665 767.179C947.765 831.78 939.72 866.962 905.265 925.28C939.265 918.48 1024.27 867.48 1037.87 818.18C1040.84 802.246 1040.58 793.313 1037.87 777.379C1025.97 748.479 992.74 715.712 968.165 674.653V483.278C957.844 407.625 939.141 369.856 889.964 308.178C834.118 244.515 793.096 216.796 699.564 184.077C646.111 168.776 616.336 165.15 563.563 167.077C515.808 156.423 487.22 156.193 432.663 167.077C325.613 195.976 271.313 221.345 184.462 282.677C116.137 345.628 88.3195 387.368 56.961 473.078C40.8099 535.89 37.4429 570.878 41.661 632.879C45.443 683.188 55.5878 711.608 84.1612 748.725C88.2964 754.097 92.8175 759.651 97.7612 765.479C95.1105 758.547 92.8267 750.514 90.8862 741.679C76.6479 676.857 80.8962 568.893 94.3612 535.978L100.397 508.75C101.682 501.984 103.182 495.188 104.912 488.378L100.397 508.75C86.866 579.998 97.2297 648.018 115.064 695.779C117.656 702.719 120.405 709.231 123.261 715.263C131.286 732.209 140.159 745.368 148.761 753.579L182.762 741.679C165.148 686.125 160.522 656.519 158.961 605.679C170.82 661.178 179.879 690.066 201.462 736.579L221.862 731.479L259.262 721.279C258.255 647.745 269.782 583.163 290.66 517.278C286.242 550.051 283.419 576.683 281.961 602.279C289.642 600.094 351.039 599.916 380.506 602.279C396.852 515.749 418.375 430.136 481.963 335.378L482.994 331.57C489.123 452.519 500.369 526.432 563.563 604.124L584.185 602.783C572.883 553.976 567.554 515.083 563.251 464.578C562.253 452.867 561.31 440.531 560.361 427.303C596.666 427.982 620.311 428.963 641.406 431.531C644.07 452.899 647.003 471.969 650.676 490.078C681.587 544.382 703.463 578.236 735.479 610.779H760.764L759.064 614.179L764.164 619.279L767.564 622.679L764.164 627.658L767.564 632.879L764.164 637.362C766.38 639.254 768.645 641.158 770.964 643.079C762.464 712.779 750.406 776.411 711.464 857.28C748.752 816.734 774.651 781.162 790.641 733.179C793.064 746.779 774.364 802.88 753.964 838.58C770.727 834.281 784.024 829.95 796.464 825.143C815.701 817.709 832.887 809.136 857.664 797.78C873.923 745.398 880.808 714.809 886.565 656.679C903.18 664.876 909.037 672.405 913.765 690.679C915.465 726.379 917.082 738.152 908.665 763.779C890.51 795.521 876.076 809.434 845.764 830.08C814.357 834.791 794.326 828.312 795.685 825.702C728.281 874.002 685.068 895.079 599.263 921.88C614.701 936.356 620.878 947.947 626.463 969.48L665.564 986.48ZM225.262 620.979L215.062 629.479L264.362 627.779L267.762 603.979L218.462 607.379L216.762 610.779L223.562 614.179L218.462 617.579L225.262 620.979Z" fill="#4769A6"/>
<path d="M563.251 464.578C583.221 523.361 597.553 559.042 620.016 600.579H686.504C668.795 560.146 658.189 527.124 650.676 490.078C647.003 471.969 644.07 452.899 641.406 431.531C620.311 428.963 596.666 427.982 560.361 427.303C561.31 440.531 562.253 452.867 563.251 464.578Z" fill="#4769A6"/>
<path d="M283.062 714.479L362.962 697.479C367.823 672.83 372.045 648.536 376.425 624.379H328.962H281.034C280.296 651.77 281.067 679.676 283.062 714.479Z" fill="#4769A6"/>
<path d="M638.363 632.879C644.702 637.658 658.667 639.205 704.664 639.679C702.979 636.219 701.342 632.821 699.75 629.479L635.293 627.658C636.3 629.381 637.324 631.12 638.363 632.879Z" fill="#4769A6"/>
<path d="M592.463 636.279C591.702 633.364 590.962 630.492 590.241 627.658H584.185C586.869 630.519 589.628 633.392 592.463 636.279Z" fill="#4769A6"/>
<path d="M689.364 906.58C675.81 922.07 669.168 936.045 666.421 950.78M666.421 950.78C664.344 961.919 664.493 973.491 665.564 986.48L626.463 969.48C620.878 947.947 614.701 936.356 599.263 921.88M666.421 950.78C732.202 934.19 765.241 909.585 812.224 850.494M812.235 850.48C812.231 850.485 812.228 850.489 812.224 850.494M813.464 835.18C813.173 840.614 812.764 845.699 812.224 850.494M937.565 544.479C941.753 601.719 946.212 634.161 968.165 674.653M968.165 674.653V483.278C957.844 407.625 939.141 369.856 889.964 308.178C834.118 244.515 793.096 216.796 699.564 184.077C646.111 168.776 616.336 165.15 563.563 167.077C515.808 156.423 487.22 156.193 432.663 167.077C325.613 195.976 271.313 221.345 184.462 282.677C116.137 345.628 88.3195 387.368 56.961 473.078C40.8099 535.89 37.4429 570.878 41.661 632.879C45.443 683.188 55.5878 711.608 84.1612 748.725M968.165 674.653C992.74 715.712 1025.97 748.479 1037.87 777.379C1040.58 793.313 1040.84 802.246 1037.87 818.18C1024.26 867.48 939.265 918.48 905.265 925.28C939.72 866.962 947.765 831.78 942.665 767.179C929.065 857.28 850.864 921.88 772.664 933.78C796.868 905.837 808.196 886.229 812.224 850.494M113.061 461.178C109.917 470.248 107.212 479.326 104.912 488.378M104.912 488.378C103.182 495.188 101.682 501.984 100.397 508.75M104.912 488.378L100.397 508.75M158.961 605.679C160.522 656.519 165.148 686.125 182.762 741.679L148.761 753.579C140.159 745.368 131.286 732.209 123.261 715.263M158.961 605.679C170.82 661.178 179.879 690.066 201.462 736.579L221.862 731.479M158.961 605.679C155.886 455.519 187.862 371.078 277.962 274.177M221.862 731.479L259.262 721.279C258.255 647.745 269.782 583.163 290.66 517.278M221.862 731.479L216.762 770.579M345.962 376.178C323.796 426.051 305.017 471.973 290.66 517.278M290.66 517.278C286.242 550.051 283.419 576.683 281.961 602.279M481.963 335.378L482.994 331.57M481.963 335.378C412.968 438.193 393.495 530.244 376.425 624.379M481.963 335.378C418.375 430.136 396.852 515.749 380.506 602.279M481.963 309.878C482.295 317.276 482.636 324.503 482.994 331.57M558.463 399.978C559.11 409.523 559.737 418.606 560.361 427.303M553.363 427.178C555.747 427.219 558.079 427.26 560.361 427.303M667.264 435.678C658.598 433.956 650.225 432.605 641.406 431.531M563.251 464.578C583.221 523.361 597.553 559.042 620.016 600.579M563.251 464.578C567.554 515.083 572.883 553.976 584.185 602.783M563.251 464.578C562.253 452.867 561.31 440.531 560.361 427.303M640.063 420.378C640.505 424.167 640.952 427.883 641.406 431.531M650.676 490.078C658.189 527.124 668.795 560.146 686.504 600.579M650.676 490.078C681.587 544.382 703.463 578.236 735.48 610.779M650.676 490.078C647.003 471.969 644.07 452.899 641.406 431.531M770.964 643.079C768.645 641.158 766.38 639.254 764.164 637.362M770.964 643.079C762.464 712.779 750.406 776.411 711.464 857.28C748.752 816.734 774.651 781.162 790.641 733.179M770.964 643.079C776.064 525.778 779.464 450.978 740.364 330.278M620.016 600.579H686.504M620.016 600.579C624.711 609.261 629.761 618.2 635.293 627.658M686.504 600.579C690.535 609.783 694.935 619.372 699.75 629.479M699.75 629.479C701.342 632.821 702.979 636.219 704.664 639.679C658.667 639.205 644.702 637.658 638.363 632.879C637.324 631.12 636.3 629.381 635.293 627.658M699.75 629.479L635.293 627.658M590.241 627.658C590.962 630.492 591.702 633.364 592.463 636.279C589.628 633.392 586.869 630.519 584.185 627.658M590.241 627.658H584.185M590.241 627.658C588.048 619.037 586.036 610.777 584.185 602.783M584.185 627.658C576.757 619.741 569.899 611.914 563.563 604.124M563.563 604.124L584.185 602.783M563.563 604.124C500.369 526.432 489.123 452.519 482.994 331.57M735.48 610.779H760.764L759.064 614.179L764.164 619.279L767.564 622.679L764.164 627.658L767.564 632.879L764.164 637.362M735.48 610.779C744.167 619.609 753.601 628.342 764.164 637.362M801.564 690.679C798.644 706.011 795.013 720.059 790.641 733.179M790.641 733.179C793.064 746.779 774.364 802.88 753.964 838.58C770.727 834.281 784.024 829.95 796.464 825.143M886.564 656.679C880.808 714.809 873.923 745.398 857.664 797.78C832.887 809.136 815.701 817.709 796.464 825.143M886.564 656.679C903.18 664.876 909.037 672.405 913.765 690.679C915.465 726.379 917.082 738.152 908.665 763.779C890.51 795.521 876.076 809.434 845.764 830.08C814.357 834.791 794.326 828.312 795.685 825.702M886.564 656.679V653.279C894.826 560.238 889.557 508.556 867.864 416.978M442.863 928.68C432.663 942.28 408.863 952.48 408.863 959.28C389.258 937.453 377.017 927.691 352.762 915.08C356.704 932.818 359.972 941.825 368.062 955.88C318.367 935.437 295.287 920.367 266.062 884.48L264.362 882.78M442.863 928.68L490.463 935.48C536.163 935.255 562.971 928.659 599.263 921.88M442.863 928.68C365.285 911.815 329.534 899.97 259.262 861.609M259.262 872.58L264.362 879.38V882.78M259.262 872.58L131.761 850.771M259.262 872.58V861.609M264.362 899.78V882.78M264.362 899.78C263.217 899.617 262.084 899.456 260.962 899.296M264.362 899.78L260.962 899.296M133.461 879.38C127.433 873.793 128.059 865.237 130.061 850.48L131.761 850.771M133.461 879.38C135.186 879.67 136.886 879.955 138.561 880.236M133.461 879.38L138.561 880.236M260.962 899.296L267.762 957.58L201.462 1006.88L186.162 957.58L187.862 1018.78L170.862 1032.38C159.126 993.732 152.346 966.152 146.557 933.78M260.962 899.296C212.053 892.318 184.069 887.865 138.561 880.236M84.1612 748.725C88.2964 754.097 92.8175 759.651 97.7612 765.479C95.1105 758.547 92.8267 750.514 90.8862 741.679M84.1612 748.725C62.0611 784.179 59.2643 814.873 77.3611 857.28C97.3328 889.586 111.943 906.523 146.557 933.78M146.557 933.78C143.81 918.423 141.286 901.987 138.561 882.78V880.236M126.661 796.08C126.367 817.79 127.498 829.749 131.761 850.771M126.661 796.08H123.261M126.661 796.08H215.062M216.762 770.579C215.431 780.238 215.105 785.843 215.062 796.08M216.762 770.579L123.261 767.355M215.062 796.08H123.261M215.062 796.08C215.12 807.403 215.741 813.427 218.462 823.28C235.462 843.68 244.091 850.911 259.262 860.68V861.609M123.261 796.08C119.12 794.37 117.47 792.983 116.461 789.279L118.161 767.179L123.261 767.355M123.261 767.355V715.263M123.261 715.263C120.405 709.231 117.656 702.719 115.064 695.779M277.962 444.178C312.104 434.197 332.844 431.408 373.162 432.278M599.263 921.88C685.068 895.079 728.281 874.002 795.685 825.702M257.562 860.68C258.131 860.991 258.697 861.301 259.262 861.609M90.8862 741.679C76.6479 676.857 80.8962 568.893 94.3612 535.978L100.397 508.75M90.8862 741.679C98.4878 720.869 103.82 710.801 115.064 695.779M115.064 695.779C97.2297 648.018 86.866 579.998 100.397 508.75M796.464 825.143C796.204 825.329 795.944 825.516 795.685 825.702M796.464 825.143C796.055 825.297 795.797 825.486 795.685 825.702M281.034 624.379C280.295 651.77 281.067 679.676 283.062 714.479L362.962 697.479C367.823 672.83 372.045 648.536 376.425 624.379M281.034 624.379C281.232 617.016 281.539 609.691 281.961 602.279M281.034 624.379C281.995 624.379 304.395 624.379 328.962 624.379M281.034 624.379L281.961 602.279M281.034 624.379H328.962M376.425 624.379C363.75 624.379 345.844 624.379 328.962 624.379M376.425 624.379L380.506 602.279M376.425 624.379C377.763 617.002 379.116 609.636 380.506 602.279M376.425 624.379H328.962M281.961 602.279C289.642 600.094 351.039 599.916 380.506 602.279M560.361 427.303C596.666 427.982 620.311 428.963 641.406 431.531M215.062 629.479L225.262 620.979L218.462 617.579L223.562 614.179L216.762 610.779L218.462 607.379L267.762 603.979L264.362 627.779L215.062 629.479Z" stroke="black" stroke-width="0.4"/>
<path d="M422.502 988.603L373.201 1058.3L403.244 975.003C324.819 1018.14 220.201 1071.9 211.701 1080.4H476.902C473.626 1073.12 470.506 1066.93 467.458 1061.7C456.272 1042.5 446.062 1036.2 432.702 1036.2L422.502 988.603Z" fill="#2F333C"/>
<path d="M582.302 924.003C610.304 947.482 608.974 961.513 570.402 980.477C564.055 983.598 556.701 986.852 548.302 990.303C539.802 998.803 543.202 1032.8 533.002 1032.8L497.302 1039.6L483.702 1080.4H641.802C641.802 1041.67 637.935 999.077 627.423 966.503C620.863 946.174 611.714 929.749 599.302 920.603C593.122 922.97 589.324 923.541 582.302 924.003Z" fill="#2F333C"/>
<path d="M444.602 929.103L410.601 954.603L403.244 975.003L373.201 1058.3L422.502 988.603L432.702 1036.2C446.062 1036.2 456.272 1042.5 467.458 1061.7C458.091 1038.14 450.915 1018.63 446.76 1002.2C438.419 969.217 442.259 948.635 465.002 932.503C455.114 931.394 450.421 930.674 444.602 929.103Z" fill="#2F333C"/>
<path d="M465.002 932.503C442.259 948.635 438.419 969.217 446.76 1002.2C465.824 995.874 467.458 983.503 465.002 932.503Z" fill="#212227"/>
<path d="M570.402 980.477C608.974 961.513 610.304 947.482 582.302 924.003C574.679 926.883 571.177 927.8 565.302 929.103C564.536 962.513 564.805 977.863 570.402 980.477Z" fill="#212227"/>
<path d="M533.002 1032.8C543.202 1032.8 539.802 998.803 548.302 990.303C556.701 986.852 564.055 983.598 570.402 980.477C564.805 977.863 564.536 962.513 565.302 929.103C520.803 935.376 497.868 937.026 465.002 932.503C467.458 983.503 465.824 995.874 446.76 1002.2C450.915 1018.63 458.091 1038.14 467.458 1061.7C470.506 1066.93 473.626 1073.12 476.902 1080.4H483.702L497.302 1039.6L533.002 1032.8Z" fill="#F9E7DD"/>
<path d="M627.423 966.503C637.935 999.077 641.802 1041.67 641.802 1080.4H816.903C759.698 1033.37 715.521 1008.84 627.423 966.503Z" fill="#2F333C"/>
<path d="M476.902 1080.4H483.702M476.902 1080.4H211.701M476.902 1080.4C473.626 1073.12 470.506 1066.93 467.458 1061.7M403.244 975.003L410.601 954.603L444.602 929.103C450.421 930.674 455.114 931.394 465.002 932.503M403.244 975.003L373.201 1058.3L422.502 988.603L432.702 1036.2C446.062 1036.2 456.272 1042.5 467.458 1061.7M403.244 975.003C324.819 1018.14 220.201 1071.9 211.701 1080.4M211.701 1080.4H816.903M582.302 924.003C589.324 923.541 593.122 922.97 599.302 920.603C611.714 929.749 620.863 946.174 627.423 966.503M582.302 924.003C610.304 947.482 608.974 961.513 570.402 980.477M582.302 924.003C574.679 926.883 571.177 927.8 565.302 929.103M483.702 1080.4L497.302 1039.6L533.002 1032.8C543.202 1032.8 539.802 998.803 548.302 990.303C556.701 986.852 564.055 983.598 570.402 980.477M483.702 1080.4H641.802M558.502 995.403C589.102 980.103 592.502 1032.8 641.802 1080.4M641.802 1080.4C641.802 1041.67 637.935 999.077 627.423 966.503M641.802 1080.4H816.903M627.423 966.503C715.521 1008.84 759.698 1033.37 816.903 1080.4M465.002 932.503C442.259 948.635 438.419 969.217 446.76 1002.2M465.002 932.503C467.458 983.503 465.824 995.874 446.76 1002.2M465.002 932.503C497.868 937.026 520.803 935.376 565.302 929.103M467.458 1061.7C458.091 1038.14 450.915 1018.63 446.76 1002.2M565.302 929.103C564.536 962.513 564.805 977.863 570.402 980.477" stroke="black" stroke-width="0.3"/>
<path d="M458.202 997.103C489.074 1019.98 507.809 1019.17 543.202 998.803C549.507 988.069 557.219 984.895 568.702 980.103C564.956 964.597 562.148 951.51 565.302 929.103C518.918 934.256 495.11 937.276 465.002 930.803C465.002 969.903 468.402 986.903 458.202 997.103Z" fill="#E7B7A3" fill-opacity="0.41" stroke="#E7B7A3" stroke-width="0.1"/>
</g>
<defs>
<linearGradient id="paint0_linear_301_2" x1="344.262" y1="597.179" x2="349.362" y2="898.08" gradientUnits="userSpaceOnUse">
<stop/>
<stop offset="0.966272" stop-color="#DED659"/>
</linearGradient>
<linearGradient id="paint1_linear_301_2" x1="305.011" y1="599.262" x2="307.575" y2="777.271" gradientUnits="userSpaceOnUse">
<stop stop-color="#262624"/>
</linearGradient>
<linearGradient id="paint2_linear_301_2" x1="657.913" y1="602.442" x2="629.042" y2="847.393" gradientUnits="userSpaceOnUse">
<stop/>
<stop offset="1" stop-color="#DED659"/>
</linearGradient>
<clipPath id="clip0_301_2">
<rect width="1080" height="1080" fill="white"/>
</clipPath>
</defs>
</svg>
