<svg width="1080" height="1080" viewBox="0 0 1080 1080" fill="none" xmlns="http://www.w3.org/2000/svg">
<g clip-path="url(#clip0_303_20)">
<rect width="1080" height="1080" fill="black"/>
<path d="M43.984 88V54.4H58.528C61.536 54.4 64.128 54.896 66.304 55.888C68.48 56.848 70.16 58.24 71.344 60.064C72.528 61.888 73.12 64.064 73.12 66.592C73.12 69.088 72.528 71.248 71.344 73.072C70.16 74.864 68.48 76.24 66.304 77.2C64.128 78.16 61.536 78.64 58.528 78.64H48.304L51.76 75.232V88H43.984ZM65.344 88L56.944 75.808H65.248L73.744 88H65.344ZM51.76 76.096L48.304 72.448H58.096C60.496 72.448 62.288 71.936 63.472 70.912C64.656 69.856 65.248 68.416 65.248 66.592C65.248 64.736 64.656 63.296 63.472 62.272C62.288 61.248 60.496 60.736 58.096 60.736H48.304L51.76 57.04V76.096ZM87.1641 88V74.272L88.9401 78.976L74.1561 54.4H82.4121L93.7401 73.264H88.9881L100.364 54.4H107.996L93.2121 78.976L94.9401 74.272V88H87.1641ZM60.304 147.576C57.648 147.576 55.184 147.144 52.912 146.28C50.672 145.416 48.72 144.2 47.056 142.632C45.424 141.064 44.144 139.224 43.216 137.112C42.32 135 41.872 132.696 41.872 130.2C41.872 127.704 42.32 125.4 43.216 123.288C44.144 121.176 45.44 119.336 47.104 117.768C48.768 116.2 50.72 114.984 52.96 114.12C55.2 113.256 57.632 112.824 60.256 112.824C62.912 112.824 65.344 113.256 67.552 114.12C69.792 114.984 71.728 116.2 73.36 117.768C75.024 119.336 76.32 121.176 77.248 123.288C78.176 125.368 78.64 127.672 78.64 130.2C78.64 132.696 78.176 135.016 77.248 137.16C76.32 139.272 75.024 141.112 73.36 142.68C71.728 144.216 69.792 145.416 67.552 146.28C65.344 147.144 62.928 147.576 60.304 147.576ZM60.256 140.952C61.76 140.952 63.136 140.696 64.384 140.184C65.664 139.672 66.784 138.936 67.744 137.976C68.704 137.016 69.44 135.88 69.952 134.568C70.496 133.256 70.768 131.8 70.768 130.2C70.768 128.6 70.496 127.144 69.952 125.832C69.44 124.52 68.704 123.384 67.744 122.424C66.816 121.464 65.712 120.728 64.432 120.216C63.152 119.704 61.76 119.448 60.256 119.448C58.752 119.448 57.36 119.704 56.08 120.216C54.832 120.728 53.728 121.464 52.768 122.424C51.808 123.384 51.056 124.52 50.512 125.832C50 127.144 49.744 128.6 49.744 130.2C49.744 131.768 50 133.224 50.512 134.568C51.056 135.88 51.792 137.016 52.72 137.976C53.68 138.936 54.8 139.672 56.08 140.184C57.36 140.696 58.752 140.952 60.256 140.952ZM99.412 147.576C94.644 147.576 90.916 146.248 88.228 143.592C85.54 140.936 84.196 137.144 84.196 132.216V113.4H91.972V131.928C91.972 135.128 92.628 137.432 93.94 138.84C95.252 140.248 97.092 140.952 99.46 140.952C101.828 140.952 103.668 140.248 104.98 138.84C106.292 137.432 106.948 135.128 106.948 131.928V113.4H114.628V132.216C114.628 137.144 113.284 140.936 110.596 143.592C107.908 146.248 104.18 147.576 99.412 147.576Z" fill="#2F333C"/>
<path fill-rule="evenodd" clip-rule="evenodd" d="M824.364 813.08C835.564 826.68 849.164 824.98 847.464 802.466L824.364 813.08Z" fill="#84894C"/>
<path d="M886.564 656.679C880.712 708.434 877.099 735.9 857.664 797.78L847.464 802.466C849.164 824.98 835.564 826.68 824.364 813.08L794.764 826.68C809.706 832.959 821.81 832.771 845.764 830.08C860.433 820.845 867.525 815.267 878.064 804.58C891.73 792.198 898.24 782.871 908.665 763.779C915.031 747.483 915.827 730.159 913.765 688.979C908.925 672.096 903.518 664.618 886.564 656.679Z" fill="#FAEADD"/>
<path d="M221.862 731.479C212.084 798.568 212.365 818.55 221.862 826.68C251.865 863.84 285.456 881.041 361.262 908.28C411.975 922.526 440.294 928.913 490.463 935.48C551.479 934.387 590.653 926.605 670.664 898.08C719.999 875.862 747.221 860.554 794.764 826.68L753.964 838.58C770.504 812.627 794.217 742.499 791.364 733.179C767.544 789.995 750.084 817.211 711.464 857.28C740.611 800.71 754.73 757.196 770.964 643.079C708.317 591.093 686.908 555.363 651.964 490.078C662.97 550.042 676.031 582.552 704.664 639.679C664.135 640.054 648.496 638.798 638.364 632.879C600.326 568.332 585.726 530.739 563.563 462.878C569.684 533.533 575.99 571.504 592.463 636.279C500.663 542.779 493.863 469.678 481.963 335.378C405.463 454.378 391.862 541.079 362.962 697.479L283.062 714.479C277.27 637.477 281.635 594.297 291.562 517.278C265.841 594.487 261.331 639.634 259.262 721.279L221.862 731.479Z" fill="#F9E9DC"/>
<path d="M794.764 826.68C747.221 860.554 719.999 875.862 670.664 898.08C590.653 926.605 551.479 934.387 490.463 935.48C440.294 928.913 411.975 922.526 361.262 908.28C285.456 881.041 251.865 863.84 221.862 826.68C212.365 818.55 212.084 798.568 221.862 731.479L259.262 721.279C261.331 639.634 265.841 594.487 291.562 517.278C281.635 594.297 277.27 637.477 283.062 714.479L362.962 697.479C391.862 541.079 405.463 454.378 481.963 335.378C493.863 469.678 500.663 542.779 592.463 636.279C575.99 571.504 569.684 533.533 563.563 462.878C585.726 530.739 600.326 568.332 638.364 632.879C648.496 638.798 664.135 640.054 704.664 639.679C676.031 582.552 662.97 550.042 651.964 490.078C686.908 555.363 708.317 591.093 770.964 643.079C754.73 757.196 740.611 800.71 711.464 857.28C750.084 817.211 767.544 789.995 791.364 733.179C794.217 742.499 770.504 812.627 753.964 838.58L794.764 826.68ZM794.764 826.68C809.706 832.959 821.81 832.771 845.764 830.08C860.433 820.845 867.525 815.267 878.064 804.58C891.73 792.198 898.24 782.871 908.665 763.779C915.031 747.483 915.827 730.159 913.765 688.979C908.925 672.096 903.518 664.618 886.564 656.679C880.712 708.434 877.099 735.9 857.664 797.78L847.464 802.466M794.764 826.68L824.364 813.08M824.364 813.08C835.564 826.68 849.164 824.98 847.464 802.466M824.364 813.08L847.464 802.466" stroke="black" stroke-width="0.4"/>
<path d="M378.262 626.079H266.062C260.047 659.001 260.87 686.206 266.062 707.462L283.062 695.779V711.079L376.584 695.779C380.277 676.714 381.229 653.517 378.262 626.079Z" fill="url(#paint0_linear_303_20)"/>
<path d="M283.062 695.779L266.062 707.462C284.696 783.758 359.607 783.417 376.584 695.779L283.062 711.079V695.779Z" fill="#DED659"/>
<path d="M266.062 626.079H378.262L396.962 624.379L395.262 619.279L400.362 617.579L396.962 612.479L402.062 607.379L396.962 603.979L386.762 602.279H352.762H274.562L233.762 607.379L220.162 609.079L221.862 614.179L216.762 617.579L221.862 619.279L215.062 627.779L266.062 626.079Z" fill="url(#paint1_linear_303_20)"/>
<path d="M378.262 626.079H266.062M378.262 626.079C381.229 653.517 380.277 676.714 376.584 695.779M378.262 626.079L396.962 624.379L395.262 619.279L400.362 617.579L396.962 612.479L402.062 607.379L396.962 603.979L386.762 602.279H352.762H274.562L233.762 607.379L220.162 609.079L221.862 614.179L216.762 617.579L221.862 619.279L215.062 627.779L266.062 626.079M266.062 626.079C260.047 659.001 260.87 686.206 266.062 707.462M266.062 707.462L283.062 695.779V711.079L376.584 695.779M266.062 707.462C284.696 783.758 359.607 783.417 376.584 695.779" stroke="black" stroke-width="0.5"/>
<path d="M579.573 694.079C593.92 779.453 673.099 776.56 698.648 705.979C665.563 668.579 624.763 663.479 579.573 694.079Z" fill="#DED659"/>
<path d="M704.663 629.479L580.563 626.079C576.4 653.015 576.47 675.612 579.573 694.079C624.763 663.479 665.563 668.579 698.648 705.979C705.94 685.834 708.864 660.174 704.663 629.479Z" fill="url(#paint2_linear_303_20)"/>
<path d="M580.563 626.079L704.663 629.479C743.076 631.672 758.059 633.388 764.163 637.979H772.664L760.763 629.479L767.564 622.679L760.763 617.579V612.479C694.463 600.579 614.563 600.579 543.163 605.679L548.263 609.079L543.163 615.879L548.263 619.279L543.163 626.079H580.563Z" fill="#262624"/>
<path d="M702.963 768.416C702.963 767.658 703.391 766.965 704.069 766.627L705.469 765.927C706.032 765.645 706.695 765.645 707.258 765.927L708.658 766.627C709.335 766.965 709.763 767.658 709.763 768.416V769.343C709.763 770.101 709.335 770.793 708.658 771.132L707.258 771.832C706.695 772.114 706.032 772.114 705.469 771.832L704.069 771.132C703.391 770.793 702.963 770.101 702.963 769.343V768.416Z" fill="black"/>
<path d="M580.563 626.079L704.663 629.479M580.563 626.079C576.4 653.015 576.47 675.612 579.573 694.079M580.563 626.079H543.163L548.263 619.279L543.163 615.879L548.263 609.079L543.163 605.679C614.563 600.579 694.463 600.579 760.763 612.479V617.579L767.564 622.679L760.763 629.479L772.664 637.979H764.163C758.059 633.388 743.076 631.672 704.663 629.479M704.663 629.479C708.864 660.174 705.94 685.834 698.648 705.979M579.573 694.079C593.92 779.453 673.099 776.56 698.648 705.979M579.573 694.079C624.763 663.479 665.563 668.579 698.648 705.979M704.069 771.132L705.469 771.832C706.032 772.114 706.695 772.114 707.258 771.832L708.658 771.132C709.335 770.793 709.763 770.101 709.763 769.343V768.416C709.763 767.658 709.335 766.965 708.658 766.627L707.258 765.927C706.695 765.645 706.032 765.645 705.469 765.927L704.069 766.627C703.391 766.965 702.963 767.658 702.963 768.416V769.343C702.963 770.101 703.391 770.793 704.069 771.132Z" stroke="black" stroke-width="0.5"/>
<path d="M468.363 870.88H473.729C476.34 870.88 478.905 871.561 481.171 872.856L483.663 874.28" stroke="black" stroke-linecap="round"/>
<path d="M408.863 959.28C408.863 952.48 432.663 942.28 442.863 928.68C365.285 911.815 329.534 899.97 259.262 861.609V872.58L264.362 879.38V882.78L266.062 884.48C295.287 920.367 318.367 935.437 368.062 955.88C359.972 941.825 356.704 932.818 352.762 915.08C377.017 927.691 389.258 937.453 408.863 959.28Z" fill="#4769A6"/>
<path d="M264.362 879.38L259.262 872.58L131.761 850.771L130.061 850.48C128.059 865.237 127.433 873.793 133.461 879.38L138.561 880.236C184.069 887.865 212.053 892.318 260.962 899.296L264.362 899.78V882.78V879.38Z" fill="#494D59"/>
<path d="M267.762 957.58L260.962 899.296C212.053 892.318 184.069 887.865 138.561 880.236V882.78C141.286 901.987 143.81 918.423 146.557 933.78C152.346 966.152 159.126 993.732 170.862 1032.38L187.862 1018.78L186.162 957.58L201.462 1006.88L267.762 957.58Z" fill="#4769A6"/>
<path d="M133.461 879.38C127.433 873.793 128.059 865.237 130.061 850.48L131.761 850.771C127.498 829.749 126.367 817.79 126.661 796.08H123.261C119.12 794.37 117.47 792.983 116.461 789.279L118.161 767.179L123.261 767.355V715.263C120.405 709.231 117.656 702.719 115.064 695.779C103.82 710.801 98.4878 720.869 90.8862 741.679C92.8267 750.514 95.1105 758.547 97.7612 765.479C92.8175 759.651 88.2964 754.097 84.1612 748.725C62.0611 784.179 59.2643 814.873 77.3611 857.28C97.3328 889.586 111.943 906.523 146.557 933.78C143.81 918.423 141.286 901.987 138.561 882.78V880.236L133.461 879.38Z" fill="#4769A6"/>
<path d="M215.062 796.08C215.105 785.843 215.431 780.238 216.762 770.579L123.261 767.355L118.161 767.179L116.461 789.279C117.47 792.983 119.12 794.37 123.261 796.08H126.661H215.062Z" fill="#494D59"/>
<path d="M131.761 850.771L259.262 872.58V861.609V860.68C244.091 850.911 235.462 843.68 218.462 823.28C215.741 813.427 215.12 807.403 215.062 796.08H126.661C126.367 817.79 127.498 829.749 131.761 850.771Z" fill="#4769A6"/>
<path d="M182.762 741.679L148.761 753.579C140.159 745.368 131.286 732.209 123.261 715.263V767.355L216.762 770.579L221.862 731.479L201.462 736.579C179.879 690.066 170.82 661.178 158.961 605.679C160.522 656.519 165.148 686.125 182.762 741.679Z" fill="#4769A6"/>
<path d="M376.425 624.379C377.763 617.002 379.116 609.636 380.506 602.279C351.039 599.916 289.642 600.094 281.961 602.279L281.034 624.379H328.962H376.425Z" fill="#212534"/>
<path d="M215.062 629.479L225.262 620.979L218.462 617.579L223.562 614.179L216.762 610.779L218.462 607.379L267.762 603.979L264.362 627.779L215.062 629.479Z" fill="#212534"/>
<path d="M686.504 600.579H620.016C624.711 609.261 629.761 618.2 635.293 627.658L699.75 629.479C694.935 619.372 690.535 609.783 686.504 600.579Z" fill="#212534"/>
<path d="M584.185 627.658H590.241C588.048 619.037 586.036 610.777 584.185 602.783L563.563 604.124C569.899 611.914 576.757 619.741 584.185 627.658Z" fill="#212534"/>
<path d="M760.764 610.779H735.48C744.167 619.609 753.601 628.342 764.164 637.362L767.564 632.879L764.164 627.658L767.564 622.679L764.164 619.279L759.064 614.179L760.764 610.779Z" fill="#212534"/>
<path fill-rule="evenodd" clip-rule="evenodd" d="M665.564 986.48C664.493 973.491 664.344 961.919 666.421 950.78C732.202 934.19 765.241 909.585 812.224 850.494C808.196 886.229 796.868 905.837 772.664 933.78C850.864 921.88 929.065 857.28 942.665 767.179C947.765 831.78 939.72 866.962 905.265 925.28C939.265 918.48 1024.26 867.48 1037.87 818.18C1040.84 802.246 1040.58 793.313 1037.87 777.379C1025.97 748.479 992.74 715.712 968.165 674.653V483.278C957.844 407.625 939.141 369.856 889.964 308.178C834.118 244.515 793.096 216.796 699.564 184.077C646.111 168.776 616.336 165.15 563.563 167.077C515.808 156.423 487.22 156.193 432.663 167.077C325.613 195.976 271.313 221.345 184.462 282.677C116.137 345.628 88.3195 387.368 56.961 473.078C40.8099 535.89 37.4429 570.878 41.661 632.879C45.443 683.188 55.5878 711.608 84.1612 748.725C88.2964 754.097 92.8175 759.651 97.7612 765.479C95.1105 758.547 92.8267 750.514 90.8862 741.679C76.6479 676.857 80.8962 568.893 94.3612 535.978L100.397 508.75C101.682 501.984 103.182 495.188 104.912 488.378L100.397 508.75C86.866 579.998 97.2297 648.018 115.064 695.779C117.656 702.719 120.405 709.231 123.261 715.263C131.286 732.209 140.159 745.368 148.761 753.579L182.762 741.679C165.148 686.125 160.522 656.519 158.961 605.679C170.82 661.178 179.879 690.066 201.462 736.579L221.862 731.479L259.262 721.279C258.255 647.745 269.782 583.163 290.66 517.278C286.242 550.051 283.419 576.683 281.961 602.279C289.642 600.094 351.039 599.916 380.506 602.279C396.852 515.749 418.375 430.136 481.963 335.378L482.994 331.57C489.123 452.519 500.369 526.432 563.563 604.124L584.185 602.783C572.883 553.976 567.554 515.083 563.251 464.578C562.253 452.867 561.31 440.531 560.361 427.303C596.666 427.982 620.311 428.963 641.406 431.531C644.07 452.899 647.003 471.969 650.676 490.078C681.587 544.382 703.463 578.236 735.48 610.779H760.764L759.064 614.179L764.164 619.279L767.564 622.679L764.164 627.658L767.564 632.879L764.164 637.362C766.38 639.254 768.645 641.158 770.964 643.079C762.464 712.779 750.406 776.411 711.464 857.28C748.752 816.734 774.651 781.162 790.641 733.179C793.064 746.779 774.364 802.88 753.964 838.58C770.727 834.281 784.024 829.95 796.464 825.143C815.701 817.709 832.887 809.136 857.664 797.78C873.923 745.398 880.808 714.809 886.564 656.679C903.18 664.876 909.037 672.405 913.765 690.679C915.465 726.379 917.082 738.152 908.665 763.779C890.51 795.521 876.076 809.434 845.764 830.08C814.357 834.791 794.326 828.312 795.685 825.702C728.281 874.002 685.068 895.079 599.263 921.88C614.701 936.356 620.878 947.947 626.463 969.48L665.564 986.48ZM225.262 620.979L215.062 629.479L264.362 627.779L267.762 603.979L218.462 607.379L216.762 610.779L223.562 614.179L218.462 617.579L225.262 620.979Z" fill="#4769A6"/>
<path d="M563.251 464.578C583.221 523.361 597.553 559.042 620.016 600.579H686.504C668.795 560.146 658.189 527.124 650.676 490.078C647.003 471.969 644.07 452.899 641.406 431.531C620.311 428.963 596.666 427.982 560.361 427.303C561.31 440.531 562.253 452.867 563.251 464.578Z" fill="#4769A6"/>
<path d="M283.062 714.479L362.962 697.479C367.823 672.83 372.045 648.536 376.425 624.379H328.962H281.034C280.295 651.77 281.067 679.676 283.062 714.479Z" fill="#4769A6"/>
<path d="M638.363 632.879C644.702 637.658 658.667 639.205 704.664 639.679C702.979 636.219 701.342 632.821 699.75 629.479L635.293 627.658C636.3 629.381 637.324 631.12 638.363 632.879Z" fill="#4769A6"/>
<path d="M592.463 636.279C591.702 633.364 590.962 630.492 590.241 627.658H584.185C586.869 630.519 589.628 633.392 592.463 636.279Z" fill="#4769A6"/>
<path d="M689.364 906.58C675.81 922.07 669.168 936.045 666.421 950.78M666.421 950.78C664.344 961.919 664.493 973.491 665.564 986.48L626.463 969.48C620.878 947.947 614.701 936.356 599.263 921.88M666.421 950.78C732.202 934.19 765.241 909.585 812.224 850.494M812.235 850.48C812.231 850.485 812.228 850.489 812.224 850.494M813.464 835.18C813.173 840.614 812.764 845.699 812.224 850.494M937.565 544.479C941.753 601.719 946.212 634.161 968.165 674.653M968.165 674.653V483.278C957.844 407.625 939.141 369.856 889.964 308.178C834.118 244.515 793.096 216.796 699.564 184.077C646.111 168.776 616.336 165.15 563.563 167.077C515.808 156.423 487.22 156.193 432.663 167.077C325.613 195.976 271.313 221.345 184.462 282.677C116.137 345.628 88.3195 387.368 56.961 473.078C40.8099 535.89 37.4429 570.878 41.661 632.879C45.443 683.188 55.5878 711.608 84.1612 748.725M968.165 674.653C992.74 715.712 1025.97 748.479 1037.87 777.379C1040.58 793.313 1040.84 802.246 1037.87 818.18C1024.26 867.48 939.265 918.48 905.265 925.28C939.72 866.962 947.765 831.78 942.665 767.179C929.065 857.28 850.864 921.88 772.664 933.78C796.868 905.837 808.196 886.229 812.224 850.494M113.061 461.178C109.917 470.248 107.212 479.326 104.912 488.378M104.912 488.378C103.182 495.188 101.682 501.984 100.397 508.75M104.912 488.378L100.397 508.75M158.961 605.679C160.522 656.519 165.148 686.125 182.762 741.679L148.761 753.579C140.159 745.368 131.286 732.209 123.261 715.263M158.961 605.679C170.82 661.178 179.879 690.066 201.462 736.579L221.862 731.479M158.961 605.679C155.886 455.519 187.862 371.078 277.962 274.177M221.862 731.479L259.262 721.279C258.255 647.745 269.782 583.163 290.66 517.278M221.862 731.479L216.762 770.579M345.962 376.178C323.796 426.051 305.017 471.973 290.66 517.278M290.66 517.278C286.242 550.051 283.419 576.683 281.961 602.279M481.963 335.378L482.994 331.57M481.963 335.378C412.968 438.193 393.495 530.244 376.425 624.379M481.963 335.378C418.375 430.136 396.852 515.749 380.506 602.279M481.963 309.878C482.295 317.276 482.636 324.503 482.994 331.57M558.463 399.978C559.11 409.523 559.737 418.606 560.361 427.303M553.363 427.178C555.747 427.219 558.079 427.26 560.361 427.303M667.264 435.678C658.598 433.956 650.225 432.605 641.406 431.531M563.251 464.578C583.221 523.361 597.553 559.042 620.016 600.579M563.251 464.578C567.554 515.083 572.883 553.976 584.185 602.783M563.251 464.578C562.253 452.867 561.31 440.531 560.361 427.303M640.063 420.378C640.505 424.167 640.952 427.883 641.406 431.531M650.676 490.078C658.189 527.124 668.795 560.146 686.504 600.579M650.676 490.078C681.587 544.382 703.463 578.236 735.48 610.779M650.676 490.078C647.003 471.969 644.07 452.899 641.406 431.531M770.964 643.079C768.645 641.158 766.38 639.254 764.164 637.362M770.964 643.079C762.464 712.779 750.406 776.411 711.464 857.28C748.752 816.734 774.651 781.162 790.641 733.179M770.964 643.079C776.064 525.778 779.464 450.978 740.364 330.278M620.016 600.579H686.504M620.016 600.579C624.711 609.261 629.761 618.2 635.293 627.658M686.504 600.579C690.535 609.783 694.935 619.372 699.75 629.479M699.75 629.479C701.342 632.821 702.979 636.219 704.664 639.679C658.667 639.205 644.702 637.658 638.363 632.879C637.324 631.12 636.3 629.381 635.293 627.658M699.75 629.479L635.293 627.658M590.241 627.658C590.962 630.492 591.702 633.364 592.463 636.279C589.628 633.392 586.869 630.519 584.185 627.658M590.241 627.658H584.185M590.241 627.658C588.048 619.037 586.036 610.777 584.185 602.783M584.185 627.658C576.757 619.741 569.899 611.914 563.563 604.124M563.563 604.124L584.185 602.783M563.563 604.124C500.369 526.432 489.123 452.519 482.994 331.57M735.48 610.779H760.764L759.064 614.179L764.164 619.279L767.564 622.679L764.164 627.658L767.564 632.879L764.164 637.362M735.48 610.779C744.167 619.609 753.601 628.342 764.164 637.362M801.564 690.679C798.644 706.011 795.013 720.059 790.641 733.179M790.641 733.179C793.064 746.779 774.364 802.88 753.964 838.58C770.727 834.281 784.024 829.95 796.464 825.143M886.564 656.679C880.808 714.809 873.923 745.398 857.664 797.78C832.887 809.136 815.701 817.709 796.464 825.143M886.564 656.679C903.18 664.876 909.037 672.405 913.765 690.679C915.465 726.379 917.082 738.152 908.665 763.779C890.51 795.521 876.076 809.434 845.764 830.08C814.357 834.791 794.326 828.312 795.685 825.702M886.564 656.679V653.279C894.826 560.238 889.557 508.556 867.864 416.978M442.863 928.68C432.663 942.28 408.863 952.48 408.863 959.28C389.258 937.453 377.017 927.691 352.762 915.08C356.704 932.818 359.972 941.825 368.062 955.88C318.367 935.437 295.287 920.367 266.062 884.48L264.362 882.78M442.863 928.68L490.463 935.48C536.163 935.255 562.971 928.659 599.263 921.88M442.863 928.68C365.285 911.815 329.534 899.97 259.262 861.609M259.262 872.58L264.362 879.38V882.78M259.262 872.58L131.761 850.771M259.262 872.58V861.609M264.362 899.78V882.78M264.362 899.78C263.217 899.617 262.084 899.456 260.962 899.296M264.362 899.78L260.962 899.296M133.461 879.38C127.433 873.793 128.059 865.237 130.061 850.48L131.761 850.771M133.461 879.38C135.186 879.67 136.886 879.955 138.561 880.236M133.461 879.38L138.561 880.236M260.962 899.296L267.762 957.58L201.462 1006.88L186.162 957.58L187.862 1018.78L170.862 1032.38C159.126 993.732 152.346 966.152 146.557 933.78M260.962 899.296C212.053 892.318 184.069 887.865 138.561 880.236M84.1612 748.725C88.2964 754.097 92.8175 759.651 97.7612 765.479C95.1105 758.547 92.8267 750.514 90.8862 741.679M84.1612 748.725C62.0611 784.179 59.2643 814.873 77.3611 857.28C97.3328 889.586 111.943 906.523 146.557 933.78M146.557 933.78C143.81 918.423 141.286 901.987 138.561 882.78V880.236M126.661 796.08C126.367 817.79 127.498 829.749 131.761 850.771M126.661 796.08H123.261M126.661 796.08H215.062M216.762 770.579C215.431 780.238 215.105 785.843 215.062 796.08M216.762 770.579L123.261 767.355M215.062 796.08H123.261M215.062 796.08C215.12 807.403 215.741 813.427 218.462 823.28C235.462 843.68 244.091 850.911 259.262 860.68V861.609M123.261 796.08C119.12 794.37 117.47 792.983 116.461 789.279L118.161 767.179L123.261 767.355M123.261 767.355V715.263M123.261 715.263C120.405 709.231 117.656 702.719 115.064 695.779M277.962 444.178C312.104 434.197 332.844 431.408 373.162 432.278M599.263 921.88C685.068 895.079 728.281 874.002 795.685 825.702M257.562 860.68C258.131 860.991 258.697 861.301 259.262 861.609M90.8862 741.679C76.6479 676.857 80.8962 568.893 94.3612 535.978L100.397 508.75M90.8862 741.679C98.4878 720.869 103.82 710.801 115.064 695.779M115.064 695.779C97.2297 648.018 86.866 579.998 100.397 508.75M796.464 825.143C796.204 825.329 795.944 825.516 795.685 825.702M796.464 825.143C796.055 825.297 795.797 825.486 795.685 825.702M281.034 624.379C280.295 651.77 281.067 679.676 283.062 714.479L362.962 697.479C367.823 672.83 372.045 648.536 376.425 624.379M281.034 624.379C281.232 617.016 281.539 609.691 281.961 602.279M281.034 624.379C281.995 624.379 304.395 624.379 328.962 624.379M281.034 624.379L281.961 602.279M281.034 624.379H328.962M376.425 624.379C363.75 624.379 345.844 624.379 328.962 624.379M376.425 624.379L380.506 602.279M376.425 624.379C377.763 617.002 379.116 609.636 380.506 602.279M376.425 624.379H328.962M281.961 602.279C289.642 600.094 351.039 599.916 380.506 602.279M560.361 427.303C596.666 427.982 620.311 428.963 641.406 431.531M215.062 629.479L225.262 620.979L218.462 617.579L223.562 614.179L216.762 610.779L218.462 607.379L267.762 603.979L264.362 627.779L215.062 629.479Z" stroke="black" stroke-width="0.4"/>
<path d="M422.502 988.603L373.201 1058.3L403.244 975.003C324.819 1018.14 220.201 1071.9 211.701 1080.4H476.902C473.626 1073.12 470.506 1066.93 467.458 1061.7C456.272 1042.5 446.062 1036.2 432.702 1036.2L422.502 988.603Z" fill="#2F333C"/>
<path d="M582.302 924.003C610.304 947.482 608.974 961.513 570.402 980.477C564.055 983.598 556.701 986.852 548.302 990.303C539.802 998.803 543.202 1032.8 533.002 1032.8L497.302 1039.6L483.702 1080.4H641.802C641.802 1041.67 637.935 999.077 627.423 966.503C620.863 946.174 611.714 929.749 599.302 920.603C593.122 922.97 589.324 923.541 582.302 924.003Z" fill="#2F333C"/>
<path d="M444.602 929.103L410.601 954.603L403.244 975.003L373.201 1058.3L422.502 988.603L432.702 1036.2C446.062 1036.2 456.272 1042.5 467.458 1061.7C458.091 1038.14 450.915 1018.63 446.76 1002.2C438.419 969.217 442.259 948.635 465.002 932.503C455.114 931.394 450.421 930.674 444.602 929.103Z" fill="#2F333C"/>
<path d="M465.002 932.503C442.259 948.635 438.419 969.217 446.76 1002.2C465.824 995.874 467.458 983.503 465.002 932.503Z" fill="#212227"/>
<path d="M570.402 980.477C608.974 961.513 610.304 947.482 582.302 924.003C574.679 926.883 571.177 927.8 565.302 929.103C564.536 962.513 564.805 977.863 570.402 980.477Z" fill="#212227"/>
<path d="M533.002 1032.8C543.202 1032.8 539.802 998.803 548.302 990.303C556.701 986.852 564.055 983.598 570.402 980.477C564.805 977.863 564.536 962.513 565.302 929.103C520.803 935.376 497.868 937.026 465.002 932.503C467.458 983.503 465.824 995.874 446.76 1002.2C450.915 1018.63 458.091 1038.14 467.458 1061.7C470.506 1066.93 473.626 1073.12 476.902 1080.4H483.702L497.302 1039.6L533.002 1032.8Z" fill="#F9E7DD"/>
<path d="M627.423 966.503C637.935 999.077 641.802 1041.67 641.802 1080.4H816.903C759.698 1033.37 715.521 1008.84 627.423 966.503Z" fill="#2F333C"/>
<path d="M476.902 1080.4H483.702M476.902 1080.4H211.701M476.902 1080.4C473.626 1073.12 470.506 1066.93 467.458 1061.7M403.244 975.003L410.601 954.603L444.602 929.103C450.421 930.674 455.114 931.394 465.002 932.503M403.244 975.003L373.201 1058.3L422.502 988.603L432.702 1036.2C446.062 1036.2 456.272 1042.5 467.458 1061.7M403.244 975.003C324.819 1018.14 220.201 1071.9 211.701 1080.4M211.701 1080.4H816.903M582.302 924.003C589.324 923.541 593.122 922.97 599.302 920.603C611.714 929.749 620.863 946.174 627.423 966.503M582.302 924.003C610.304 947.482 608.974 961.513 570.402 980.477M582.302 924.003C574.679 926.883 571.177 927.8 565.302 929.103M483.702 1080.4L497.302 1039.6L533.002 1032.8C543.202 1032.8 539.802 998.803 548.302 990.303C556.701 986.852 564.055 983.598 570.402 980.477M483.702 1080.4H641.802M558.502 995.403C589.102 980.103 592.502 1032.8 641.802 1080.4M641.802 1080.4C641.802 1041.67 637.935 999.077 627.423 966.503M641.802 1080.4H816.903M627.423 966.503C715.521 1008.84 759.698 1033.37 816.903 1080.4M465.002 932.503C442.259 948.635 438.419 969.217 446.76 1002.2M465.002 932.503C467.458 983.503 465.824 995.874 446.76 1002.2M465.002 932.503C497.868 937.026 520.803 935.376 565.302 929.103M467.458 1061.7C458.091 1038.14 450.915 1018.63 446.76 1002.2M565.302 929.103C564.536 962.513 564.805 977.863 570.402 980.477" stroke="black" stroke-width="0.3"/>
<path d="M458.202 997.103C489.074 1019.98 507.809 1019.17 543.202 998.803C549.507 988.069 557.219 984.895 568.702 980.103C564.956 964.597 562.148 951.51 565.302 929.103C518.918 934.256 495.11 937.276 465.002 930.803C465.002 969.903 468.402 986.903 458.202 997.103Z" fill="#E7B7A3" fill-opacity="0.41" stroke="#E7B7A3" stroke-width="0.1"/>
<path d="M914.224 1034.83C913.253 1034.83 912.367 1034.67 911.564 1034.35C910.761 1034.03 910.071 1033.59 909.492 1033.02C908.913 1032.45 908.465 1031.78 908.148 1031.01C907.831 1030.22 907.672 1029.37 907.672 1028.44C907.672 1027.52 907.831 1026.67 908.148 1025.9C908.465 1025.12 908.913 1024.45 909.492 1023.88C910.08 1023.31 910.78 1022.87 911.592 1022.56C912.404 1022.26 913.3 1022.1 914.28 1022.1C915.241 1022.1 916.119 1022.25 916.912 1022.55C917.705 1022.85 918.391 1023.27 918.97 1023.82C919.558 1024.37 920.011 1025.01 920.328 1025.77C920.645 1026.52 920.804 1027.34 920.804 1028.25C920.804 1029.04 920.706 1029.72 920.51 1030.29C920.314 1030.86 920.029 1031.3 919.656 1031.62C919.292 1031.93 918.844 1032.08 918.312 1032.08C917.789 1032.08 917.369 1031.93 917.052 1031.61C916.744 1031.29 916.59 1030.84 916.59 1030.25V1029.3L916.66 1028.44L916.534 1026.83V1024.97H917.752V1030.01C917.752 1030.39 917.827 1030.65 917.976 1030.8C918.135 1030.95 918.326 1031.02 918.55 1031.02C918.821 1031.02 919.054 1030.91 919.25 1030.7C919.455 1030.48 919.605 1030.17 919.698 1029.76C919.801 1029.34 919.852 1028.84 919.852 1028.26C919.852 1027.48 919.717 1026.77 919.446 1026.13C919.185 1025.49 918.802 1024.93 918.298 1024.47C917.803 1024 917.215 1023.65 916.534 1023.4C915.862 1023.15 915.111 1023.03 914.28 1023.03C913.449 1023.03 912.689 1023.16 911.998 1023.43C911.317 1023.69 910.729 1024.07 910.234 1024.55C909.739 1025.03 909.357 1025.6 909.086 1026.26C908.825 1026.92 908.694 1027.65 908.694 1028.44C908.694 1029.25 908.825 1029.98 909.086 1030.66C909.347 1031.32 909.721 1031.89 910.206 1032.36C910.701 1032.85 911.284 1033.22 911.956 1033.48C912.637 1033.75 913.393 1033.89 914.224 1033.89C914.653 1033.89 915.106 1033.84 915.582 1033.74C916.058 1033.64 916.506 1033.49 916.926 1033.27L917.234 1034.17C916.805 1034.38 916.319 1034.55 915.778 1034.66C915.237 1034.77 914.719 1034.83 914.224 1034.83ZM913.972 1032.08C913.309 1032.08 912.721 1031.93 912.208 1031.62C911.695 1031.3 911.289 1030.88 910.99 1030.33C910.691 1029.79 910.542 1029.18 910.542 1028.49C910.542 1027.79 910.691 1027.17 910.99 1026.64C911.289 1026.1 911.695 1025.68 912.208 1025.38C912.721 1025.07 913.309 1024.92 913.972 1024.92C914.616 1024.92 915.181 1025.06 915.666 1025.34C916.151 1025.61 916.529 1026.01 916.8 1026.54C917.08 1027.07 917.22 1027.72 917.22 1028.49C917.22 1029.25 917.085 1029.9 916.814 1030.43C916.543 1030.96 916.165 1031.37 915.68 1031.66C915.195 1031.94 914.625 1032.08 913.972 1032.08ZM914.168 1030.99C914.625 1030.99 915.031 1030.89 915.386 1030.7C915.75 1030.49 916.035 1030.2 916.24 1029.83C916.455 1029.45 916.562 1029 916.562 1028.49C916.562 1027.96 916.455 1027.52 916.24 1027.14C916.035 1026.77 915.75 1026.48 915.386 1026.29C915.031 1026.09 914.625 1025.99 914.168 1025.99C913.701 1025.99 913.286 1026.1 912.922 1026.3C912.567 1026.5 912.287 1026.78 912.082 1027.16C911.886 1027.53 911.788 1027.97 911.788 1028.49C911.788 1028.99 911.886 1029.43 912.082 1029.8C912.287 1030.18 912.567 1030.47 912.922 1030.68C913.286 1030.89 913.701 1030.99 914.168 1030.99ZM921.055 1032.87V1032H928.055V1032.87H921.055ZM929.329 1032V1024.58H930.673V1032H929.329ZM930.001 1023.15C929.739 1023.15 929.52 1023.07 929.343 1022.9C929.175 1022.73 929.091 1022.53 929.091 1022.28C929.091 1022.03 929.175 1021.82 929.343 1021.65C929.52 1021.49 929.739 1021.4 930.001 1021.4C930.262 1021.4 930.477 1021.49 930.645 1021.65C930.822 1021.81 930.911 1022.01 930.911 1022.26C930.911 1022.51 930.827 1022.72 930.659 1022.9C930.491 1023.07 930.271 1023.15 930.001 1023.15ZM937.173 1032.08C936.538 1032.08 935.964 1031.94 935.451 1031.66C934.947 1031.37 934.546 1030.95 934.247 1030.39C933.958 1029.83 933.813 1029.13 933.813 1028.29C933.813 1027.45 933.962 1026.75 934.261 1026.19C934.569 1025.63 934.975 1025.21 935.479 1024.93C935.992 1024.65 936.557 1024.51 937.173 1024.51C937.901 1024.51 938.545 1024.67 939.105 1024.99C939.665 1025.3 940.108 1025.75 940.435 1026.32C940.762 1026.88 940.925 1027.53 940.925 1028.29C940.925 1029.05 940.762 1029.71 940.435 1030.28C940.108 1030.85 939.665 1031.29 939.105 1031.61C938.545 1031.93 937.901 1032.08 937.173 1032.08ZM933.239 1032V1021.61H934.583V1026.55L934.443 1028.28L934.527 1030V1032H933.239ZM937.061 1030.91C937.537 1030.91 937.962 1030.8 938.335 1030.59C938.718 1030.37 939.016 1030.07 939.231 1029.68C939.455 1029.27 939.567 1028.81 939.567 1028.29C939.567 1027.76 939.455 1027.3 939.231 1026.92C939.016 1026.53 938.718 1026.22 938.335 1026.01C937.962 1025.79 937.537 1025.69 937.061 1025.69C936.594 1025.69 936.17 1025.79 935.787 1026.01C935.414 1026.22 935.115 1026.53 934.891 1026.92C934.676 1027.3 934.569 1027.76 934.569 1028.29C934.569 1028.81 934.676 1029.27 934.891 1029.68C935.115 1030.07 935.414 1030.37 935.787 1030.59C936.17 1030.8 936.594 1030.91 937.061 1030.91ZM946.744 1024.51C947.35 1024.51 947.882 1024.63 948.34 1024.86C948.806 1025.09 949.17 1025.45 949.432 1025.92C949.693 1026.4 949.824 1027 949.824 1027.73V1032H948.48V1027.88C948.48 1027.17 948.302 1026.62 947.948 1026.26C947.602 1025.9 947.112 1025.71 946.478 1025.71C946.002 1025.71 945.586 1025.81 945.232 1025.99C944.877 1026.18 944.602 1026.46 944.406 1026.82C944.219 1027.18 944.126 1027.64 944.126 1028.18V1032H942.782V1024.58H944.07V1026.58L943.86 1026.05C944.102 1025.56 944.476 1025.19 944.98 1024.92C945.484 1024.65 946.072 1024.51 946.744 1024.51ZM955.433 1032.08C954.798 1032.08 954.238 1031.97 953.753 1031.73C953.277 1031.5 952.904 1031.15 952.633 1030.67C952.372 1030.18 952.241 1029.58 952.241 1028.85V1024.58H953.585V1028.7C953.585 1029.42 953.758 1029.97 954.103 1030.33C954.458 1030.7 954.952 1030.88 955.587 1030.88C956.054 1030.88 956.46 1030.79 956.805 1030.6C957.15 1030.4 957.416 1030.12 957.603 1029.76C957.79 1029.39 957.883 1028.94 957.883 1028.42V1024.58H959.227V1032H957.953V1030L958.163 1030.53C957.92 1031.02 957.556 1031.41 957.071 1031.68C956.586 1031.95 956.04 1032.08 955.433 1032.08ZM964.908 1032.08C964.273 1032.08 963.713 1031.97 963.228 1031.73C962.752 1031.5 962.378 1031.15 962.108 1030.67C961.846 1030.18 961.716 1029.58 961.716 1028.85V1024.58H963.06V1028.7C963.06 1029.42 963.232 1029.97 963.578 1030.33C963.932 1030.7 964.427 1030.88 965.062 1030.88C965.528 1030.88 965.934 1030.79 966.28 1030.6C966.625 1030.4 966.891 1030.12 967.078 1029.76C967.264 1029.39 967.358 1028.94 967.358 1028.42V1024.58H968.702V1032H967.428V1030L967.638 1030.53C967.395 1031.02 967.031 1031.41 966.546 1031.68C966.06 1031.95 965.514 1032.08 964.908 1032.08ZM974.382 1032.08C973.748 1032.08 973.188 1031.97 972.702 1031.73C972.226 1031.5 971.853 1031.15 971.582 1030.67C971.321 1030.18 971.19 1029.58 971.19 1028.85V1024.58H972.534V1028.7C972.534 1029.42 972.707 1029.97 973.052 1030.33C973.407 1030.7 973.902 1030.88 974.536 1030.88C975.003 1030.88 975.409 1030.79 975.754 1030.6C976.1 1030.4 976.366 1030.12 976.552 1029.76C976.739 1029.39 976.832 1028.94 976.832 1028.42V1024.58H978.176V1032H976.902V1030L977.112 1030.53C976.87 1031.02 976.506 1031.41 976.02 1031.68C975.535 1031.95 974.989 1032.08 974.382 1032.08ZM983.801 1032.08C983.082 1032.08 982.438 1031.93 981.869 1031.61C981.309 1031.29 980.866 1030.85 980.539 1030.28C980.212 1029.71 980.049 1029.05 980.049 1028.29C980.049 1027.53 980.212 1026.88 980.539 1026.32C980.866 1025.75 981.309 1025.3 981.869 1024.99C982.438 1024.67 983.082 1024.51 983.801 1024.51C984.426 1024.51 984.991 1024.65 985.495 1024.93C985.999 1025.21 986.4 1025.63 986.699 1026.19C987.007 1026.75 987.161 1027.45 987.161 1028.29C987.161 1029.13 987.012 1029.83 986.713 1030.39C986.424 1030.95 986.027 1031.37 985.523 1031.66C985.019 1031.94 984.445 1032.08 983.801 1032.08ZM983.913 1030.91C984.38 1030.91 984.8 1030.8 985.173 1030.59C985.556 1030.37 985.854 1030.07 986.069 1029.68C986.293 1029.27 986.405 1028.81 986.405 1028.29C986.405 1027.76 986.293 1027.3 986.069 1026.92C985.854 1026.53 985.556 1026.22 985.173 1026.01C984.8 1025.79 984.38 1025.69 983.913 1025.69C983.437 1025.69 983.012 1025.79 982.639 1026.01C982.266 1026.22 981.967 1026.53 981.743 1026.92C981.519 1027.3 981.407 1027.76 981.407 1028.29C981.407 1028.81 981.519 1029.27 981.743 1029.68C981.967 1030.07 982.266 1030.37 982.639 1030.59C983.012 1030.8 983.437 1030.91 983.913 1030.91ZM986.447 1032V1030L986.531 1028.28L986.391 1026.55V1021.61H987.735V1032H986.447ZM993.582 1032.08C992.789 1032.08 992.089 1031.92 991.482 1031.59C990.885 1031.27 990.418 1030.82 990.082 1030.25C989.755 1029.68 989.592 1029.03 989.592 1028.29C989.592 1027.55 989.751 1026.9 990.068 1026.33C990.395 1025.76 990.838 1025.32 991.398 1025C991.967 1024.67 992.607 1024.51 993.316 1024.51C994.035 1024.51 994.669 1024.67 995.22 1024.99C995.771 1025.3 996.2 1025.75 996.508 1026.33C996.825 1026.9 996.984 1027.57 996.984 1028.33C996.984 1028.39 996.979 1028.45 996.97 1028.53C996.97 1028.6 996.965 1028.67 996.956 1028.74H990.642V1027.77H996.256L995.71 1028.11C995.719 1027.63 995.621 1027.21 995.416 1026.83C995.211 1026.46 994.926 1026.17 994.562 1025.97C994.207 1025.75 993.792 1025.64 993.316 1025.64C992.849 1025.64 992.434 1025.75 992.07 1025.97C991.706 1026.17 991.421 1026.47 991.216 1026.85C991.011 1027.22 990.908 1027.65 990.908 1028.14V1028.36C990.908 1028.85 991.02 1029.3 991.244 1029.69C991.477 1030.07 991.799 1030.37 992.21 1030.59C992.621 1030.8 993.092 1030.91 993.624 1030.91C994.063 1030.91 994.459 1030.83 994.814 1030.68C995.178 1030.53 995.495 1030.31 995.766 1030.01L996.508 1030.88C996.172 1031.27 995.752 1031.57 995.248 1031.78C994.753 1031.98 994.198 1032.08 993.582 1032.08ZM1000.98 1032.08C1000.36 1032.08 999.774 1032 999.214 1031.83C998.664 1031.66 998.23 1031.46 997.912 1031.22L998.472 1030.15C998.79 1030.37 999.182 1030.55 999.648 1030.7C1000.11 1030.85 1000.59 1030.92 1001.08 1030.92C1001.7 1030.92 1002.15 1030.83 1002.42 1030.66C1002.7 1030.48 1002.84 1030.23 1002.84 1029.91C1002.84 1029.68 1002.76 1029.5 1002.59 1029.37C1002.42 1029.24 1002.2 1029.14 1001.92 1029.07C1001.65 1029.01 1001.34 1028.95 1001.01 1028.91C1000.67 1028.85 1000.33 1028.78 999.998 1028.71C999.662 1028.63 999.354 1028.51 999.074 1028.37C998.794 1028.22 998.57 1028.02 998.402 1027.77C998.234 1027.51 998.15 1027.17 998.15 1026.74C998.15 1026.29 998.276 1025.9 998.528 1025.56C998.78 1025.22 999.135 1024.97 999.592 1024.79C1000.06 1024.6 1000.61 1024.51 1001.24 1024.51C1001.73 1024.51 1002.22 1024.57 1002.71 1024.69C1003.22 1024.8 1003.63 1024.97 1003.95 1025.18L1003.37 1026.25C1003.04 1026.02 1002.69 1025.87 1002.32 1025.78C1001.96 1025.7 1001.59 1025.66 1001.23 1025.66C1000.64 1025.66 1000.2 1025.76 999.914 1025.95C999.625 1026.14 999.48 1026.38 999.48 1026.68C999.48 1026.93 999.564 1027.13 999.732 1027.27C999.91 1027.4 1000.13 1027.5 1000.4 1027.58C1000.68 1027.65 1000.99 1027.72 1001.33 1027.77C1001.66 1027.82 1002 1027.88 1002.34 1027.97C1002.67 1028.04 1002.98 1028.15 1003.25 1028.29C1003.53 1028.43 1003.75 1028.63 1003.92 1028.88C1004.1 1029.13 1004.18 1029.47 1004.18 1029.89C1004.18 1030.33 1004.05 1030.72 1003.79 1031.05C1003.53 1031.37 1003.16 1031.63 1002.69 1031.82C1002.21 1032 1001.64 1032.08 1000.98 1032.08ZM1005.86 1032V1024.58H1007.21V1032H1005.86ZM1006.54 1023.15C1006.27 1023.15 1006.06 1023.07 1005.88 1022.9C1005.71 1022.73 1005.63 1022.53 1005.63 1022.28C1005.63 1022.03 1005.71 1021.82 1005.88 1021.65C1006.06 1021.49 1006.27 1021.4 1006.54 1021.4C1006.8 1021.4 1007.01 1021.49 1007.18 1021.65C1007.36 1021.81 1007.45 1022.01 1007.45 1022.26C1007.45 1022.51 1007.36 1022.72 1007.19 1022.9C1007.03 1023.07 1006.81 1023.15 1006.54 1023.15ZM1013.02 1034.8C1012.34 1034.8 1011.68 1034.7 1011.03 1034.51C1010.4 1034.32 1009.88 1034.05 1009.48 1033.69L1010.12 1032.66C1010.47 1032.96 1010.89 1033.19 1011.4 1033.36C1011.9 1033.54 1012.43 1033.62 1012.98 1033.62C1013.86 1033.62 1014.5 1033.42 1014.91 1033.01C1015.32 1032.6 1015.53 1031.97 1015.53 1031.13V1029.56L1015.67 1028.09L1015.6 1026.61V1024.58H1016.87V1030.99C1016.87 1032.3 1016.55 1033.26 1015.89 1033.88C1015.24 1034.49 1014.28 1034.8 1013.02 1034.8ZM1012.85 1031.69C1012.14 1031.69 1011.49 1031.54 1010.92 1031.24C1010.36 1030.94 1009.91 1030.51 1009.58 1029.97C1009.25 1029.43 1009.09 1028.8 1009.09 1028.09C1009.09 1027.38 1009.25 1026.75 1009.58 1026.22C1009.91 1025.68 1010.36 1025.26 1010.92 1024.96C1011.49 1024.66 1012.14 1024.51 1012.85 1024.51C1013.49 1024.51 1014.07 1024.64 1014.59 1024.9C1015.11 1025.15 1015.53 1025.55 1015.84 1026.08C1016.15 1026.61 1016.31 1027.28 1016.31 1028.09C1016.31 1028.9 1016.15 1029.56 1015.84 1030.1C1015.53 1030.63 1015.11 1031.03 1014.59 1031.3C1014.07 1031.56 1013.49 1031.69 1012.85 1031.69ZM1013.01 1030.52C1013.5 1030.52 1013.94 1030.41 1014.32 1030.21C1014.71 1030 1015.01 1029.72 1015.22 1029.35C1015.44 1028.99 1015.56 1028.57 1015.56 1028.09C1015.56 1027.62 1015.44 1027.2 1015.22 1026.83C1015.01 1026.47 1014.71 1026.19 1014.32 1025.99C1013.94 1025.79 1013.5 1025.69 1013.01 1025.69C1012.51 1025.69 1012.07 1025.79 1011.68 1025.99C1011.3 1026.19 1010.99 1026.47 1010.77 1026.83C1010.55 1027.2 1010.45 1027.62 1010.45 1028.09C1010.45 1028.57 1010.55 1028.99 1010.77 1029.35C1010.99 1029.72 1011.3 1030 1011.68 1030.21C1012.07 1030.41 1012.51 1030.52 1013.01 1030.52ZM1023.4 1024.51C1024.01 1024.51 1024.54 1024.63 1025 1024.86C1025.46 1025.09 1025.83 1025.45 1026.09 1025.92C1026.35 1026.4 1026.48 1027 1026.48 1027.73V1032H1025.14V1027.88C1025.14 1027.17 1024.96 1026.62 1024.61 1026.26C1024.26 1025.9 1023.77 1025.71 1023.14 1025.71C1022.66 1025.71 1022.24 1025.81 1021.89 1025.99C1021.54 1026.18 1021.26 1026.46 1021.06 1026.82C1020.88 1027.18 1020.78 1027.64 1020.78 1028.18V1032H1019.44V1024.58H1020.73V1026.58L1020.52 1026.05C1020.76 1025.56 1021.13 1025.19 1021.64 1024.92C1022.14 1024.65 1022.73 1024.51 1023.4 1024.51ZM1027.7 1032.87V1032H1034.7V1032.87H1027.7Z" fill="#262624"/>
</g>
<defs>
<linearGradient id="paint0_linear_303_20" x1="344.262" y1="597.179" x2="349.362" y2="898.08" gradientUnits="userSpaceOnUse">
<stop/>
<stop offset="0.966272" stop-color="#DED659"/>
</linearGradient>
<linearGradient id="paint1_linear_303_20" x1="305.011" y1="599.262" x2="307.575" y2="777.271" gradientUnits="userSpaceOnUse">
<stop stop-color="#262624"/>
</linearGradient>
<linearGradient id="paint2_linear_303_20" x1="657.913" y1="602.442" x2="629.042" y2="847.393" gradientUnits="userSpaceOnUse">
<stop/>
<stop offset="1" stop-color="#DED659"/>
</linearGradient>
<clipPath id="clip0_303_20">
<rect width="1080" height="1080" fill="white"/>
</clipPath>
</defs>
</svg>
