<svg width="1080" height="1080" viewBox="0 0 1080 1080" fill="none" xmlns="http://www.w3.org/2000/svg">
<path d="M570.735 445.435C585.147 507.392 605.56 537.572 650.567 545.015C656.525 545.999 664.51 548.277 662.985 554.12C662.051 557.696 658.071 560.085 654.569 561.269C600.867 579.427 577.875 557.871 544.662 505.12C480.806 736.105 687.022 883.378 931.225 807.416C642.058 972.517 265.287 735.33 234.278 462.488C196.083 474.89 177.589 472.591 152.982 452.058C150.927 450.343 149.775 447.753 149.775 445.077C149.775 440.653 153.483 437.106 157.907 437.137C192.174 437.38 210.165 427.391 234.91 394.278C254.029 150.044 656.904 150.376 570.735 445.435Z" fill="white"/>
<path d="M234.278 406.679C234.38 402.477 234.591 398.344 234.91 394.278M234.91 394.278C254.029 150.044 656.904 150.376 570.735 445.435C585.147 507.392 605.56 537.572 650.567 545.015C656.525 545.999 664.51 548.277 662.985 554.12C662.051 557.696 658.071 560.085 654.569 561.269C600.867 579.427 577.875 557.871 544.662 505.12M234.91 394.278C210.165 427.391 192.174 437.38 157.907 437.137C153.483 437.106 149.775 440.653 149.775 445.077C149.775 447.753 150.927 450.343 152.982 452.058C177.589 472.591 196.083 474.89 234.278 462.488C265.287 735.33 642.058 972.517 931.225 807.416C687.022 883.378 480.806 736.105 544.662 505.12M541.275 499.694C542.417 501.537 543.545 503.346 544.662 505.12" stroke="white" stroke-linecap="round"/>
<path d="M362.941 335.598C363.925 334.428 365.364 333.738 366.888 333.624C388.569 332.003 401.554 335.349 424.213 343.119L426.539 357.072L436.617 352.421C439.341 351.997 442.246 354.766 445.266 358.405C446.213 359.547 446.81 360.949 446.776 362.432C446.437 377.054 430.37 401.815 397.957 404.306C391.203 404.824 384.324 403.908 378.112 401.207C350.168 389.063 345.112 356.754 362.941 335.598Z" fill="#A11E16"/>
<path d="M504.074 351.121C505.636 349.819 505.544 347.392 503.887 346.213L463.472 317.447C462.29 316.606 460.675 316.741 459.648 317.767C458.488 318.926 458.488 320.806 459.648 321.966L461.425 323.742L502.513 352.421L504.074 351.121Z" fill="#A11E16"/>
<path d="M506.186 359.877C507.194 358.265 506.872 356.157 505.428 354.919L502.513 352.421L461.425 323.742L459.191 325.976C457.13 328.036 457.45 331.463 459.858 333.106L500.756 361.016C502.561 362.247 505.028 361.73 506.186 359.877Z" fill="#A11E16"/>
<path d="M324.981 304.364C324.37 305.54 323.085 306.162 320.773 306.79C319.164 307.227 318.004 308.646 318.004 310.313C318.004 311.702 319.188 312.797 320.573 312.687L373.023 308.547C375.278 308.369 377.076 306.596 377.289 304.345L377.698 299.972L324.981 304.364Z" fill="#A11E16"/>
<path d="M380.799 296.602V296.491C380.799 294.461 379.08 292.857 377.053 292.997L332.197 296.112C328.134 296.394 324.981 299.772 324.981 303.844V304.364L377.698 299.971C379.45 299.825 380.799 298.36 380.799 296.602Z" fill="#A11E16"/>
<path d="M502.513 352.421L504.074 351.121C505.636 349.819 505.544 347.392 503.887 346.213L463.471 317.447C462.29 316.606 460.674 316.741 459.648 317.767C458.488 318.926 458.488 320.806 459.648 321.966L461.425 323.742M502.513 352.421L505.428 354.919C506.871 356.157 507.194 358.265 506.186 359.877C505.028 361.73 502.561 362.247 500.756 361.016L459.857 333.106C457.449 331.463 457.13 328.036 459.19 325.976L461.425 323.742M502.513 352.421L461.425 323.742M324.981 304.364V303.844C324.981 299.772 328.133 296.394 332.197 296.112L377.053 292.997C379.079 292.857 380.799 294.461 380.799 296.491V296.602C380.799 298.36 379.45 299.825 377.698 299.971M324.981 304.364C324.37 305.54 323.085 306.162 320.773 306.79C319.164 307.227 318.004 308.646 318.004 310.313C318.004 311.702 319.188 312.797 320.573 312.687L373.023 308.547C375.278 308.369 377.076 306.596 377.289 304.345L377.698 299.971M324.981 304.364L377.698 299.971M424.213 343.119C401.554 335.349 388.568 332.003 366.888 333.624C365.364 333.738 363.925 334.428 362.94 335.598C345.111 356.754 350.167 389.063 378.112 401.207C384.323 403.908 391.203 404.824 397.957 404.306C430.37 401.815 446.436 377.054 446.776 362.432C446.81 360.949 446.213 359.547 445.265 358.405C442.245 354.766 439.341 351.997 436.617 352.421L426.539 357.072L424.213 343.119Z" stroke="#A11E16"/>
</svg>
