<svg width="1080" height="1080" viewBox="0 0 1080 1080" fill="none" xmlns="http://www.w3.org/2000/svg">
<rect width="1080" height="1080" fill="#CECECE"/>
<path d="M54.6256 79V56.6H57.8256V76.216H69.9536V79H54.6256ZM83.3314 79.256C81.6247 79.256 80.0354 78.968 78.5634 78.392C77.1127 77.816 75.854 77.016 74.7874 75.992C73.7207 74.9467 72.8887 73.7307 72.2914 72.344C71.694 70.9573 71.3954 69.4427 71.3954 67.8C71.3954 66.1573 71.694 64.6427 72.2914 63.256C72.8887 61.8693 73.7207 60.664 74.7874 59.64C75.854 58.5947 77.1127 57.784 78.5634 57.208C80.014 56.632 81.6034 56.344 83.3314 56.344C85.038 56.344 86.606 56.632 88.0354 57.208C89.486 57.7627 90.7447 58.5627 91.8114 59.608C92.8994 60.632 93.7314 61.8373 94.3074 63.224C94.9047 64.6107 95.2034 66.136 95.2034 67.8C95.2034 69.464 94.9047 70.9893 94.3074 72.376C93.7314 73.7627 92.8994 74.9787 91.8114 76.024C90.7447 77.048 89.486 77.848 88.0354 78.424C86.606 78.9787 85.038 79.256 83.3314 79.256ZM83.3314 76.408C84.5687 76.408 85.71 76.1947 86.7554 75.768C87.822 75.3413 88.7394 74.744 89.5074 73.976C90.2967 73.1867 90.9047 72.2693 91.3314 71.224C91.7794 70.1787 92.0034 69.0373 92.0034 67.8C92.0034 66.5627 91.7794 65.4213 91.3314 64.376C90.9047 63.3307 90.2967 62.424 89.5074 61.656C88.7394 60.8667 87.822 60.2587 86.7554 59.832C85.71 59.4053 84.5687 59.192 83.3314 59.192C82.0727 59.192 80.91 59.4053 79.8434 59.832C78.798 60.2587 77.8807 60.8667 77.0914 61.656C76.302 62.424 75.6834 63.3307 75.2354 64.376C74.8087 65.4213 74.5954 66.5627 74.5954 67.8C74.5954 69.0373 74.8087 70.1787 75.2354 71.224C75.6834 72.2693 76.302 73.1867 77.0914 73.976C77.8807 74.744 78.798 75.3413 79.8434 75.768C80.91 76.1947 82.0727 76.408 83.3314 76.408ZM61.6751 118.256C59.9471 118.256 58.3578 117.979 56.9071 117.424C55.4565 116.848 54.1978 116.048 53.1311 115.024C52.0645 113.979 51.2325 112.763 50.6351 111.376C50.0378 109.989 49.7391 108.464 49.7391 106.8C49.7391 105.136 50.0378 103.611 50.6351 102.224C51.2325 100.837 52.0645 99.632 53.1311 98.608C54.2191 97.5627 55.4885 96.7627 56.9391 96.208C58.3898 95.632 59.9898 95.344 61.7391 95.344C63.5098 95.344 65.1311 95.632 66.6031 96.208C68.0751 96.784 69.3231 97.648 70.3471 98.8L68.3631 100.784C67.4458 99.888 66.4431 99.2373 65.3551 98.832C64.2885 98.4053 63.1258 98.192 61.8671 98.192C60.5871 98.192 59.3925 98.4053 58.2831 98.832C57.1951 99.2587 56.2458 99.856 55.4351 100.624C54.6458 101.392 54.0271 102.309 53.5791 103.376C53.1525 104.421 52.9391 105.563 52.9391 106.8C52.9391 108.016 53.1525 109.157 53.5791 110.224C54.0271 111.269 54.6458 112.187 55.4351 112.976C56.2458 113.744 57.1951 114.341 58.2831 114.768C59.3711 115.195 60.5551 115.408 61.8351 115.408C63.0298 115.408 64.1711 115.227 65.2591 114.864C66.3685 114.48 67.3925 113.851 68.3311 112.976L70.1551 115.408C69.0458 116.347 67.7445 117.061 66.2511 117.552C64.7791 118.021 63.2538 118.256 61.6751 118.256ZM67.0831 114.992V106.672H70.1551V115.408L67.0831 114.992ZM86.3939 118.256C84.6872 118.256 83.0979 117.968 81.6259 117.392C80.1752 116.816 78.9165 116.016 77.8499 114.992C76.7832 113.947 75.9512 112.731 75.3539 111.344C74.7565 109.957 74.4579 108.443 74.4579 106.8C74.4579 105.157 74.7565 103.643 75.3539 102.256C75.9512 100.869 76.7832 99.664 77.8499 98.64C78.9165 97.5947 80.1752 96.784 81.6259 96.208C83.0765 95.632 84.6659 95.344 86.3939 95.344C88.1005 95.344 89.6685 95.632 91.0979 96.208C92.5485 96.7627 93.8072 97.5627 94.8739 98.608C95.9619 99.632 96.7939 100.837 97.3699 102.224C97.9672 103.611 98.2659 105.136 98.2659 106.8C98.2659 108.464 97.9672 109.989 97.3699 111.376C96.7939 112.763 95.9619 113.979 94.8739 115.024C93.8072 116.048 92.5485 116.848 91.0979 117.424C89.6685 117.979 88.1005 118.256 86.3939 118.256ZM86.3939 115.408C87.6312 115.408 88.7725 115.195 89.8179 114.768C90.8845 114.341 91.8019 113.744 92.5699 112.976C93.3592 112.187 93.9672 111.269 94.3939 110.224C94.8419 109.179 95.0659 108.037 95.0659 106.8C95.0659 105.563 94.8419 104.421 94.3939 103.376C93.9672 102.331 93.3592 101.424 92.5699 100.656C91.8019 99.8667 90.8845 99.2587 89.8179 98.832C88.7725 98.4053 87.6312 98.192 86.3939 98.192C85.1352 98.192 83.9725 98.4053 82.9059 98.832C81.8605 99.2587 80.9432 99.8667 80.1539 100.656C79.3645 101.424 78.7459 102.331 78.2979 103.376C77.8712 104.421 77.6579 105.563 77.6579 106.8C77.6579 108.037 77.8712 109.179 78.2979 110.224C78.7459 111.269 79.3645 112.187 80.1539 112.976C80.9432 113.744 81.8605 114.341 82.9059 114.768C83.9725 115.195 85.1352 115.408 86.3939 115.408Z" fill="white"/>
<path d="M539.831 964.925H527.056C525.826 964.925 524.83 965.922 524.83 967.15V976.943C524.83 978.464 526.652 979.245 527.754 978.196L527.83 978.124C528.103 977.864 528.466 977.719 528.843 977.719C529.654 977.719 530.311 977.062 530.311 976.251V972.373C530.311 971.144 531.308 970.148 532.537 970.148H539.831C544.859 970.414 548.008 975.062 548.957 977.682C549.223 978.413 550.12 979.323 550.899 979.323C551.479 979.323 551.948 979.792 551.948 980.371V980.955C551.948 981.535 551.479 982.004 550.899 982.004C550.12 982.004 549.223 982.913 548.957 983.645C548.008 986.265 544.859 990.913 539.831 991.179H530.311H527.056C525.826 991.179 524.83 992.175 524.83 993.404V994.318C524.83 995.546 525.826 996.543 527.056 996.543H539.831C546.329 995.67 555.181 990.344 554.545 979.323C553.214 970.293 548.012 965.909 539.831 964.925Z" fill="white" stroke="white"/>
<path d="M513.161 977.964V966.988C513.161 965.759 514.157 964.763 515.387 964.763H517.118C518.347 964.763 519.344 965.759 519.344 966.988V992.412C519.344 994.269 517.192 995.298 515.745 994.132C515.583 994.002 515.403 993.895 515.21 993.814L514.528 993.529C513.7 993.183 513.161 992.374 513.161 991.476V977.964Z" fill="white" stroke="white"/>
<path d="M438.47 1029V1019.2H442.6C443.645 1019.2 444.565 1019.41 445.358 1019.82C446.161 1020.23 446.781 1020.8 447.22 1021.54C447.668 1022.28 447.892 1023.13 447.892 1024.1C447.892 1025.07 447.668 1025.92 447.22 1026.66C446.781 1027.4 446.161 1027.97 445.358 1028.38C444.565 1028.79 443.645 1029 442.6 1029H438.47ZM439.87 1027.78H442.516C443.328 1027.78 444.028 1027.63 444.616 1027.32C445.213 1027.01 445.675 1026.58 446.002 1026.03C446.329 1025.47 446.492 1024.83 446.492 1024.1C446.492 1023.36 446.329 1022.72 446.002 1022.17C445.675 1021.62 445.213 1021.19 444.616 1020.88C444.028 1020.57 443.328 1020.42 442.516 1020.42H439.87V1027.78ZM453.144 1029.08C452.351 1029.08 451.651 1028.92 451.044 1028.59C450.447 1028.27 449.98 1027.82 449.644 1027.25C449.318 1026.68 449.154 1026.03 449.154 1025.29C449.154 1024.55 449.313 1023.9 449.63 1023.33C449.957 1022.76 450.4 1022.32 450.96 1022C451.53 1021.67 452.169 1021.51 452.878 1021.51C453.597 1021.51 454.232 1021.67 454.782 1021.99C455.333 1022.3 455.762 1022.75 456.07 1023.33C456.388 1023.9 456.546 1024.57 456.546 1025.33C456.546 1025.39 456.542 1025.45 456.532 1025.53C456.532 1025.6 456.528 1025.67 456.518 1025.74H450.204V1024.77H455.818L455.272 1025.11C455.282 1024.63 455.184 1024.21 454.978 1023.83C454.773 1023.46 454.488 1023.17 454.124 1022.97C453.77 1022.75 453.354 1022.64 452.878 1022.64C452.412 1022.64 451.996 1022.75 451.632 1022.97C451.268 1023.17 450.984 1023.47 450.778 1023.85C450.573 1024.22 450.47 1024.65 450.47 1025.14V1025.36C450.47 1025.85 450.582 1026.3 450.806 1026.69C451.04 1027.07 451.362 1027.37 451.772 1027.59C452.183 1027.8 452.654 1027.91 453.186 1027.91C453.625 1027.91 454.022 1027.83 454.376 1027.68C454.74 1027.53 455.058 1027.31 455.328 1027.01L456.07 1027.88C455.734 1028.27 455.314 1028.57 454.81 1028.78C454.316 1028.98 453.76 1029.08 453.144 1029.08ZM460.541 1029.08C459.925 1029.08 459.337 1029 458.777 1028.83C458.226 1028.66 457.792 1028.46 457.475 1028.22L458.035 1027.15C458.352 1027.37 458.744 1027.55 459.211 1027.7C459.677 1027.85 460.153 1027.92 460.639 1027.92C461.264 1027.92 461.712 1027.83 461.983 1027.66C462.263 1027.48 462.403 1027.23 462.403 1026.91C462.403 1026.68 462.319 1026.5 462.151 1026.37C461.983 1026.24 461.759 1026.14 461.479 1026.07C461.208 1026.01 460.905 1025.95 460.569 1025.91C460.233 1025.85 459.897 1025.78 459.561 1025.71C459.225 1025.63 458.917 1025.51 458.637 1025.37C458.357 1025.22 458.133 1025.02 457.965 1024.77C457.797 1024.51 457.713 1024.17 457.713 1023.74C457.713 1023.29 457.839 1022.9 458.091 1022.56C458.343 1022.22 458.697 1021.97 459.155 1021.79C459.621 1021.6 460.172 1021.51 460.807 1021.51C461.292 1021.51 461.782 1021.57 462.277 1021.69C462.781 1021.8 463.191 1021.97 463.509 1022.18L462.935 1023.25C462.599 1023.02 462.249 1022.87 461.885 1022.78C461.521 1022.7 461.157 1022.66 460.793 1022.66C460.205 1022.66 459.766 1022.76 459.477 1022.95C459.187 1023.14 459.043 1023.38 459.043 1023.68C459.043 1023.93 459.127 1024.13 459.295 1024.27C459.472 1024.4 459.696 1024.5 459.967 1024.58C460.247 1024.65 460.555 1024.72 460.891 1024.77C461.227 1024.82 461.563 1024.88 461.899 1024.97C462.235 1025.04 462.538 1025.15 462.809 1025.29C463.089 1025.43 463.313 1025.63 463.481 1025.88C463.658 1026.13 463.747 1026.47 463.747 1026.89C463.747 1027.33 463.616 1027.72 463.355 1028.05C463.093 1028.37 462.725 1028.63 462.249 1028.82C461.773 1029 461.203 1029.08 460.541 1029.08ZM465.426 1029V1021.58H466.77V1029H465.426ZM466.098 1020.15C465.837 1020.15 465.618 1020.07 465.44 1019.9C465.272 1019.73 465.188 1019.53 465.188 1019.28C465.188 1019.03 465.272 1018.82 465.44 1018.65C465.618 1018.49 465.837 1018.4 466.098 1018.4C466.36 1018.4 466.574 1018.49 466.742 1018.65C466.92 1018.81 467.008 1019.01 467.008 1019.26C467.008 1019.51 466.924 1019.72 466.756 1019.9C466.588 1020.07 466.369 1020.15 466.098 1020.15ZM472.585 1031.8C471.903 1031.8 471.241 1031.7 470.597 1031.51C469.962 1031.32 469.444 1031.05 469.043 1030.69L469.687 1029.66C470.032 1029.96 470.457 1030.19 470.961 1030.36C471.465 1030.54 471.992 1030.62 472.543 1030.62C473.42 1030.62 474.064 1030.42 474.475 1030.01C474.885 1029.6 475.091 1028.97 475.091 1028.13V1026.56L475.231 1025.09L475.161 1023.61V1021.58H476.435V1027.99C476.435 1029.3 476.108 1030.26 475.454 1030.88C474.801 1031.49 473.845 1031.8 472.585 1031.8ZM472.417 1028.69C471.698 1028.69 471.054 1028.54 470.485 1028.24C469.925 1027.94 469.477 1027.51 469.141 1026.97C468.814 1026.43 468.651 1025.8 468.651 1025.09C468.651 1024.38 468.814 1023.75 469.141 1023.22C469.477 1022.68 469.925 1022.26 470.485 1021.96C471.054 1021.66 471.698 1021.51 472.417 1021.51C473.051 1021.51 473.63 1021.64 474.153 1021.9C474.675 1022.15 475.091 1022.55 475.399 1023.08C475.716 1023.61 475.875 1024.28 475.875 1025.09C475.875 1025.9 475.716 1026.56 475.399 1027.1C475.091 1027.63 474.675 1028.03 474.153 1028.3C473.63 1028.56 473.051 1028.69 472.417 1028.69ZM472.571 1027.52C473.065 1027.52 473.504 1027.41 473.887 1027.21C474.269 1027 474.568 1026.72 474.783 1026.35C475.007 1025.99 475.119 1025.57 475.119 1025.09C475.119 1024.62 475.007 1024.2 474.783 1023.83C474.568 1023.47 474.269 1023.19 473.887 1022.99C473.504 1022.79 473.065 1022.69 472.571 1022.69C472.076 1022.69 471.633 1022.79 471.241 1022.99C470.858 1023.19 470.555 1023.47 470.331 1023.83C470.116 1024.2 470.009 1024.62 470.009 1025.09C470.009 1025.57 470.116 1025.99 470.331 1026.35C470.555 1026.72 470.858 1027 471.241 1027.21C471.633 1027.41 472.076 1027.52 472.571 1027.52ZM482.965 1021.51C483.571 1021.51 484.103 1021.63 484.561 1021.86C485.027 1022.09 485.391 1022.45 485.653 1022.92C485.914 1023.4 486.045 1024 486.045 1024.73V1029H484.701V1024.88C484.701 1024.17 484.523 1023.62 484.169 1023.26C483.823 1022.9 483.333 1022.71 482.699 1022.71C482.223 1022.71 481.807 1022.81 481.453 1022.99C481.098 1023.18 480.823 1023.46 480.627 1023.82C480.44 1024.18 480.347 1024.64 480.347 1025.18V1029H479.003V1021.58H480.291V1023.58L480.081 1023.05C480.323 1022.56 480.697 1022.19 481.201 1021.92C481.705 1021.65 482.293 1021.51 482.965 1021.51ZM496.226 1029.08C495.591 1029.08 495.017 1028.94 494.504 1028.66C494 1028.37 493.598 1027.95 493.3 1027.39C493.01 1026.83 492.866 1026.13 492.866 1025.29C492.866 1024.45 493.015 1023.75 493.314 1023.19C493.622 1022.63 494.028 1022.21 494.532 1021.93C495.045 1021.65 495.61 1021.51 496.226 1021.51C496.954 1021.51 497.598 1021.67 498.158 1021.99C498.718 1022.3 499.161 1022.75 499.488 1023.32C499.814 1023.88 499.978 1024.53 499.978 1025.29C499.978 1026.05 499.814 1026.71 499.488 1027.28C499.161 1027.85 498.718 1028.29 498.158 1028.61C497.598 1028.93 496.954 1029.08 496.226 1029.08ZM492.292 1029V1018.61H493.636V1023.55L493.496 1025.28L493.58 1027V1029H492.292ZM496.114 1027.91C496.59 1027.91 497.014 1027.8 497.388 1027.59C497.77 1027.37 498.069 1027.07 498.284 1026.68C498.508 1026.27 498.62 1025.81 498.62 1025.29C498.62 1024.76 498.508 1024.3 498.284 1023.92C498.069 1023.53 497.77 1023.22 497.388 1023.01C497.014 1022.79 496.59 1022.69 496.114 1022.69C495.647 1022.69 495.222 1022.79 494.84 1023.01C494.466 1023.22 494.168 1023.53 493.944 1023.92C493.729 1024.3 493.622 1024.76 493.622 1025.29C493.622 1025.81 493.729 1026.27 493.944 1026.68C494.168 1027.07 494.466 1027.37 494.84 1027.59C495.222 1027.8 495.647 1027.91 496.114 1027.91ZM501.951 1031.8C501.597 1031.8 501.251 1031.74 500.915 1031.62C500.579 1031.51 500.29 1031.34 500.047 1031.11L500.621 1030.11C500.808 1030.28 501.013 1030.42 501.237 1030.51C501.461 1030.61 501.699 1030.65 501.951 1030.65C502.278 1030.65 502.549 1030.57 502.763 1030.4C502.978 1030.23 503.179 1029.93 503.365 1029.5L503.827 1028.48L503.967 1028.31L506.879 1021.58H508.195L504.597 1029.74C504.383 1030.26 504.14 1030.68 503.869 1030.97C503.608 1031.27 503.319 1031.48 503.001 1031.6C502.684 1031.73 502.334 1031.8 501.951 1031.8ZM503.715 1029.24L500.327 1021.58H501.727L504.611 1028.19L503.715 1029.24ZM509.867 1023.43C509.606 1023.43 509.382 1023.34 509.195 1023.16C509.009 1022.98 508.915 1022.74 508.915 1022.46C508.915 1022.18 509.009 1021.95 509.195 1021.78C509.382 1021.6 509.606 1021.51 509.867 1021.51C510.119 1021.51 510.334 1021.6 510.511 1021.78C510.698 1021.95 510.791 1022.18 510.791 1022.46C510.791 1022.74 510.698 1022.98 510.511 1023.16C510.334 1023.34 510.119 1023.43 509.867 1023.43ZM509.867 1029.08C509.606 1029.08 509.382 1029 509.195 1028.82C509.009 1028.63 508.915 1028.4 508.915 1028.12C508.915 1027.84 509.009 1027.61 509.195 1027.43C509.382 1027.25 509.606 1027.17 509.867 1027.17C510.119 1027.17 510.334 1027.25 510.511 1027.43C510.698 1027.61 510.791 1027.84 510.791 1028.12C510.791 1028.4 510.698 1028.63 510.511 1028.82C510.334 1029 510.119 1029.08 509.867 1029.08ZM522.427 1031.83C521.456 1031.83 520.57 1031.67 519.767 1031.35C518.964 1031.03 518.274 1030.59 517.695 1030.02C517.116 1029.45 516.668 1028.78 516.351 1028.01C516.034 1027.22 515.875 1026.37 515.875 1025.44C515.875 1024.52 516.034 1023.67 516.351 1022.9C516.668 1022.12 517.116 1021.45 517.695 1020.88C518.283 1020.31 518.983 1019.87 519.795 1019.56C520.607 1019.26 521.503 1019.1 522.483 1019.1C523.444 1019.1 524.322 1019.25 525.115 1019.55C525.908 1019.85 526.594 1020.27 527.173 1020.82C527.761 1021.37 528.214 1022.01 528.531 1022.77C528.848 1023.52 529.007 1024.34 529.007 1025.25C529.007 1026.04 528.909 1026.72 528.713 1027.29C528.517 1027.86 528.232 1028.3 527.859 1028.62C527.495 1028.93 527.047 1029.08 526.515 1029.08C525.992 1029.08 525.572 1028.93 525.255 1028.61C524.947 1028.29 524.793 1027.84 524.793 1027.25V1026.3L524.863 1025.44L524.737 1023.83V1021.97H525.955V1027.01C525.955 1027.39 526.03 1027.65 526.179 1027.8C526.338 1027.95 526.529 1028.02 526.753 1028.02C527.024 1028.02 527.257 1027.91 527.453 1027.7C527.658 1027.48 527.808 1027.17 527.901 1026.76C528.004 1026.34 528.055 1025.84 528.055 1025.26C528.055 1024.48 527.92 1023.77 527.649 1023.13C527.388 1022.49 527.005 1021.93 526.501 1021.47C526.006 1021 525.418 1020.65 524.737 1020.4C524.065 1020.15 523.314 1020.03 522.483 1020.03C521.652 1020.03 520.892 1020.16 520.201 1020.43C519.52 1020.69 518.932 1021.07 518.437 1021.55C517.942 1022.03 517.56 1022.6 517.289 1023.26C517.028 1023.92 516.897 1024.65 516.897 1025.44C516.897 1026.25 517.028 1026.98 517.289 1027.66C517.55 1028.32 517.924 1028.89 518.409 1029.36C518.904 1029.85 519.487 1030.22 520.159 1030.48C520.84 1030.75 521.596 1030.89 522.427 1030.89C522.856 1030.89 523.309 1030.84 523.785 1030.74C524.261 1030.64 524.709 1030.49 525.129 1030.27L525.437 1031.17C525.008 1031.38 524.522 1031.55 523.981 1031.66C523.44 1031.77 522.922 1031.83 522.427 1031.83ZM522.175 1029.08C521.512 1029.08 520.924 1028.93 520.411 1028.62C519.898 1028.3 519.492 1027.88 519.193 1027.33C518.894 1026.79 518.745 1026.18 518.745 1025.49C518.745 1024.79 518.894 1024.17 519.193 1023.64C519.492 1023.1 519.898 1022.68 520.411 1022.38C520.924 1022.07 521.512 1021.92 522.175 1021.92C522.819 1021.92 523.384 1022.06 523.869 1022.34C524.354 1022.61 524.732 1023.01 525.003 1023.54C525.283 1024.07 525.423 1024.72 525.423 1025.49C525.423 1026.25 525.288 1026.9 525.017 1027.43C524.746 1027.96 524.368 1028.37 523.883 1028.66C523.398 1028.94 522.828 1029.08 522.175 1029.08ZM522.371 1027.99C522.828 1027.99 523.234 1027.89 523.589 1027.7C523.953 1027.49 524.238 1027.2 524.443 1026.83C524.658 1026.45 524.765 1026 524.765 1025.49C524.765 1024.96 524.658 1024.52 524.443 1024.14C524.238 1023.77 523.953 1023.48 523.589 1023.29C523.234 1023.09 522.828 1022.99 522.371 1022.99C521.904 1022.99 521.489 1023.1 521.125 1023.3C520.77 1023.5 520.49 1023.78 520.285 1024.16C520.089 1024.53 519.991 1024.97 519.991 1025.49C519.991 1025.99 520.089 1026.43 520.285 1026.8C520.49 1027.18 520.77 1027.47 521.125 1027.68C521.489 1027.89 521.904 1027.99 522.371 1027.99ZM529.258 1029.87V1029H536.258V1029.87H529.258ZM537.532 1029V1021.58H538.876V1029H537.532ZM538.204 1020.15C537.942 1020.15 537.723 1020.07 537.546 1019.9C537.378 1019.73 537.294 1019.53 537.294 1019.28C537.294 1019.03 537.378 1018.82 537.546 1018.65C537.723 1018.49 537.942 1018.4 538.204 1018.4C538.465 1018.4 538.68 1018.49 538.848 1018.65C539.025 1018.81 539.114 1019.01 539.114 1019.26C539.114 1019.51 539.03 1019.72 538.862 1019.9C538.694 1020.07 538.474 1020.15 538.204 1020.15ZM545.376 1029.08C544.741 1029.08 544.167 1028.94 543.654 1028.66C543.15 1028.37 542.749 1027.95 542.45 1027.39C542.161 1026.83 542.016 1026.13 542.016 1025.29C542.016 1024.45 542.165 1023.75 542.464 1023.19C542.772 1022.63 543.178 1022.21 543.682 1021.93C544.195 1021.65 544.76 1021.51 545.376 1021.51C546.104 1021.51 546.748 1021.67 547.308 1021.99C547.868 1022.3 548.311 1022.75 548.638 1023.32C548.965 1023.88 549.128 1024.53 549.128 1025.29C549.128 1026.05 548.965 1026.71 548.638 1027.28C548.311 1027.85 547.868 1028.29 547.308 1028.61C546.748 1028.93 546.104 1029.08 545.376 1029.08ZM541.442 1029V1018.61H542.786V1023.55L542.646 1025.28L542.73 1027V1029H541.442ZM545.264 1027.91C545.74 1027.91 546.165 1027.8 546.538 1027.59C546.921 1027.37 547.219 1027.07 547.434 1026.68C547.658 1026.27 547.77 1025.81 547.77 1025.29C547.77 1024.76 547.658 1024.3 547.434 1023.92C547.219 1023.53 546.921 1023.22 546.538 1023.01C546.165 1022.79 545.74 1022.69 545.264 1022.69C544.797 1022.69 544.373 1022.79 543.99 1023.01C543.617 1023.22 543.318 1023.53 543.094 1023.92C542.879 1024.3 542.772 1024.76 542.772 1025.29C542.772 1025.81 542.879 1026.27 543.094 1026.68C543.318 1027.07 543.617 1027.37 543.99 1027.59C544.373 1027.8 544.797 1027.91 545.264 1027.91ZM554.947 1021.51C555.554 1021.51 556.086 1021.63 556.543 1021.86C557.01 1022.09 557.374 1022.45 557.635 1022.92C557.896 1023.4 558.027 1024 558.027 1024.73V1029H556.683V1024.88C556.683 1024.17 556.506 1023.62 556.151 1023.26C555.806 1022.9 555.316 1022.71 554.681 1022.71C554.205 1022.71 553.79 1022.81 553.435 1022.99C553.08 1023.18 552.805 1023.46 552.609 1023.82C552.422 1024.18 552.329 1024.64 552.329 1025.18V1029H550.985V1021.58H552.273V1023.58L552.063 1023.05C552.306 1022.56 552.679 1022.19 553.183 1021.92C553.687 1021.65 554.275 1021.51 554.947 1021.51ZM563.636 1029.08C563.002 1029.08 562.442 1028.97 561.956 1028.73C561.48 1028.5 561.107 1028.15 560.836 1027.67C560.575 1027.18 560.444 1026.58 560.444 1025.85V1021.58H561.788V1025.7C561.788 1026.42 561.961 1026.97 562.306 1027.33C562.661 1027.7 563.156 1027.88 563.79 1027.88C564.257 1027.88 564.663 1027.79 565.008 1027.6C565.354 1027.4 565.62 1027.12 565.806 1026.76C565.993 1026.39 566.086 1025.94 566.086 1025.42V1021.58H567.43V1029H566.156V1027L566.366 1027.53C566.124 1028.02 565.76 1028.41 565.274 1028.68C564.789 1028.95 564.243 1029.08 563.636 1029.08ZM573.111 1029.08C572.476 1029.08 571.916 1028.97 571.431 1028.73C570.955 1028.5 570.582 1028.15 570.311 1027.67C570.05 1027.18 569.919 1026.58 569.919 1025.85V1021.58H571.263V1025.7C571.263 1026.42 571.436 1026.97 571.781 1027.33C572.136 1027.7 572.63 1027.88 573.265 1027.88C573.732 1027.88 574.138 1027.79 574.483 1027.6C574.828 1027.4 575.094 1027.12 575.281 1026.76C575.468 1026.39 575.561 1025.94 575.561 1025.42V1021.58H576.905V1029H575.631V1027L575.841 1027.53C575.598 1028.02 575.234 1028.41 574.749 1028.68C574.264 1028.95 573.718 1029.08 573.111 1029.08ZM582.585 1029.08C581.951 1029.08 581.391 1028.97 580.905 1028.73C580.429 1028.5 580.056 1028.15 579.785 1027.67C579.524 1027.18 579.393 1026.58 579.393 1025.85V1021.58H580.737V1025.7C580.737 1026.42 580.91 1026.97 581.255 1027.33C581.61 1027.7 582.105 1027.88 582.739 1027.88C583.206 1027.88 583.612 1027.79 583.957 1027.6C584.303 1027.4 584.569 1027.12 584.755 1026.76C584.942 1026.39 585.035 1025.94 585.035 1025.42V1021.58H586.379V1029H585.105V1027L585.315 1027.53C585.073 1028.02 584.709 1028.41 584.223 1028.68C583.738 1028.95 583.192 1029.08 582.585 1029.08ZM592.004 1029.08C591.285 1029.08 590.641 1028.93 590.072 1028.61C589.512 1028.29 589.069 1027.85 588.742 1027.28C588.415 1026.71 588.252 1026.05 588.252 1025.29C588.252 1024.53 588.415 1023.88 588.742 1023.32C589.069 1022.75 589.512 1022.3 590.072 1021.99C590.641 1021.67 591.285 1021.51 592.004 1021.51C592.629 1021.51 593.194 1021.65 593.698 1021.93C594.202 1022.21 594.603 1022.63 594.902 1023.19C595.21 1023.75 595.364 1024.45 595.364 1025.29C595.364 1026.13 595.215 1026.83 594.916 1027.39C594.627 1027.95 594.23 1028.37 593.726 1028.66C593.222 1028.94 592.648 1029.08 592.004 1029.08ZM592.116 1027.91C592.583 1027.91 593.003 1027.8 593.376 1027.59C593.759 1027.37 594.057 1027.07 594.272 1026.68C594.496 1026.27 594.608 1025.81 594.608 1025.29C594.608 1024.76 594.496 1024.3 594.272 1023.92C594.057 1023.53 593.759 1023.22 593.376 1023.01C593.003 1022.79 592.583 1022.69 592.116 1022.69C591.64 1022.69 591.215 1022.79 590.842 1023.01C590.469 1023.22 590.17 1023.53 589.946 1023.92C589.722 1024.3 589.61 1024.76 589.61 1025.29C589.61 1025.81 589.722 1026.27 589.946 1026.68C590.17 1027.07 590.469 1027.37 590.842 1027.59C591.215 1027.8 591.64 1027.91 592.116 1027.91ZM594.65 1029V1027L594.734 1025.28L594.594 1023.55V1018.61H595.938V1029H594.65ZM601.785 1029.08C600.992 1029.08 600.292 1028.92 599.685 1028.59C599.088 1028.27 598.621 1027.82 598.285 1027.25C597.958 1026.68 597.795 1026.03 597.795 1025.29C597.795 1024.55 597.954 1023.9 598.271 1023.33C598.598 1022.76 599.041 1022.32 599.601 1022C600.17 1021.67 600.81 1021.51 601.519 1021.51C602.238 1021.51 602.872 1021.67 603.423 1021.99C603.974 1022.3 604.403 1022.75 604.711 1023.33C605.028 1023.9 605.187 1024.57 605.187 1025.33C605.187 1025.39 605.182 1025.45 605.173 1025.53C605.173 1025.6 605.168 1025.67 605.159 1025.74H598.845V1024.77H604.459L603.913 1025.11C603.922 1024.63 603.824 1024.21 603.619 1023.83C603.414 1023.46 603.129 1023.17 602.765 1022.97C602.41 1022.75 601.995 1022.64 601.519 1022.64C601.052 1022.64 600.637 1022.75 600.273 1022.97C599.909 1023.17 599.624 1023.47 599.419 1023.85C599.214 1024.22 599.111 1024.65 599.111 1025.14V1025.36C599.111 1025.85 599.223 1026.3 599.447 1026.69C599.68 1027.07 600.002 1027.37 600.413 1027.59C600.824 1027.8 601.295 1027.91 601.827 1027.91C602.266 1027.91 602.662 1027.83 603.017 1027.68C603.381 1027.53 603.698 1027.31 603.969 1027.01L604.711 1027.88C604.375 1028.27 603.955 1028.57 603.451 1028.78C602.956 1028.98 602.401 1029.08 601.785 1029.08ZM609.181 1029.08C608.565 1029.08 607.977 1029 607.417 1028.83C606.867 1028.66 606.433 1028.46 606.115 1028.22L606.675 1027.15C606.993 1027.37 607.385 1027.55 607.851 1027.7C608.318 1027.85 608.794 1027.92 609.279 1027.92C609.905 1027.92 610.353 1027.83 610.623 1027.66C610.903 1027.48 611.043 1027.23 611.043 1026.91C611.043 1026.68 610.959 1026.5 610.791 1026.37C610.623 1026.24 610.399 1026.14 610.119 1026.07C609.849 1026.01 609.545 1025.95 609.209 1025.91C608.873 1025.85 608.537 1025.78 608.201 1025.71C607.865 1025.63 607.557 1025.51 607.277 1025.37C606.997 1025.22 606.773 1025.02 606.605 1024.77C606.437 1024.51 606.353 1024.17 606.353 1023.74C606.353 1023.29 606.479 1022.9 606.731 1022.56C606.983 1022.22 607.338 1021.97 607.795 1021.79C608.262 1021.6 608.813 1021.51 609.447 1021.51C609.933 1021.51 610.423 1021.57 610.917 1021.69C611.421 1021.8 611.832 1021.97 612.149 1022.18L611.575 1023.25C611.239 1023.02 610.889 1022.87 610.525 1022.78C610.161 1022.7 609.797 1022.66 609.433 1022.66C608.845 1022.66 608.407 1022.76 608.117 1022.95C607.828 1023.14 607.683 1023.38 607.683 1023.68C607.683 1023.93 607.767 1024.13 607.935 1024.27C608.113 1024.4 608.337 1024.5 608.607 1024.58C608.887 1024.65 609.195 1024.72 609.531 1024.77C609.867 1024.82 610.203 1024.88 610.539 1024.97C610.875 1025.04 611.179 1025.15 611.449 1025.29C611.729 1025.43 611.953 1025.63 612.121 1025.88C612.299 1026.13 612.387 1026.47 612.387 1026.89C612.387 1027.33 612.257 1027.72 611.995 1028.05C611.734 1028.37 611.365 1028.63 610.889 1028.82C610.413 1029 609.844 1029.08 609.181 1029.08ZM614.067 1029V1021.58H615.411V1029H614.067ZM614.739 1020.15C614.478 1020.15 614.258 1020.07 614.081 1019.9C613.913 1019.73 613.829 1019.53 613.829 1019.28C613.829 1019.03 613.913 1018.82 614.081 1018.65C614.258 1018.49 614.478 1018.4 614.739 1018.4C615 1018.4 615.215 1018.49 615.383 1018.65C615.56 1018.81 615.649 1019.01 615.649 1019.26C615.649 1019.51 615.565 1019.72 615.397 1019.9C615.229 1020.07 615.01 1020.15 614.739 1020.15ZM621.225 1031.8C620.544 1031.8 619.881 1031.7 619.237 1031.51C618.602 1031.32 618.084 1031.05 617.683 1030.69L618.327 1029.66C618.672 1029.96 619.097 1030.19 619.601 1030.36C620.105 1030.54 620.632 1030.62 621.183 1030.62C622.06 1030.62 622.704 1030.42 623.115 1030.01C623.526 1029.6 623.731 1028.97 623.731 1028.13V1026.56L623.871 1025.09L623.801 1023.61V1021.58H625.075V1027.99C625.075 1029.3 624.748 1030.26 624.095 1030.88C623.442 1031.49 622.485 1031.8 621.225 1031.8ZM621.057 1028.69C620.338 1028.69 619.694 1028.54 619.125 1028.24C618.565 1027.94 618.117 1027.51 617.781 1026.97C617.454 1026.43 617.291 1025.8 617.291 1025.09C617.291 1024.38 617.454 1023.75 617.781 1023.22C618.117 1022.68 618.565 1022.26 619.125 1021.96C619.694 1021.66 620.338 1021.51 621.057 1021.51C621.692 1021.51 622.27 1021.64 622.793 1021.9C623.316 1022.15 623.731 1022.55 624.039 1023.08C624.356 1023.61 624.515 1024.28 624.515 1025.09C624.515 1025.9 624.356 1026.56 624.039 1027.1C623.731 1027.63 623.316 1028.03 622.793 1028.3C622.27 1028.56 621.692 1028.69 621.057 1028.69ZM621.211 1027.52C621.706 1027.52 622.144 1027.41 622.527 1027.21C622.91 1027 623.208 1026.72 623.423 1026.35C623.647 1025.99 623.759 1025.57 623.759 1025.09C623.759 1024.62 623.647 1024.2 623.423 1023.83C623.208 1023.47 622.91 1023.19 622.527 1022.99C622.144 1022.79 621.706 1022.69 621.211 1022.69C620.716 1022.69 620.273 1022.79 619.881 1022.99C619.498 1023.19 619.195 1023.47 618.971 1023.83C618.756 1024.2 618.649 1024.62 618.649 1025.09C618.649 1025.57 618.756 1025.99 618.971 1026.35C619.195 1026.72 619.498 1027 619.881 1027.21C620.273 1027.41 620.716 1027.52 621.211 1027.52ZM631.605 1021.51C632.212 1021.51 632.744 1021.63 633.201 1021.86C633.668 1022.09 634.032 1022.45 634.293 1022.92C634.554 1023.4 634.685 1024 634.685 1024.73V1029H633.341V1024.88C633.341 1024.17 633.164 1023.62 632.809 1023.26C632.464 1022.9 631.974 1022.71 631.339 1022.71C630.863 1022.71 630.448 1022.81 630.093 1022.99C629.738 1023.18 629.463 1023.46 629.267 1023.82C629.08 1024.18 628.987 1024.64 628.987 1025.18V1029H627.643V1021.58H628.931V1023.58L628.721 1023.05C628.964 1022.56 629.337 1022.19 629.841 1021.92C630.345 1021.65 630.933 1021.51 631.605 1021.51ZM635.898 1029.87V1029H642.898V1029.87H635.898Z" fill="white"/>
<path d="M570.735 445.435C585.147 507.392 605.56 537.572 650.567 545.015C656.525 545.999 664.51 548.277 662.985 554.12C662.051 557.696 658.071 560.085 654.569 561.269C600.867 579.427 577.875 557.871 544.662 505.12C480.806 736.105 687.022 883.378 931.225 807.416C642.058 972.517 265.287 735.33 234.278 462.488C196.083 474.89 177.589 472.591 152.982 452.058C150.927 450.343 149.775 447.753 149.775 445.077C149.775 440.653 153.483 437.106 157.907 437.137C192.174 437.38 210.165 427.391 234.91 394.278C254.029 150.044 656.904 150.376 570.735 445.435Z" fill="white"/>
<path d="M234.278 406.679C234.38 402.477 234.591 398.344 234.91 394.278M234.91 394.278C254.029 150.044 656.904 150.376 570.735 445.435C585.147 507.392 605.56 537.572 650.567 545.015C656.525 545.999 664.51 548.277 662.985 554.12C662.051 557.696 658.071 560.085 654.569 561.269C600.867 579.427 577.875 557.871 544.662 505.12M234.91 394.278C210.165 427.391 192.174 437.38 157.907 437.137C153.483 437.106 149.775 440.653 149.775 445.077C149.775 447.753 150.927 450.343 152.982 452.058C177.589 472.591 196.083 474.89 234.278 462.488C265.287 735.33 642.058 972.517 931.225 807.416C687.022 883.378 480.806 736.105 544.662 505.12M541.275 499.694C542.417 501.537 543.545 503.346 544.662 505.12" stroke="white" stroke-linecap="round"/>
<path d="M362.94 335.598C363.925 334.428 365.364 333.738 366.888 333.624C388.568 332.003 401.554 335.349 424.213 343.119L426.539 357.072L436.617 352.421C439.341 351.997 442.245 354.766 445.265 358.405C446.213 359.547 446.81 360.949 446.776 362.432C446.436 377.054 430.37 401.815 397.957 404.306C391.203 404.824 384.323 403.908 378.112 401.207C350.167 389.063 345.111 356.754 362.94 335.598Z" fill="#A11E16"/>
<path d="M504.074 351.121C505.635 349.819 505.544 347.392 503.886 346.213L463.471 317.447C462.29 316.606 460.674 316.741 459.648 317.767C458.488 318.926 458.488 320.806 459.648 321.966L461.425 323.742L502.513 352.421L504.074 351.121Z" fill="#A11E16"/>
<path d="M506.186 359.877C507.194 358.265 506.871 356.157 505.428 354.919L502.513 352.421L461.425 323.742L459.19 325.976C457.13 328.036 457.449 331.463 459.857 333.106L500.756 361.016C502.561 362.247 505.028 361.73 506.186 359.877Z" fill="#A11E16"/>
<path d="M324.981 304.364C324.37 305.54 323.085 306.162 320.773 306.79C319.164 307.227 318.004 308.646 318.004 310.313C318.004 311.702 319.188 312.797 320.573 312.687L373.023 308.547C375.278 308.369 377.076 306.596 377.289 304.345L377.698 299.972L324.981 304.364Z" fill="#A11E16"/>
<path d="M380.799 296.602V296.491C380.799 294.461 379.079 292.857 377.053 292.997L332.197 296.112C328.133 296.394 324.981 299.772 324.981 303.844V304.364L377.698 299.971C379.45 299.825 380.799 298.36 380.799 296.602Z" fill="#A11E16"/>
<path d="M502.513 352.421L504.074 351.121C505.636 349.819 505.544 347.392 503.887 346.213L463.471 317.447C462.29 316.606 460.674 316.741 459.648 317.767C458.488 318.926 458.488 320.806 459.648 321.966L461.425 323.742M502.513 352.421L505.428 354.919C506.871 356.157 507.194 358.265 506.186 359.877C505.028 361.73 502.561 362.247 500.756 361.016L459.857 333.106C457.449 331.463 457.13 328.036 459.19 325.976L461.425 323.742M502.513 352.421L461.425 323.742M324.981 304.364V303.844C324.981 299.772 328.133 296.394 332.197 296.112L377.053 292.997C379.079 292.857 380.799 294.461 380.799 296.491V296.602C380.799 298.36 379.45 299.825 377.698 299.971M324.981 304.364C324.37 305.54 323.085 306.162 320.773 306.79C319.164 307.227 318.004 308.646 318.004 310.313C318.004 311.702 319.188 312.797 320.573 312.687L373.023 308.547C375.278 308.369 377.076 306.596 377.289 304.345L377.698 299.971M324.981 304.364L377.698 299.971M424.213 343.119C401.554 335.349 388.568 332.003 366.888 333.624C365.364 333.738 363.925 334.428 362.94 335.598C345.111 356.754 350.167 389.063 378.112 401.207C384.323 403.908 391.203 404.824 397.957 404.306C430.37 401.815 446.436 377.054 446.776 362.432C446.81 360.949 446.213 359.547 445.265 358.405C442.245 354.766 439.341 351.997 436.617 352.421L426.539 357.072L424.213 343.119Z" stroke="#A11E16"/>
</svg>
