<svg width="1088" height="1088" viewBox="0 0 1088 1088" fill="none" xmlns="http://www.w3.org/2000/svg">
<g filter="url(#filter0_d_13_38)">
<rect width="1080" height="1080" transform="translate(4)" fill="#14FF00"/>
<path d="M67.019 76.3558C65.291 76.3431 63.7038 76.054 62.2572 75.4887C60.8108 74.9021 59.5581 74.0928 58.499 73.061C57.44 72.0078 56.617 70.7858 56.0299 69.3947C55.4428 68.0037 55.1553 66.4762 55.1676 64.8123C55.1798 63.1483 55.4897 61.6252 56.0972 60.243C56.7048 58.8607 57.5456 57.6616 58.6198 56.6454C59.7154 55.6081 60.9906 54.8175 62.4453 54.2735C63.9002 53.7082 65.5023 53.432 67.2516 53.4449C69.0222 53.4579 70.6414 53.7578 72.1091 54.3446C73.5768 54.9315 74.8184 55.8046 75.8339 56.9641L73.8354 58.9335C72.9246 58.0307 71.9268 57.3727 70.8418 56.9594C69.7783 56.5249 68.6172 56.303 67.3586 56.2937C66.0786 56.2843 64.8824 56.4889 63.77 56.9073C62.6789 57.326 61.7252 57.9163 60.9089 58.6783C60.1139 59.4405 59.4885 60.3533 59.0327 61.4166C58.5983 62.4588 58.3766 63.5985 58.3675 64.8358C58.3586 66.0518 58.5635 67.1946 58.9823 68.2644C59.4226 69.313 60.0345 70.2349 60.818 71.03C61.623 71.804 62.5679 72.4083 63.6527 72.8429C64.7376 73.2776 65.92 73.4996 67.1999 73.509C68.3946 73.5178 69.5372 73.3449 70.6278 72.9902C71.74 72.6144 72.7686 71.9926 73.7136 71.1249L75.5197 73.5703C74.4035 74.5007 73.0969 75.2058 71.6 75.6855C70.1246 76.144 68.5976 76.3674 67.019 76.3558ZM72.4508 73.1317L72.5121 64.8119L75.584 64.8345L75.5197 73.5703L72.4508 73.1317ZM91.737 76.5377C90.0304 76.5251 88.4433 76.2254 86.9755 75.6386C85.5291 75.052 84.2764 74.2427 83.2173 73.2109C82.1584 72.1577 81.3353 70.9357 80.7482 69.5446C80.1611 68.1536 79.8736 66.6368 79.8857 64.9942C79.8978 63.3515 80.2076 61.8391 80.8151 60.4569C81.4226 59.0746 82.2635 57.8755 83.3376 56.8593C84.412 55.8219 85.6766 55.0205 87.1314 54.4552C88.5863 53.8899 90.1777 53.6136 91.9057 53.6263C93.6123 53.6389 95.1781 53.9384 96.6032 54.5249C98.0497 55.0902 99.3025 55.8995 100.361 56.9526C101.442 57.9846 102.265 59.196 102.831 60.5869C103.418 61.9779 103.705 63.5054 103.693 65.1694C103.681 66.8333 103.371 68.3564 102.763 69.7386C102.177 71.121 101.336 72.3309 100.241 73.3682C99.1664 74.3843 97.9019 75.175 96.447 75.7403C95.0137 76.2845 93.4437 76.5502 91.737 76.5377ZM91.758 73.6898C92.9953 73.6989 94.1382 73.4939 95.1866 73.075C96.2564 72.6562 97.1781 72.0656 97.9517 71.3033C98.7469 70.5198 99.3616 69.6069 99.7959 68.5648C100.252 67.5228 100.484 66.3831 100.493 65.1458C100.502 63.9085 100.287 62.7656 99.8463 61.717C99.4274 60.6685 98.8261 59.7574 98.0424 58.9836C97.2802 58.1886 96.3674 57.5739 95.3039 57.1394C94.2617 56.7051 93.122 56.4833 91.8847 56.4742C90.6261 56.465 89.4619 56.6697 88.3921 57.0885C87.3436 57.5075 86.4219 58.1087 85.6267 58.8922C84.8318 59.6544 84.2064 60.5565 83.7508 61.5985C83.3164 62.6407 83.0947 63.7804 83.0856 65.0177C83.0765 66.255 83.2814 67.3979 83.7004 68.4463C84.1407 69.4949 84.7526 70.4168 85.5361 71.2119C86.3197 71.9857 87.2326 72.5898 88.2748 73.0241C89.3383 73.4586 90.4994 73.6805 91.758 73.6898ZM64.1949 115.08L64.3393 95.4646L56.6595 95.4081L56.68 92.6241L75.2075 92.7605L75.187 95.5444L67.5072 95.4879L67.3628 115.103L64.1949 115.08ZM88.3251 115.514C86.6185 115.501 85.0314 115.201 83.5636 114.615C82.1172 114.028 80.8645 113.219 79.8054 112.187C78.7464 111.134 77.9234 109.912 77.3363 108.521C76.7492 107.13 76.4617 105.613 76.4738 103.97C76.4859 102.327 76.7957 100.815 77.4032 99.4328C78.0107 98.0506 78.8516 96.8514 79.9257 95.8353C81.0001 94.7978 82.2647 93.9964 83.7195 93.4311C85.1744 92.8658 86.7658 92.5895 88.4937 92.6022C90.2004 92.6148 91.7662 92.9143 93.1913 93.5008C94.6378 94.0662 95.8906 94.8754 96.9495 95.9286C98.0299 96.9605 98.853 98.172 99.4188 99.5628C100.006 100.954 100.293 102.481 100.281 104.145C100.269 105.809 99.959 107.332 99.3515 108.715C98.7653 110.097 97.9244 111.307 96.8287 112.344C95.7545 113.36 94.49 114.151 93.0351 114.716C91.6018 115.26 90.0318 115.526 88.3251 115.514ZM88.3461 112.666C89.5834 112.675 90.7263 112.47 91.7747 112.051C92.8445 111.632 93.7662 111.042 94.5398 110.279C95.335 109.496 95.9497 108.583 96.384 107.541C96.8397 106.499 97.0721 105.359 97.0812 104.122C97.0903 102.884 96.8747 101.742 96.4344 100.693C96.0155 99.6445 95.4142 98.7333 94.6305 97.9596C93.8683 97.1646 92.9555 96.5499 91.892 96.1154C90.8498 95.681 89.7101 95.4593 88.4728 95.4502C87.2142 95.4409 86.05 95.6457 84.9802 96.0645C83.9317 96.4834 83.0099 97.0847 82.2148 97.8682C81.4199 98.6304 80.7945 99.5324 80.3389 100.574C79.9045 101.617 79.6828 102.756 79.6737 103.994C79.6646 105.231 79.8695 106.374 80.2885 107.422C80.7288 108.471 81.3407 109.393 82.1242 110.188C82.9078 110.962 83.8207 111.566 84.8629 112C85.9264 112.435 87.0875 112.656 88.3461 112.666ZM83.2977 89.8759L83.3118 87.956L93.7435 88.0328L93.7294 89.9527L83.2977 89.8759Z" fill="#404040"/>
<path d="M164.25 465.841L168 468.682L207 500L242 456L209.671 423.671C207.356 421.356 203.613 421.325 201.259 423.6L163.883 459.73C162.105 461.449 162.279 464.348 164.25 465.841Z" fill="#6681D7"/>
<path d="M160.5 471.5L168 468.682L164.25 465.841C118.332 472.075 96.399 481.324 67 512.5C101.344 492.236 121.425 482.491 160.5 471.5Z" fill="#E0E0E0"/>
<path d="M168 468.682L160.5 471.5L154.33 510.421C154.132 511.669 154.737 512.907 155.842 513.517L187.5 531L207 500L168 468.682Z" fill="#E4C95F"/>
<path d="M168 468.682L160.5 471.5M168 468.682L164.25 465.841M168 468.682L207 500M160.5 471.5L154.33 510.421C154.132 511.669 154.737 512.907 155.842 513.517L187.5 531L207 500M160.5 471.5C121.425 482.491 101.344 492.236 67 512.5C96.399 481.324 118.332 472.075 164.25 465.841M164.25 465.841V465.841C162.279 464.348 162.105 461.449 163.883 459.73L201.259 423.6C203.613 421.325 207.356 421.356 209.671 423.671L242 456L207 500" stroke="black" stroke-width="1.5" stroke-linecap="round"/>
<path d="M468 399.304C610 264 842 352 905 565C928.192 635.907 948.388 661.774 998.573 666.468C1003.2 666.901 1008.06 669.373 1008.48 673.997C1014.29 738.295 523.421 741.974 232 716C112 716 76.497 628.253 176 563C177.639 551.603 180.381 540.585 184.101 530C188.547 517.349 194.391 505.318 201.419 494C211.688 477.463 224.486 462.45 239.15 449.258C299.31 395.136 390.869 371.664 468 399.304Z" fill="#E79EBB"/>
<path d="M520 428C503.896 415.356 486.356 405.883 468 399.304M468 399.304C610 264 842 352 905 565C928.192 635.907 948.388 661.774 998.573 666.468C1003.2 666.901 1008.06 669.373 1008.48 673.997C1014.29 738.295 523.421 741.974 232 716C112 716 76.497 628.253 176 563C177.639 551.603 180.381 540.585 184.101 530C188.547 517.349 194.391 505.318 201.419 494C211.688 477.463 224.486 462.45 239.15 449.258C299.31 395.136 390.869 371.664 468 399.304Z" stroke="black" stroke-width="3.5" stroke-linecap="round"/>
<path d="M267.585 546.255L239.15 541.782C224.639 545.858 214 559.187 214 575C214 594.054 229.446 609.5 248.5 609.5C267.554 609.5 283 594.054 283 575C283 563.003 276.877 552.436 267.585 546.255Z" fill="#E0E0E0"/>
<path d="M482 541L388.595 536.16C387.144 536.085 386.1 537.533 386.63 538.887L390 547.5L386.831 552.782C386.157 553.904 386.726 555.36 387.981 555.73L411 562.5H415.16H449.258H471L484.232 552.005C484.815 551.544 484.707 550.63 484.034 550.316L478 547.5L482 541Z" fill="black"/>
<path d="M432.209 627C451.263 627 466.709 611.554 466.709 592.5C466.709 579.647 459.681 568.436 449.258 562.5H415.16C404.737 568.436 397.709 579.647 397.709 592.5C397.709 611.554 413.155 627 432.209 627Z" fill="#E0E0E0"/>
<path d="M286.5 536L291.954 532.883C293.606 531.939 293.131 529.44 291.248 529.168L221 519C217.095 522.319 214.905 524.181 211 527.5C214.946 533.747 219.244 536.611 231 540.5L239.15 541.782L267.585 546.255L275.5 547.5L290.113 544.303C290.789 544.156 291.114 543.383 290.748 542.796L286.5 536Z" fill="black"/>
<path d="M221 519L291.248 529.168C293.131 529.44 293.606 531.939 291.954 532.883L286.5 536L290.748 542.796C291.114 543.383 290.789 544.156 290.113 544.303L275.5 547.5L267.585 546.255M221 519C217.095 522.319 214.905 524.181 211 527.5M221 519L211 527.5M211 527.5C214.946 533.747 219.244 536.611 231 540.5L239.15 541.782M267.585 546.255L239.15 541.782M267.585 546.255C276.877 552.436 283 563.003 283 575C283 594.054 267.554 609.5 248.5 609.5C229.446 609.5 214 594.054 214 575C214 559.187 224.639 545.858 239.15 541.782M415.16 562.5H411L387.981 555.73C386.726 555.36 386.157 553.904 386.831 552.782L390 547.5L386.63 538.887C386.1 537.533 387.144 536.085 388.595 536.16L482 541L478 547.5L484.034 550.316C484.707 550.63 484.815 551.544 484.232 552.005L471 562.5H449.258M415.16 562.5C404.737 568.436 397.709 579.647 397.709 592.5C397.709 611.554 413.155 627 432.209 627C451.263 627 466.709 611.554 466.709 592.5C466.709 579.647 459.681 568.436 449.258 562.5M415.16 562.5H449.258" stroke="black" stroke-width="1.5" stroke-linecap="round"/>
<path d="M319 476.5L306.5 600.5M355.5 508.5L348 582M371.5 505V530M335.5 491L331.5 550.5" stroke="#903381" stroke-width="1.5" stroke-linecap="round"/>
<path d="M543.831 964.926H531.056C529.826 964.926 528.83 965.922 528.83 967.15V976.943C528.83 978.464 530.652 979.245 531.754 978.196L531.83 978.124C532.103 977.864 532.466 977.719 532.843 977.719C533.654 977.719 534.311 977.062 534.311 976.252V972.373C534.311 971.144 535.308 970.148 536.537 970.148H543.831C548.859 970.414 552.008 975.062 552.957 977.682C553.223 978.414 554.12 979.323 554.899 979.323C555.479 979.323 555.948 979.792 555.948 980.372V980.956C555.948 981.535 555.479 982.004 554.899 982.004C554.12 982.004 553.223 982.914 552.957 983.645C552.008 986.265 548.859 990.913 543.831 991.179H534.311H531.056C529.826 991.179 528.83 992.175 528.83 993.404V994.318C528.83 995.547 529.826 996.543 531.056 996.543H543.831C550.329 995.67 559.181 990.344 558.545 979.323C557.214 970.293 552.012 965.909 543.831 964.926Z" fill="black" stroke="black"/>
<path d="M517.161 977.964V966.988C517.161 965.759 518.157 964.763 519.387 964.763H521.118C522.347 964.763 523.344 965.759 523.344 966.988V992.412C523.344 994.269 521.192 995.298 519.745 994.132C519.583 994.002 519.403 993.895 519.21 993.814L518.528 993.529C517.7 993.183 517.161 992.374 517.161 991.476V977.964Z" fill="black" stroke="black"/>
<path d="M442.47 1029V1019.2H446.6C447.645 1019.2 448.565 1019.41 449.358 1019.82C450.161 1020.23 450.781 1020.8 451.22 1021.54C451.668 1022.28 451.892 1023.13 451.892 1024.1C451.892 1025.07 451.668 1025.92 451.22 1026.66C450.781 1027.4 450.161 1027.97 449.358 1028.38C448.565 1028.79 447.645 1029 446.6 1029H442.47ZM443.87 1027.78H446.516C447.328 1027.78 448.028 1027.63 448.616 1027.32C449.213 1027.01 449.675 1026.58 450.002 1026.03C450.329 1025.47 450.492 1024.83 450.492 1024.1C450.492 1023.36 450.329 1022.72 450.002 1022.17C449.675 1021.62 449.213 1021.19 448.616 1020.88C448.028 1020.57 447.328 1020.42 446.516 1020.42H443.87V1027.78ZM457.144 1029.08C456.351 1029.08 455.651 1028.92 455.044 1028.59C454.447 1028.27 453.98 1027.82 453.644 1027.25C453.318 1026.68 453.154 1026.03 453.154 1025.29C453.154 1024.55 453.313 1023.9 453.63 1023.33C453.957 1022.76 454.4 1022.32 454.96 1022C455.53 1021.67 456.169 1021.51 456.878 1021.51C457.597 1021.51 458.232 1021.67 458.782 1021.99C459.333 1022.3 459.762 1022.75 460.07 1023.33C460.388 1023.9 460.546 1024.57 460.546 1025.33C460.546 1025.39 460.542 1025.45 460.532 1025.53C460.532 1025.6 460.528 1025.67 460.518 1025.74H454.204V1024.77H459.818L459.272 1025.11C459.282 1024.63 459.184 1024.21 458.978 1023.83C458.773 1023.46 458.488 1023.17 458.124 1022.97C457.77 1022.75 457.354 1022.64 456.878 1022.64C456.412 1022.64 455.996 1022.75 455.632 1022.97C455.268 1023.17 454.984 1023.47 454.778 1023.85C454.573 1024.22 454.47 1024.65 454.47 1025.14V1025.36C454.47 1025.85 454.582 1026.3 454.806 1026.69C455.04 1027.07 455.362 1027.37 455.772 1027.59C456.183 1027.8 456.654 1027.91 457.186 1027.91C457.625 1027.91 458.022 1027.83 458.376 1027.68C458.74 1027.53 459.058 1027.31 459.328 1027.01L460.07 1027.88C459.734 1028.27 459.314 1028.57 458.81 1028.78C458.316 1028.98 457.76 1029.08 457.144 1029.08ZM464.541 1029.08C463.925 1029.08 463.337 1029 462.777 1028.83C462.226 1028.66 461.792 1028.46 461.475 1028.22L462.035 1027.15C462.352 1027.37 462.744 1027.55 463.211 1027.7C463.677 1027.85 464.153 1027.92 464.639 1027.92C465.264 1027.92 465.712 1027.83 465.983 1027.66C466.263 1027.48 466.403 1027.23 466.403 1026.91C466.403 1026.68 466.319 1026.5 466.151 1026.37C465.983 1026.24 465.759 1026.14 465.479 1026.07C465.208 1026.01 464.905 1025.95 464.569 1025.91C464.233 1025.85 463.897 1025.78 463.561 1025.71C463.225 1025.63 462.917 1025.51 462.637 1025.37C462.357 1025.22 462.133 1025.02 461.965 1024.77C461.797 1024.51 461.713 1024.17 461.713 1023.74C461.713 1023.29 461.839 1022.9 462.091 1022.56C462.343 1022.22 462.697 1021.97 463.155 1021.79C463.621 1021.6 464.172 1021.51 464.807 1021.51C465.292 1021.51 465.782 1021.57 466.277 1021.69C466.781 1021.8 467.191 1021.97 467.509 1022.18L466.935 1023.25C466.599 1023.02 466.249 1022.87 465.885 1022.78C465.521 1022.7 465.157 1022.66 464.793 1022.66C464.205 1022.66 463.766 1022.76 463.477 1022.95C463.187 1023.14 463.043 1023.38 463.043 1023.68C463.043 1023.93 463.127 1024.13 463.295 1024.27C463.472 1024.4 463.696 1024.5 463.967 1024.58C464.247 1024.65 464.555 1024.72 464.891 1024.77C465.227 1024.82 465.563 1024.88 465.899 1024.97C466.235 1025.04 466.538 1025.15 466.809 1025.29C467.089 1025.43 467.313 1025.63 467.481 1025.88C467.658 1026.13 467.747 1026.47 467.747 1026.89C467.747 1027.33 467.616 1027.72 467.355 1028.05C467.093 1028.37 466.725 1028.63 466.249 1028.82C465.773 1029 465.203 1029.08 464.541 1029.08ZM469.426 1029V1021.58H470.77V1029H469.426ZM470.098 1020.15C469.837 1020.15 469.618 1020.07 469.44 1019.9C469.272 1019.73 469.188 1019.53 469.188 1019.28C469.188 1019.03 469.272 1018.82 469.44 1018.65C469.618 1018.49 469.837 1018.4 470.098 1018.4C470.36 1018.4 470.574 1018.49 470.742 1018.65C470.92 1018.81 471.008 1019.01 471.008 1019.26C471.008 1019.51 470.924 1019.72 470.756 1019.9C470.588 1020.07 470.369 1020.15 470.098 1020.15ZM476.585 1031.8C475.903 1031.8 475.241 1031.7 474.597 1031.51C473.962 1031.32 473.444 1031.05 473.043 1030.69L473.687 1029.66C474.032 1029.96 474.457 1030.19 474.961 1030.36C475.465 1030.54 475.992 1030.62 476.543 1030.62C477.42 1030.62 478.064 1030.42 478.475 1030.01C478.885 1029.6 479.091 1028.97 479.091 1028.13V1026.56L479.231 1025.09L479.161 1023.61V1021.58H480.435V1027.99C480.435 1029.3 480.108 1030.26 479.454 1030.88C478.801 1031.49 477.845 1031.8 476.585 1031.8ZM476.417 1028.69C475.698 1028.69 475.054 1028.54 474.485 1028.24C473.925 1027.94 473.477 1027.51 473.141 1026.97C472.814 1026.43 472.651 1025.8 472.651 1025.09C472.651 1024.38 472.814 1023.75 473.141 1023.22C473.477 1022.68 473.925 1022.26 474.485 1021.96C475.054 1021.66 475.698 1021.51 476.417 1021.51C477.051 1021.51 477.63 1021.64 478.153 1021.9C478.675 1022.15 479.091 1022.55 479.399 1023.08C479.716 1023.61 479.875 1024.28 479.875 1025.09C479.875 1025.9 479.716 1026.56 479.399 1027.1C479.091 1027.63 478.675 1028.03 478.153 1028.3C477.63 1028.56 477.051 1028.69 476.417 1028.69ZM476.571 1027.52C477.065 1027.52 477.504 1027.41 477.887 1027.21C478.269 1027 478.568 1026.72 478.783 1026.35C479.007 1025.99 479.119 1025.57 479.119 1025.09C479.119 1024.62 479.007 1024.2 478.783 1023.83C478.568 1023.47 478.269 1023.19 477.887 1022.99C477.504 1022.79 477.065 1022.69 476.571 1022.69C476.076 1022.69 475.633 1022.79 475.241 1022.99C474.858 1023.19 474.555 1023.47 474.331 1023.83C474.116 1024.2 474.009 1024.62 474.009 1025.09C474.009 1025.57 474.116 1025.99 474.331 1026.35C474.555 1026.72 474.858 1027 475.241 1027.21C475.633 1027.41 476.076 1027.52 476.571 1027.52ZM486.965 1021.51C487.571 1021.51 488.103 1021.63 488.561 1021.86C489.027 1022.09 489.391 1022.45 489.653 1022.92C489.914 1023.4 490.045 1024 490.045 1024.73V1029H488.701V1024.88C488.701 1024.17 488.523 1023.62 488.169 1023.26C487.823 1022.9 487.333 1022.71 486.699 1022.71C486.223 1022.71 485.807 1022.81 485.453 1022.99C485.098 1023.18 484.823 1023.46 484.627 1023.82C484.44 1024.18 484.347 1024.64 484.347 1025.18V1029H483.003V1021.58H484.291V1023.58L484.081 1023.05C484.323 1022.56 484.697 1022.19 485.201 1021.92C485.705 1021.65 486.293 1021.51 486.965 1021.51ZM500.226 1029.08C499.591 1029.08 499.017 1028.94 498.504 1028.66C498 1028.37 497.598 1027.95 497.3 1027.39C497.01 1026.83 496.866 1026.13 496.866 1025.29C496.866 1024.45 497.015 1023.75 497.314 1023.19C497.622 1022.63 498.028 1022.21 498.532 1021.93C499.045 1021.65 499.61 1021.51 500.226 1021.51C500.954 1021.51 501.598 1021.67 502.158 1021.99C502.718 1022.3 503.161 1022.75 503.488 1023.32C503.814 1023.88 503.978 1024.53 503.978 1025.29C503.978 1026.05 503.814 1026.71 503.488 1027.28C503.161 1027.85 502.718 1028.29 502.158 1028.61C501.598 1028.93 500.954 1029.08 500.226 1029.08ZM496.292 1029V1018.61H497.636V1023.55L497.496 1025.28L497.58 1027V1029H496.292ZM500.114 1027.91C500.59 1027.91 501.014 1027.8 501.388 1027.59C501.77 1027.37 502.069 1027.07 502.284 1026.68C502.508 1026.27 502.62 1025.81 502.62 1025.29C502.62 1024.76 502.508 1024.3 502.284 1023.92C502.069 1023.53 501.77 1023.22 501.388 1023.01C501.014 1022.79 500.59 1022.69 500.114 1022.69C499.647 1022.69 499.222 1022.79 498.84 1023.01C498.466 1023.22 498.168 1023.53 497.944 1023.92C497.729 1024.3 497.622 1024.76 497.622 1025.29C497.622 1025.81 497.729 1026.27 497.944 1026.68C498.168 1027.07 498.466 1027.37 498.84 1027.59C499.222 1027.8 499.647 1027.91 500.114 1027.91ZM505.951 1031.8C505.597 1031.8 505.251 1031.74 504.915 1031.62C504.579 1031.51 504.29 1031.34 504.047 1031.11L504.621 1030.11C504.808 1030.28 505.013 1030.42 505.237 1030.51C505.461 1030.61 505.699 1030.65 505.951 1030.65C506.278 1030.65 506.549 1030.57 506.763 1030.4C506.978 1030.23 507.179 1029.93 507.365 1029.5L507.827 1028.48L507.967 1028.31L510.879 1021.58H512.195L508.597 1029.74C508.383 1030.26 508.14 1030.68 507.869 1030.97C507.608 1031.27 507.319 1031.48 507.001 1031.6C506.684 1031.73 506.334 1031.8 505.951 1031.8ZM507.715 1029.24L504.327 1021.58H505.727L508.611 1028.19L507.715 1029.24ZM513.867 1023.43C513.606 1023.43 513.382 1023.34 513.195 1023.16C513.009 1022.98 512.915 1022.74 512.915 1022.46C512.915 1022.18 513.009 1021.95 513.195 1021.78C513.382 1021.6 513.606 1021.51 513.867 1021.51C514.119 1021.51 514.334 1021.6 514.511 1021.78C514.698 1021.95 514.791 1022.18 514.791 1022.46C514.791 1022.74 514.698 1022.98 514.511 1023.16C514.334 1023.34 514.119 1023.43 513.867 1023.43ZM513.867 1029.08C513.606 1029.08 513.382 1029 513.195 1028.82C513.009 1028.63 512.915 1028.4 512.915 1028.12C512.915 1027.84 513.009 1027.61 513.195 1027.43C513.382 1027.25 513.606 1027.17 513.867 1027.17C514.119 1027.17 514.334 1027.25 514.511 1027.43C514.698 1027.61 514.791 1027.84 514.791 1028.12C514.791 1028.4 514.698 1028.63 514.511 1028.82C514.334 1029 514.119 1029.08 513.867 1029.08ZM526.427 1031.83C525.456 1031.83 524.57 1031.67 523.767 1031.35C522.964 1031.03 522.274 1030.59 521.695 1030.02C521.116 1029.45 520.668 1028.78 520.351 1028.01C520.034 1027.22 519.875 1026.37 519.875 1025.44C519.875 1024.52 520.034 1023.67 520.351 1022.9C520.668 1022.12 521.116 1021.45 521.695 1020.88C522.283 1020.31 522.983 1019.87 523.795 1019.56C524.607 1019.26 525.503 1019.1 526.483 1019.1C527.444 1019.1 528.322 1019.25 529.115 1019.55C529.908 1019.85 530.594 1020.27 531.173 1020.82C531.761 1021.37 532.214 1022.01 532.531 1022.77C532.848 1023.52 533.007 1024.34 533.007 1025.25C533.007 1026.04 532.909 1026.72 532.713 1027.29C532.517 1027.86 532.232 1028.3 531.859 1028.62C531.495 1028.93 531.047 1029.08 530.515 1029.08C529.992 1029.08 529.572 1028.93 529.255 1028.61C528.947 1028.29 528.793 1027.84 528.793 1027.25V1026.3L528.863 1025.44L528.737 1023.83V1021.97H529.955V1027.01C529.955 1027.39 530.03 1027.65 530.179 1027.8C530.338 1027.95 530.529 1028.02 530.753 1028.02C531.024 1028.02 531.257 1027.91 531.453 1027.7C531.658 1027.48 531.808 1027.17 531.901 1026.76C532.004 1026.34 532.055 1025.84 532.055 1025.26C532.055 1024.48 531.92 1023.77 531.649 1023.13C531.388 1022.49 531.005 1021.93 530.501 1021.47C530.006 1021 529.418 1020.65 528.737 1020.4C528.065 1020.15 527.314 1020.03 526.483 1020.03C525.652 1020.03 524.892 1020.16 524.201 1020.43C523.52 1020.69 522.932 1021.07 522.437 1021.55C521.942 1022.03 521.56 1022.6 521.289 1023.26C521.028 1023.92 520.897 1024.65 520.897 1025.44C520.897 1026.25 521.028 1026.98 521.289 1027.66C521.55 1028.32 521.924 1028.89 522.409 1029.36C522.904 1029.85 523.487 1030.22 524.159 1030.48C524.84 1030.75 525.596 1030.89 526.427 1030.89C526.856 1030.89 527.309 1030.84 527.785 1030.74C528.261 1030.64 528.709 1030.49 529.129 1030.27L529.437 1031.17C529.008 1031.38 528.522 1031.55 527.981 1031.66C527.44 1031.77 526.922 1031.83 526.427 1031.83ZM526.175 1029.08C525.512 1029.08 524.924 1028.93 524.411 1028.62C523.898 1028.3 523.492 1027.88 523.193 1027.33C522.894 1026.79 522.745 1026.18 522.745 1025.49C522.745 1024.79 522.894 1024.17 523.193 1023.64C523.492 1023.1 523.898 1022.68 524.411 1022.38C524.924 1022.07 525.512 1021.92 526.175 1021.92C526.819 1021.92 527.384 1022.06 527.869 1022.34C528.354 1022.61 528.732 1023.01 529.003 1023.54C529.283 1024.07 529.423 1024.72 529.423 1025.49C529.423 1026.25 529.288 1026.9 529.017 1027.43C528.746 1027.96 528.368 1028.37 527.883 1028.66C527.398 1028.94 526.828 1029.08 526.175 1029.08ZM526.371 1027.99C526.828 1027.99 527.234 1027.89 527.589 1027.7C527.953 1027.49 528.238 1027.2 528.443 1026.83C528.658 1026.45 528.765 1026 528.765 1025.49C528.765 1024.96 528.658 1024.52 528.443 1024.14C528.238 1023.77 527.953 1023.48 527.589 1023.29C527.234 1023.09 526.828 1022.99 526.371 1022.99C525.904 1022.99 525.489 1023.1 525.125 1023.3C524.77 1023.5 524.49 1023.78 524.285 1024.16C524.089 1024.53 523.991 1024.97 523.991 1025.49C523.991 1025.99 524.089 1026.43 524.285 1026.8C524.49 1027.18 524.77 1027.47 525.125 1027.68C525.489 1027.89 525.904 1027.99 526.371 1027.99ZM533.258 1029.87V1029H540.258V1029.87H533.258ZM541.532 1029V1021.58H542.876V1029H541.532ZM542.204 1020.15C541.942 1020.15 541.723 1020.07 541.546 1019.9C541.378 1019.73 541.294 1019.53 541.294 1019.28C541.294 1019.03 541.378 1018.82 541.546 1018.65C541.723 1018.49 541.942 1018.4 542.204 1018.4C542.465 1018.4 542.68 1018.49 542.848 1018.65C543.025 1018.81 543.114 1019.01 543.114 1019.26C543.114 1019.51 543.03 1019.72 542.862 1019.9C542.694 1020.07 542.474 1020.15 542.204 1020.15ZM549.376 1029.08C548.741 1029.08 548.167 1028.94 547.654 1028.66C547.15 1028.37 546.749 1027.95 546.45 1027.39C546.161 1026.83 546.016 1026.13 546.016 1025.29C546.016 1024.45 546.165 1023.75 546.464 1023.19C546.772 1022.63 547.178 1022.21 547.682 1021.93C548.195 1021.65 548.76 1021.51 549.376 1021.51C550.104 1021.51 550.748 1021.67 551.308 1021.99C551.868 1022.3 552.311 1022.75 552.638 1023.32C552.965 1023.88 553.128 1024.53 553.128 1025.29C553.128 1026.05 552.965 1026.71 552.638 1027.28C552.311 1027.85 551.868 1028.29 551.308 1028.61C550.748 1028.93 550.104 1029.08 549.376 1029.08ZM545.442 1029V1018.61H546.786V1023.55L546.646 1025.28L546.73 1027V1029H545.442ZM549.264 1027.91C549.74 1027.91 550.165 1027.8 550.538 1027.59C550.921 1027.37 551.219 1027.07 551.434 1026.68C551.658 1026.27 551.77 1025.81 551.77 1025.29C551.77 1024.76 551.658 1024.3 551.434 1023.92C551.219 1023.53 550.921 1023.22 550.538 1023.01C550.165 1022.79 549.74 1022.69 549.264 1022.69C548.797 1022.69 548.373 1022.79 547.99 1023.01C547.617 1023.22 547.318 1023.53 547.094 1023.92C546.879 1024.3 546.772 1024.76 546.772 1025.29C546.772 1025.81 546.879 1026.27 547.094 1026.68C547.318 1027.07 547.617 1027.37 547.99 1027.59C548.373 1027.8 548.797 1027.91 549.264 1027.91ZM558.947 1021.51C559.554 1021.51 560.086 1021.63 560.543 1021.86C561.01 1022.09 561.374 1022.45 561.635 1022.92C561.896 1023.4 562.027 1024 562.027 1024.73V1029H560.683V1024.88C560.683 1024.17 560.506 1023.62 560.151 1023.26C559.806 1022.9 559.316 1022.71 558.681 1022.71C558.205 1022.71 557.79 1022.81 557.435 1022.99C557.08 1023.18 556.805 1023.46 556.609 1023.82C556.422 1024.18 556.329 1024.64 556.329 1025.18V1029H554.985V1021.58H556.273V1023.58L556.063 1023.05C556.306 1022.56 556.679 1022.19 557.183 1021.92C557.687 1021.65 558.275 1021.51 558.947 1021.51ZM567.636 1029.08C567.002 1029.08 566.442 1028.97 565.956 1028.73C565.48 1028.5 565.107 1028.15 564.836 1027.67C564.575 1027.18 564.444 1026.58 564.444 1025.85V1021.58H565.788V1025.7C565.788 1026.42 565.961 1026.97 566.306 1027.33C566.661 1027.7 567.156 1027.88 567.79 1027.88C568.257 1027.88 568.663 1027.79 569.008 1027.6C569.354 1027.4 569.62 1027.12 569.806 1026.76C569.993 1026.39 570.086 1025.94 570.086 1025.42V1021.58H571.43V1029H570.156V1027L570.366 1027.53C570.124 1028.02 569.76 1028.41 569.274 1028.68C568.789 1028.95 568.243 1029.08 567.636 1029.08ZM577.111 1029.08C576.476 1029.08 575.916 1028.97 575.431 1028.73C574.955 1028.5 574.582 1028.15 574.311 1027.67C574.05 1027.18 573.919 1026.58 573.919 1025.85V1021.58H575.263V1025.7C575.263 1026.42 575.436 1026.97 575.781 1027.33C576.136 1027.7 576.63 1027.88 577.265 1027.88C577.732 1027.88 578.138 1027.79 578.483 1027.6C578.828 1027.4 579.094 1027.12 579.281 1026.76C579.468 1026.39 579.561 1025.94 579.561 1025.42V1021.58H580.905V1029H579.631V1027L579.841 1027.53C579.598 1028.02 579.234 1028.41 578.749 1028.68C578.264 1028.95 577.718 1029.08 577.111 1029.08ZM586.585 1029.08C585.951 1029.08 585.391 1028.97 584.905 1028.73C584.429 1028.5 584.056 1028.15 583.785 1027.67C583.524 1027.18 583.393 1026.58 583.393 1025.85V1021.58H584.737V1025.7C584.737 1026.42 584.91 1026.97 585.255 1027.33C585.61 1027.7 586.105 1027.88 586.739 1027.88C587.206 1027.88 587.612 1027.79 587.957 1027.6C588.303 1027.4 588.569 1027.12 588.755 1026.76C588.942 1026.39 589.035 1025.94 589.035 1025.42V1021.58H590.379V1029H589.105V1027L589.315 1027.53C589.073 1028.02 588.709 1028.41 588.223 1028.68C587.738 1028.95 587.192 1029.08 586.585 1029.08ZM596.004 1029.08C595.285 1029.08 594.641 1028.93 594.072 1028.61C593.512 1028.29 593.069 1027.85 592.742 1027.28C592.415 1026.71 592.252 1026.05 592.252 1025.29C592.252 1024.53 592.415 1023.88 592.742 1023.32C593.069 1022.75 593.512 1022.3 594.072 1021.99C594.641 1021.67 595.285 1021.51 596.004 1021.51C596.629 1021.51 597.194 1021.65 597.698 1021.93C598.202 1022.21 598.603 1022.63 598.902 1023.19C599.21 1023.75 599.364 1024.45 599.364 1025.29C599.364 1026.13 599.215 1026.83 598.916 1027.39C598.627 1027.95 598.23 1028.37 597.726 1028.66C597.222 1028.94 596.648 1029.08 596.004 1029.08ZM596.116 1027.91C596.583 1027.91 597.003 1027.8 597.376 1027.59C597.759 1027.37 598.057 1027.07 598.272 1026.68C598.496 1026.27 598.608 1025.81 598.608 1025.29C598.608 1024.76 598.496 1024.3 598.272 1023.92C598.057 1023.53 597.759 1023.22 597.376 1023.01C597.003 1022.79 596.583 1022.69 596.116 1022.69C595.64 1022.69 595.215 1022.79 594.842 1023.01C594.469 1023.22 594.17 1023.53 593.946 1023.92C593.722 1024.3 593.61 1024.76 593.61 1025.29C593.61 1025.81 593.722 1026.27 593.946 1026.68C594.17 1027.07 594.469 1027.37 594.842 1027.59C595.215 1027.8 595.64 1027.91 596.116 1027.91ZM598.65 1029V1027L598.734 1025.28L598.594 1023.55V1018.61H599.938V1029H598.65ZM605.785 1029.08C604.992 1029.08 604.292 1028.92 603.685 1028.59C603.088 1028.27 602.621 1027.82 602.285 1027.25C601.958 1026.68 601.795 1026.03 601.795 1025.29C601.795 1024.55 601.954 1023.9 602.271 1023.33C602.598 1022.76 603.041 1022.32 603.601 1022C604.17 1021.67 604.81 1021.51 605.519 1021.51C606.238 1021.51 606.872 1021.67 607.423 1021.99C607.974 1022.3 608.403 1022.75 608.711 1023.33C609.028 1023.9 609.187 1024.57 609.187 1025.33C609.187 1025.39 609.182 1025.45 609.173 1025.53C609.173 1025.6 609.168 1025.67 609.159 1025.74H602.845V1024.77H608.459L607.913 1025.11C607.922 1024.63 607.824 1024.21 607.619 1023.83C607.414 1023.46 607.129 1023.17 606.765 1022.97C606.41 1022.75 605.995 1022.64 605.519 1022.64C605.052 1022.64 604.637 1022.75 604.273 1022.97C603.909 1023.17 603.624 1023.47 603.419 1023.85C603.214 1024.22 603.111 1024.65 603.111 1025.14V1025.36C603.111 1025.85 603.223 1026.3 603.447 1026.69C603.68 1027.07 604.002 1027.37 604.413 1027.59C604.824 1027.8 605.295 1027.91 605.827 1027.91C606.266 1027.91 606.662 1027.83 607.017 1027.68C607.381 1027.53 607.698 1027.31 607.969 1027.01L608.711 1027.88C608.375 1028.27 607.955 1028.57 607.451 1028.78C606.956 1028.98 606.401 1029.08 605.785 1029.08ZM613.181 1029.08C612.565 1029.08 611.977 1029 611.417 1028.83C610.867 1028.66 610.433 1028.46 610.115 1028.22L610.675 1027.15C610.993 1027.37 611.385 1027.55 611.851 1027.7C612.318 1027.85 612.794 1027.92 613.279 1027.92C613.905 1027.92 614.353 1027.83 614.623 1027.66C614.903 1027.48 615.043 1027.23 615.043 1026.91C615.043 1026.68 614.959 1026.5 614.791 1026.37C614.623 1026.24 614.399 1026.14 614.119 1026.07C613.849 1026.01 613.545 1025.95 613.209 1025.91C612.873 1025.85 612.537 1025.78 612.201 1025.71C611.865 1025.63 611.557 1025.51 611.277 1025.37C610.997 1025.22 610.773 1025.02 610.605 1024.77C610.437 1024.51 610.353 1024.17 610.353 1023.74C610.353 1023.29 610.479 1022.9 610.731 1022.56C610.983 1022.22 611.338 1021.97 611.795 1021.79C612.262 1021.6 612.813 1021.51 613.447 1021.51C613.933 1021.51 614.423 1021.57 614.917 1021.69C615.421 1021.8 615.832 1021.97 616.149 1022.18L615.575 1023.25C615.239 1023.02 614.889 1022.87 614.525 1022.78C614.161 1022.7 613.797 1022.66 613.433 1022.66C612.845 1022.66 612.407 1022.76 612.117 1022.95C611.828 1023.14 611.683 1023.38 611.683 1023.68C611.683 1023.93 611.767 1024.13 611.935 1024.27C612.113 1024.4 612.337 1024.5 612.607 1024.58C612.887 1024.65 613.195 1024.72 613.531 1024.77C613.867 1024.82 614.203 1024.88 614.539 1024.97C614.875 1025.04 615.179 1025.15 615.449 1025.29C615.729 1025.43 615.953 1025.63 616.121 1025.88C616.299 1026.13 616.387 1026.47 616.387 1026.89C616.387 1027.33 616.257 1027.72 615.995 1028.05C615.734 1028.37 615.365 1028.63 614.889 1028.82C614.413 1029 613.844 1029.08 613.181 1029.08ZM618.067 1029V1021.58H619.411V1029H618.067ZM618.739 1020.15C618.478 1020.15 618.258 1020.07 618.081 1019.9C617.913 1019.73 617.829 1019.53 617.829 1019.28C617.829 1019.03 617.913 1018.82 618.081 1018.65C618.258 1018.49 618.478 1018.4 618.739 1018.4C619 1018.4 619.215 1018.49 619.383 1018.65C619.56 1018.81 619.649 1019.01 619.649 1019.26C619.649 1019.51 619.565 1019.72 619.397 1019.9C619.229 1020.07 619.01 1020.15 618.739 1020.15ZM625.225 1031.8C624.544 1031.8 623.881 1031.7 623.237 1031.51C622.602 1031.32 622.084 1031.05 621.683 1030.69L622.327 1029.66C622.672 1029.96 623.097 1030.19 623.601 1030.36C624.105 1030.54 624.632 1030.62 625.183 1030.62C626.06 1030.62 626.704 1030.42 627.115 1030.01C627.526 1029.6 627.731 1028.97 627.731 1028.13V1026.56L627.871 1025.09L627.801 1023.61V1021.58H629.075V1027.99C629.075 1029.3 628.748 1030.26 628.095 1030.88C627.442 1031.49 626.485 1031.8 625.225 1031.8ZM625.057 1028.69C624.338 1028.69 623.694 1028.54 623.125 1028.24C622.565 1027.94 622.117 1027.51 621.781 1026.97C621.454 1026.43 621.291 1025.8 621.291 1025.09C621.291 1024.38 621.454 1023.75 621.781 1023.22C622.117 1022.68 622.565 1022.26 623.125 1021.96C623.694 1021.66 624.338 1021.51 625.057 1021.51C625.692 1021.51 626.27 1021.64 626.793 1021.9C627.316 1022.15 627.731 1022.55 628.039 1023.08C628.356 1023.61 628.515 1024.28 628.515 1025.09C628.515 1025.9 628.356 1026.56 628.039 1027.1C627.731 1027.63 627.316 1028.03 626.793 1028.3C626.27 1028.56 625.692 1028.69 625.057 1028.69ZM625.211 1027.52C625.706 1027.52 626.144 1027.41 626.527 1027.21C626.91 1027 627.208 1026.72 627.423 1026.35C627.647 1025.99 627.759 1025.57 627.759 1025.09C627.759 1024.62 627.647 1024.2 627.423 1023.83C627.208 1023.47 626.91 1023.19 626.527 1022.99C626.144 1022.79 625.706 1022.69 625.211 1022.69C624.716 1022.69 624.273 1022.79 623.881 1022.99C623.498 1023.19 623.195 1023.47 622.971 1023.83C622.756 1024.2 622.649 1024.62 622.649 1025.09C622.649 1025.57 622.756 1025.99 622.971 1026.35C623.195 1026.72 623.498 1027 623.881 1027.21C624.273 1027.41 624.716 1027.52 625.211 1027.52ZM635.605 1021.51C636.212 1021.51 636.744 1021.63 637.201 1021.86C637.668 1022.09 638.032 1022.45 638.293 1022.92C638.554 1023.4 638.685 1024 638.685 1024.73V1029H637.341V1024.88C637.341 1024.17 637.164 1023.62 636.809 1023.26C636.464 1022.9 635.974 1022.71 635.339 1022.71C634.863 1022.71 634.448 1022.81 634.093 1022.99C633.738 1023.18 633.463 1023.46 633.267 1023.82C633.08 1024.18 632.987 1024.64 632.987 1025.18V1029H631.643V1021.58H632.931V1023.58L632.721 1023.05C632.964 1022.56 633.337 1022.19 633.841 1021.92C634.345 1021.65 634.933 1021.51 635.605 1021.51ZM639.898 1029.87V1029H646.898V1029.87H639.898Z" fill="black"/>
<path d="M543.831 964.926H531.056C529.826 964.926 528.83 965.922 528.83 967.15V976.943C528.83 978.464 530.652 979.245 531.754 978.196L531.83 978.124C532.103 977.864 532.466 977.719 532.843 977.719C533.654 977.719 534.311 977.062 534.311 976.252V972.373C534.311 971.144 535.308 970.148 536.537 970.148H543.831C548.859 970.414 552.008 975.062 552.957 977.682C553.223 978.414 554.12 979.323 554.899 979.323C555.479 979.323 555.948 979.792 555.948 980.372V980.956C555.948 981.535 555.479 982.004 554.899 982.004C554.12 982.004 553.223 982.914 552.957 983.645C552.008 986.265 548.859 990.913 543.831 991.179H534.311H531.056C529.826 991.179 528.83 992.175 528.83 993.404V994.318C528.83 995.547 529.826 996.543 531.056 996.543H543.831C550.329 995.67 559.181 990.344 558.545 979.323C557.214 970.293 552.012 965.909 543.831 964.926Z" fill="#404040" stroke="#404040"/>
<path d="M517.161 977.964V966.988C517.161 965.759 518.157 964.763 519.387 964.763H521.118C522.347 964.763 523.344 965.759 523.344 966.988V992.412C523.344 994.269 521.192 995.298 519.745 994.132C519.583 994.002 519.403 993.895 519.21 993.814L518.528 993.529C517.7 993.183 517.161 992.374 517.161 991.476V977.964Z" fill="#404040" stroke="#404040"/>
<path d="M442.47 1029V1019.2H446.6C447.645 1019.2 448.565 1019.41 449.358 1019.82C450.161 1020.23 450.781 1020.8 451.22 1021.54C451.668 1022.28 451.892 1023.13 451.892 1024.1C451.892 1025.07 451.668 1025.92 451.22 1026.66C450.781 1027.4 450.161 1027.97 449.358 1028.38C448.565 1028.79 447.645 1029 446.6 1029H442.47ZM443.87 1027.78H446.516C447.328 1027.78 448.028 1027.63 448.616 1027.32C449.213 1027.01 449.675 1026.58 450.002 1026.03C450.329 1025.47 450.492 1024.83 450.492 1024.1C450.492 1023.36 450.329 1022.72 450.002 1022.17C449.675 1021.62 449.213 1021.19 448.616 1020.88C448.028 1020.57 447.328 1020.42 446.516 1020.42H443.87V1027.78ZM457.144 1029.08C456.351 1029.08 455.651 1028.92 455.044 1028.59C454.447 1028.27 453.98 1027.82 453.644 1027.25C453.318 1026.68 453.154 1026.03 453.154 1025.29C453.154 1024.55 453.313 1023.9 453.63 1023.33C453.957 1022.76 454.4 1022.32 454.96 1022C455.53 1021.67 456.169 1021.51 456.878 1021.51C457.597 1021.51 458.232 1021.67 458.782 1021.99C459.333 1022.3 459.762 1022.75 460.07 1023.33C460.388 1023.9 460.546 1024.57 460.546 1025.33C460.546 1025.39 460.542 1025.45 460.532 1025.53C460.532 1025.6 460.528 1025.67 460.518 1025.74H454.204V1024.77H459.818L459.272 1025.11C459.282 1024.63 459.184 1024.21 458.978 1023.83C458.773 1023.46 458.488 1023.17 458.124 1022.97C457.77 1022.75 457.354 1022.64 456.878 1022.64C456.412 1022.64 455.996 1022.75 455.632 1022.97C455.268 1023.17 454.984 1023.47 454.778 1023.85C454.573 1024.22 454.47 1024.65 454.47 1025.14V1025.36C454.47 1025.85 454.582 1026.3 454.806 1026.69C455.04 1027.07 455.362 1027.37 455.772 1027.59C456.183 1027.8 456.654 1027.91 457.186 1027.91C457.625 1027.91 458.022 1027.83 458.376 1027.68C458.74 1027.53 459.058 1027.31 459.328 1027.01L460.07 1027.88C459.734 1028.27 459.314 1028.57 458.81 1028.78C458.316 1028.98 457.76 1029.08 457.144 1029.08ZM464.541 1029.08C463.925 1029.08 463.337 1029 462.777 1028.83C462.226 1028.66 461.792 1028.46 461.475 1028.22L462.035 1027.15C462.352 1027.37 462.744 1027.55 463.211 1027.7C463.677 1027.85 464.153 1027.92 464.639 1027.92C465.264 1027.92 465.712 1027.83 465.983 1027.66C466.263 1027.48 466.403 1027.23 466.403 1026.91C466.403 1026.68 466.319 1026.5 466.151 1026.37C465.983 1026.24 465.759 1026.14 465.479 1026.07C465.208 1026.01 464.905 1025.95 464.569 1025.91C464.233 1025.85 463.897 1025.78 463.561 1025.71C463.225 1025.63 462.917 1025.51 462.637 1025.37C462.357 1025.22 462.133 1025.02 461.965 1024.77C461.797 1024.51 461.713 1024.17 461.713 1023.74C461.713 1023.29 461.839 1022.9 462.091 1022.56C462.343 1022.22 462.697 1021.97 463.155 1021.79C463.621 1021.6 464.172 1021.51 464.807 1021.51C465.292 1021.51 465.782 1021.57 466.277 1021.69C466.781 1021.8 467.191 1021.97 467.509 1022.18L466.935 1023.25C466.599 1023.02 466.249 1022.87 465.885 1022.78C465.521 1022.7 465.157 1022.66 464.793 1022.66C464.205 1022.66 463.766 1022.76 463.477 1022.95C463.187 1023.14 463.043 1023.38 463.043 1023.68C463.043 1023.93 463.127 1024.13 463.295 1024.27C463.472 1024.4 463.696 1024.5 463.967 1024.58C464.247 1024.65 464.555 1024.72 464.891 1024.77C465.227 1024.82 465.563 1024.88 465.899 1024.97C466.235 1025.04 466.538 1025.15 466.809 1025.29C467.089 1025.43 467.313 1025.63 467.481 1025.88C467.658 1026.13 467.747 1026.47 467.747 1026.89C467.747 1027.33 467.616 1027.72 467.355 1028.05C467.093 1028.37 466.725 1028.63 466.249 1028.82C465.773 1029 465.203 1029.08 464.541 1029.08ZM469.426 1029V1021.58H470.77V1029H469.426ZM470.098 1020.15C469.837 1020.15 469.618 1020.07 469.44 1019.9C469.272 1019.73 469.188 1019.53 469.188 1019.28C469.188 1019.03 469.272 1018.82 469.44 1018.65C469.618 1018.49 469.837 1018.4 470.098 1018.4C470.36 1018.4 470.574 1018.49 470.742 1018.65C470.92 1018.81 471.008 1019.01 471.008 1019.26C471.008 1019.51 470.924 1019.72 470.756 1019.9C470.588 1020.07 470.369 1020.15 470.098 1020.15ZM476.585 1031.8C475.903 1031.8 475.241 1031.7 474.597 1031.51C473.962 1031.32 473.444 1031.05 473.043 1030.69L473.687 1029.66C474.032 1029.96 474.457 1030.19 474.961 1030.36C475.465 1030.54 475.992 1030.62 476.543 1030.62C477.42 1030.62 478.064 1030.42 478.475 1030.01C478.885 1029.6 479.091 1028.97 479.091 1028.13V1026.56L479.231 1025.09L479.161 1023.61V1021.58H480.435V1027.99C480.435 1029.3 480.108 1030.26 479.454 1030.88C478.801 1031.49 477.845 1031.8 476.585 1031.8ZM476.417 1028.69C475.698 1028.69 475.054 1028.54 474.485 1028.24C473.925 1027.94 473.477 1027.51 473.141 1026.97C472.814 1026.43 472.651 1025.8 472.651 1025.09C472.651 1024.38 472.814 1023.75 473.141 1023.22C473.477 1022.68 473.925 1022.26 474.485 1021.96C475.054 1021.66 475.698 1021.51 476.417 1021.51C477.051 1021.51 477.63 1021.64 478.153 1021.9C478.675 1022.15 479.091 1022.55 479.399 1023.08C479.716 1023.61 479.875 1024.28 479.875 1025.09C479.875 1025.9 479.716 1026.56 479.399 1027.1C479.091 1027.63 478.675 1028.03 478.153 1028.3C477.63 1028.56 477.051 1028.69 476.417 1028.69ZM476.571 1027.52C477.065 1027.52 477.504 1027.41 477.887 1027.21C478.269 1027 478.568 1026.72 478.783 1026.35C479.007 1025.99 479.119 1025.57 479.119 1025.09C479.119 1024.62 479.007 1024.2 478.783 1023.83C478.568 1023.47 478.269 1023.19 477.887 1022.99C477.504 1022.79 477.065 1022.69 476.571 1022.69C476.076 1022.69 475.633 1022.79 475.241 1022.99C474.858 1023.19 474.555 1023.47 474.331 1023.83C474.116 1024.2 474.009 1024.62 474.009 1025.09C474.009 1025.57 474.116 1025.99 474.331 1026.35C474.555 1026.72 474.858 1027 475.241 1027.21C475.633 1027.41 476.076 1027.52 476.571 1027.52ZM486.965 1021.51C487.571 1021.51 488.103 1021.63 488.561 1021.86C489.027 1022.09 489.391 1022.45 489.653 1022.92C489.914 1023.4 490.045 1024 490.045 1024.73V1029H488.701V1024.88C488.701 1024.17 488.523 1023.62 488.169 1023.26C487.823 1022.9 487.333 1022.71 486.699 1022.71C486.223 1022.71 485.807 1022.81 485.453 1022.99C485.098 1023.18 484.823 1023.46 484.627 1023.82C484.44 1024.18 484.347 1024.64 484.347 1025.18V1029H483.003V1021.58H484.291V1023.58L484.081 1023.05C484.323 1022.56 484.697 1022.19 485.201 1021.92C485.705 1021.65 486.293 1021.51 486.965 1021.51ZM500.226 1029.08C499.591 1029.08 499.017 1028.94 498.504 1028.66C498 1028.37 497.598 1027.95 497.3 1027.39C497.01 1026.83 496.866 1026.13 496.866 1025.29C496.866 1024.45 497.015 1023.75 497.314 1023.19C497.622 1022.63 498.028 1022.21 498.532 1021.93C499.045 1021.65 499.61 1021.51 500.226 1021.51C500.954 1021.51 501.598 1021.67 502.158 1021.99C502.718 1022.3 503.161 1022.75 503.488 1023.32C503.814 1023.88 503.978 1024.53 503.978 1025.29C503.978 1026.05 503.814 1026.71 503.488 1027.28C503.161 1027.85 502.718 1028.29 502.158 1028.61C501.598 1028.93 500.954 1029.08 500.226 1029.08ZM496.292 1029V1018.61H497.636V1023.55L497.496 1025.28L497.58 1027V1029H496.292ZM500.114 1027.91C500.59 1027.91 501.014 1027.8 501.388 1027.59C501.77 1027.37 502.069 1027.07 502.284 1026.68C502.508 1026.27 502.62 1025.81 502.62 1025.29C502.62 1024.76 502.508 1024.3 502.284 1023.92C502.069 1023.53 501.77 1023.22 501.388 1023.01C501.014 1022.79 500.59 1022.69 500.114 1022.69C499.647 1022.69 499.222 1022.79 498.84 1023.01C498.466 1023.22 498.168 1023.53 497.944 1023.92C497.729 1024.3 497.622 1024.76 497.622 1025.29C497.622 1025.81 497.729 1026.27 497.944 1026.68C498.168 1027.07 498.466 1027.37 498.84 1027.59C499.222 1027.8 499.647 1027.91 500.114 1027.91ZM505.951 1031.8C505.597 1031.8 505.251 1031.74 504.915 1031.62C504.579 1031.51 504.29 1031.34 504.047 1031.11L504.621 1030.11C504.808 1030.28 505.013 1030.42 505.237 1030.51C505.461 1030.61 505.699 1030.65 505.951 1030.65C506.278 1030.65 506.549 1030.57 506.763 1030.4C506.978 1030.23 507.179 1029.93 507.365 1029.5L507.827 1028.48L507.967 1028.31L510.879 1021.58H512.195L508.597 1029.74C508.383 1030.26 508.14 1030.68 507.869 1030.97C507.608 1031.27 507.319 1031.48 507.001 1031.6C506.684 1031.73 506.334 1031.8 505.951 1031.8ZM507.715 1029.24L504.327 1021.58H505.727L508.611 1028.19L507.715 1029.24ZM513.867 1023.43C513.606 1023.43 513.382 1023.34 513.195 1023.16C513.009 1022.98 512.915 1022.74 512.915 1022.46C512.915 1022.18 513.009 1021.95 513.195 1021.78C513.382 1021.6 513.606 1021.51 513.867 1021.51C514.119 1021.51 514.334 1021.6 514.511 1021.78C514.698 1021.95 514.791 1022.18 514.791 1022.46C514.791 1022.74 514.698 1022.98 514.511 1023.16C514.334 1023.34 514.119 1023.43 513.867 1023.43ZM513.867 1029.08C513.606 1029.08 513.382 1029 513.195 1028.82C513.009 1028.63 512.915 1028.4 512.915 1028.12C512.915 1027.84 513.009 1027.61 513.195 1027.43C513.382 1027.25 513.606 1027.17 513.867 1027.17C514.119 1027.17 514.334 1027.25 514.511 1027.43C514.698 1027.61 514.791 1027.84 514.791 1028.12C514.791 1028.4 514.698 1028.63 514.511 1028.82C514.334 1029 514.119 1029.08 513.867 1029.08ZM526.427 1031.83C525.456 1031.83 524.57 1031.67 523.767 1031.35C522.964 1031.03 522.274 1030.59 521.695 1030.02C521.116 1029.45 520.668 1028.78 520.351 1028.01C520.034 1027.22 519.875 1026.37 519.875 1025.44C519.875 1024.52 520.034 1023.67 520.351 1022.9C520.668 1022.12 521.116 1021.45 521.695 1020.88C522.283 1020.31 522.983 1019.87 523.795 1019.56C524.607 1019.26 525.503 1019.1 526.483 1019.1C527.444 1019.1 528.322 1019.25 529.115 1019.55C529.908 1019.85 530.594 1020.27 531.173 1020.82C531.761 1021.37 532.214 1022.01 532.531 1022.77C532.848 1023.52 533.007 1024.34 533.007 1025.25C533.007 1026.04 532.909 1026.72 532.713 1027.29C532.517 1027.86 532.232 1028.3 531.859 1028.62C531.495 1028.93 531.047 1029.08 530.515 1029.08C529.992 1029.08 529.572 1028.93 529.255 1028.61C528.947 1028.29 528.793 1027.84 528.793 1027.25V1026.3L528.863 1025.44L528.737 1023.83V1021.97H529.955V1027.01C529.955 1027.39 530.03 1027.65 530.179 1027.8C530.338 1027.95 530.529 1028.02 530.753 1028.02C531.024 1028.02 531.257 1027.91 531.453 1027.7C531.658 1027.48 531.808 1027.17 531.901 1026.76C532.004 1026.34 532.055 1025.84 532.055 1025.26C532.055 1024.48 531.92 1023.77 531.649 1023.13C531.388 1022.49 531.005 1021.93 530.501 1021.47C530.006 1021 529.418 1020.65 528.737 1020.4C528.065 1020.15 527.314 1020.03 526.483 1020.03C525.652 1020.03 524.892 1020.16 524.201 1020.43C523.52 1020.69 522.932 1021.07 522.437 1021.55C521.942 1022.03 521.56 1022.6 521.289 1023.26C521.028 1023.92 520.897 1024.65 520.897 1025.44C520.897 1026.25 521.028 1026.98 521.289 1027.66C521.55 1028.32 521.924 1028.89 522.409 1029.36C522.904 1029.85 523.487 1030.22 524.159 1030.48C524.84 1030.75 525.596 1030.89 526.427 1030.89C526.856 1030.89 527.309 1030.84 527.785 1030.74C528.261 1030.64 528.709 1030.49 529.129 1030.27L529.437 1031.17C529.008 1031.38 528.522 1031.55 527.981 1031.66C527.44 1031.77 526.922 1031.83 526.427 1031.83ZM526.175 1029.08C525.512 1029.08 524.924 1028.93 524.411 1028.62C523.898 1028.3 523.492 1027.88 523.193 1027.33C522.894 1026.79 522.745 1026.18 522.745 1025.49C522.745 1024.79 522.894 1024.17 523.193 1023.64C523.492 1023.1 523.898 1022.68 524.411 1022.38C524.924 1022.07 525.512 1021.92 526.175 1021.92C526.819 1021.92 527.384 1022.06 527.869 1022.34C528.354 1022.61 528.732 1023.01 529.003 1023.54C529.283 1024.07 529.423 1024.72 529.423 1025.49C529.423 1026.25 529.288 1026.9 529.017 1027.43C528.746 1027.96 528.368 1028.37 527.883 1028.66C527.398 1028.94 526.828 1029.08 526.175 1029.08ZM526.371 1027.99C526.828 1027.99 527.234 1027.89 527.589 1027.7C527.953 1027.49 528.238 1027.2 528.443 1026.83C528.658 1026.45 528.765 1026 528.765 1025.49C528.765 1024.96 528.658 1024.52 528.443 1024.14C528.238 1023.77 527.953 1023.48 527.589 1023.29C527.234 1023.09 526.828 1022.99 526.371 1022.99C525.904 1022.99 525.489 1023.1 525.125 1023.3C524.77 1023.5 524.49 1023.78 524.285 1024.16C524.089 1024.53 523.991 1024.97 523.991 1025.49C523.991 1025.99 524.089 1026.43 524.285 1026.8C524.49 1027.18 524.77 1027.47 525.125 1027.68C525.489 1027.89 525.904 1027.99 526.371 1027.99ZM533.258 1029.87V1029H540.258V1029.87H533.258ZM541.532 1029V1021.58H542.876V1029H541.532ZM542.204 1020.15C541.942 1020.15 541.723 1020.07 541.546 1019.9C541.378 1019.73 541.294 1019.53 541.294 1019.28C541.294 1019.03 541.378 1018.82 541.546 1018.65C541.723 1018.49 541.942 1018.4 542.204 1018.4C542.465 1018.4 542.68 1018.49 542.848 1018.65C543.025 1018.81 543.114 1019.01 543.114 1019.26C543.114 1019.51 543.03 1019.72 542.862 1019.9C542.694 1020.07 542.474 1020.15 542.204 1020.15ZM549.376 1029.08C548.741 1029.08 548.167 1028.94 547.654 1028.66C547.15 1028.37 546.749 1027.95 546.45 1027.39C546.161 1026.83 546.016 1026.13 546.016 1025.29C546.016 1024.45 546.165 1023.75 546.464 1023.19C546.772 1022.63 547.178 1022.21 547.682 1021.93C548.195 1021.65 548.76 1021.51 549.376 1021.51C550.104 1021.51 550.748 1021.67 551.308 1021.99C551.868 1022.3 552.311 1022.75 552.638 1023.32C552.965 1023.88 553.128 1024.53 553.128 1025.29C553.128 1026.05 552.965 1026.71 552.638 1027.28C552.311 1027.85 551.868 1028.29 551.308 1028.61C550.748 1028.93 550.104 1029.08 549.376 1029.08ZM545.442 1029V1018.61H546.786V1023.55L546.646 1025.28L546.73 1027V1029H545.442ZM549.264 1027.91C549.74 1027.91 550.165 1027.8 550.538 1027.59C550.921 1027.37 551.219 1027.07 551.434 1026.68C551.658 1026.27 551.77 1025.81 551.77 1025.29C551.77 1024.76 551.658 1024.3 551.434 1023.92C551.219 1023.53 550.921 1023.22 550.538 1023.01C550.165 1022.79 549.74 1022.69 549.264 1022.69C548.797 1022.69 548.373 1022.79 547.99 1023.01C547.617 1023.22 547.318 1023.53 547.094 1023.92C546.879 1024.3 546.772 1024.76 546.772 1025.29C546.772 1025.81 546.879 1026.27 547.094 1026.68C547.318 1027.07 547.617 1027.37 547.99 1027.59C548.373 1027.8 548.797 1027.91 549.264 1027.91ZM558.947 1021.51C559.554 1021.51 560.086 1021.63 560.543 1021.86C561.01 1022.09 561.374 1022.45 561.635 1022.92C561.896 1023.4 562.027 1024 562.027 1024.73V1029H560.683V1024.88C560.683 1024.17 560.506 1023.62 560.151 1023.26C559.806 1022.9 559.316 1022.71 558.681 1022.71C558.205 1022.71 557.79 1022.81 557.435 1022.99C557.08 1023.18 556.805 1023.46 556.609 1023.82C556.422 1024.18 556.329 1024.64 556.329 1025.18V1029H554.985V1021.58H556.273V1023.58L556.063 1023.05C556.306 1022.56 556.679 1022.19 557.183 1021.92C557.687 1021.65 558.275 1021.51 558.947 1021.51ZM567.636 1029.08C567.002 1029.08 566.442 1028.97 565.956 1028.73C565.48 1028.5 565.107 1028.15 564.836 1027.67C564.575 1027.18 564.444 1026.58 564.444 1025.85V1021.58H565.788V1025.7C565.788 1026.42 565.961 1026.97 566.306 1027.33C566.661 1027.7 567.156 1027.88 567.79 1027.88C568.257 1027.88 568.663 1027.79 569.008 1027.6C569.354 1027.4 569.62 1027.12 569.806 1026.76C569.993 1026.39 570.086 1025.94 570.086 1025.42V1021.58H571.43V1029H570.156V1027L570.366 1027.53C570.124 1028.02 569.76 1028.41 569.274 1028.68C568.789 1028.95 568.243 1029.08 567.636 1029.08ZM577.111 1029.08C576.476 1029.08 575.916 1028.97 575.431 1028.73C574.955 1028.5 574.582 1028.15 574.311 1027.67C574.05 1027.18 573.919 1026.58 573.919 1025.85V1021.58H575.263V1025.7C575.263 1026.42 575.436 1026.97 575.781 1027.33C576.136 1027.7 576.63 1027.88 577.265 1027.88C577.732 1027.88 578.138 1027.79 578.483 1027.6C578.828 1027.4 579.094 1027.12 579.281 1026.76C579.468 1026.39 579.561 1025.94 579.561 1025.42V1021.58H580.905V1029H579.631V1027L579.841 1027.53C579.598 1028.02 579.234 1028.41 578.749 1028.68C578.264 1028.95 577.718 1029.08 577.111 1029.08ZM586.585 1029.08C585.951 1029.08 585.391 1028.97 584.905 1028.73C584.429 1028.5 584.056 1028.15 583.785 1027.67C583.524 1027.18 583.393 1026.58 583.393 1025.85V1021.58H584.737V1025.7C584.737 1026.42 584.91 1026.97 585.255 1027.33C585.61 1027.7 586.105 1027.88 586.739 1027.88C587.206 1027.88 587.612 1027.79 587.957 1027.6C588.303 1027.4 588.569 1027.12 588.755 1026.76C588.942 1026.39 589.035 1025.94 589.035 1025.42V1021.58H590.379V1029H589.105V1027L589.315 1027.53C589.073 1028.02 588.709 1028.41 588.223 1028.68C587.738 1028.95 587.192 1029.08 586.585 1029.08ZM596.004 1029.08C595.285 1029.08 594.641 1028.93 594.072 1028.61C593.512 1028.29 593.069 1027.85 592.742 1027.28C592.415 1026.71 592.252 1026.05 592.252 1025.29C592.252 1024.53 592.415 1023.88 592.742 1023.32C593.069 1022.75 593.512 1022.3 594.072 1021.99C594.641 1021.67 595.285 1021.51 596.004 1021.51C596.629 1021.51 597.194 1021.65 597.698 1021.93C598.202 1022.21 598.603 1022.63 598.902 1023.19C599.21 1023.75 599.364 1024.45 599.364 1025.29C599.364 1026.13 599.215 1026.83 598.916 1027.39C598.627 1027.95 598.23 1028.37 597.726 1028.66C597.222 1028.94 596.648 1029.08 596.004 1029.08ZM596.116 1027.91C596.583 1027.91 597.003 1027.8 597.376 1027.59C597.759 1027.37 598.057 1027.07 598.272 1026.68C598.496 1026.27 598.608 1025.81 598.608 1025.29C598.608 1024.76 598.496 1024.3 598.272 1023.92C598.057 1023.53 597.759 1023.22 597.376 1023.01C597.003 1022.79 596.583 1022.69 596.116 1022.69C595.64 1022.69 595.215 1022.79 594.842 1023.01C594.469 1023.22 594.17 1023.53 593.946 1023.92C593.722 1024.3 593.61 1024.76 593.61 1025.29C593.61 1025.81 593.722 1026.27 593.946 1026.68C594.17 1027.07 594.469 1027.37 594.842 1027.59C595.215 1027.8 595.64 1027.91 596.116 1027.91ZM598.65 1029V1027L598.734 1025.28L598.594 1023.55V1018.61H599.938V1029H598.65ZM605.785 1029.08C604.992 1029.08 604.292 1028.92 603.685 1028.59C603.088 1028.27 602.621 1027.82 602.285 1027.25C601.958 1026.68 601.795 1026.03 601.795 1025.29C601.795 1024.55 601.954 1023.9 602.271 1023.33C602.598 1022.76 603.041 1022.32 603.601 1022C604.17 1021.67 604.81 1021.51 605.519 1021.51C606.238 1021.51 606.872 1021.67 607.423 1021.99C607.974 1022.3 608.403 1022.75 608.711 1023.33C609.028 1023.9 609.187 1024.57 609.187 1025.33C609.187 1025.39 609.182 1025.45 609.173 1025.53C609.173 1025.6 609.168 1025.67 609.159 1025.74H602.845V1024.77H608.459L607.913 1025.11C607.922 1024.63 607.824 1024.21 607.619 1023.83C607.414 1023.46 607.129 1023.17 606.765 1022.97C606.41 1022.75 605.995 1022.64 605.519 1022.64C605.052 1022.64 604.637 1022.75 604.273 1022.97C603.909 1023.17 603.624 1023.47 603.419 1023.85C603.214 1024.22 603.111 1024.65 603.111 1025.14V1025.36C603.111 1025.85 603.223 1026.3 603.447 1026.69C603.68 1027.07 604.002 1027.37 604.413 1027.59C604.824 1027.8 605.295 1027.91 605.827 1027.91C606.266 1027.91 606.662 1027.83 607.017 1027.68C607.381 1027.53 607.698 1027.31 607.969 1027.01L608.711 1027.88C608.375 1028.27 607.955 1028.57 607.451 1028.78C606.956 1028.98 606.401 1029.08 605.785 1029.08ZM613.181 1029.08C612.565 1029.08 611.977 1029 611.417 1028.83C610.867 1028.66 610.433 1028.46 610.115 1028.22L610.675 1027.15C610.993 1027.37 611.385 1027.55 611.851 1027.7C612.318 1027.85 612.794 1027.92 613.279 1027.92C613.905 1027.92 614.353 1027.83 614.623 1027.66C614.903 1027.48 615.043 1027.23 615.043 1026.91C615.043 1026.68 614.959 1026.5 614.791 1026.37C614.623 1026.24 614.399 1026.14 614.119 1026.07C613.849 1026.01 613.545 1025.95 613.209 1025.91C612.873 1025.85 612.537 1025.78 612.201 1025.71C611.865 1025.63 611.557 1025.51 611.277 1025.37C610.997 1025.22 610.773 1025.02 610.605 1024.77C610.437 1024.51 610.353 1024.17 610.353 1023.74C610.353 1023.29 610.479 1022.9 610.731 1022.56C610.983 1022.22 611.338 1021.97 611.795 1021.79C612.262 1021.6 612.813 1021.51 613.447 1021.51C613.933 1021.51 614.423 1021.57 614.917 1021.69C615.421 1021.8 615.832 1021.97 616.149 1022.18L615.575 1023.25C615.239 1023.02 614.889 1022.87 614.525 1022.78C614.161 1022.7 613.797 1022.66 613.433 1022.66C612.845 1022.66 612.407 1022.76 612.117 1022.95C611.828 1023.14 611.683 1023.38 611.683 1023.68C611.683 1023.93 611.767 1024.13 611.935 1024.27C612.113 1024.4 612.337 1024.5 612.607 1024.58C612.887 1024.65 613.195 1024.72 613.531 1024.77C613.867 1024.82 614.203 1024.88 614.539 1024.97C614.875 1025.04 615.179 1025.15 615.449 1025.29C615.729 1025.43 615.953 1025.63 616.121 1025.88C616.299 1026.13 616.387 1026.47 616.387 1026.89C616.387 1027.33 616.257 1027.72 615.995 1028.05C615.734 1028.37 615.365 1028.63 614.889 1028.82C614.413 1029 613.844 1029.08 613.181 1029.08ZM618.067 1029V1021.58H619.411V1029H618.067ZM618.739 1020.15C618.478 1020.15 618.258 1020.07 618.081 1019.9C617.913 1019.73 617.829 1019.53 617.829 1019.28C617.829 1019.03 617.913 1018.82 618.081 1018.65C618.258 1018.49 618.478 1018.4 618.739 1018.4C619 1018.4 619.215 1018.49 619.383 1018.65C619.56 1018.81 619.649 1019.01 619.649 1019.26C619.649 1019.51 619.565 1019.72 619.397 1019.9C619.229 1020.07 619.01 1020.15 618.739 1020.15ZM625.225 1031.8C624.544 1031.8 623.881 1031.7 623.237 1031.51C622.602 1031.32 622.084 1031.05 621.683 1030.69L622.327 1029.66C622.672 1029.96 623.097 1030.19 623.601 1030.36C624.105 1030.54 624.632 1030.62 625.183 1030.62C626.06 1030.62 626.704 1030.42 627.115 1030.01C627.526 1029.6 627.731 1028.97 627.731 1028.13V1026.56L627.871 1025.09L627.801 1023.61V1021.58H629.075V1027.99C629.075 1029.3 628.748 1030.26 628.095 1030.88C627.442 1031.49 626.485 1031.8 625.225 1031.8ZM625.057 1028.69C624.338 1028.69 623.694 1028.54 623.125 1028.24C622.565 1027.94 622.117 1027.51 621.781 1026.97C621.454 1026.43 621.291 1025.8 621.291 1025.09C621.291 1024.38 621.454 1023.75 621.781 1023.22C622.117 1022.68 622.565 1022.26 623.125 1021.96C623.694 1021.66 624.338 1021.51 625.057 1021.51C625.692 1021.51 626.27 1021.64 626.793 1021.9C627.316 1022.15 627.731 1022.55 628.039 1023.08C628.356 1023.61 628.515 1024.28 628.515 1025.09C628.515 1025.9 628.356 1026.56 628.039 1027.1C627.731 1027.63 627.316 1028.03 626.793 1028.3C626.27 1028.56 625.692 1028.69 625.057 1028.69ZM625.211 1027.52C625.706 1027.52 626.144 1027.41 626.527 1027.21C626.91 1027 627.208 1026.72 627.423 1026.35C627.647 1025.99 627.759 1025.57 627.759 1025.09C627.759 1024.62 627.647 1024.2 627.423 1023.83C627.208 1023.47 626.91 1023.19 626.527 1022.99C626.144 1022.79 625.706 1022.69 625.211 1022.69C624.716 1022.69 624.273 1022.79 623.881 1022.99C623.498 1023.19 623.195 1023.47 622.971 1023.83C622.756 1024.2 622.649 1024.62 622.649 1025.09C622.649 1025.57 622.756 1025.99 622.971 1026.35C623.195 1026.72 623.498 1027 623.881 1027.21C624.273 1027.41 624.716 1027.52 625.211 1027.52ZM635.605 1021.51C636.212 1021.51 636.744 1021.63 637.201 1021.86C637.668 1022.09 638.032 1022.45 638.293 1022.92C638.554 1023.4 638.685 1024 638.685 1024.73V1029H637.341V1024.88C637.341 1024.17 637.164 1023.62 636.809 1023.26C636.464 1022.9 635.974 1022.71 635.339 1022.71C634.863 1022.71 634.448 1022.81 634.093 1022.99C633.738 1023.18 633.463 1023.46 633.267 1023.82C633.08 1024.18 632.987 1024.64 632.987 1025.18V1029H631.643V1021.58H632.931V1023.58L632.721 1023.05C632.964 1022.56 633.337 1022.19 633.841 1021.92C634.345 1021.65 634.933 1021.51 635.605 1021.51ZM639.898 1029.87V1029H646.898V1029.87H639.898Z" fill="#404040"/>
</g>
<defs>
<filter id="filter0_d_13_38" x="0" y="0" width="1088" height="1088" filterUnits="userSpaceOnUse" color-interpolation-filters="sRGB">
<feFlood flood-opacity="0" result="BackgroundImageFix"/>
<feColorMatrix in="SourceAlpha" type="matrix" values="0 0 0 0 0 0 0 0 0 0 0 0 0 0 0 0 0 0 127 0" result="hardAlpha"/>
<feOffset dy="4"/>
<feGaussianBlur stdDeviation="2"/>
<feComposite in2="hardAlpha" operator="out"/>
<feColorMatrix type="matrix" values="0 0 0 0 0 0 0 0 0 0 0 0 0 0 0 0 0 0 0.25 0"/>
<feBlend mode="normal" in2="BackgroundImageFix" result="effect1_dropShadow_13_38"/>
<feBlend mode="normal" in="SourceGraphic" in2="effect1_dropShadow_13_38" result="shape"/>
</filter>
</defs>
</svg>
