<svg width="1080" height="1080" viewBox="0 0 1080 1080" fill="none" xmlns="http://www.w3.org/2000/svg">
<g filter="url(#filter0_d_204_20)">
<path d="M160.25 465.841L164 468.682L203 500L238 456L205.671 423.671C203.356 421.356 199.613 421.325 197.259 423.6L159.883 459.73C158.105 461.449 158.279 464.348 160.25 465.841V465.841Z" fill="#6681D7"/>
<path d="M156.5 471.5L164 468.682L160.25 465.841C114.332 472.075 92.399 481.324 63 512.5C97.344 492.236 117.425 482.491 156.5 471.5Z" fill="#E0E0E0"/>
<path d="M164 468.682L156.5 471.5L150.33 510.421C150.132 511.669 150.737 512.907 151.842 513.517L183.5 531L203 500L164 468.682Z" fill="#E4C95F"/>
<path d="M164 468.682L156.5 471.5M164 468.682L160.25 465.841M164 468.682L203 500M156.5 471.5L150.33 510.421C150.132 511.669 150.737 512.907 151.842 513.517L183.5 531L203 500M156.5 471.5C117.425 482.491 97.344 492.236 63 512.5C92.399 481.324 114.332 472.075 160.25 465.841M160.25 465.841V465.841C158.279 464.348 158.105 461.449 159.883 459.73L197.259 423.6C199.613 421.325 203.356 421.356 205.671 423.671L238 456L203 500" stroke="black" stroke-width="1.5" stroke-linecap="round"/>
<path d="M464 399.304C606 264 838 352 901 565C924.192 635.907 944.389 661.774 994.574 666.468C999.197 666.901 1004.06 669.373 1004.48 673.997C1010.29 738.295 519.421 741.974 228.001 716C108 716 72.4975 628.253 172.001 563C173.64 551.603 176.382 540.585 180.102 530C184.548 517.349 190.391 505.318 197.419 494C207.688 477.463 220.487 462.45 235.15 449.258C295.31 395.136 386.869 371.664 464 399.304Z" fill="#E79EBB"/>
<path d="M516 428C499.896 415.356 482.357 405.883 464 399.304M464 399.304C606 264 838 352 901 565C924.192 635.907 944.389 661.774 994.574 666.468C999.197 666.901 1004.06 669.373 1004.48 673.997C1010.29 738.295 519.421 741.974 228.001 716C108 716 72.4975 628.253 172.001 563C173.64 551.603 176.382 540.585 180.102 530C184.548 517.349 190.391 505.318 197.419 494C207.688 477.463 220.487 462.45 235.15 449.258C295.31 395.136 386.869 371.664 464 399.304Z" stroke="black" stroke-width="3.5" stroke-linecap="round"/>
<path d="M263.585 546.255L235.15 541.782C220.639 545.858 210 559.187 210 575C210 594.054 225.446 609.5 244.5 609.5C263.554 609.5 279 594.054 279 575C279 563.003 272.877 552.436 263.585 546.255Z" fill="#E0E0E0"/>
<path d="M478 541L384.595 536.16C383.144 536.085 382.1 537.533 382.63 538.887L386 547.5L382.831 552.782C382.157 553.904 382.726 555.36 383.981 555.73L407 562.5H411.16H445.258H467L480.232 552.005C480.815 551.544 480.707 550.63 480.034 550.316L474 547.5L478 541Z" fill="black"/>
<path d="M428.209 627C447.263 627 462.709 611.554 462.709 592.5C462.709 579.647 455.681 568.436 445.258 562.5H411.16C400.737 568.436 393.709 579.647 393.709 592.5C393.709 611.554 409.155 627 428.209 627Z" fill="#E0E0E0"/>
<path d="M282.5 536L287.954 532.883C289.606 531.939 289.131 529.44 287.248 529.168L217 519C213.095 522.319 210.905 524.181 207 527.5C210.946 533.747 215.244 536.611 227 540.5L235.15 541.782L263.585 546.255L271.5 547.5L286.113 544.303C286.789 544.156 287.114 543.383 286.748 542.796L282.5 536Z" fill="black"/>
<path d="M217 519L287.248 529.168C289.131 529.44 289.606 531.939 287.954 532.883L282.5 536L286.748 542.796C287.114 543.383 286.789 544.156 286.113 544.303L271.5 547.5L263.585 546.255M217 519C213.095 522.319 210.905 524.181 207 527.5M217 519L207 527.5M207 527.5C210.946 533.747 215.244 536.611 227 540.5L235.15 541.782M263.585 546.255L235.15 541.782M263.585 546.255C272.877 552.436 279 563.003 279 575C279 594.054 263.554 609.5 244.5 609.5C225.446 609.5 210 594.054 210 575C210 559.187 220.639 545.858 235.15 541.782M411.16 562.5H407L383.981 555.73C382.726 555.36 382.157 553.904 382.831 552.782L386 547.5L382.63 538.887C382.1 537.533 383.144 536.085 384.595 536.16L478 541L474 547.5L480.034 550.316C480.707 550.63 480.815 551.544 480.232 552.005L467 562.5H445.258M411.16 562.5C400.737 568.436 393.709 579.647 393.709 592.5C393.709 611.554 409.155 627 428.209 627C447.263 627 462.709 611.554 462.709 592.5C462.709 579.647 455.681 568.436 445.258 562.5M411.16 562.5H445.258" stroke="black" stroke-width="1.5" stroke-linecap="round"/>
<path d="M315 476.5L302.5 600.5M351.5 508.5L344 582M367.5 505V530M331.5 491L327.5 550.5" stroke="#903381" stroke-width="1.5" stroke-linecap="round"/>
</g>
<defs>
<filter id="filter0_d_204_20" x="-4" y="0" width="1088" height="1088" filterUnits="userSpaceOnUse" color-interpolation-filters="sRGB">
<feFlood flood-opacity="0" result="BackgroundImageFix"/>
<feColorMatrix in="SourceAlpha" type="matrix" values="0 0 0 0 0 0 0 0 0 0 0 0 0 0 0 0 0 0 127 0" result="hardAlpha"/>
<feOffset dy="4"/>
<feGaussianBlur stdDeviation="2"/>
<feComposite in2="hardAlpha" operator="out"/>
<feColorMatrix type="matrix" values="0 0 0 0 0 0 0 0 0 0 0 0 0 0 0 0 0 0 0.25 0"/>
<feBlend mode="normal" in2="BackgroundImageFix" result="effect1_dropShadow_204_20"/>
<feBlend mode="normal" in="SourceGraphic" in2="effect1_dropShadow_204_20" result="shape"/>
</filter>
</defs>
</svg>
