<svg width="1088" height="1088" viewBox="0 0 1088 1088" fill="none" xmlns="http://www.w3.org/2000/svg">
<g filter="url(#filter0_d_12_3)">
<rect width="1080" height="1080" transform="translate(4)" fill="#DE6394"/>
<path d="M344.059 787.401L344.633 782.434L339.1 781.794L339.059 787.364L344.059 787.401ZM343.997 795.849L338.997 795.812L338.963 800.459L343.595 800.832L343.997 795.849ZM380.028 796.05L380.419 801.034L384.995 800.676L385.028 796.086L380.028 796.05ZM380.091 787.538L385.091 787.575L385.132 782.028L379.611 782.561L380.091 787.538ZM349.3 814.512L354.107 815.886L355.767 810.078L349.752 809.533L349.3 814.512ZM340.857 813.746L341.309 808.766L336.937 808.37L335.978 812.653L340.857 813.746ZM383.711 834.798L384.849 839.667L388.711 838.765L388.711 834.799L383.711 834.798ZM383.713 825.838L388.713 825.839L388.715 819.36L382.447 821.001L383.713 825.838ZM381.803 781.022L385.967 778.254L383.71 774.86L379.93 776.386L381.803 781.022ZM376.668 783.097L374.795 778.461L368.969 780.814L372.571 785.963L376.668 783.097ZM381.658 792.03L377.191 794.276L379.283 798.435L383.58 796.646L381.658 792.03ZM386.794 789.891L388.716 794.507L393.679 792.441L391.258 787.64L386.794 789.891ZM389.376 778.198L393.523 775.405L391.25 772.029L387.483 773.57L389.376 778.198ZM384.305 780.273L382.411 775.645L376.622 778.013L380.208 783.139L384.305 780.273ZM389.36 789.142L384.83 791.259L386.879 795.646L391.33 793.738L389.36 789.142ZM394.496 786.94L396.466 791.535L401.359 789.438L398.959 784.686L394.496 786.94ZM339.059 787.364L338.997 795.812L348.997 795.885L349.059 787.438L339.059 787.364ZM343.595 800.832C348.905 801.26 354.603 801.631 361.49 801.681L361.564 791.682C355.012 791.633 349.579 791.282 344.399 790.865L343.595 800.832ZM361.49 801.681C367.718 801.727 375.799 801.396 380.419 801.034L379.638 791.065C375.292 791.405 367.496 791.725 361.564 791.682L361.49 801.681ZM385.028 796.086L385.091 787.575L375.091 787.501L375.029 796.013L385.028 796.086ZM379.611 782.561C374.867 783.019 367.678 783.342 361.562 783.297L361.488 793.297C367.916 793.344 375.452 793.009 380.571 792.515L379.611 782.561ZM361.562 783.297C354.946 783.249 349.125 782.953 344.633 782.434L343.485 792.368C348.457 792.942 354.664 793.247 361.488 793.297L361.562 783.297ZM349.752 809.533L341.309 808.766L340.405 818.725L348.848 819.492L349.752 809.533ZM335.978 812.653C335.479 814.884 334.542 818.566 334.51 822.915L344.509 822.989C344.532 819.915 345.177 817.337 345.736 814.839L335.978 812.653ZM334.51 822.915C334.465 828.965 337.106 834.024 342.238 837.332C347.041 840.426 353.639 841.753 361.387 841.81L361.461 831.81C354.553 831.759 350.162 830.541 347.655 828.926C345.478 827.523 344.489 825.707 344.509 822.989L334.51 822.915ZM361.387 841.81C370.674 841.878 378.776 841.085 384.849 839.667L382.574 829.929C377.492 831.116 370.222 831.875 361.461 831.81L361.387 841.81ZM388.711 834.799L388.713 825.839L378.713 825.837L378.711 834.797L388.711 834.799ZM382.447 821.001C377.281 822.353 369.607 823.23 361.268 823.168L361.195 833.168C370.136 833.234 378.731 832.31 384.98 830.675L382.447 821.001ZM361.268 823.168C357.022 823.137 354.783 822.424 353.775 821.82C353.079 821.404 353.162 821.227 353.164 821.069L343.164 820.995C343.135 824.933 345.113 828.29 348.638 830.4C351.852 832.324 356.162 833.131 361.195 833.168L361.268 823.168ZM353.164 821.069C353.175 819.583 353.486 818.061 354.107 815.886L344.492 813.138C343.8 815.561 343.185 818.129 343.164 820.995L353.164 821.069ZM379.93 776.386L374.795 778.461L378.54 787.733L383.676 785.658L379.93 776.386ZM372.571 785.963C374.031 788.05 375.819 791.547 377.191 794.276L386.125 789.783C384.848 787.244 382.725 783.032 380.765 780.231L372.571 785.963ZM383.58 796.646L388.716 794.507L384.872 785.275L379.736 787.414L383.58 796.646ZM391.258 787.64C390.042 785.228 387.723 780.894 385.967 778.254L377.64 783.791C379.049 785.91 381.149 789.801 382.329 792.143L391.258 787.64ZM387.483 773.57L382.411 775.645L386.198 784.9L391.269 782.826L387.483 773.57ZM380.208 783.139C381.722 785.304 383.668 788.772 384.83 791.259L393.89 787.026C392.531 784.118 390.307 780.131 388.402 777.407L380.208 783.139ZM391.33 793.738L396.466 791.535L392.526 782.345L387.389 784.547L391.33 793.738ZM398.959 784.686C397.737 782.265 395.294 778.035 393.523 775.405L385.229 780.991C386.75 783.25 388.984 787.118 390.033 789.194L398.959 784.686ZM448.826 796.684L451.304 801.026L455.738 798.496L453.116 794.116L448.826 796.684ZM444.4 789.291L448.69 786.723L445.756 781.823L441.287 785.378L444.4 789.291ZM438.484 793.088L440.94 797.443L440.949 797.438L440.957 797.433L438.484 793.088ZM420.361 803.195L423.071 807.396L423.082 807.389L423.094 807.382L420.361 803.195ZM449.566 835.218L450.333 840.159L454.505 839.512L454.566 835.29L449.566 835.218ZM449.698 826.003L454.697 826.075L454.788 819.713L448.585 821.128L449.698 826.003ZM424.475 809.497L421.807 805.269L421.793 805.277L421.779 805.286L424.475 809.497ZM442.4 800.093L440.246 795.581L440.222 795.592L440.197 795.604L442.4 800.093ZM416.735 782.751L421.451 781.089L419.711 776.156L414.862 778.116L416.735 782.751ZM408.647 786.02L406.774 781.384L402.084 783.279L404.033 787.947L408.647 786.02ZM419.361 808.563L415.063 811.118L417.57 815.336L421.835 812.909L419.361 808.563ZM426.688 804.393L429.162 808.739L433.444 806.301L431.07 801.984L426.688 804.393ZM453.116 794.116L448.69 786.723L440.11 791.859L444.536 799.252L453.116 794.116ZM441.287 785.378C439.946 786.445 438.45 787.354 436.011 788.742L440.957 797.433C443.402 796.041 445.506 794.801 447.513 793.204L441.287 785.378ZM436.027 788.733C432.603 790.664 423.874 794.931 417.628 799.007L423.094 807.382C429.067 803.484 436.524 799.934 440.94 797.443L436.027 788.733ZM417.651 798.993C409.889 803.999 401.735 810.944 401.655 821.874L411.655 821.947C411.694 816.621 415.528 812.262 423.071 807.396L417.651 798.993ZM401.655 821.874C401.601 829.201 404.967 834.526 410.509 837.715C415.626 840.66 422.274 841.618 428.974 841.667L429.048 831.667C422.948 831.622 418.378 830.706 415.497 829.048C413.04 827.634 411.628 825.627 411.655 821.947L401.655 821.874ZM428.974 841.667C437.587 841.73 444.581 841.052 450.333 840.159L448.799 830.278C443.53 831.096 437.075 831.726 429.048 831.667L428.974 841.667ZM454.566 835.29L454.697 826.075L444.698 825.932L444.567 835.147L454.566 835.29ZM448.585 821.128C443.266 822.342 435.004 823.263 428.854 823.218L428.78 833.217C435.685 833.268 444.719 832.268 450.81 830.878L448.585 821.128ZM428.854 823.218C424.724 823.187 422.361 822.565 421.207 821.934C420.694 821.653 420.566 821.451 420.553 821.43C420.542 821.413 420.533 821.394 420.523 821.356C420.512 821.315 420.492 821.221 420.494 821.052L410.494 820.979C410.462 825.322 412.751 828.706 416.407 830.706C419.698 832.507 424.015 833.182 428.78 833.217L428.854 823.218ZM420.494 821.052C420.505 819.496 421.862 817.107 427.17 813.708L421.779 805.286C416.413 808.721 410.547 813.703 410.494 820.979L420.494 821.052ZM427.143 813.726C432.765 810.178 440.435 806.627 444.603 804.581L440.197 795.604C436.4 797.468 428.016 801.351 421.807 805.269L427.143 813.726ZM444.555 804.605C447.093 803.393 449.271 802.187 451.304 801.026L446.347 792.342C444.395 793.456 442.461 794.523 440.246 795.581L444.555 804.605ZM414.862 778.116L406.774 781.384L410.52 790.656L418.609 787.387L414.862 778.116ZM404.033 787.947C407.496 796.237 411.39 804.938 415.063 811.118L423.659 806.009C420.379 800.49 416.716 792.366 413.261 784.093L404.033 787.947ZM421.835 812.909L429.162 808.739L424.215 800.048L416.888 804.218L421.835 812.909ZM431.07 801.984C428.152 796.678 424.327 789.245 421.451 781.089L412.02 784.414C415.163 793.327 419.288 801.313 422.307 806.803L431.07 801.984ZM476.995 830.3L476.471 825.328L468.936 826.122L472.629 832.738L476.995 830.3ZM481.48 838.333L477.114 840.771L478.77 843.737L482.138 843.29L481.48 838.333ZM475.677 800.722L476.678 805.62L476.695 805.617L476.711 805.613L475.677 800.722ZM468.693 801.758L468.436 796.765L462.333 797.079L463.849 802.998L468.693 801.758ZM471.057 810.992L466.213 812.232L467.65 817.845L472.993 815.602L471.057 810.992ZM477.282 808.734L475.88 803.934L475.858 803.941L475.835 803.948L477.282 808.734ZM478.242 782.564L479.323 777.682L474.173 776.542L473.31 781.746L478.242 782.564ZM476.97 790.235L472.037 789.417L471.231 794.275L476.077 795.155L476.97 790.235ZM505.682 793.518L505.305 798.504L509.884 798.851L510.618 794.318L505.682 793.518ZM506.956 785.655L511.892 786.455L512.825 780.698L506.993 780.656L506.956 785.655ZM498.168 813.432C498.146 816.37 496.81 818.703 493.428 820.742C489.799 822.931 484.124 824.521 476.471 825.328L477.519 835.273C485.75 834.405 493.125 832.602 498.592 829.306C504.308 825.859 508.115 820.614 508.167 813.505L498.168 813.432ZM472.629 832.738L477.114 840.771L485.846 835.896L481.361 827.863L472.629 832.738ZM482.138 843.29C491.568 842.038 500.137 839.151 506.487 834.358C512.98 829.458 517.125 822.547 517.189 813.892L507.189 813.818C507.152 818.922 504.847 823.068 500.463 826.376C495.937 829.792 489.202 832.264 480.822 833.377L482.138 843.29ZM517.189 813.892C517.235 807.635 515.004 802.257 510.798 798.482C506.668 794.776 501.1 793.029 495.126 792.985L495.053 802.984C499.191 803.015 502.209 804.211 504.119 805.925C505.954 807.571 507.217 810.09 507.189 813.818L517.189 813.892ZM495.126 792.985C486.9 792.924 479.082 794.891 474.642 795.83L476.711 805.613C481.63 804.573 488.175 802.934 495.053 802.984L495.126 792.985ZM474.675 795.823C472.568 796.254 470.202 796.674 468.436 796.765L468.95 806.752C471.538 806.619 474.555 806.054 476.678 805.62L474.675 795.823ZM463.849 802.998L466.213 812.232L475.901 809.752L473.537 800.518L463.849 802.998ZM472.993 815.602C474.652 814.905 477.056 814.025 478.729 813.52L475.835 803.948C473.787 804.567 471.057 805.569 469.121 806.382L472.993 815.602ZM478.683 813.533C482.037 812.554 487.732 810.739 493.907 810.784L493.981 800.784C486.077 800.726 478.94 803.041 475.88 803.934L478.683 813.533ZM493.907 810.784C495.989 810.799 497.04 811.385 497.498 811.793C497.917 812.166 498.173 812.67 498.168 813.432L508.167 813.505C508.193 810.042 506.846 806.727 504.149 804.325C501.491 801.958 497.915 800.813 493.981 800.784L493.907 810.784ZM473.31 781.746L472.037 789.417L481.902 791.053L483.175 783.382L473.31 781.746ZM476.077 795.155C483.698 796.538 497.793 797.935 505.305 798.504L506.06 788.533C498.604 787.968 484.943 786.6 477.863 785.315L476.077 795.155ZM510.618 794.318L511.892 786.455L502.021 784.856L500.747 792.719L510.618 794.318ZM506.993 780.656C500.559 780.608 486.397 779.248 479.323 777.682L477.162 787.446C485.039 789.19 499.914 790.604 506.92 790.655L506.993 780.656ZM589.528 786.135L594.471 785.381L593.628 779.85L588.225 781.308L589.528 786.135ZM581.448 788.316L580.145 783.488L575.136 784.84L576.672 789.796L581.448 788.316ZM597.786 820.757L594.061 824.093L598.24 828.758L601.864 823.649L597.786 820.757ZM603.024 813.371L607.102 816.264L609.638 812.689L606.426 809.707L603.024 813.371ZM547.33 789.025L547.66 784.036L541.988 783.66L542.339 789.333L547.33 789.025ZM547.844 797.349L542.854 797.657L543.211 803.429L548.871 802.242L547.844 797.349ZM551.689 796.737L551.211 791.76L551.115 791.769L551.018 791.782L551.689 796.737ZM560.143 795.903L564.031 799.047L571.51 789.799L559.67 790.926L560.143 795.903ZM589.664 802.393L594.57 801.427L594.4 800.561L593.943 799.806L589.664 802.393ZM582.203 790.049L586.482 787.463L577.325 791.148L582.203 790.049ZM571.034 794.511L568.493 790.205L568.286 790.327L568.092 790.469L571.034 794.511ZM574.244 793.127L575.891 797.848L580.513 796.235L578.999 791.581L574.244 793.127ZM571.929 786.006L576.683 784.459L575.116 779.639L570.318 781.272L571.929 786.006ZM550.914 789.051L550.688 784.056L550.68 784.056L550.673 784.057L550.914 789.051ZM588.225 781.308L580.145 783.488L582.751 793.143L590.831 790.962L588.225 781.308ZM576.672 789.796C581.072 803.994 586.377 815.515 594.061 824.093L601.51 817.421C595.228 810.408 590.451 800.477 586.224 786.836L576.672 789.796ZM601.864 823.649L607.102 816.264L598.946 810.478L593.707 817.864L601.864 823.649ZM606.426 809.707C597.901 801.791 595.619 792.912 594.471 785.381L584.585 786.889C585.879 795.376 588.695 806.888 599.622 817.035L606.426 809.707ZM542.339 789.333L542.854 797.657L552.835 797.04L552.32 788.716L542.339 789.333ZM548.871 802.242C550.129 801.978 550.95 801.882 552.36 801.692L551.018 791.782C549.737 791.956 548.509 792.101 546.818 792.455L548.871 802.242ZM552.167 801.714C554.177 801.521 558.02 801.128 560.617 800.881L559.67 790.926C557.271 791.154 552.916 791.596 551.211 791.76L552.167 801.714ZM556.256 792.759C549.849 800.68 544.675 809.537 544.586 821.581L554.586 821.655C554.651 812.836 558.294 806.141 564.031 799.047L556.256 792.759ZM544.586 821.581C544.533 828.776 547.299 834.557 551.99 838.457C556.551 842.248 562.519 843.93 568.494 843.974L568.567 833.974C564.303 833.943 560.755 832.739 558.382 830.766C556.14 828.903 554.553 826.044 554.586 821.655L544.586 821.581ZM568.494 843.974C574.611 844.019 579.808 842.653 584.02 839.963C588.238 837.268 591.126 833.462 592.974 829.195C596.587 820.851 596.355 810.497 594.57 801.427L584.759 803.358C586.367 811.53 586.256 819.545 583.798 825.221C582.61 827.963 580.915 830.08 578.636 831.535C576.351 832.995 573.138 834.008 568.567 833.974L568.494 843.974ZM593.943 799.806L586.482 787.463L577.924 792.636L585.385 804.979L593.943 799.806ZM577.325 791.148C580.008 803.061 580.078 812.144 578.244 817.939C577.352 820.758 576.089 822.557 574.695 823.654C573.342 824.719 571.492 825.419 568.823 825.4L568.749 835.4C573.344 835.433 577.492 834.178 580.879 831.513C584.224 828.881 586.442 825.178 587.778 820.957C590.399 812.672 589.914 801.527 587.081 788.951L577.325 791.148ZM568.823 825.4C566.486 825.383 565.046 824.793 564.264 824.118C563.619 823.561 562.836 822.451 562.855 819.86L552.855 819.786C552.819 824.683 554.43 828.838 557.728 831.686C560.889 834.417 564.942 835.371 568.749 835.4L568.823 825.4ZM562.855 819.86C562.892 814.916 564.667 810.29 567.062 806.432C569.476 802.541 572.318 799.761 573.976 798.554L568.092 790.469C565.31 792.493 561.607 796.257 558.565 801.158C555.503 806.092 552.909 812.506 552.855 819.786L562.855 819.86ZM573.575 798.817C573.77 798.702 574.108 798.537 574.576 798.343C575.023 798.158 575.486 797.989 575.891 797.848L572.597 788.406C571.709 788.716 569.932 789.356 568.493 790.205L573.575 798.817ZM578.999 791.581L576.683 784.459L567.174 787.552L569.489 794.673L578.999 791.581ZM570.318 781.272C568.7 781.823 565.392 782.466 561.431 783.012C557.582 783.543 553.543 783.927 550.688 784.056L551.14 794.046C554.366 793.9 558.717 793.481 562.797 792.918C566.763 792.371 570.923 791.629 573.539 790.739L570.318 781.272ZM550.673 784.057C549.7 784.104 548.547 784.094 547.66 784.036L546.999 794.014C548.288 794.099 549.822 794.109 551.154 794.045L550.673 784.057ZM657.007 798.216L659.486 802.558L663.92 800.028L661.298 795.648L657.007 798.216ZM652.582 790.823L656.872 788.255L653.938 783.355L649.469 786.91L652.582 790.823ZM646.666 794.62L649.122 798.975L649.13 798.97L649.139 798.965L646.666 794.62ZM628.543 804.727L631.253 808.928L631.264 808.921L631.275 808.914L628.543 804.727ZM657.748 836.75L658.515 841.691L662.687 841.044L662.747 836.822L657.748 836.75ZM657.88 827.535L662.879 827.607L662.97 821.245L656.767 822.66L657.88 827.535ZM632.657 811.029L629.988 806.801L629.975 806.809L629.961 806.818L632.657 811.029ZM650.582 801.625L648.428 797.113L648.404 797.124L648.379 797.136L650.582 801.625ZM624.917 784.283L629.633 782.621L627.893 777.688L623.044 779.648L624.917 784.283ZM616.829 787.552L614.955 782.916L610.266 784.811L612.215 789.479L616.829 787.552ZM627.543 810.095L623.245 812.65L625.752 816.868L630.017 814.441L627.543 810.095ZM634.87 805.925L637.343 810.271L641.626 807.833L639.251 803.516L634.87 805.925ZM661.298 795.648L656.872 788.255L648.292 793.391L652.717 800.784L661.298 795.648ZM649.469 786.91C648.128 787.977 646.632 788.886 644.192 790.274L649.139 798.965C651.584 797.573 653.688 796.333 655.695 794.736L649.469 786.91ZM644.209 790.265C640.785 792.196 632.056 796.463 625.81 800.539L631.275 808.914C637.248 805.016 644.706 801.466 649.122 798.975L644.209 790.265ZM625.833 800.525C618.071 805.531 609.917 812.476 609.837 823.406L619.837 823.479C619.876 818.153 623.71 813.794 631.253 808.928L625.833 800.525ZM609.837 823.406C609.783 830.733 613.149 836.058 618.691 839.247C623.808 842.192 630.456 843.15 637.156 843.199L637.23 833.199C631.13 833.154 626.559 832.238 623.678 830.58C621.222 829.166 619.809 827.159 619.837 823.479L609.837 823.406ZM637.156 843.199C645.768 843.262 652.763 842.584 658.515 841.691L656.981 831.81C651.712 832.628 645.257 833.258 637.23 833.199L637.156 843.199ZM662.747 836.822L662.879 827.607L652.88 827.464L652.748 836.679L662.747 836.822ZM656.767 822.66C651.448 823.874 643.186 824.795 637.036 824.75L636.962 834.749C643.867 834.8 652.9 833.8 658.992 832.41L656.767 822.66ZM637.036 824.75C632.905 824.719 630.543 824.097 629.389 823.466C628.876 823.185 628.748 822.983 628.735 822.962C628.724 822.945 628.714 822.926 628.704 822.888C628.694 822.847 628.674 822.753 628.675 822.584L618.676 822.511C618.644 826.854 620.933 830.238 624.589 832.238C627.88 834.039 632.197 834.714 636.962 834.749L637.036 824.75ZM628.675 822.584C628.687 821.028 630.044 818.639 635.352 815.24L629.961 806.818C624.595 810.253 618.729 815.235 618.676 822.511L628.675 822.584ZM635.325 815.258C640.947 811.71 648.617 808.159 652.785 806.113L648.379 797.136C644.582 799 636.197 802.883 629.988 806.801L635.325 815.258ZM652.736 806.137C655.275 804.925 657.453 803.719 659.486 802.558L654.529 793.874C652.577 794.988 650.643 796.055 648.428 797.113L652.736 806.137ZM623.044 779.648L614.955 782.916L618.702 792.188L626.791 788.919L623.044 779.648ZM612.215 789.479C615.678 797.769 619.572 806.47 623.245 812.65L631.841 807.541C628.561 802.022 624.898 793.898 621.443 785.625L612.215 789.479ZM630.017 814.441L637.343 810.271L632.397 801.58L625.07 805.75L630.017 814.441ZM639.251 803.516C636.333 798.21 632.508 790.776 629.633 782.621L620.202 785.946C623.344 794.859 627.47 802.845 630.489 808.335L639.251 803.516ZM690.902 784.385L695.7 785.794L697.498 779.67L691.121 779.39L690.902 784.385ZM682.137 784L682.356 779.005L677.363 778.786L677.142 783.779L682.137 784ZM681.576 790.653L686.519 791.403L686.533 791.315L686.543 791.227L681.576 790.653ZM680.322 821.876L675.375 822.6L676.043 827.168L680.65 826.865L680.322 821.876ZM688.198 821.358L688.526 826.347L693.694 826.007L693.173 820.854L688.198 821.358ZM687.992 814.572L692.976 814.965L692.985 814.864L692.988 814.762L687.992 814.572ZM686.708 832.547L685.99 827.599L678.288 828.716L682.505 835.257L686.708 832.547ZM691.517 840.007L687.315 842.716L689.116 845.511L692.39 844.93L691.517 840.007ZM688.18 797.677L683.213 797.108L692.404 800.354L688.18 797.677ZM691.121 779.39L682.356 779.005L681.918 788.996L690.683 789.38L691.121 779.39ZM677.142 783.779C677.071 785.364 676.872 787.802 676.609 790.079L686.543 791.227C686.827 788.771 687.049 786.092 687.132 784.222L677.142 783.779ZM676.632 789.902C675.611 796.633 674.68 804.774 674.633 811.146L684.633 811.22C684.674 805.56 685.523 797.97 686.519 791.403L676.632 789.902ZM674.633 811.146C674.599 815.705 674.975 819.866 675.375 822.6L685.269 821.152C684.938 818.889 684.603 815.237 684.633 811.22L674.633 811.146ZM680.65 826.865L688.526 826.347L687.87 816.369L679.994 816.887L680.65 826.865ZM693.173 820.854C692.891 818.076 692.867 816.351 692.976 814.965L683.007 814.179C682.834 816.376 682.908 818.747 683.223 821.862L693.173 820.854ZM692.988 814.762C693.106 811.654 694.489 807.625 696.702 804.409C699.05 800.998 701.302 799.894 702.564 799.903L702.638 789.904C696.349 789.857 691.455 794.396 688.465 798.739C685.342 803.276 683.195 809.109 682.996 814.383L692.988 814.762ZM702.564 799.903C703.138 799.907 703.778 800.06 704.528 801.39C705.408 802.949 706.161 805.811 706.128 810.29L716.128 810.363C716.167 804.986 715.313 800.156 713.239 796.478C711.035 792.57 707.376 789.938 702.638 789.904L702.564 799.903ZM706.128 810.29C706.08 816.806 704.04 820.276 701.156 822.527C697.927 825.048 692.952 826.59 685.99 827.599L687.425 837.496C694.751 836.434 701.929 834.61 707.31 830.41C713.036 825.94 716.062 819.335 716.128 810.363L706.128 810.29ZM682.505 835.257L687.315 842.716L695.719 837.298L690.91 829.838L682.505 835.257ZM692.39 844.93C701.412 843.33 709.529 840.172 715.438 834.454C721.482 828.606 724.693 820.59 724.767 810.427L714.768 810.353C714.709 818.302 712.286 823.589 708.484 827.268C704.547 831.078 698.604 833.672 690.644 835.084L692.39 844.93ZM724.767 810.427C724.825 802.62 722.964 795.796 719.404 790.765C715.788 785.654 710.427 782.473 704.165 782.427L704.091 792.426C706.725 792.446 709.235 793.706 711.241 796.541C713.303 799.456 714.814 804.081 714.768 810.353L724.767 810.427ZM704.165 782.427C694.415 782.355 687.412 789.549 683.957 795.001L692.404 800.354C695.165 795.995 699.506 792.393 704.091 792.426L704.165 782.427ZM693.148 798.247C693.522 794.977 694.853 788.677 695.7 785.794L686.105 782.976C685.113 786.352 683.659 793.215 683.213 797.108L693.148 798.247Z" fill="#C1376E"/>
<path d="M420.549 899.603C418.336 899.587 416.298 899.225 414.437 898.518C412.602 897.784 410.996 896.759 409.619 895.442C408.269 894.126 407.214 892.585 406.453 890.819C405.72 889.053 405.36 887.117 405.376 885.011C405.391 882.904 405.779 880.974 406.539 879.219C407.325 877.465 408.416 875.94 409.812 874.643C411.209 873.347 412.843 872.359 414.714 871.679C416.586 870.973 418.642 870.628 420.882 870.645C423.362 870.663 425.586 871.092 427.553 871.934C429.547 872.775 431.218 873.987 432.566 875.571L428.378 879.38C427.373 878.306 426.272 877.511 425.076 876.996C423.879 876.453 422.575 876.177 421.161 876.167C419.802 876.157 418.56 876.361 417.437 876.779C416.314 877.198 415.336 877.804 414.503 878.598C413.698 879.392 413.064 880.334 412.603 881.424C412.168 882.514 411.946 883.726 411.936 885.059C411.926 886.366 412.131 887.567 412.549 888.664C412.995 889.76 413.614 890.725 414.408 891.557C415.229 892.364 416.184 892.984 417.274 893.419C418.391 893.853 419.616 894.076 420.95 894.086C422.23 894.095 423.471 893.904 424.674 893.513C425.904 893.095 427.096 892.397 428.249 891.419L431.895 896.126C430.367 897.262 428.587 898.129 426.556 898.727C424.551 899.326 422.549 899.618 420.549 899.603ZM425.981 895.243L426.059 884.723L431.979 884.767L431.895 896.126L425.981 895.243ZM451.488 899.831C449.274 899.814 447.224 899.439 445.336 898.705C443.474 897.972 441.855 896.946 440.478 895.629C439.128 894.313 438.072 892.772 437.312 891.006C436.578 889.241 436.219 887.318 436.235 885.238C436.25 883.158 436.637 881.241 437.397 879.486C438.183 877.732 439.274 876.207 440.671 874.91C442.067 873.614 443.701 872.612 445.573 871.906C447.445 871.2 449.474 870.855 451.661 870.871C453.874 870.887 455.898 871.262 457.733 871.996C459.594 872.729 461.2 873.755 462.55 875.071C463.927 876.388 464.996 877.929 465.756 879.695C466.517 881.434 466.889 883.357 466.874 885.463C466.858 887.543 466.458 889.474 465.671 891.255C464.885 893.009 463.794 894.534 462.397 895.831C461.028 897.101 459.407 898.089 457.535 898.795C455.69 899.501 453.674 899.847 451.488 899.831ZM451.488 894.31C452.741 894.32 453.89 894.115 454.933 893.696C456.003 893.277 456.94 892.67 457.746 891.876C458.552 891.082 459.172 890.14 459.607 889.05C460.068 887.96 460.304 886.748 460.314 885.415C460.324 884.082 460.106 882.867 459.661 881.77C459.242 880.674 458.636 879.723 457.842 878.917C457.074 878.111 456.159 877.491 455.095 877.056C454.032 876.622 452.873 876.4 451.62 876.391C450.367 876.382 449.205 876.586 448.135 877.005C447.092 877.424 446.168 878.031 445.362 878.825C444.556 879.619 443.922 880.561 443.461 881.651C443.026 882.741 442.804 883.953 442.794 885.286C442.785 886.593 442.989 887.808 443.408 888.931C443.853 890.027 444.459 890.979 445.227 891.784C446.021 892.59 446.949 893.21 448.013 893.645C449.076 894.079 450.235 894.301 451.488 894.31ZM477.05 899.539L477.217 876.819L468.257 876.753L468.296 871.473L492.695 871.653L492.657 876.933L483.697 876.867L483.53 899.586L477.05 899.539ZM509.181 900.255C506.968 900.239 504.917 899.864 503.029 899.13C501.168 898.396 499.549 897.371 498.172 896.054C496.822 894.737 495.766 893.196 495.006 891.431C494.272 889.665 493.913 887.742 493.928 885.662C493.944 883.583 494.331 881.665 495.091 879.911C495.877 878.157 496.968 876.631 498.364 875.335C499.761 874.038 501.395 873.037 503.267 872.331C505.139 871.625 507.168 871.279 509.354 871.296C511.568 871.312 513.592 871.687 515.426 872.42C517.288 873.154 518.893 874.179 520.244 875.496C521.621 876.813 522.69 878.354 523.45 880.12C524.21 881.859 524.583 883.781 524.567 885.888C524.552 887.968 524.151 889.898 523.365 891.679C522.579 893.433 521.487 894.959 520.091 896.255C518.722 897.525 517.101 898.513 515.229 899.22C513.384 899.926 511.368 900.271 509.181 900.255ZM509.182 894.735C510.435 894.744 511.583 894.539 512.627 894.12C513.696 893.701 514.634 893.095 515.44 892.301C516.246 891.507 516.866 890.565 517.301 889.475C517.762 888.385 517.998 887.173 518.008 885.84C518.017 884.506 517.8 883.291 517.354 882.195C516.936 881.098 516.329 880.147 515.535 879.341C514.768 878.536 513.852 877.916 512.789 877.481C511.725 877.047 510.567 876.825 509.314 876.815C508.06 876.806 506.899 877.011 505.829 877.43C504.786 877.849 503.862 878.455 503.056 879.249C502.25 880.044 501.616 880.986 501.155 882.076C500.72 883.166 500.498 884.377 500.488 885.711C500.478 887.017 500.683 888.232 501.101 889.355C501.547 890.452 502.153 891.403 502.92 892.209C503.714 893.015 504.643 893.635 505.707 894.069C506.77 894.504 507.929 894.726 509.182 894.735ZM501.976 868.321L502.002 864.801L516.802 864.91L516.776 868.43L501.976 868.321ZM560.068 872.149L566.547 872.196L566.341 900.196L559.862 900.148L560.068 872.149ZM547.142 900.054L540.662 900.007L540.868 872.007L547.348 872.055L547.142 900.054ZM560.426 888.672L546.746 888.571L546.787 883.091L560.466 883.192L560.426 888.672ZM572.966 900.244L573.172 872.245L579.652 872.293L579.446 900.292L572.966 900.244ZM591.89 900.384L592.058 877.664L583.098 877.598L583.137 872.319L607.536 872.498L607.497 877.778L598.537 877.712L598.37 900.431L591.89 900.384ZM624.022 901.1C621.809 901.084 619.758 900.709 617.87 899.975C616.009 899.241 614.39 898.216 613.013 896.899C611.662 895.582 610.607 894.041 609.846 892.276C609.113 890.51 608.754 888.587 608.769 886.508C608.784 884.428 609.172 882.51 609.931 880.756C610.718 879.002 611.809 877.476 613.205 876.18C614.601 874.883 616.235 873.882 618.107 873.176C619.979 872.47 622.008 872.125 624.195 872.141C626.408 872.157 628.432 872.532 630.267 873.265C632.128 873.999 633.734 875.024 635.084 876.341C636.461 877.658 637.53 879.199 638.29 880.965C639.051 882.704 639.424 884.626 639.408 886.733C639.393 888.813 638.992 890.743 638.205 892.524C637.419 894.279 636.328 895.804 634.932 897.1C633.562 898.37 631.942 899.358 630.07 900.065C628.224 900.771 626.209 901.116 624.022 901.1ZM624.023 895.58C625.276 895.589 626.424 895.384 627.467 894.965C628.537 894.547 629.475 893.94 630.281 893.146C631.087 892.352 631.707 891.41 632.141 890.32C632.603 889.23 632.838 888.018 632.848 886.685C632.858 885.351 632.64 884.136 632.195 883.04C631.776 881.943 631.17 880.992 630.376 880.186C629.609 879.381 628.693 878.761 627.63 878.326C626.566 877.892 625.408 877.67 624.154 877.661C622.901 877.651 621.74 877.856 620.67 878.275C619.627 878.694 618.702 879.3 617.896 880.095C617.09 880.889 616.457 881.831 615.996 882.921C615.561 884.011 615.339 885.223 615.329 886.556C615.319 887.862 615.524 889.077 615.942 890.2C616.387 891.297 616.994 892.248 617.761 893.054C618.555 893.86 619.484 894.48 620.547 894.914C621.611 895.349 622.769 895.571 624.023 895.58ZM644.175 900.768L644.381 872.769L656.501 872.858C659.007 872.877 661.164 873.306 662.971 874.146C664.779 874.959 666.17 876.13 667.146 877.657C668.121 879.184 668.601 881.001 668.586 883.108C668.57 885.188 668.064 886.984 667.066 888.497C666.068 889.983 664.66 891.119 662.841 891.906C661.021 892.692 658.859 893.076 656.352 893.058L647.832 892.995L650.733 890.176L650.655 900.816L644.175 900.768ZM661.974 900.899L655.049 890.688L661.969 890.739L668.974 900.951L661.974 900.899ZM650.728 890.896L647.87 887.835L656.03 887.895C658.03 887.91 659.526 887.494 660.519 886.648C661.512 885.776 662.015 884.579 662.026 883.059C662.037 881.513 661.553 880.309 660.572 879.449C659.592 878.588 658.102 878.15 656.102 878.136L647.942 878.076L650.845 875.017L650.728 890.896ZM673.588 900.985L673.794 872.986L680.274 873.033L680.068 901.033L673.588 900.985Z" fill="#C1376E"/>
<path d="M67.0187 76.3558C65.2908 76.3431 63.7035 76.054 62.257 75.4887C60.8106 74.9021 59.5578 74.0928 58.4987 73.061C57.4398 72.0078 56.6168 70.7858 56.0297 69.3947C55.4425 68.0037 55.1551 66.4762 55.1673 64.8123C55.1796 63.1483 55.4895 61.6252 56.097 60.243C56.7045 58.8607 57.5454 57.6616 58.6195 56.6454C59.7152 55.6081 60.9904 54.8175 62.4451 54.2735C63.9 53.7082 65.502 53.432 67.2513 53.4449C69.0219 53.4579 70.6411 53.7578 72.1088 54.3446C73.5766 54.9315 74.8182 55.8046 75.8337 56.9641L73.8351 58.9335C72.9244 58.0307 71.9265 57.3727 70.8416 56.9594C69.7781 56.5249 68.617 56.303 67.3584 56.2937C66.0784 56.2843 64.8822 56.4889 63.7698 56.9073C62.6786 57.326 61.7249 57.9163 60.9086 58.6783C60.1137 59.4405 59.4883 60.3533 59.0324 61.4166C58.5981 62.4588 58.3764 63.5985 58.3673 64.8358C58.3583 66.0518 58.5632 67.1946 58.982 68.2644C59.4223 69.313 60.0342 70.2349 60.8177 71.03C61.6227 71.804 62.5677 72.4083 63.6525 72.8429C64.7373 73.2776 65.9197 73.4996 67.1997 73.509C68.3943 73.5178 69.5369 73.3449 70.6276 72.9902C71.7397 72.6144 72.7683 71.9926 73.7134 71.1249L75.5195 73.5703C74.4032 74.5007 73.0967 75.2058 71.5998 75.6855C70.1244 76.144 68.5973 76.3674 67.0187 76.3558ZM72.4506 73.1317L72.5118 64.8119L75.5837 64.8345L75.5195 73.5703L72.4506 73.1317ZM91.7368 76.5377C90.0302 76.5251 88.443 76.2254 86.9753 75.6386C85.5289 75.052 84.2762 74.2427 83.2171 73.2109C82.1581 72.1577 81.3351 70.9357 80.748 69.5446C80.1609 68.1536 79.8733 66.6368 79.8854 64.9942C79.8975 63.3515 80.2073 61.8391 80.8148 60.4569C81.4224 59.0746 82.2632 57.8755 83.3374 56.8593C84.4117 55.8219 85.6763 55.0205 87.1312 54.4552C88.586 53.8899 90.1775 53.6136 91.9054 53.6263C93.612 53.6389 95.1779 53.9384 96.6029 54.5249C98.0495 55.0902 99.3022 55.8995 100.361 56.9526C101.442 57.9846 102.265 59.196 102.83 60.5869C103.418 61.9779 103.705 63.5054 103.693 65.1694C103.681 66.8333 103.371 68.3564 102.763 69.7386C102.177 71.121 101.336 72.3309 100.24 73.3682C99.1662 74.3843 97.9017 75.175 96.4468 75.7403C95.0134 76.2845 93.4434 76.5502 91.7368 76.5377ZM91.7578 73.6898C92.9951 73.6989 94.1379 73.4939 95.1864 73.075C96.2562 72.6562 97.1779 72.0656 97.9515 71.3033C98.7466 70.5198 99.3613 69.6069 99.7957 68.5648C100.251 67.5228 100.484 66.3831 100.493 65.1458C100.502 63.9085 100.286 62.7656 99.8461 61.717C99.4271 60.6685 98.8258 59.7574 98.0422 58.9836C97.28 58.1886 96.3671 57.5739 95.3036 57.1394C94.2615 56.7051 93.1218 56.4833 91.8845 56.4742C90.6258 56.465 89.4616 56.6697 88.3918 57.0885C87.3434 57.5075 86.4216 58.1087 85.6265 58.8922C84.8315 59.6544 84.2062 60.5565 83.7505 61.5985C83.3162 62.6407 83.0944 63.7804 83.0853 65.0177C83.0762 66.255 83.2812 67.3979 83.7001 68.4463C84.1404 69.4949 84.7523 70.4168 85.5358 71.2119C86.3195 71.9857 87.2324 72.5898 88.2746 73.0241C89.3381 73.4586 90.4991 73.6805 91.7578 73.6898ZM64.1947 115.08L64.339 95.4646L56.6592 95.4081L56.6797 92.6241L75.2072 92.7605L75.1867 95.5444L67.507 95.4879L67.3626 115.103L64.1947 115.08ZM88.3249 115.514C86.6183 115.501 85.0311 115.201 83.5634 114.615C82.117 114.028 80.8643 113.219 79.8051 112.187C78.7462 111.134 77.9232 109.912 77.3361 108.521C76.7489 107.13 76.4614 105.613 76.4735 103.97C76.4856 102.327 76.7954 100.815 77.4029 99.4328C78.0105 98.0506 78.8513 96.8514 79.9255 95.8353C80.9998 94.7978 82.2644 93.9964 83.7193 93.4311C85.1741 92.8658 86.7655 92.5895 88.4935 92.6022C90.2001 92.6148 91.766 92.9143 93.191 93.5008C94.6376 94.0662 95.8903 94.8754 96.9493 95.9286C98.0297 96.9605 98.8528 98.172 99.4186 99.5628C100.006 100.954 100.293 102.481 100.281 104.145C100.269 105.809 99.9588 107.332 99.3512 108.715C98.765 110.097 97.9241 111.307 96.8285 112.344C95.7543 113.36 94.4898 114.151 93.0349 114.716C91.6015 115.26 90.0315 115.526 88.3249 115.514ZM88.3459 112.666C89.5832 112.675 90.726 112.47 91.7745 112.051C92.8443 111.632 93.766 111.042 94.5396 110.279C95.3347 109.496 95.9494 108.583 96.3838 107.541C96.8395 106.499 97.0719 105.359 97.081 104.122C97.0901 102.884 96.8745 101.742 96.4342 100.693C96.0152 99.6445 95.4139 98.7333 94.6302 97.9596C93.8681 97.1646 92.9552 96.5499 91.8917 96.1154C90.8496 95.681 89.7098 95.4593 88.4725 95.4502C87.2139 95.4409 86.0497 95.6457 84.9799 96.0645C83.9315 96.4834 83.0097 97.0847 82.2146 97.8682C81.4196 98.6304 80.7943 99.5324 80.3386 100.574C79.9043 101.617 79.6825 102.756 79.6734 103.994C79.6643 105.231 79.8693 106.374 80.2882 107.422C80.7285 108.471 81.3404 109.393 82.1239 110.188C82.9076 110.962 83.8205 111.566 84.8627 112C85.9262 112.435 87.0872 112.656 88.3459 112.666ZM83.2974 89.8759L83.3116 87.956L93.7433 88.0328L93.7291 89.9527L83.2974 89.8759Z" fill="#404040"/>
<path d="M164.25 465.841L168 468.682L207 500L242 456L209.671 423.671C207.356 421.356 203.613 421.325 201.259 423.6L163.883 459.73C162.105 461.449 162.279 464.348 164.25 465.841Z" fill="#6681D7"/>
<path d="M160.5 471.5L168 468.682L164.25 465.841C118.332 472.075 96.399 481.324 67 512.5C101.344 492.236 121.425 482.491 160.5 471.5Z" fill="#E0E0E0"/>
<path d="M168 468.682L160.5 471.5L154.33 510.421C154.132 511.669 154.737 512.907 155.842 513.517L187.5 531L207 500L168 468.682Z" fill="#E4C95F"/>
<path d="M168 468.682L160.5 471.5M168 468.682L164.25 465.841M168 468.682L207 500M160.5 471.5L154.33 510.421C154.132 511.669 154.737 512.907 155.842 513.517L187.5 531L207 500M160.5 471.5C121.425 482.491 101.344 492.236 67 512.5C96.399 481.324 118.332 472.075 164.25 465.841M164.25 465.841V465.841C162.279 464.348 162.105 461.449 163.883 459.73L201.259 423.6C203.613 421.325 207.356 421.356 209.671 423.671L242 456L207 500" stroke="black" stroke-width="1.5" stroke-linecap="round"/>
<path d="M468 399.304C610 264 842 352 905 565C928.192 635.907 948.388 661.774 998.573 666.468C1003.2 666.901 1008.06 669.373 1008.48 673.997C1014.29 738.295 523.421 741.974 232 716C112 716 76.497 628.253 176 563C177.639 551.603 180.381 540.585 184.101 530C188.547 517.349 194.391 505.318 201.419 494C211.688 477.463 224.486 462.45 239.15 449.258C299.31 395.136 390.869 371.664 468 399.304Z" fill="#E79EBB"/>
<path d="M520 428C503.896 415.356 486.356 405.883 468 399.304M468 399.304C610 264 842 352 905 565C928.192 635.907 948.388 661.774 998.573 666.468C1003.2 666.901 1008.06 669.373 1008.48 673.997C1014.29 738.295 523.421 741.974 232 716C112 716 76.497 628.253 176 563C177.639 551.603 180.381 540.585 184.101 530C188.547 517.349 194.391 505.318 201.419 494C211.688 477.463 224.486 462.45 239.15 449.258C299.31 395.136 390.869 371.664 468 399.304Z" stroke="black" stroke-width="3.5" stroke-linecap="round"/>
<path d="M267.585 546.255L239.15 541.782C224.639 545.858 214 559.187 214 575C214 594.054 229.446 609.5 248.5 609.5C267.554 609.5 283 594.054 283 575C283 563.003 276.877 552.436 267.585 546.255Z" fill="#E0E0E0"/>
<path d="M482 541L388.595 536.16C387.144 536.085 386.1 537.533 386.63 538.887L390 547.5L386.831 552.782C386.157 553.904 386.726 555.36 387.981 555.73L411 562.5H415.16H449.258H471L484.232 552.005C484.815 551.544 484.707 550.63 484.034 550.316L478 547.5L482 541Z" fill="black"/>
<path d="M432.209 627C451.263 627 466.709 611.554 466.709 592.5C466.709 579.647 459.681 568.436 449.258 562.5H415.16C404.737 568.436 397.709 579.647 397.709 592.5C397.709 611.554 413.155 627 432.209 627Z" fill="#E0E0E0"/>
<path d="M286.5 536L291.954 532.883C293.606 531.939 293.131 529.44 291.248 529.168L221 519C217.095 522.319 214.905 524.181 211 527.5C214.946 533.747 219.244 536.611 231 540.5L239.15 541.782L267.585 546.255L275.5 547.5L290.113 544.303C290.789 544.156 291.114 543.383 290.748 542.796L286.5 536Z" fill="black"/>
<path d="M221 519L291.248 529.168C293.131 529.44 293.606 531.939 291.954 532.883L286.5 536L290.748 542.796C291.114 543.383 290.789 544.156 290.113 544.303L275.5 547.5L267.585 546.255M221 519C217.095 522.319 214.905 524.181 211 527.5M221 519L211 527.5M211 527.5C214.946 533.747 219.244 536.611 231 540.5L239.15 541.782M267.585 546.255L239.15 541.782M267.585 546.255C276.877 552.436 283 563.003 283 575C283 594.054 267.554 609.5 248.5 609.5C229.446 609.5 214 594.054 214 575C214 559.187 224.639 545.858 239.15 541.782M415.16 562.5H411L387.981 555.73C386.726 555.36 386.157 553.904 386.831 552.782L390 547.5L386.63 538.887C386.1 537.533 387.144 536.085 388.595 536.16L482 541L478 547.5L484.034 550.316C484.707 550.63 484.815 551.544 484.232 552.005L471 562.5H449.258M415.16 562.5C404.737 568.436 397.709 579.647 397.709 592.5C397.709 611.554 413.155 627 432.209 627C451.263 627 466.709 611.554 466.709 592.5C466.709 579.647 459.681 568.436 449.258 562.5M415.16 562.5H449.258" stroke="black" stroke-width="1.5" stroke-linecap="round"/>
<path d="M319 476.5L306.5 600.5M355.5 508.5L348 582M371.5 505V530M335.5 491L331.5 550.5" stroke="#903381" stroke-width="1.5" stroke-linecap="round"/>
<path d="M543.831 964.926H531.056C529.826 964.926 528.83 965.922 528.83 967.15V976.943C528.83 978.464 530.652 979.245 531.754 978.196L531.83 978.124C532.103 977.864 532.466 977.719 532.843 977.719C533.654 977.719 534.311 977.062 534.311 976.252V972.373C534.311 971.144 535.308 970.148 536.537 970.148H543.831C548.859 970.414 552.008 975.062 552.957 977.682C553.223 978.414 554.12 979.323 554.899 979.323C555.479 979.323 555.948 979.792 555.948 980.372V980.956C555.948 981.535 555.479 982.004 554.899 982.004C554.12 982.004 553.223 982.914 552.957 983.645C552.008 986.265 548.859 990.913 543.831 991.179H534.311H531.056C529.826 991.179 528.83 992.175 528.83 993.404V994.318C528.83 995.547 529.826 996.543 531.056 996.543H543.831C550.329 995.67 559.181 990.344 558.545 979.323C557.214 970.293 552.012 965.909 543.831 964.926Z" fill="black" stroke="black"/>
<path d="M517.161 977.964V966.988C517.161 965.759 518.157 964.763 519.387 964.763H521.118C522.347 964.763 523.344 965.759 523.344 966.988V992.412C523.344 994.269 521.192 995.298 519.745 994.132C519.583 994.002 519.403 993.895 519.21 993.814L518.528 993.529C517.7 993.183 517.161 992.374 517.161 991.476V977.964Z" fill="black" stroke="black"/>
<path d="M442.47 1029V1019.2H446.6C447.645 1019.2 448.565 1019.41 449.358 1019.82C450.161 1020.23 450.781 1020.8 451.22 1021.54C451.668 1022.28 451.892 1023.13 451.892 1024.1C451.892 1025.07 451.668 1025.92 451.22 1026.66C450.781 1027.4 450.161 1027.97 449.358 1028.38C448.565 1028.79 447.645 1029 446.6 1029H442.47ZM443.87 1027.78H446.516C447.328 1027.78 448.028 1027.63 448.616 1027.32C449.213 1027.01 449.675 1026.58 450.002 1026.03C450.329 1025.47 450.492 1024.83 450.492 1024.1C450.492 1023.36 450.329 1022.72 450.002 1022.17C449.675 1021.62 449.213 1021.19 448.616 1020.88C448.028 1020.57 447.328 1020.42 446.516 1020.42H443.87V1027.78ZM457.144 1029.08C456.351 1029.08 455.651 1028.92 455.044 1028.59C454.447 1028.27 453.98 1027.82 453.644 1027.25C453.318 1026.68 453.154 1026.03 453.154 1025.29C453.154 1024.55 453.313 1023.9 453.63 1023.33C453.957 1022.76 454.4 1022.32 454.96 1022C455.53 1021.67 456.169 1021.51 456.878 1021.51C457.597 1021.51 458.232 1021.67 458.782 1021.99C459.333 1022.3 459.762 1022.75 460.07 1023.33C460.388 1023.9 460.546 1024.57 460.546 1025.33C460.546 1025.39 460.542 1025.45 460.532 1025.53C460.532 1025.6 460.528 1025.67 460.518 1025.74H454.204V1024.77H459.818L459.272 1025.11C459.282 1024.63 459.184 1024.21 458.978 1023.83C458.773 1023.46 458.488 1023.17 458.124 1022.97C457.77 1022.75 457.354 1022.64 456.878 1022.64C456.412 1022.64 455.996 1022.75 455.632 1022.97C455.268 1023.17 454.984 1023.47 454.778 1023.85C454.573 1024.22 454.47 1024.65 454.47 1025.14V1025.36C454.47 1025.85 454.582 1026.3 454.806 1026.69C455.04 1027.07 455.362 1027.37 455.772 1027.59C456.183 1027.8 456.654 1027.91 457.186 1027.91C457.625 1027.91 458.022 1027.83 458.376 1027.68C458.74 1027.53 459.058 1027.31 459.328 1027.01L460.07 1027.88C459.734 1028.27 459.314 1028.57 458.81 1028.78C458.316 1028.98 457.76 1029.08 457.144 1029.08ZM464.541 1029.08C463.925 1029.08 463.337 1029 462.777 1028.83C462.226 1028.66 461.792 1028.46 461.475 1028.22L462.035 1027.15C462.352 1027.37 462.744 1027.55 463.211 1027.7C463.677 1027.85 464.153 1027.92 464.639 1027.92C465.264 1027.92 465.712 1027.83 465.983 1027.66C466.263 1027.48 466.403 1027.23 466.403 1026.91C466.403 1026.68 466.319 1026.5 466.151 1026.37C465.983 1026.24 465.759 1026.14 465.479 1026.07C465.208 1026.01 464.905 1025.95 464.569 1025.91C464.233 1025.85 463.897 1025.78 463.561 1025.71C463.225 1025.63 462.917 1025.51 462.637 1025.37C462.357 1025.22 462.133 1025.02 461.965 1024.77C461.797 1024.51 461.713 1024.17 461.713 1023.74C461.713 1023.29 461.839 1022.9 462.091 1022.56C462.343 1022.22 462.697 1021.97 463.155 1021.79C463.621 1021.6 464.172 1021.51 464.807 1021.51C465.292 1021.51 465.782 1021.57 466.277 1021.69C466.781 1021.8 467.191 1021.97 467.509 1022.18L466.935 1023.25C466.599 1023.02 466.249 1022.87 465.885 1022.78C465.521 1022.7 465.157 1022.66 464.793 1022.66C464.205 1022.66 463.766 1022.76 463.477 1022.95C463.187 1023.14 463.043 1023.38 463.043 1023.68C463.043 1023.93 463.127 1024.13 463.295 1024.27C463.472 1024.4 463.696 1024.5 463.967 1024.58C464.247 1024.65 464.555 1024.72 464.891 1024.77C465.227 1024.82 465.563 1024.88 465.899 1024.97C466.235 1025.04 466.538 1025.15 466.809 1025.29C467.089 1025.43 467.313 1025.63 467.481 1025.88C467.658 1026.13 467.747 1026.47 467.747 1026.89C467.747 1027.33 467.616 1027.72 467.355 1028.05C467.093 1028.37 466.725 1028.63 466.249 1028.82C465.773 1029 465.203 1029.08 464.541 1029.08ZM469.426 1029V1021.58H470.77V1029H469.426ZM470.098 1020.15C469.837 1020.15 469.618 1020.07 469.44 1019.9C469.272 1019.73 469.188 1019.53 469.188 1019.28C469.188 1019.03 469.272 1018.82 469.44 1018.65C469.618 1018.49 469.837 1018.4 470.098 1018.4C470.36 1018.4 470.574 1018.49 470.742 1018.65C470.92 1018.81 471.008 1019.01 471.008 1019.26C471.008 1019.51 470.924 1019.72 470.756 1019.9C470.588 1020.07 470.369 1020.15 470.098 1020.15ZM476.585 1031.8C475.903 1031.8 475.241 1031.7 474.597 1031.51C473.962 1031.32 473.444 1031.05 473.043 1030.69L473.687 1029.66C474.032 1029.96 474.457 1030.19 474.961 1030.36C475.465 1030.54 475.992 1030.62 476.543 1030.62C477.42 1030.62 478.064 1030.42 478.475 1030.01C478.885 1029.6 479.091 1028.97 479.091 1028.13V1026.56L479.231 1025.09L479.161 1023.61V1021.58H480.435V1027.99C480.435 1029.3 480.108 1030.26 479.454 1030.88C478.801 1031.49 477.845 1031.8 476.585 1031.8ZM476.417 1028.69C475.698 1028.69 475.054 1028.54 474.485 1028.24C473.925 1027.94 473.477 1027.51 473.141 1026.97C472.814 1026.43 472.651 1025.8 472.651 1025.09C472.651 1024.38 472.814 1023.75 473.141 1023.22C473.477 1022.68 473.925 1022.26 474.485 1021.96C475.054 1021.66 475.698 1021.51 476.417 1021.51C477.051 1021.51 477.63 1021.64 478.153 1021.9C478.675 1022.15 479.091 1022.55 479.399 1023.08C479.716 1023.61 479.875 1024.28 479.875 1025.09C479.875 1025.9 479.716 1026.56 479.399 1027.1C479.091 1027.63 478.675 1028.03 478.153 1028.3C477.63 1028.56 477.051 1028.69 476.417 1028.69ZM476.571 1027.52C477.065 1027.52 477.504 1027.41 477.887 1027.21C478.269 1027 478.568 1026.72 478.783 1026.35C479.007 1025.99 479.119 1025.57 479.119 1025.09C479.119 1024.62 479.007 1024.2 478.783 1023.83C478.568 1023.47 478.269 1023.19 477.887 1022.99C477.504 1022.79 477.065 1022.69 476.571 1022.69C476.076 1022.69 475.633 1022.79 475.241 1022.99C474.858 1023.19 474.555 1023.47 474.331 1023.83C474.116 1024.2 474.009 1024.62 474.009 1025.09C474.009 1025.57 474.116 1025.99 474.331 1026.35C474.555 1026.72 474.858 1027 475.241 1027.21C475.633 1027.41 476.076 1027.52 476.571 1027.52ZM486.965 1021.51C487.571 1021.51 488.103 1021.63 488.561 1021.86C489.027 1022.09 489.391 1022.45 489.653 1022.92C489.914 1023.4 490.045 1024 490.045 1024.73V1029H488.701V1024.88C488.701 1024.17 488.523 1023.62 488.169 1023.26C487.823 1022.9 487.333 1022.71 486.699 1022.71C486.223 1022.71 485.807 1022.81 485.453 1022.99C485.098 1023.18 484.823 1023.46 484.627 1023.82C484.44 1024.18 484.347 1024.64 484.347 1025.18V1029H483.003V1021.58H484.291V1023.58L484.081 1023.05C484.323 1022.56 484.697 1022.19 485.201 1021.92C485.705 1021.65 486.293 1021.51 486.965 1021.51ZM500.226 1029.08C499.591 1029.08 499.017 1028.94 498.504 1028.66C498 1028.37 497.598 1027.95 497.3 1027.39C497.01 1026.83 496.866 1026.13 496.866 1025.29C496.866 1024.45 497.015 1023.75 497.314 1023.19C497.622 1022.63 498.028 1022.21 498.532 1021.93C499.045 1021.65 499.61 1021.51 500.226 1021.51C500.954 1021.51 501.598 1021.67 502.158 1021.99C502.718 1022.3 503.161 1022.75 503.488 1023.32C503.814 1023.88 503.978 1024.53 503.978 1025.29C503.978 1026.05 503.814 1026.71 503.488 1027.28C503.161 1027.85 502.718 1028.29 502.158 1028.61C501.598 1028.93 500.954 1029.08 500.226 1029.08ZM496.292 1029V1018.61H497.636V1023.55L497.496 1025.28L497.58 1027V1029H496.292ZM500.114 1027.91C500.59 1027.91 501.014 1027.8 501.388 1027.59C501.77 1027.37 502.069 1027.07 502.284 1026.68C502.508 1026.27 502.62 1025.81 502.62 1025.29C502.62 1024.76 502.508 1024.3 502.284 1023.92C502.069 1023.53 501.77 1023.22 501.388 1023.01C501.014 1022.79 500.59 1022.69 500.114 1022.69C499.647 1022.69 499.222 1022.79 498.84 1023.01C498.466 1023.22 498.168 1023.53 497.944 1023.92C497.729 1024.3 497.622 1024.76 497.622 1025.29C497.622 1025.81 497.729 1026.27 497.944 1026.68C498.168 1027.07 498.466 1027.37 498.84 1027.59C499.222 1027.8 499.647 1027.91 500.114 1027.91ZM505.951 1031.8C505.597 1031.8 505.251 1031.74 504.915 1031.62C504.579 1031.51 504.29 1031.34 504.047 1031.11L504.621 1030.11C504.808 1030.28 505.013 1030.42 505.237 1030.51C505.461 1030.61 505.699 1030.65 505.951 1030.65C506.278 1030.65 506.549 1030.57 506.763 1030.4C506.978 1030.23 507.179 1029.93 507.365 1029.5L507.827 1028.48L507.967 1028.31L510.879 1021.58H512.195L508.597 1029.74C508.383 1030.26 508.14 1030.68 507.869 1030.97C507.608 1031.27 507.319 1031.48 507.001 1031.6C506.684 1031.73 506.334 1031.8 505.951 1031.8ZM507.715 1029.24L504.327 1021.58H505.727L508.611 1028.19L507.715 1029.24ZM513.867 1023.43C513.606 1023.43 513.382 1023.34 513.195 1023.16C513.009 1022.98 512.915 1022.74 512.915 1022.46C512.915 1022.18 513.009 1021.95 513.195 1021.78C513.382 1021.6 513.606 1021.51 513.867 1021.51C514.119 1021.51 514.334 1021.6 514.511 1021.78C514.698 1021.95 514.791 1022.18 514.791 1022.46C514.791 1022.74 514.698 1022.98 514.511 1023.16C514.334 1023.34 514.119 1023.43 513.867 1023.43ZM513.867 1029.08C513.606 1029.08 513.382 1029 513.195 1028.82C513.009 1028.63 512.915 1028.4 512.915 1028.12C512.915 1027.84 513.009 1027.61 513.195 1027.43C513.382 1027.25 513.606 1027.17 513.867 1027.17C514.119 1027.17 514.334 1027.25 514.511 1027.43C514.698 1027.61 514.791 1027.84 514.791 1028.12C514.791 1028.4 514.698 1028.63 514.511 1028.82C514.334 1029 514.119 1029.08 513.867 1029.08ZM526.427 1031.83C525.456 1031.83 524.57 1031.67 523.767 1031.35C522.964 1031.03 522.274 1030.59 521.695 1030.02C521.116 1029.45 520.668 1028.78 520.351 1028.01C520.034 1027.22 519.875 1026.37 519.875 1025.44C519.875 1024.52 520.034 1023.67 520.351 1022.9C520.668 1022.12 521.116 1021.45 521.695 1020.88C522.283 1020.31 522.983 1019.87 523.795 1019.56C524.607 1019.26 525.503 1019.1 526.483 1019.1C527.444 1019.1 528.322 1019.25 529.115 1019.55C529.908 1019.85 530.594 1020.27 531.173 1020.82C531.761 1021.37 532.214 1022.01 532.531 1022.77C532.848 1023.52 533.007 1024.34 533.007 1025.25C533.007 1026.04 532.909 1026.72 532.713 1027.29C532.517 1027.86 532.232 1028.3 531.859 1028.62C531.495 1028.93 531.047 1029.08 530.515 1029.08C529.992 1029.08 529.572 1028.93 529.255 1028.61C528.947 1028.29 528.793 1027.84 528.793 1027.25V1026.3L528.863 1025.44L528.737 1023.83V1021.97H529.955V1027.01C529.955 1027.39 530.03 1027.65 530.179 1027.8C530.338 1027.95 530.529 1028.02 530.753 1028.02C531.024 1028.02 531.257 1027.91 531.453 1027.7C531.658 1027.48 531.808 1027.17 531.901 1026.76C532.004 1026.34 532.055 1025.84 532.055 1025.26C532.055 1024.48 531.92 1023.77 531.649 1023.13C531.388 1022.49 531.005 1021.93 530.501 1021.47C530.006 1021 529.418 1020.65 528.737 1020.4C528.065 1020.15 527.314 1020.03 526.483 1020.03C525.652 1020.03 524.892 1020.16 524.201 1020.43C523.52 1020.69 522.932 1021.07 522.437 1021.55C521.942 1022.03 521.56 1022.6 521.289 1023.26C521.028 1023.92 520.897 1024.65 520.897 1025.44C520.897 1026.25 521.028 1026.98 521.289 1027.66C521.55 1028.32 521.924 1028.89 522.409 1029.36C522.904 1029.85 523.487 1030.22 524.159 1030.48C524.84 1030.75 525.596 1030.89 526.427 1030.89C526.856 1030.89 527.309 1030.84 527.785 1030.74C528.261 1030.64 528.709 1030.49 529.129 1030.27L529.437 1031.17C529.008 1031.38 528.522 1031.55 527.981 1031.66C527.44 1031.77 526.922 1031.83 526.427 1031.83ZM526.175 1029.08C525.512 1029.08 524.924 1028.93 524.411 1028.62C523.898 1028.3 523.492 1027.88 523.193 1027.33C522.894 1026.79 522.745 1026.18 522.745 1025.49C522.745 1024.79 522.894 1024.17 523.193 1023.64C523.492 1023.1 523.898 1022.68 524.411 1022.38C524.924 1022.07 525.512 1021.92 526.175 1021.92C526.819 1021.92 527.384 1022.06 527.869 1022.34C528.354 1022.61 528.732 1023.01 529.003 1023.54C529.283 1024.07 529.423 1024.72 529.423 1025.49C529.423 1026.25 529.288 1026.9 529.017 1027.43C528.746 1027.96 528.368 1028.37 527.883 1028.66C527.398 1028.94 526.828 1029.08 526.175 1029.08ZM526.371 1027.99C526.828 1027.99 527.234 1027.89 527.589 1027.7C527.953 1027.49 528.238 1027.2 528.443 1026.83C528.658 1026.45 528.765 1026 528.765 1025.49C528.765 1024.96 528.658 1024.52 528.443 1024.14C528.238 1023.77 527.953 1023.48 527.589 1023.29C527.234 1023.09 526.828 1022.99 526.371 1022.99C525.904 1022.99 525.489 1023.1 525.125 1023.3C524.77 1023.5 524.49 1023.78 524.285 1024.16C524.089 1024.53 523.991 1024.97 523.991 1025.49C523.991 1025.99 524.089 1026.43 524.285 1026.8C524.49 1027.18 524.77 1027.47 525.125 1027.68C525.489 1027.89 525.904 1027.99 526.371 1027.99ZM533.258 1029.87V1029H540.258V1029.87H533.258ZM541.532 1029V1021.58H542.876V1029H541.532ZM542.204 1020.15C541.942 1020.15 541.723 1020.07 541.546 1019.9C541.378 1019.73 541.294 1019.53 541.294 1019.28C541.294 1019.03 541.378 1018.82 541.546 1018.65C541.723 1018.49 541.942 1018.4 542.204 1018.4C542.465 1018.4 542.68 1018.49 542.848 1018.65C543.025 1018.81 543.114 1019.01 543.114 1019.26C543.114 1019.51 543.03 1019.72 542.862 1019.9C542.694 1020.07 542.474 1020.15 542.204 1020.15ZM549.376 1029.08C548.741 1029.08 548.167 1028.94 547.654 1028.66C547.15 1028.37 546.749 1027.95 546.45 1027.39C546.161 1026.83 546.016 1026.13 546.016 1025.29C546.016 1024.45 546.165 1023.75 546.464 1023.19C546.772 1022.63 547.178 1022.21 547.682 1021.93C548.195 1021.65 548.76 1021.51 549.376 1021.51C550.104 1021.51 550.748 1021.67 551.308 1021.99C551.868 1022.3 552.311 1022.75 552.638 1023.32C552.965 1023.88 553.128 1024.53 553.128 1025.29C553.128 1026.05 552.965 1026.71 552.638 1027.28C552.311 1027.85 551.868 1028.29 551.308 1028.61C550.748 1028.93 550.104 1029.08 549.376 1029.08ZM545.442 1029V1018.61H546.786V1023.55L546.646 1025.28L546.73 1027V1029H545.442ZM549.264 1027.91C549.74 1027.91 550.165 1027.8 550.538 1027.59C550.921 1027.37 551.219 1027.07 551.434 1026.68C551.658 1026.27 551.77 1025.81 551.77 1025.29C551.77 1024.76 551.658 1024.3 551.434 1023.92C551.219 1023.53 550.921 1023.22 550.538 1023.01C550.165 1022.79 549.74 1022.69 549.264 1022.69C548.797 1022.69 548.373 1022.79 547.99 1023.01C547.617 1023.22 547.318 1023.53 547.094 1023.92C546.879 1024.3 546.772 1024.76 546.772 1025.29C546.772 1025.81 546.879 1026.27 547.094 1026.68C547.318 1027.07 547.617 1027.37 547.99 1027.59C548.373 1027.8 548.797 1027.91 549.264 1027.91ZM558.947 1021.51C559.554 1021.51 560.086 1021.63 560.543 1021.86C561.01 1022.09 561.374 1022.45 561.635 1022.92C561.896 1023.4 562.027 1024 562.027 1024.73V1029H560.683V1024.88C560.683 1024.17 560.506 1023.62 560.151 1023.26C559.806 1022.9 559.316 1022.71 558.681 1022.71C558.205 1022.71 557.79 1022.81 557.435 1022.99C557.08 1023.18 556.805 1023.46 556.609 1023.82C556.422 1024.18 556.329 1024.64 556.329 1025.18V1029H554.985V1021.58H556.273V1023.58L556.063 1023.05C556.306 1022.56 556.679 1022.19 557.183 1021.92C557.687 1021.65 558.275 1021.51 558.947 1021.51ZM567.636 1029.08C567.002 1029.08 566.442 1028.97 565.956 1028.73C565.48 1028.5 565.107 1028.15 564.836 1027.67C564.575 1027.18 564.444 1026.58 564.444 1025.85V1021.58H565.788V1025.7C565.788 1026.42 565.961 1026.97 566.306 1027.33C566.661 1027.7 567.156 1027.88 567.79 1027.88C568.257 1027.88 568.663 1027.79 569.008 1027.6C569.354 1027.4 569.62 1027.12 569.806 1026.76C569.993 1026.39 570.086 1025.94 570.086 1025.42V1021.58H571.43V1029H570.156V1027L570.366 1027.53C570.124 1028.02 569.76 1028.41 569.274 1028.68C568.789 1028.95 568.243 1029.08 567.636 1029.08ZM577.111 1029.08C576.476 1029.08 575.916 1028.97 575.431 1028.73C574.955 1028.5 574.582 1028.15 574.311 1027.67C574.05 1027.18 573.919 1026.58 573.919 1025.85V1021.58H575.263V1025.7C575.263 1026.42 575.436 1026.97 575.781 1027.33C576.136 1027.7 576.63 1027.88 577.265 1027.88C577.732 1027.88 578.138 1027.79 578.483 1027.6C578.828 1027.4 579.094 1027.12 579.281 1026.76C579.468 1026.39 579.561 1025.94 579.561 1025.42V1021.58H580.905V1029H579.631V1027L579.841 1027.53C579.598 1028.02 579.234 1028.41 578.749 1028.68C578.264 1028.95 577.718 1029.08 577.111 1029.08ZM586.585 1029.08C585.951 1029.08 585.391 1028.97 584.905 1028.73C584.429 1028.5 584.056 1028.15 583.785 1027.67C583.524 1027.18 583.393 1026.58 583.393 1025.85V1021.58H584.737V1025.7C584.737 1026.42 584.91 1026.97 585.255 1027.33C585.61 1027.7 586.105 1027.88 586.739 1027.88C587.206 1027.88 587.612 1027.79 587.957 1027.6C588.303 1027.4 588.569 1027.12 588.755 1026.76C588.942 1026.39 589.035 1025.94 589.035 1025.42V1021.58H590.379V1029H589.105V1027L589.315 1027.53C589.073 1028.02 588.709 1028.41 588.223 1028.68C587.738 1028.95 587.192 1029.08 586.585 1029.08ZM596.004 1029.08C595.285 1029.08 594.641 1028.93 594.072 1028.61C593.512 1028.29 593.069 1027.85 592.742 1027.28C592.415 1026.71 592.252 1026.05 592.252 1025.29C592.252 1024.53 592.415 1023.88 592.742 1023.32C593.069 1022.75 593.512 1022.3 594.072 1021.99C594.641 1021.67 595.285 1021.51 596.004 1021.51C596.629 1021.51 597.194 1021.65 597.698 1021.93C598.202 1022.21 598.603 1022.63 598.902 1023.19C599.21 1023.75 599.364 1024.45 599.364 1025.29C599.364 1026.13 599.215 1026.83 598.916 1027.39C598.627 1027.95 598.23 1028.37 597.726 1028.66C597.222 1028.94 596.648 1029.08 596.004 1029.08ZM596.116 1027.91C596.583 1027.91 597.003 1027.8 597.376 1027.59C597.759 1027.37 598.057 1027.07 598.272 1026.68C598.496 1026.27 598.608 1025.81 598.608 1025.29C598.608 1024.76 598.496 1024.3 598.272 1023.92C598.057 1023.53 597.759 1023.22 597.376 1023.01C597.003 1022.79 596.583 1022.69 596.116 1022.69C595.64 1022.69 595.215 1022.79 594.842 1023.01C594.469 1023.22 594.17 1023.53 593.946 1023.92C593.722 1024.3 593.61 1024.76 593.61 1025.29C593.61 1025.81 593.722 1026.27 593.946 1026.68C594.17 1027.07 594.469 1027.37 594.842 1027.59C595.215 1027.8 595.64 1027.91 596.116 1027.91ZM598.65 1029V1027L598.734 1025.28L598.594 1023.55V1018.61H599.938V1029H598.65ZM605.785 1029.08C604.992 1029.08 604.292 1028.92 603.685 1028.59C603.088 1028.27 602.621 1027.82 602.285 1027.25C601.958 1026.68 601.795 1026.03 601.795 1025.29C601.795 1024.55 601.954 1023.9 602.271 1023.33C602.598 1022.76 603.041 1022.32 603.601 1022C604.17 1021.67 604.81 1021.51 605.519 1021.51C606.238 1021.51 606.872 1021.67 607.423 1021.99C607.974 1022.3 608.403 1022.75 608.711 1023.33C609.028 1023.9 609.187 1024.57 609.187 1025.33C609.187 1025.39 609.182 1025.45 609.173 1025.53C609.173 1025.6 609.168 1025.67 609.159 1025.74H602.845V1024.77H608.459L607.913 1025.11C607.922 1024.63 607.824 1024.21 607.619 1023.83C607.414 1023.46 607.129 1023.17 606.765 1022.97C606.41 1022.75 605.995 1022.64 605.519 1022.64C605.052 1022.64 604.637 1022.75 604.273 1022.97C603.909 1023.17 603.624 1023.47 603.419 1023.85C603.214 1024.22 603.111 1024.65 603.111 1025.14V1025.36C603.111 1025.85 603.223 1026.3 603.447 1026.69C603.68 1027.07 604.002 1027.37 604.413 1027.59C604.824 1027.8 605.295 1027.91 605.827 1027.91C606.266 1027.91 606.662 1027.83 607.017 1027.68C607.381 1027.53 607.698 1027.31 607.969 1027.01L608.711 1027.88C608.375 1028.27 607.955 1028.57 607.451 1028.78C606.956 1028.98 606.401 1029.08 605.785 1029.08ZM613.181 1029.08C612.565 1029.08 611.977 1029 611.417 1028.83C610.867 1028.66 610.433 1028.46 610.115 1028.22L610.675 1027.15C610.993 1027.37 611.385 1027.55 611.851 1027.7C612.318 1027.85 612.794 1027.92 613.279 1027.92C613.905 1027.92 614.353 1027.83 614.623 1027.66C614.903 1027.48 615.043 1027.23 615.043 1026.91C615.043 1026.68 614.959 1026.5 614.791 1026.37C614.623 1026.24 614.399 1026.14 614.119 1026.07C613.849 1026.01 613.545 1025.95 613.209 1025.91C612.873 1025.85 612.537 1025.78 612.201 1025.71C611.865 1025.63 611.557 1025.51 611.277 1025.37C610.997 1025.22 610.773 1025.02 610.605 1024.77C610.437 1024.51 610.353 1024.17 610.353 1023.74C610.353 1023.29 610.479 1022.9 610.731 1022.56C610.983 1022.22 611.338 1021.97 611.795 1021.79C612.262 1021.6 612.813 1021.51 613.447 1021.51C613.933 1021.51 614.423 1021.57 614.917 1021.69C615.421 1021.8 615.832 1021.97 616.149 1022.18L615.575 1023.25C615.239 1023.02 614.889 1022.87 614.525 1022.78C614.161 1022.7 613.797 1022.66 613.433 1022.66C612.845 1022.66 612.407 1022.76 612.117 1022.95C611.828 1023.14 611.683 1023.38 611.683 1023.68C611.683 1023.93 611.767 1024.13 611.935 1024.27C612.113 1024.4 612.337 1024.5 612.607 1024.58C612.887 1024.65 613.195 1024.72 613.531 1024.77C613.867 1024.82 614.203 1024.88 614.539 1024.97C614.875 1025.04 615.179 1025.15 615.449 1025.29C615.729 1025.43 615.953 1025.63 616.121 1025.88C616.299 1026.13 616.387 1026.47 616.387 1026.89C616.387 1027.33 616.257 1027.72 615.995 1028.05C615.734 1028.37 615.365 1028.63 614.889 1028.82C614.413 1029 613.844 1029.08 613.181 1029.08ZM618.067 1029V1021.58H619.411V1029H618.067ZM618.739 1020.15C618.478 1020.15 618.258 1020.07 618.081 1019.9C617.913 1019.73 617.829 1019.53 617.829 1019.28C617.829 1019.03 617.913 1018.82 618.081 1018.65C618.258 1018.49 618.478 1018.4 618.739 1018.4C619 1018.4 619.215 1018.49 619.383 1018.65C619.56 1018.81 619.649 1019.01 619.649 1019.26C619.649 1019.51 619.565 1019.72 619.397 1019.9C619.229 1020.07 619.01 1020.15 618.739 1020.15ZM625.225 1031.8C624.544 1031.8 623.881 1031.7 623.237 1031.51C622.602 1031.32 622.084 1031.05 621.683 1030.69L622.327 1029.66C622.672 1029.96 623.097 1030.19 623.601 1030.36C624.105 1030.54 624.632 1030.62 625.183 1030.62C626.06 1030.62 626.704 1030.42 627.115 1030.01C627.526 1029.6 627.731 1028.97 627.731 1028.13V1026.56L627.871 1025.09L627.801 1023.61V1021.58H629.075V1027.99C629.075 1029.3 628.748 1030.26 628.095 1030.88C627.442 1031.49 626.485 1031.8 625.225 1031.8ZM625.057 1028.69C624.338 1028.69 623.694 1028.54 623.125 1028.24C622.565 1027.94 622.117 1027.51 621.781 1026.97C621.454 1026.43 621.291 1025.8 621.291 1025.09C621.291 1024.38 621.454 1023.75 621.781 1023.22C622.117 1022.68 622.565 1022.26 623.125 1021.96C623.694 1021.66 624.338 1021.51 625.057 1021.51C625.692 1021.51 626.27 1021.64 626.793 1021.9C627.316 1022.15 627.731 1022.55 628.039 1023.08C628.356 1023.61 628.515 1024.28 628.515 1025.09C628.515 1025.9 628.356 1026.56 628.039 1027.1C627.731 1027.63 627.316 1028.03 626.793 1028.3C626.27 1028.56 625.692 1028.69 625.057 1028.69ZM625.211 1027.52C625.706 1027.52 626.144 1027.41 626.527 1027.21C626.91 1027 627.208 1026.72 627.423 1026.35C627.647 1025.99 627.759 1025.57 627.759 1025.09C627.759 1024.62 627.647 1024.2 627.423 1023.83C627.208 1023.47 626.91 1023.19 626.527 1022.99C626.144 1022.79 625.706 1022.69 625.211 1022.69C624.716 1022.69 624.273 1022.79 623.881 1022.99C623.498 1023.19 623.195 1023.47 622.971 1023.83C622.756 1024.2 622.649 1024.62 622.649 1025.09C622.649 1025.57 622.756 1025.99 622.971 1026.35C623.195 1026.72 623.498 1027 623.881 1027.21C624.273 1027.41 624.716 1027.52 625.211 1027.52ZM635.605 1021.51C636.212 1021.51 636.744 1021.63 637.201 1021.86C637.668 1022.09 638.032 1022.45 638.293 1022.92C638.554 1023.4 638.685 1024 638.685 1024.73V1029H637.341V1024.88C637.341 1024.17 637.164 1023.62 636.809 1023.26C636.464 1022.9 635.974 1022.71 635.339 1022.71C634.863 1022.71 634.448 1022.81 634.093 1022.99C633.738 1023.18 633.463 1023.46 633.267 1023.82C633.08 1024.18 632.987 1024.64 632.987 1025.18V1029H631.643V1021.58H632.931V1023.58L632.721 1023.05C632.964 1022.56 633.337 1022.19 633.841 1021.92C634.345 1021.65 634.933 1021.51 635.605 1021.51ZM639.898 1029.87V1029H646.898V1029.87H639.898Z" fill="black"/>
<path d="M543.831 964.926H531.056C529.826 964.926 528.83 965.922 528.83 967.15V976.943C528.83 978.464 530.652 979.245 531.754 978.196L531.83 978.124C532.103 977.864 532.466 977.719 532.843 977.719C533.654 977.719 534.311 977.062 534.311 976.252V972.373C534.311 971.144 535.308 970.148 536.537 970.148H543.831C548.859 970.414 552.008 975.062 552.957 977.682C553.223 978.414 554.12 979.323 554.899 979.323C555.479 979.323 555.948 979.792 555.948 980.372V980.956C555.948 981.535 555.479 982.004 554.899 982.004C554.12 982.004 553.223 982.914 552.957 983.645C552.008 986.265 548.859 990.913 543.831 991.179H534.311H531.056C529.826 991.179 528.83 992.175 528.83 993.404V994.318C528.83 995.547 529.826 996.543 531.056 996.543H543.831C550.329 995.67 559.181 990.344 558.545 979.323C557.214 970.293 552.012 965.909 543.831 964.926Z" fill="#404040" stroke="#404040"/>
<path d="M517.161 977.964V966.988C517.161 965.759 518.157 964.763 519.387 964.763H521.118C522.347 964.763 523.344 965.759 523.344 966.988V992.412C523.344 994.269 521.192 995.298 519.745 994.132C519.583 994.002 519.403 993.895 519.21 993.814L518.528 993.529C517.7 993.183 517.161 992.374 517.161 991.476V977.964Z" fill="#404040" stroke="#404040"/>
<path d="M442.47 1029V1019.2H446.6C447.645 1019.2 448.565 1019.41 449.358 1019.82C450.161 1020.23 450.781 1020.8 451.22 1021.54C451.668 1022.28 451.892 1023.13 451.892 1024.1C451.892 1025.07 451.668 1025.92 451.22 1026.66C450.781 1027.4 450.161 1027.97 449.358 1028.38C448.565 1028.79 447.645 1029 446.6 1029H442.47ZM443.87 1027.78H446.516C447.328 1027.78 448.028 1027.63 448.616 1027.32C449.213 1027.01 449.675 1026.58 450.002 1026.03C450.329 1025.47 450.492 1024.83 450.492 1024.1C450.492 1023.36 450.329 1022.72 450.002 1022.17C449.675 1021.62 449.213 1021.19 448.616 1020.88C448.028 1020.57 447.328 1020.42 446.516 1020.42H443.87V1027.78ZM457.144 1029.08C456.351 1029.08 455.651 1028.92 455.044 1028.59C454.447 1028.27 453.98 1027.82 453.644 1027.25C453.318 1026.68 453.154 1026.03 453.154 1025.29C453.154 1024.55 453.313 1023.9 453.63 1023.33C453.957 1022.76 454.4 1022.32 454.96 1022C455.53 1021.67 456.169 1021.51 456.878 1021.51C457.597 1021.51 458.232 1021.67 458.782 1021.99C459.333 1022.3 459.762 1022.75 460.07 1023.33C460.388 1023.9 460.546 1024.57 460.546 1025.33C460.546 1025.39 460.542 1025.45 460.532 1025.53C460.532 1025.6 460.528 1025.67 460.518 1025.74H454.204V1024.77H459.818L459.272 1025.11C459.282 1024.63 459.184 1024.21 458.978 1023.83C458.773 1023.46 458.488 1023.17 458.124 1022.97C457.77 1022.75 457.354 1022.64 456.878 1022.64C456.412 1022.64 455.996 1022.75 455.632 1022.97C455.268 1023.17 454.984 1023.47 454.778 1023.85C454.573 1024.22 454.47 1024.65 454.47 1025.14V1025.36C454.47 1025.85 454.582 1026.3 454.806 1026.69C455.04 1027.07 455.362 1027.37 455.772 1027.59C456.183 1027.8 456.654 1027.91 457.186 1027.91C457.625 1027.91 458.022 1027.83 458.376 1027.68C458.74 1027.53 459.058 1027.31 459.328 1027.01L460.07 1027.88C459.734 1028.27 459.314 1028.57 458.81 1028.78C458.316 1028.98 457.76 1029.08 457.144 1029.08ZM464.541 1029.08C463.925 1029.08 463.337 1029 462.777 1028.83C462.226 1028.66 461.792 1028.46 461.475 1028.22L462.035 1027.15C462.352 1027.37 462.744 1027.55 463.211 1027.7C463.677 1027.85 464.153 1027.92 464.639 1027.92C465.264 1027.92 465.712 1027.83 465.983 1027.66C466.263 1027.48 466.403 1027.23 466.403 1026.91C466.403 1026.68 466.319 1026.5 466.151 1026.37C465.983 1026.24 465.759 1026.14 465.479 1026.07C465.208 1026.01 464.905 1025.95 464.569 1025.91C464.233 1025.85 463.897 1025.78 463.561 1025.71C463.225 1025.63 462.917 1025.51 462.637 1025.37C462.357 1025.22 462.133 1025.02 461.965 1024.77C461.797 1024.51 461.713 1024.17 461.713 1023.74C461.713 1023.29 461.839 1022.9 462.091 1022.56C462.343 1022.22 462.697 1021.97 463.155 1021.79C463.621 1021.6 464.172 1021.51 464.807 1021.51C465.292 1021.51 465.782 1021.57 466.277 1021.69C466.781 1021.8 467.191 1021.97 467.509 1022.18L466.935 1023.25C466.599 1023.02 466.249 1022.87 465.885 1022.78C465.521 1022.7 465.157 1022.66 464.793 1022.66C464.205 1022.66 463.766 1022.76 463.477 1022.95C463.187 1023.14 463.043 1023.38 463.043 1023.68C463.043 1023.93 463.127 1024.13 463.295 1024.27C463.472 1024.4 463.696 1024.5 463.967 1024.58C464.247 1024.65 464.555 1024.72 464.891 1024.77C465.227 1024.82 465.563 1024.88 465.899 1024.97C466.235 1025.04 466.538 1025.15 466.809 1025.29C467.089 1025.43 467.313 1025.63 467.481 1025.88C467.658 1026.13 467.747 1026.47 467.747 1026.89C467.747 1027.33 467.616 1027.72 467.355 1028.05C467.093 1028.37 466.725 1028.63 466.249 1028.82C465.773 1029 465.203 1029.08 464.541 1029.08ZM469.426 1029V1021.58H470.77V1029H469.426ZM470.098 1020.15C469.837 1020.15 469.618 1020.07 469.44 1019.9C469.272 1019.73 469.188 1019.53 469.188 1019.28C469.188 1019.03 469.272 1018.82 469.44 1018.65C469.618 1018.49 469.837 1018.4 470.098 1018.4C470.36 1018.4 470.574 1018.49 470.742 1018.65C470.92 1018.81 471.008 1019.01 471.008 1019.26C471.008 1019.51 470.924 1019.72 470.756 1019.9C470.588 1020.07 470.369 1020.15 470.098 1020.15ZM476.585 1031.8C475.903 1031.8 475.241 1031.7 474.597 1031.51C473.962 1031.32 473.444 1031.05 473.043 1030.69L473.687 1029.66C474.032 1029.96 474.457 1030.19 474.961 1030.36C475.465 1030.54 475.992 1030.62 476.543 1030.62C477.42 1030.62 478.064 1030.42 478.475 1030.01C478.885 1029.6 479.091 1028.97 479.091 1028.13V1026.56L479.231 1025.09L479.161 1023.61V1021.58H480.435V1027.99C480.435 1029.3 480.108 1030.26 479.454 1030.88C478.801 1031.49 477.845 1031.8 476.585 1031.8ZM476.417 1028.69C475.698 1028.69 475.054 1028.54 474.485 1028.24C473.925 1027.94 473.477 1027.51 473.141 1026.97C472.814 1026.43 472.651 1025.8 472.651 1025.09C472.651 1024.38 472.814 1023.75 473.141 1023.22C473.477 1022.68 473.925 1022.26 474.485 1021.96C475.054 1021.66 475.698 1021.51 476.417 1021.51C477.051 1021.51 477.63 1021.64 478.153 1021.9C478.675 1022.15 479.091 1022.55 479.399 1023.08C479.716 1023.61 479.875 1024.28 479.875 1025.09C479.875 1025.9 479.716 1026.56 479.399 1027.1C479.091 1027.63 478.675 1028.03 478.153 1028.3C477.63 1028.56 477.051 1028.69 476.417 1028.69ZM476.571 1027.52C477.065 1027.52 477.504 1027.41 477.887 1027.21C478.269 1027 478.568 1026.72 478.783 1026.35C479.007 1025.99 479.119 1025.57 479.119 1025.09C479.119 1024.62 479.007 1024.2 478.783 1023.83C478.568 1023.47 478.269 1023.19 477.887 1022.99C477.504 1022.79 477.065 1022.69 476.571 1022.69C476.076 1022.69 475.633 1022.79 475.241 1022.99C474.858 1023.19 474.555 1023.47 474.331 1023.83C474.116 1024.2 474.009 1024.62 474.009 1025.09C474.009 1025.57 474.116 1025.99 474.331 1026.35C474.555 1026.72 474.858 1027 475.241 1027.21C475.633 1027.41 476.076 1027.52 476.571 1027.52ZM486.965 1021.51C487.571 1021.51 488.103 1021.63 488.561 1021.86C489.027 1022.09 489.391 1022.45 489.653 1022.92C489.914 1023.4 490.045 1024 490.045 1024.73V1029H488.701V1024.88C488.701 1024.17 488.523 1023.62 488.169 1023.26C487.823 1022.9 487.333 1022.71 486.699 1022.71C486.223 1022.71 485.807 1022.81 485.453 1022.99C485.098 1023.18 484.823 1023.46 484.627 1023.82C484.44 1024.18 484.347 1024.64 484.347 1025.18V1029H483.003V1021.58H484.291V1023.58L484.081 1023.05C484.323 1022.56 484.697 1022.19 485.201 1021.92C485.705 1021.65 486.293 1021.51 486.965 1021.51ZM500.226 1029.08C499.591 1029.08 499.017 1028.94 498.504 1028.66C498 1028.37 497.598 1027.95 497.3 1027.39C497.01 1026.83 496.866 1026.13 496.866 1025.29C496.866 1024.45 497.015 1023.75 497.314 1023.19C497.622 1022.63 498.028 1022.21 498.532 1021.93C499.045 1021.65 499.61 1021.51 500.226 1021.51C500.954 1021.51 501.598 1021.67 502.158 1021.99C502.718 1022.3 503.161 1022.75 503.488 1023.32C503.814 1023.88 503.978 1024.53 503.978 1025.29C503.978 1026.05 503.814 1026.71 503.488 1027.28C503.161 1027.85 502.718 1028.29 502.158 1028.61C501.598 1028.93 500.954 1029.08 500.226 1029.08ZM496.292 1029V1018.61H497.636V1023.55L497.496 1025.28L497.58 1027V1029H496.292ZM500.114 1027.91C500.59 1027.91 501.014 1027.8 501.388 1027.59C501.77 1027.37 502.069 1027.07 502.284 1026.68C502.508 1026.27 502.62 1025.81 502.62 1025.29C502.62 1024.76 502.508 1024.3 502.284 1023.92C502.069 1023.53 501.77 1023.22 501.388 1023.01C501.014 1022.79 500.59 1022.69 500.114 1022.69C499.647 1022.69 499.222 1022.79 498.84 1023.01C498.466 1023.22 498.168 1023.53 497.944 1023.92C497.729 1024.3 497.622 1024.76 497.622 1025.29C497.622 1025.81 497.729 1026.27 497.944 1026.68C498.168 1027.07 498.466 1027.37 498.84 1027.59C499.222 1027.8 499.647 1027.91 500.114 1027.91ZM505.951 1031.8C505.597 1031.8 505.251 1031.74 504.915 1031.62C504.579 1031.51 504.29 1031.34 504.047 1031.11L504.621 1030.11C504.808 1030.28 505.013 1030.42 505.237 1030.51C505.461 1030.61 505.699 1030.65 505.951 1030.65C506.278 1030.65 506.549 1030.57 506.763 1030.4C506.978 1030.23 507.179 1029.93 507.365 1029.5L507.827 1028.48L507.967 1028.31L510.879 1021.58H512.195L508.597 1029.74C508.383 1030.26 508.14 1030.68 507.869 1030.97C507.608 1031.27 507.319 1031.48 507.001 1031.6C506.684 1031.73 506.334 1031.8 505.951 1031.8ZM507.715 1029.24L504.327 1021.58H505.727L508.611 1028.19L507.715 1029.24ZM513.867 1023.43C513.606 1023.43 513.382 1023.34 513.195 1023.16C513.009 1022.98 512.915 1022.74 512.915 1022.46C512.915 1022.18 513.009 1021.95 513.195 1021.78C513.382 1021.6 513.606 1021.51 513.867 1021.51C514.119 1021.51 514.334 1021.6 514.511 1021.78C514.698 1021.95 514.791 1022.18 514.791 1022.46C514.791 1022.74 514.698 1022.98 514.511 1023.16C514.334 1023.34 514.119 1023.43 513.867 1023.43ZM513.867 1029.08C513.606 1029.08 513.382 1029 513.195 1028.82C513.009 1028.63 512.915 1028.4 512.915 1028.12C512.915 1027.84 513.009 1027.61 513.195 1027.43C513.382 1027.25 513.606 1027.17 513.867 1027.17C514.119 1027.17 514.334 1027.25 514.511 1027.43C514.698 1027.61 514.791 1027.84 514.791 1028.12C514.791 1028.4 514.698 1028.63 514.511 1028.82C514.334 1029 514.119 1029.08 513.867 1029.08ZM526.427 1031.83C525.456 1031.83 524.57 1031.67 523.767 1031.35C522.964 1031.03 522.274 1030.59 521.695 1030.02C521.116 1029.45 520.668 1028.78 520.351 1028.01C520.034 1027.22 519.875 1026.37 519.875 1025.44C519.875 1024.52 520.034 1023.67 520.351 1022.9C520.668 1022.12 521.116 1021.45 521.695 1020.88C522.283 1020.31 522.983 1019.87 523.795 1019.56C524.607 1019.26 525.503 1019.1 526.483 1019.1C527.444 1019.1 528.322 1019.25 529.115 1019.55C529.908 1019.85 530.594 1020.27 531.173 1020.82C531.761 1021.37 532.214 1022.01 532.531 1022.77C532.848 1023.52 533.007 1024.34 533.007 1025.25C533.007 1026.04 532.909 1026.72 532.713 1027.29C532.517 1027.86 532.232 1028.3 531.859 1028.62C531.495 1028.93 531.047 1029.08 530.515 1029.08C529.992 1029.08 529.572 1028.93 529.255 1028.61C528.947 1028.29 528.793 1027.84 528.793 1027.25V1026.3L528.863 1025.44L528.737 1023.83V1021.97H529.955V1027.01C529.955 1027.39 530.03 1027.65 530.179 1027.8C530.338 1027.95 530.529 1028.02 530.753 1028.02C531.024 1028.02 531.257 1027.91 531.453 1027.7C531.658 1027.48 531.808 1027.17 531.901 1026.76C532.004 1026.34 532.055 1025.84 532.055 1025.26C532.055 1024.48 531.92 1023.77 531.649 1023.13C531.388 1022.49 531.005 1021.93 530.501 1021.47C530.006 1021 529.418 1020.65 528.737 1020.4C528.065 1020.15 527.314 1020.03 526.483 1020.03C525.652 1020.03 524.892 1020.16 524.201 1020.43C523.52 1020.69 522.932 1021.07 522.437 1021.55C521.942 1022.03 521.56 1022.6 521.289 1023.26C521.028 1023.92 520.897 1024.65 520.897 1025.44C520.897 1026.25 521.028 1026.98 521.289 1027.66C521.55 1028.32 521.924 1028.89 522.409 1029.36C522.904 1029.85 523.487 1030.22 524.159 1030.48C524.84 1030.75 525.596 1030.89 526.427 1030.89C526.856 1030.89 527.309 1030.84 527.785 1030.74C528.261 1030.64 528.709 1030.49 529.129 1030.27L529.437 1031.17C529.008 1031.38 528.522 1031.55 527.981 1031.66C527.44 1031.77 526.922 1031.83 526.427 1031.83ZM526.175 1029.08C525.512 1029.08 524.924 1028.93 524.411 1028.62C523.898 1028.3 523.492 1027.88 523.193 1027.33C522.894 1026.79 522.745 1026.18 522.745 1025.49C522.745 1024.79 522.894 1024.17 523.193 1023.64C523.492 1023.1 523.898 1022.68 524.411 1022.38C524.924 1022.07 525.512 1021.92 526.175 1021.92C526.819 1021.92 527.384 1022.06 527.869 1022.34C528.354 1022.61 528.732 1023.01 529.003 1023.54C529.283 1024.07 529.423 1024.72 529.423 1025.49C529.423 1026.25 529.288 1026.9 529.017 1027.43C528.746 1027.96 528.368 1028.37 527.883 1028.66C527.398 1028.94 526.828 1029.08 526.175 1029.08ZM526.371 1027.99C526.828 1027.99 527.234 1027.89 527.589 1027.7C527.953 1027.49 528.238 1027.2 528.443 1026.83C528.658 1026.45 528.765 1026 528.765 1025.49C528.765 1024.96 528.658 1024.52 528.443 1024.14C528.238 1023.77 527.953 1023.48 527.589 1023.29C527.234 1023.09 526.828 1022.99 526.371 1022.99C525.904 1022.99 525.489 1023.1 525.125 1023.3C524.77 1023.5 524.49 1023.78 524.285 1024.16C524.089 1024.53 523.991 1024.97 523.991 1025.49C523.991 1025.99 524.089 1026.43 524.285 1026.8C524.49 1027.18 524.77 1027.47 525.125 1027.68C525.489 1027.89 525.904 1027.99 526.371 1027.99ZM533.258 1029.87V1029H540.258V1029.87H533.258ZM541.532 1029V1021.58H542.876V1029H541.532ZM542.204 1020.15C541.942 1020.15 541.723 1020.07 541.546 1019.9C541.378 1019.73 541.294 1019.53 541.294 1019.28C541.294 1019.03 541.378 1018.82 541.546 1018.65C541.723 1018.49 541.942 1018.4 542.204 1018.4C542.465 1018.4 542.68 1018.49 542.848 1018.65C543.025 1018.81 543.114 1019.01 543.114 1019.26C543.114 1019.51 543.03 1019.72 542.862 1019.9C542.694 1020.07 542.474 1020.15 542.204 1020.15ZM549.376 1029.08C548.741 1029.08 548.167 1028.94 547.654 1028.66C547.15 1028.37 546.749 1027.95 546.45 1027.39C546.161 1026.83 546.016 1026.13 546.016 1025.29C546.016 1024.45 546.165 1023.75 546.464 1023.19C546.772 1022.63 547.178 1022.21 547.682 1021.93C548.195 1021.65 548.76 1021.51 549.376 1021.51C550.104 1021.51 550.748 1021.67 551.308 1021.99C551.868 1022.3 552.311 1022.75 552.638 1023.32C552.965 1023.88 553.128 1024.53 553.128 1025.29C553.128 1026.05 552.965 1026.71 552.638 1027.28C552.311 1027.85 551.868 1028.29 551.308 1028.61C550.748 1028.93 550.104 1029.08 549.376 1029.08ZM545.442 1029V1018.61H546.786V1023.55L546.646 1025.28L546.73 1027V1029H545.442ZM549.264 1027.91C549.74 1027.91 550.165 1027.8 550.538 1027.59C550.921 1027.37 551.219 1027.07 551.434 1026.68C551.658 1026.27 551.77 1025.81 551.77 1025.29C551.77 1024.76 551.658 1024.3 551.434 1023.92C551.219 1023.53 550.921 1023.22 550.538 1023.01C550.165 1022.79 549.74 1022.69 549.264 1022.69C548.797 1022.69 548.373 1022.79 547.99 1023.01C547.617 1023.22 547.318 1023.53 547.094 1023.92C546.879 1024.3 546.772 1024.76 546.772 1025.29C546.772 1025.81 546.879 1026.27 547.094 1026.68C547.318 1027.07 547.617 1027.37 547.99 1027.59C548.373 1027.8 548.797 1027.91 549.264 1027.91ZM558.947 1021.51C559.554 1021.51 560.086 1021.63 560.543 1021.86C561.01 1022.09 561.374 1022.45 561.635 1022.92C561.896 1023.4 562.027 1024 562.027 1024.73V1029H560.683V1024.88C560.683 1024.17 560.506 1023.62 560.151 1023.26C559.806 1022.9 559.316 1022.71 558.681 1022.71C558.205 1022.71 557.79 1022.81 557.435 1022.99C557.08 1023.18 556.805 1023.46 556.609 1023.82C556.422 1024.18 556.329 1024.64 556.329 1025.18V1029H554.985V1021.58H556.273V1023.58L556.063 1023.05C556.306 1022.56 556.679 1022.19 557.183 1021.92C557.687 1021.65 558.275 1021.51 558.947 1021.51ZM567.636 1029.08C567.002 1029.08 566.442 1028.97 565.956 1028.73C565.48 1028.5 565.107 1028.15 564.836 1027.67C564.575 1027.18 564.444 1026.58 564.444 1025.85V1021.58H565.788V1025.7C565.788 1026.42 565.961 1026.97 566.306 1027.33C566.661 1027.7 567.156 1027.88 567.79 1027.88C568.257 1027.88 568.663 1027.79 569.008 1027.6C569.354 1027.4 569.62 1027.12 569.806 1026.76C569.993 1026.39 570.086 1025.94 570.086 1025.42V1021.58H571.43V1029H570.156V1027L570.366 1027.53C570.124 1028.02 569.76 1028.41 569.274 1028.68C568.789 1028.95 568.243 1029.08 567.636 1029.08ZM577.111 1029.08C576.476 1029.08 575.916 1028.97 575.431 1028.73C574.955 1028.5 574.582 1028.15 574.311 1027.67C574.05 1027.18 573.919 1026.58 573.919 1025.85V1021.58H575.263V1025.7C575.263 1026.42 575.436 1026.97 575.781 1027.33C576.136 1027.7 576.63 1027.88 577.265 1027.88C577.732 1027.88 578.138 1027.79 578.483 1027.6C578.828 1027.4 579.094 1027.12 579.281 1026.76C579.468 1026.39 579.561 1025.94 579.561 1025.42V1021.58H580.905V1029H579.631V1027L579.841 1027.53C579.598 1028.02 579.234 1028.41 578.749 1028.68C578.264 1028.95 577.718 1029.08 577.111 1029.08ZM586.585 1029.08C585.951 1029.08 585.391 1028.97 584.905 1028.73C584.429 1028.5 584.056 1028.15 583.785 1027.67C583.524 1027.18 583.393 1026.58 583.393 1025.85V1021.58H584.737V1025.7C584.737 1026.42 584.91 1026.97 585.255 1027.33C585.61 1027.7 586.105 1027.88 586.739 1027.88C587.206 1027.88 587.612 1027.79 587.957 1027.6C588.303 1027.4 588.569 1027.12 588.755 1026.76C588.942 1026.39 589.035 1025.94 589.035 1025.42V1021.58H590.379V1029H589.105V1027L589.315 1027.53C589.073 1028.02 588.709 1028.41 588.223 1028.68C587.738 1028.95 587.192 1029.08 586.585 1029.08ZM596.004 1029.08C595.285 1029.08 594.641 1028.93 594.072 1028.61C593.512 1028.29 593.069 1027.85 592.742 1027.28C592.415 1026.71 592.252 1026.05 592.252 1025.29C592.252 1024.53 592.415 1023.88 592.742 1023.32C593.069 1022.75 593.512 1022.3 594.072 1021.99C594.641 1021.67 595.285 1021.51 596.004 1021.51C596.629 1021.51 597.194 1021.65 597.698 1021.93C598.202 1022.21 598.603 1022.63 598.902 1023.19C599.21 1023.75 599.364 1024.45 599.364 1025.29C599.364 1026.13 599.215 1026.83 598.916 1027.39C598.627 1027.95 598.23 1028.37 597.726 1028.66C597.222 1028.94 596.648 1029.08 596.004 1029.08ZM596.116 1027.91C596.583 1027.91 597.003 1027.8 597.376 1027.59C597.759 1027.37 598.057 1027.07 598.272 1026.68C598.496 1026.27 598.608 1025.81 598.608 1025.29C598.608 1024.76 598.496 1024.3 598.272 1023.92C598.057 1023.53 597.759 1023.22 597.376 1023.01C597.003 1022.79 596.583 1022.69 596.116 1022.69C595.64 1022.69 595.215 1022.79 594.842 1023.01C594.469 1023.22 594.17 1023.53 593.946 1023.92C593.722 1024.3 593.61 1024.76 593.61 1025.29C593.61 1025.81 593.722 1026.27 593.946 1026.68C594.17 1027.07 594.469 1027.37 594.842 1027.59C595.215 1027.8 595.64 1027.91 596.116 1027.91ZM598.65 1029V1027L598.734 1025.28L598.594 1023.55V1018.61H599.938V1029H598.65ZM605.785 1029.08C604.992 1029.08 604.292 1028.92 603.685 1028.59C603.088 1028.27 602.621 1027.82 602.285 1027.25C601.958 1026.68 601.795 1026.03 601.795 1025.29C601.795 1024.55 601.954 1023.9 602.271 1023.33C602.598 1022.76 603.041 1022.32 603.601 1022C604.17 1021.67 604.81 1021.51 605.519 1021.51C606.238 1021.51 606.872 1021.67 607.423 1021.99C607.974 1022.3 608.403 1022.75 608.711 1023.33C609.028 1023.9 609.187 1024.57 609.187 1025.33C609.187 1025.39 609.182 1025.45 609.173 1025.53C609.173 1025.6 609.168 1025.67 609.159 1025.74H602.845V1024.77H608.459L607.913 1025.11C607.922 1024.63 607.824 1024.21 607.619 1023.83C607.414 1023.46 607.129 1023.17 606.765 1022.97C606.41 1022.75 605.995 1022.64 605.519 1022.64C605.052 1022.64 604.637 1022.75 604.273 1022.97C603.909 1023.17 603.624 1023.47 603.419 1023.85C603.214 1024.22 603.111 1024.65 603.111 1025.14V1025.36C603.111 1025.85 603.223 1026.3 603.447 1026.69C603.68 1027.07 604.002 1027.37 604.413 1027.59C604.824 1027.8 605.295 1027.91 605.827 1027.91C606.266 1027.91 606.662 1027.83 607.017 1027.68C607.381 1027.53 607.698 1027.31 607.969 1027.01L608.711 1027.88C608.375 1028.27 607.955 1028.57 607.451 1028.78C606.956 1028.98 606.401 1029.08 605.785 1029.08ZM613.181 1029.08C612.565 1029.08 611.977 1029 611.417 1028.83C610.867 1028.66 610.433 1028.46 610.115 1028.22L610.675 1027.15C610.993 1027.37 611.385 1027.55 611.851 1027.7C612.318 1027.85 612.794 1027.92 613.279 1027.92C613.905 1027.92 614.353 1027.83 614.623 1027.66C614.903 1027.48 615.043 1027.23 615.043 1026.91C615.043 1026.68 614.959 1026.5 614.791 1026.37C614.623 1026.24 614.399 1026.14 614.119 1026.07C613.849 1026.01 613.545 1025.95 613.209 1025.91C612.873 1025.85 612.537 1025.78 612.201 1025.71C611.865 1025.63 611.557 1025.51 611.277 1025.37C610.997 1025.22 610.773 1025.02 610.605 1024.77C610.437 1024.51 610.353 1024.17 610.353 1023.74C610.353 1023.29 610.479 1022.9 610.731 1022.56C610.983 1022.22 611.338 1021.97 611.795 1021.79C612.262 1021.6 612.813 1021.51 613.447 1021.51C613.933 1021.51 614.423 1021.57 614.917 1021.69C615.421 1021.8 615.832 1021.97 616.149 1022.18L615.575 1023.25C615.239 1023.02 614.889 1022.87 614.525 1022.78C614.161 1022.7 613.797 1022.66 613.433 1022.66C612.845 1022.66 612.407 1022.76 612.117 1022.95C611.828 1023.14 611.683 1023.38 611.683 1023.68C611.683 1023.93 611.767 1024.13 611.935 1024.27C612.113 1024.4 612.337 1024.5 612.607 1024.58C612.887 1024.65 613.195 1024.72 613.531 1024.77C613.867 1024.82 614.203 1024.88 614.539 1024.97C614.875 1025.04 615.179 1025.15 615.449 1025.29C615.729 1025.43 615.953 1025.63 616.121 1025.88C616.299 1026.13 616.387 1026.47 616.387 1026.89C616.387 1027.33 616.257 1027.72 615.995 1028.05C615.734 1028.37 615.365 1028.63 614.889 1028.82C614.413 1029 613.844 1029.08 613.181 1029.08ZM618.067 1029V1021.58H619.411V1029H618.067ZM618.739 1020.15C618.478 1020.15 618.258 1020.07 618.081 1019.9C617.913 1019.73 617.829 1019.53 617.829 1019.28C617.829 1019.03 617.913 1018.82 618.081 1018.65C618.258 1018.49 618.478 1018.4 618.739 1018.4C619 1018.4 619.215 1018.49 619.383 1018.65C619.56 1018.81 619.649 1019.01 619.649 1019.26C619.649 1019.51 619.565 1019.72 619.397 1019.9C619.229 1020.07 619.01 1020.15 618.739 1020.15ZM625.225 1031.8C624.544 1031.8 623.881 1031.7 623.237 1031.51C622.602 1031.32 622.084 1031.05 621.683 1030.69L622.327 1029.66C622.672 1029.96 623.097 1030.19 623.601 1030.36C624.105 1030.54 624.632 1030.62 625.183 1030.62C626.06 1030.62 626.704 1030.42 627.115 1030.01C627.526 1029.6 627.731 1028.97 627.731 1028.13V1026.56L627.871 1025.09L627.801 1023.61V1021.58H629.075V1027.99C629.075 1029.3 628.748 1030.26 628.095 1030.88C627.442 1031.49 626.485 1031.8 625.225 1031.8ZM625.057 1028.69C624.338 1028.69 623.694 1028.54 623.125 1028.24C622.565 1027.94 622.117 1027.51 621.781 1026.97C621.454 1026.43 621.291 1025.8 621.291 1025.09C621.291 1024.38 621.454 1023.75 621.781 1023.22C622.117 1022.68 622.565 1022.26 623.125 1021.96C623.694 1021.66 624.338 1021.51 625.057 1021.51C625.692 1021.51 626.27 1021.64 626.793 1021.9C627.316 1022.15 627.731 1022.55 628.039 1023.08C628.356 1023.61 628.515 1024.28 628.515 1025.09C628.515 1025.9 628.356 1026.56 628.039 1027.1C627.731 1027.63 627.316 1028.03 626.793 1028.3C626.27 1028.56 625.692 1028.69 625.057 1028.69ZM625.211 1027.52C625.706 1027.52 626.144 1027.41 626.527 1027.21C626.91 1027 627.208 1026.72 627.423 1026.35C627.647 1025.99 627.759 1025.57 627.759 1025.09C627.759 1024.62 627.647 1024.2 627.423 1023.83C627.208 1023.47 626.91 1023.19 626.527 1022.99C626.144 1022.79 625.706 1022.69 625.211 1022.69C624.716 1022.69 624.273 1022.79 623.881 1022.99C623.498 1023.19 623.195 1023.47 622.971 1023.83C622.756 1024.2 622.649 1024.62 622.649 1025.09C622.649 1025.57 622.756 1025.99 622.971 1026.35C623.195 1026.72 623.498 1027 623.881 1027.21C624.273 1027.41 624.716 1027.52 625.211 1027.52ZM635.605 1021.51C636.212 1021.51 636.744 1021.63 637.201 1021.86C637.668 1022.09 638.032 1022.45 638.293 1022.92C638.554 1023.4 638.685 1024 638.685 1024.73V1029H637.341V1024.88C637.341 1024.17 637.164 1023.62 636.809 1023.26C636.464 1022.9 635.974 1022.71 635.339 1022.71C634.863 1022.71 634.448 1022.81 634.093 1022.99C633.738 1023.18 633.463 1023.46 633.267 1023.82C633.08 1024.18 632.987 1024.64 632.987 1025.18V1029H631.643V1021.58H632.931V1023.58L632.721 1023.05C632.964 1022.56 633.337 1022.19 633.841 1021.92C634.345 1021.65 634.933 1021.51 635.605 1021.51ZM639.898 1029.87V1029H646.898V1029.87H639.898Z" fill="#404040"/>
</g>
<defs>
<filter id="filter0_d_12_3" x="0" y="0" width="1088" height="1088" filterUnits="userSpaceOnUse" color-interpolation-filters="sRGB">
<feFlood flood-opacity="0" result="BackgroundImageFix"/>
<feColorMatrix in="SourceAlpha" type="matrix" values="0 0 0 0 0 0 0 0 0 0 0 0 0 0 0 0 0 0 127 0" result="hardAlpha"/>
<feOffset dy="4"/>
<feGaussianBlur stdDeviation="2"/>
<feComposite in2="hardAlpha" operator="out"/>
<feColorMatrix type="matrix" values="0 0 0 0 0 0 0 0 0 0 0 0 0 0 0 0 0 0 0.25 0"/>
<feBlend mode="normal" in2="BackgroundImageFix" result="effect1_dropShadow_12_3"/>
<feBlend mode="normal" in="SourceGraphic" in2="effect1_dropShadow_12_3" result="shape"/>
</filter>
</defs>
</svg>
