<svg width="1080" height="1080" viewBox="0 0 1080 1080" fill="none" xmlns="http://www.w3.org/2000/svg">
<rect width="1080" height="1080" fill="#14FF00"/>
<path d="M558.976 596.239H573.727V566.927H558.976V596.239Z" fill="#FFFFFE"/>
<path d="M538.419 472.708V667.617H573.727V596.239H558.976V566.927H573.727V502.211H606.085C614.904 502.211 622.105 503.511 627.689 506.113C633.272 508.651 637.428 512.394 640.157 517.343C642.885 522.228 644.249 528.129 644.249 535.045C644.249 541.96 642.885 547.797 640.157 552.556C637.492 557.251 633.367 560.836 627.784 563.31C622.201 565.721 615.031 566.927 606.276 566.927H573.727V596.239H609.656L600.565 579.299H639.11L645.203 590.453C646.472 589.941 647.708 589.396 648.912 588.816C659.191 583.804 666.962 576.729 672.228 567.593C677.558 558.393 680.222 547.544 680.222 535.045C680.222 522.609 677.589 511.728 672.323 502.401C667.121 493.011 659.413 485.714 649.198 480.512C639.046 475.309 626.483 472.708 611.51 472.708H538.419Z" fill="#FFFFFE"/>
<path d="M647.961 667.617H687.36L645.203 590.453C635.644 594.311 624.254 596.239 611.034 596.239H609.656L647.961 667.617Z" fill="#FFFFFE"/>
<path d="M639.11 579.299H600.565L609.656 596.239H611.034C624.254 596.239 635.644 594.311 645.203 590.453L639.11 579.299Z" fill="#FFFFFE"/>
<path d="M393.611 472.708H428.919V667.617H393.611V632.824V472.708Z" fill="#FFFFFE"/>
<path d="M238.554 591.195L248.083 619.556H262.709V591.195H238.554Z" fill="#FFFFFE"/>
<path d="M121 667.617H158.688L174.806 619.556H159.925V591.195H184.318L210.651 512.679H212.173L238.554 591.195H262.709V619.556H248.083L264.231 667.617H301.919L232.871 472.708L189.618 472.708L121 667.617Z" fill="#FFFFFE"/>
<path d="M159.925 591.195V619.556H174.806L184.318 591.195H159.925Z" fill="#FFFFFE"/>
<path d="M248.083 619.556L238.554 591.195H184.318L174.806 619.556H248.083Z" fill="#FFFFFE"/>
<path d="M431.801 139.754C429.157 141.752 428.635 145.515 430.633 148.158C432.632 150.801 436.395 151.324 439.038 149.325L431.801 139.754ZM558.976 86.5394L564.87 85.4161L558.976 86.5394ZM538.419 154.539L532.443 154.008L532.419 154.273V154.539H538.419ZM538.419 667.617H532.419V673.617H538.419V667.617ZM649.198 480.512L646.461 485.851L646.468 485.855L646.475 485.858L649.198 480.512ZM672.323 502.401L667.075 505.309L667.087 505.33L667.099 505.351L672.323 502.401ZM672.228 567.593L667.037 564.585L667.03 564.597L672.228 567.593ZM648.912 588.816L651.515 594.222L651.528 594.215L651.541 594.209L648.912 588.816ZM558.976 596.239H552.976V602.239H558.976V596.239ZM558.976 566.927V560.927H552.976V566.927H558.976ZM627.784 563.31L630.163 568.818L630.189 568.807L630.215 568.796L627.784 563.31ZM640.157 552.556L634.951 549.572L634.945 549.583L634.939 549.594L640.157 552.556ZM640.157 517.343L634.902 520.24L634.91 520.254L634.918 520.268L640.157 517.343ZM627.689 506.113L625.155 511.551L625.18 511.563L625.206 511.575L627.689 506.113ZM573.727 502.211V496.211H567.727V502.211H573.727ZM573.727 667.617V673.617H579.727V667.617H573.727ZM639.11 579.299L644.375 576.422L642.669 573.299H639.11V579.299ZM687.36 667.617V673.617H697.475L692.625 664.74L687.36 667.617ZM647.961 667.617L642.674 670.454L644.371 673.617H647.961V667.617ZM600.565 579.299V573.299H590.536L595.278 582.136L600.565 579.299ZM698.419 942.552L694.064 946.679L694.141 946.76L694.22 946.837L698.419 942.552ZM814.5 699.5L820.261 697.822L820.208 697.643L820.145 697.468L814.5 699.5ZM876.004 960.618C873.279 962.504 872.6 966.242 874.486 968.966C876.372 971.691 880.11 972.37 882.834 970.484L876.004 960.618ZM158.688 667.617V673.617H163.004L164.376 669.525L158.688 667.617ZM121 667.617L115.34 665.624L112.527 673.617H121V667.617ZM189.618 472.708L189.618 466.708L185.369 466.708L183.958 470.715L189.618 472.708ZM232.871 472.708L238.526 470.704L238.172 469.703L237.495 468.885L232.871 472.708ZM301.919 667.617V673.617H310.41L307.575 665.613L301.919 667.617ZM264.231 667.617L258.544 669.528L259.918 673.617H264.231V667.617ZM212.173 512.679L217.861 510.768L216.487 506.679H212.173V512.679ZM210.651 512.679V506.679H206.334L204.962 510.772L210.651 512.679ZM159.925 591.195V585.195H153.925V591.195H159.925ZM262.709 591.195H268.709V585.195H262.709V591.195ZM262.709 619.556V625.556H268.709V619.556H262.709ZM159.925 619.556H153.925V625.556H159.925V619.556ZM393.611 667.617H387.611V673.617H393.611V667.617ZM393.611 472.708V466.708H387.611V472.708H393.611ZM653.607 260.931C651.36 258.496 647.564 258.343 645.129 260.591C642.693 262.838 642.541 266.634 644.788 269.069L653.607 260.931ZM879.142 989.076L882.661 993.935L879.142 989.076ZM887.577 981.837L882.84 978.154L887.577 981.837ZM891.503 974.147L885.742 972.47L891.503 974.147ZM253.859 269.825L253.039 263.882L253.859 269.825ZM273.352 281.006L277.819 277L273.352 281.006ZM262.588 271.073L265.041 265.597L262.588 271.073ZM422.788 447.662L427.255 443.656L422.788 447.662ZM426.998 452.896L421.767 455.833L426.998 452.896ZM428.56 456.977L422.704 458.282L428.56 456.977ZM813.699 352.656L807.703 352.451L813.699 352.656ZM812.262 326.79L806.806 329.288L812.262 326.79ZM803.251 316.892L800.253 322.089L803.251 316.892ZM439.038 149.325C459.616 133.767 477.146 119.586 491.882 107.846C506.715 96.0283 518.539 86.8325 527.99 80.9322C532.706 77.988 536.583 76.0253 539.752 74.9532C542.942 73.8741 544.928 73.8628 546.151 74.1838C548.002 74.6697 551.035 76.9233 553.082 87.6628L564.87 85.4161C562.737 74.2264 558.485 65.0154 549.198 62.5771C544.852 61.436 540.306 62.0977 535.906 63.5861C531.486 65.0816 526.716 67.581 521.635 70.7529C511.493 77.0849 499.119 86.7376 484.405 98.4603C469.592 110.261 452.223 124.312 431.801 139.754L439.038 149.325ZM553.082 87.6628C553.512 89.9194 553.047 93.9727 551.374 99.8724C549.77 105.528 547.329 111.991 544.668 118.65C542.06 125.177 539.181 132.03 536.947 137.96C534.764 143.755 532.839 149.554 532.443 154.008L544.395 155.071C544.626 152.474 545.941 148.123 548.177 142.191C550.361 136.392 553.08 129.939 555.811 123.103C558.49 116.4 561.132 109.444 562.919 103.147C564.636 97.0937 565.869 90.6595 564.87 85.4161L553.082 87.6628ZM544.419 667.617V472.708H532.419V667.617H544.419ZM538.419 478.708H611.51V466.708H538.419V478.708ZM611.51 478.708C625.818 478.708 637.379 481.197 646.461 485.851L651.934 475.172C640.713 469.421 627.149 466.708 611.51 466.708V478.708ZM646.475 485.858C655.7 490.557 662.493 497.037 667.075 505.309L677.572 499.493C671.75 488.984 663.126 480.872 651.921 475.165L646.475 485.858ZM667.099 505.351C671.78 513.642 674.222 523.475 674.222 535.045H686.222C686.222 521.743 683.399 509.814 677.548 499.451L667.099 505.351ZM674.222 535.045C674.222 546.675 671.751 556.449 667.037 564.585L677.42 570.601C683.366 560.337 686.222 548.413 686.222 535.045H674.222ZM667.03 564.597C662.412 572.608 655.58 578.889 646.282 583.423L651.541 594.209C662.802 588.718 671.512 580.85 677.427 570.589L667.03 564.597ZM564.976 596.239V566.927H552.976V596.239H564.976ZM606.276 572.927C615.518 572.927 623.574 571.664 630.163 568.818L625.405 557.802C620.827 559.779 614.545 560.927 606.276 560.927V572.927ZM630.215 568.796C636.812 565.872 641.993 561.475 645.375 555.518L634.939 549.594C632.99 553.027 629.922 555.8 625.353 557.825L630.215 568.796ZM645.362 555.54C648.73 549.665 650.249 542.738 650.249 535.045H638.249C638.249 541.182 637.039 545.929 634.951 549.572L645.362 555.54ZM650.249 535.045C650.249 527.344 648.727 520.385 645.395 514.418L634.918 520.268C637.042 524.072 638.249 528.914 638.249 535.045H650.249ZM645.411 514.446C642.005 508.268 636.825 503.675 630.172 500.65L625.206 511.575C629.72 513.626 632.851 516.52 634.902 520.24L645.411 514.446ZM630.223 500.674C623.58 497.579 615.429 496.211 606.085 496.211V508.211C614.379 508.211 620.631 509.444 625.155 511.551L630.223 500.674ZM606.085 496.211H573.727V508.211H606.085V496.211ZM573.727 661.617H538.419V673.617H573.727V661.617ZM687.36 661.617H647.961V673.617H687.36V661.617ZM600.565 585.299H639.11V573.299H600.565V585.299ZM807.703 352.451C806.657 382.959 804.727 415.8 802.779 448.998C800.832 482.165 798.868 515.683 797.767 547.417C796.666 579.142 796.422 609.206 797.936 635.473C799.444 661.646 802.716 684.48 808.855 701.532L820.145 697.468C814.599 682.061 811.404 660.607 809.916 634.782C808.433 609.051 808.664 579.408 809.759 547.833C810.855 516.268 812.81 482.897 814.758 449.701C816.705 416.537 818.644 383.543 819.696 352.862L807.703 352.451ZM808.739 701.178C846.044 829.223 888.587 874.662 910.634 897.944C916.194 903.816 919.757 907.605 921.768 910.84C923.501 913.627 923.596 915.203 922.973 917.035C922.103 919.593 919.571 923.241 913.711 929.144C907.986 934.911 899.776 942.175 888.476 952.029L896.363 961.073C907.582 951.29 916.14 943.73 922.227 937.598C928.18 931.602 932.505 926.278 934.334 920.899C936.41 914.794 935.046 909.469 931.959 904.504C929.15 899.985 924.531 895.168 919.347 889.693C898.414 867.588 856.957 823.777 820.261 697.822L808.739 701.178ZM889.004 951.618L876.004 960.618L882.834 970.484L895.834 961.484L889.004 951.618ZM694.22 946.837C717.394 969.543 743.709 996.383 774.389 1009.94C789.91 1016.8 806.708 1020.35 824.918 1018.31C843.112 1016.27 862.289 1008.69 882.661 993.935L875.623 984.216C856.585 998.002 839.331 1004.62 823.58 1006.39C807.844 1008.15 793.183 1005.13 779.239 998.964C750.991 986.481 726.354 961.522 702.618 938.266L694.22 946.837ZM898.419 961.668V956.551H886.419V961.668H898.419ZM158.688 661.617H121V673.617H158.688V661.617ZM126.66 669.609L195.277 474.7L183.958 470.715L115.34 665.624L126.66 669.609ZM227.215 474.711L296.264 669.62L307.575 665.613L238.526 470.704L227.215 474.711ZM301.919 661.617H264.231V673.617H301.919V661.617ZM212.173 506.679H210.651V518.679H212.173V506.679ZM256.709 591.195V619.556H268.709V591.195H256.709ZM165.925 619.556V591.195H153.925V619.556H165.925ZM393.611 478.708H428.919V466.708H393.611V478.708ZM399.611 667.617V632.824H387.611V667.617H399.611ZM399.611 632.824V472.708H387.611V632.824H399.611ZM237.487 271.307C209.668 288.592 188.318 302.011 173.876 314.284C159.396 326.589 150.683 338.711 150.169 353.648C149.67 368.126 156.996 383.655 169.911 402.585C182.944 421.687 202.546 445.447 228.246 476.531L237.495 468.885C211.648 437.623 192.471 414.359 179.824 395.822C167.06 377.113 161.806 364.388 162.162 354.061C162.501 344.194 168.075 334.962 181.647 323.428C195.256 311.863 215.723 298.958 243.82 281.5L237.487 271.307ZM189.618 478.708L232.871 478.708L232.871 466.708L189.618 466.708L189.618 478.708ZM424.702 671.884C497.819 744.142 587.097 833.811 694.064 946.679L702.774 938.424C595.692 825.436 506.317 735.669 433.137 663.349L424.702 671.884ZM393.611 673.617H428.919V661.617H393.611V673.617ZM434.919 667.617V472.708H422.919V667.617H434.919ZM644.788 269.069C656.803 282.089 676.118 293.701 698.392 302.417C720.764 311.172 746.625 317.203 772.151 318.723L772.864 306.744C748.662 305.303 724.033 299.565 702.765 291.242C681.397 282.881 663.921 272.108 653.607 260.931L644.788 269.069ZM558.976 602.239H573.727V590.239H558.976V602.239ZM579.727 596.239V566.927H567.727V596.239H579.727ZM573.727 560.927H558.976V572.927H573.727V560.927ZM573.727 572.927H606.276V560.927H573.727V572.927ZM567.727 502.211V566.927H579.727V502.211H567.727ZM567.727 596.239V667.617H579.727V596.239H567.727ZM573.727 602.239H609.656V590.239H573.727V602.239ZM614.943 593.402L605.852 576.462L595.278 582.136L604.369 599.076L614.943 593.402ZM633.844 582.176L639.938 593.33L650.469 587.576L644.375 576.422L633.844 582.176ZM647.449 596.017C648.835 595.458 650.191 594.859 651.515 594.222L646.309 583.41C645.225 583.932 644.108 584.425 642.958 584.889L647.449 596.017ZM639.938 593.33L682.095 670.493L692.625 664.74L650.469 587.576L639.938 593.33ZM642.958 584.889C634.282 588.39 623.692 590.239 611.034 590.239V602.239C624.815 602.239 637.005 600.231 647.449 596.017L642.958 584.889ZM611.034 590.239H609.656V602.239H611.034V590.239ZM653.248 664.78L614.943 593.402L604.369 599.076L642.674 670.454L653.248 664.78ZM232.866 593.106L242.396 621.467L253.771 617.645L244.242 589.284L232.866 593.106ZM248.083 625.556H262.709V613.556H248.083V625.556ZM262.709 585.195H238.554V597.195H262.709V585.195ZM269.919 665.706L253.771 617.645L242.396 621.467L258.544 669.528L269.919 665.706ZM244.242 589.284L217.861 510.768L206.486 514.59L232.866 593.106L244.242 589.284ZM164.376 669.525L180.495 621.464L169.118 617.648L152.999 665.709L164.376 669.525ZM174.806 613.556H159.925V625.556H174.806V613.556ZM159.925 597.195H184.318V585.195H159.925V597.195ZM190.007 593.103L216.339 514.587L204.962 510.772L178.629 589.287L190.007 593.103ZM184.318 597.195H238.554V585.195H184.318V597.195ZM248.083 613.556H174.806V625.556H248.083V613.556ZM178.629 589.287L169.118 617.648L180.495 621.464L190.007 593.103L178.629 589.287ZM532.419 154.539V381.539H544.419V154.539H532.419ZM532.419 381.539V472.708H544.419V381.539H532.419ZM687.36 661.617H660.419V673.617H687.36V661.617ZM268.885 285.011L418.321 451.668L427.255 443.656L277.819 277L268.885 285.011ZM434.919 472.708C434.919 472.705 434.919 472.702 434.919 472.699C434.919 472.696 434.919 472.692 434.919 472.689C434.919 472.686 434.919 472.683 434.919 472.68C434.919 472.677 434.919 472.674 434.919 472.671C434.919 472.668 434.919 472.664 434.919 472.661C434.919 472.658 434.919 472.655 434.919 472.652C434.919 472.649 434.919 472.646 434.919 472.642C434.919 472.639 434.919 472.636 434.919 472.633C434.919 472.63 434.919 472.626 434.919 472.623C434.919 472.62 434.919 472.617 434.919 472.614C434.919 472.61 434.919 472.607 434.919 472.604C434.919 472.601 434.919 472.597 434.919 472.594C434.919 472.591 434.919 472.588 434.919 472.584C434.919 472.581 434.919 472.578 434.919 472.575C434.919 472.571 434.919 472.568 434.919 472.565C434.919 472.561 434.919 472.558 434.919 472.555C434.919 472.551 434.919 472.548 434.919 472.545C434.919 472.541 434.919 472.538 434.919 472.535C434.919 472.531 434.919 472.528 434.919 472.525C434.919 472.521 434.919 472.518 434.919 472.515C434.919 472.511 434.919 472.508 434.919 472.504C434.919 472.501 434.919 472.498 434.919 472.494C434.919 472.491 434.919 472.487 434.919 472.484C434.919 472.481 434.919 472.477 434.919 472.474C434.919 472.47 434.919 472.467 434.919 472.463C434.919 472.46 434.919 472.456 434.919 472.453C434.919 472.45 434.919 472.446 434.919 472.443C434.919 472.439 434.919 472.436 434.919 472.432C434.919 472.429 434.919 472.425 434.919 472.422C434.919 472.418 434.919 472.415 434.919 472.411C434.919 472.408 434.919 472.404 434.919 472.4C434.919 472.397 434.919 472.393 434.919 472.39C434.919 472.386 434.919 472.383 434.919 472.379C434.919 472.376 434.919 472.372 434.919 472.368C434.919 472.365 434.919 472.361 434.919 472.358C434.919 472.354 434.919 472.35 434.919 472.347C434.919 472.343 434.919 472.34 434.919 472.336C434.919 472.332 434.919 472.329 434.919 472.325C434.919 472.321 434.919 472.318 434.919 472.314C434.919 472.31 434.919 472.307 434.919 472.303C434.919 472.299 434.919 472.296 434.919 472.292C434.919 472.288 434.919 472.285 434.919 472.281C434.919 472.277 434.919 472.273 434.919 472.27C434.919 472.266 434.919 472.262 434.919 472.259C434.919 472.255 434.919 472.251 434.919 472.247C434.919 472.244 434.919 472.24 434.919 472.236C434.919 472.232 434.919 472.229 434.919 472.225C434.919 472.221 434.919 472.217 434.919 472.213C434.919 472.21 434.919 472.206 434.919 472.202C434.919 472.198 434.919 472.194 434.919 472.191C434.919 472.187 434.919 472.183 434.919 472.179C434.919 472.175 434.919 472.171 434.919 472.168C434.919 472.164 434.919 472.16 434.919 472.156C434.919 472.152 434.919 472.148 434.919 472.144C434.919 472.14 434.919 472.137 434.919 472.133C434.919 472.129 434.919 472.125 434.919 472.121C434.919 472.117 434.919 472.113 434.919 472.109C434.919 472.105 434.919 472.101 434.919 472.097C434.919 472.094 434.919 472.09 434.919 472.086C434.919 472.082 434.919 472.078 434.919 472.074C434.919 472.07 434.919 472.066 434.919 472.062C434.919 472.058 434.919 472.054 434.919 472.05C434.919 472.046 434.919 472.042 434.919 472.038C434.919 472.034 434.919 472.03 434.919 472.026C434.919 472.022 434.919 472.018 434.919 472.014C434.919 472.01 434.919 472.006 434.919 472.002C434.919 471.998 434.919 471.994 434.919 471.989C434.919 471.985 434.919 471.981 434.919 471.977C434.919 471.973 434.919 471.969 434.919 471.965C434.919 471.961 434.919 471.957 434.919 471.953C434.919 471.949 434.919 471.945 434.919 471.94C434.919 471.936 434.919 471.932 434.919 471.928C434.919 471.924 434.919 471.92 434.919 471.916C434.919 471.911 434.919 471.907 434.919 471.903C434.919 471.899 434.919 471.895 434.919 471.891C434.919 471.886 434.919 471.882 434.919 471.878C434.919 471.874 434.919 471.87 434.919 471.866C434.919 471.861 434.919 471.857 434.919 471.853C434.919 471.849 434.919 471.844 434.919 471.84C434.919 471.836 434.919 471.832 434.919 471.828C434.919 471.823 434.919 471.819 434.919 471.815C434.919 471.811 434.919 471.806 434.919 471.802C434.919 471.798 434.919 471.793 434.919 471.789C434.919 471.785 434.919 471.781 434.919 471.776C434.919 471.772 434.919 471.768 434.919 471.763C434.919 471.759 434.919 471.755 434.919 471.75C434.919 471.746 434.919 471.742 434.919 471.737C434.919 471.733 434.919 471.729 434.919 471.724C434.919 471.72 434.919 471.716 434.919 471.711C434.919 471.707 434.919 471.703 434.919 471.698C434.919 471.694 434.919 471.69 434.919 471.685C434.919 471.681 434.919 471.676 434.919 471.672C434.919 471.668 434.919 471.663 434.919 471.659C434.919 471.654 434.919 471.65 434.919 471.645C434.919 471.641 434.919 471.637 434.919 471.632C434.919 471.628 434.919 471.623 434.919 471.619C434.919 471.614 434.919 471.61 434.919 471.605C434.919 471.601 434.919 471.596 434.919 471.592C434.919 471.587 434.919 471.583 434.919 471.579C434.919 471.574 434.919 471.57 434.919 471.565C434.919 471.56 434.919 471.556 434.919 471.551C434.919 471.547 434.919 471.542 434.919 471.538C434.919 471.533 434.919 471.529 434.919 471.524C434.919 471.52 434.919 471.515 434.919 471.511C434.919 471.506 434.919 471.501 434.919 471.497C434.919 471.492 434.919 471.488 434.919 471.483C434.919 471.479 434.919 471.474 434.919 471.469C434.919 471.465 434.919 471.46 434.919 471.456C434.919 471.451 434.919 471.446 434.919 471.442C434.919 471.437 434.919 471.432 434.919 471.428C434.919 471.423 434.919 471.419 434.919 471.414C434.919 471.409 434.919 471.405 434.919 471.4C434.919 471.395 434.919 471.391 434.919 471.386C434.919 471.381 434.919 471.377 434.919 471.372C434.919 471.367 434.919 471.363 434.919 471.358C434.919 471.353 434.919 471.348 434.919 471.344C434.919 471.339 434.919 471.334 434.919 471.33C434.919 471.325 434.919 471.32 434.919 471.315C434.919 471.311 434.919 471.306 434.919 471.301C434.919 471.296 434.919 471.292 434.919 471.287C434.919 471.282 434.919 471.277 434.919 471.273C434.919 471.268 434.919 471.263 434.919 471.258C434.919 471.253 434.919 471.249 434.919 471.244C434.919 471.239 434.919 471.234 434.919 471.229C434.919 471.225 434.919 471.22 434.919 471.215C434.919 471.21 434.919 471.205 434.919 471.2C434.919 471.196 434.919 471.191 434.919 471.186C434.919 471.181 434.919 471.176 434.919 471.171C434.919 471.167 434.919 471.162 434.919 471.157C434.919 471.152 434.919 471.147 434.919 471.142C434.919 471.137 434.919 471.132 434.919 471.127C434.919 471.123 434.919 471.118 434.919 471.113C434.919 471.108 434.919 471.103 434.919 471.098C434.919 471.093 434.919 471.088 434.919 471.083C434.919 471.078 434.919 471.073 434.919 471.068C434.919 471.063 434.919 471.059 434.919 471.054C434.919 471.049 434.919 471.044 434.919 471.039C434.919 471.034 434.919 471.029 434.919 471.024C434.919 471.019 434.919 471.014 434.919 471.009C434.919 471.004 434.919 470.999 434.919 470.994C434.919 470.989 434.919 470.984 434.919 470.979C434.919 470.974 434.919 470.969 434.919 470.964C434.919 470.959 434.919 470.954 434.919 470.949C434.919 470.944 434.919 470.938 434.919 470.933C434.919 470.928 434.919 470.923 434.919 470.918C434.919 470.913 434.919 470.908 434.919 470.903C434.919 470.898 434.919 470.893 434.919 470.888C434.919 470.883 434.919 470.878 434.919 470.873C434.919 470.867 434.919 470.862 434.919 470.857C434.919 470.852 434.919 470.847 434.919 470.842C434.919 470.837 434.919 470.832 434.919 470.826C434.919 470.821 434.919 470.816 434.919 470.811C434.919 470.806 434.919 470.801 434.919 470.796C434.919 470.79 434.919 470.785 434.919 470.78C434.919 470.775 434.919 470.77 434.919 470.765C434.919 470.759 434.919 470.754 434.919 470.749C434.919 470.744 434.919 470.739 434.919 470.733C434.919 470.728 434.919 470.723 434.919 470.718C434.919 470.713 434.919 470.707 434.919 470.702C434.919 470.697 434.919 470.692 434.919 470.686C434.919 470.681 434.919 470.676 434.919 470.671C434.919 470.666 434.919 470.66 434.919 470.655C434.919 470.65 434.919 470.644 434.919 470.639C434.919 470.634 434.919 470.629 434.919 470.623C434.919 470.618 434.919 470.613 434.919 470.608C434.919 470.602 434.919 470.597 434.919 470.592C434.919 470.586 434.919 470.581 434.919 470.576C434.919 470.57 434.919 470.565 434.919 470.56C434.919 470.554 434.919 470.549 434.919 470.544C434.919 470.538 434.919 470.533 434.919 470.528C434.919 470.522 434.919 470.517 434.919 470.512C434.919 470.506 434.919 470.501 434.919 470.496C434.919 470.49 434.919 470.485 434.919 470.479C434.919 470.474 434.919 470.469 434.919 470.463C434.919 470.458 434.919 470.452 434.919 470.447C434.919 470.442 434.919 470.436 434.919 470.431C434.919 470.425 434.919 470.42 434.919 470.415C434.919 470.409 434.919 470.404 434.919 470.398C434.919 470.393 434.919 470.387 434.919 470.382C434.919 470.377 434.919 470.371 434.919 470.366C434.919 470.36 434.919 470.355 434.919 470.349C434.919 470.344 434.919 470.338 434.919 470.333C434.919 470.327 434.919 470.322 434.919 470.316C434.919 470.311 434.919 470.305 434.919 470.3C434.919 470.294 434.919 470.289 434.919 470.283C434.919 470.278 434.919 470.272 434.919 470.267C434.919 470.261 434.919 470.256 434.919 470.25C434.919 470.245 434.919 470.239 434.919 470.234C434.919 470.228 434.919 470.223 434.919 470.217C434.919 470.211 434.919 470.206 434.919 470.2C434.919 470.195 434.919 470.189 434.919 470.184C434.919 470.178 434.919 470.173 434.919 470.167C434.919 470.161 434.919 470.156 434.919 470.15C434.919 470.145 434.919 470.139 434.919 470.133C434.919 470.128 434.919 470.122 434.919 470.117C434.919 470.111 434.919 470.105 434.919 470.1C434.919 470.094 434.919 470.088 434.919 470.083C434.919 470.077 434.919 470.072 434.919 470.066C434.919 470.06 434.919 470.055 434.919 470.049C434.919 470.043 434.919 470.038 434.919 470.032C434.919 470.026 434.919 470.021 434.919 470.015C434.919 470.009 434.919 470.004 434.919 469.998C434.919 469.992 434.919 469.987 434.919 469.981C434.919 469.975 434.919 469.969 434.919 469.964C434.919 469.958 434.919 469.952 434.919 469.947C434.919 469.941 434.919 469.935 434.919 469.929C434.919 469.924 434.919 469.918 434.919 469.912C434.919 469.907 434.919 469.901 434.919 469.895C434.919 469.889 434.919 469.884 434.919 469.878C434.919 469.872 434.919 469.866 434.919 469.86C434.919 469.855 434.919 469.849 434.919 469.843C434.919 469.837 434.919 469.832 434.919 469.826C434.919 469.82 434.919 469.814 434.919 469.808C434.919 469.803 434.919 469.797 434.919 469.791C434.919 469.785 434.919 469.779 434.919 469.774C434.919 469.768 434.919 469.762 434.919 469.756C434.919 469.75 434.919 469.745 434.919 469.739C434.919 469.733 434.919 469.727 434.919 469.721C434.919 469.715 434.919 469.71 434.919 469.704C434.919 469.698 434.919 469.692 434.919 469.686C434.919 469.68 434.919 469.674 434.919 469.668C434.919 469.663 434.919 469.657 434.919 469.651C434.919 469.645 434.919 469.639 434.919 469.633C434.919 469.627 434.919 469.621 434.919 469.616C434.919 469.61 434.919 469.604 434.919 469.598C434.919 469.592 434.919 469.586 434.919 469.58C434.919 469.574 434.919 469.568 434.919 469.562C434.919 469.556 434.919 469.55 434.919 469.544C434.919 469.539 434.919 469.533 434.919 469.527C434.919 469.521 434.919 469.515 434.919 469.509C434.919 469.503 434.919 469.497 434.919 469.491C434.919 469.485 434.919 469.479 434.919 469.473C434.919 469.467 434.919 469.461 434.919 469.455C434.919 469.449 434.919 469.443 434.919 469.437C434.919 469.431 434.919 469.425 434.919 469.419C434.919 469.413 434.919 469.407 434.919 469.401C434.919 469.395 434.919 469.389 434.919 469.383C434.919 469.377 434.919 469.371 434.919 469.365C434.919 469.359 434.919 469.353 434.919 469.347C434.919 469.341 434.919 469.335 434.919 469.329C434.919 469.323 434.919 469.317 434.919 469.311C434.919 469.305 434.919 469.298 434.919 469.292C434.919 469.286 434.919 469.28 434.919 469.274C434.919 469.268 434.919 469.262 434.919 469.256C434.919 469.25 434.919 469.244 434.919 469.238C434.919 469.232 434.919 469.225 434.919 469.219C434.919 469.213 434.919 469.207 434.919 469.201C434.919 469.195 434.919 469.189 434.919 469.183C434.919 469.177 434.919 469.17 434.919 469.164C434.919 469.158 434.919 469.152 434.919 469.146C434.919 469.14 434.919 469.134 434.919 469.128C434.919 469.121 434.919 469.115 434.919 469.109C434.919 469.103 434.919 469.097 434.919 469.091C434.919 469.084 434.919 469.078 434.919 469.072C434.919 469.066 434.919 469.06 434.919 469.054C434.919 469.047 434.919 469.041 434.919 469.035C434.919 469.029 434.919 469.023 434.919 469.016C434.919 469.01 434.919 469.004 434.919 468.998C434.919 468.992 434.919 468.985 434.919 468.979C434.919 468.973 434.919 468.967 434.919 468.961C434.919 468.954 434.919 468.948 434.919 468.942C434.919 468.936 434.919 468.929 434.919 468.923C434.919 468.917 434.919 468.911 434.919 468.904C434.919 468.898 434.919 468.892 434.919 468.886C434.919 468.879 434.919 468.873 434.919 468.867C434.919 468.861 434.919 468.854 434.919 468.848C434.919 468.842 434.919 468.836 434.919 468.829C434.919 468.823 434.919 468.817 434.919 468.81C434.919 468.804 434.919 468.798 434.919 468.792C434.919 468.785 434.919 468.779 434.919 468.773C434.919 468.766 434.919 468.76 434.919 468.754C434.919 468.747 434.919 468.741 434.919 468.735C434.919 468.728 434.919 468.722 434.919 468.716C434.919 468.71 434.919 468.703 434.919 468.697C434.919 468.691 434.919 468.684 434.919 468.678C434.919 468.671 434.919 468.665 434.919 468.659C434.919 468.652 434.919 468.646 434.919 468.64C434.919 468.633 434.919 468.627 434.919 468.621C434.919 468.614 434.919 468.608 434.919 468.601C434.919 468.595 434.919 468.589 434.919 468.582C434.919 468.576 434.919 468.57 434.919 468.563C434.919 468.557 434.919 468.55 434.919 468.544C434.919 468.538 434.919 468.531 434.919 468.525C434.919 468.518 434.919 468.512 434.919 468.506C434.919 468.499 434.919 468.493 434.919 468.486C434.919 468.48 434.919 468.473 434.919 468.467C434.919 468.461 434.919 468.454 434.919 468.448C434.919 468.441 434.919 468.435 434.919 468.428C434.919 468.422 434.919 468.415 434.919 468.409C434.919 468.403 434.919 468.396 434.919 468.39C434.919 468.383 434.919 468.377 434.919 468.37C434.919 468.364 434.919 468.357 434.919 468.351C434.919 468.344 434.919 468.338 434.919 468.331C434.919 468.325 434.919 468.318 434.919 468.312C434.919 468.305 434.919 468.299 434.919 468.292C434.919 468.286 434.919 468.279 434.919 468.273C434.919 468.266 434.919 468.26 434.919 468.253C434.919 468.247 434.919 468.24 434.919 468.234C434.919 468.227 434.919 468.221 434.919 468.214C434.919 468.208 434.919 468.201 434.919 468.195C434.919 468.188 434.919 468.182 434.919 468.175C434.919 468.169 434.919 468.162 434.919 468.155C434.919 468.149 434.919 468.142 434.919 468.136C434.919 468.129 434.919 468.123 434.919 468.116C434.919 468.11 434.919 468.103 434.919 468.096C434.919 468.09 434.919 468.083 434.919 468.077C434.919 468.07 434.919 468.064 434.919 468.057C434.919 468.05 434.919 468.044 434.919 468.037C434.919 468.031 434.919 468.024 434.919 468.017C434.919 468.011 434.919 468.004 434.919 467.998C434.919 467.991 434.919 467.984 434.919 467.978C434.919 467.971 434.919 467.964 434.919 467.958C434.919 467.951 434.919 467.945 434.919 467.938C434.919 467.931 434.919 467.925 434.919 467.918C434.919 467.911 434.919 467.905 434.919 467.898C434.919 467.892 434.919 467.885 434.919 467.878C434.919 467.872 434.919 467.865 434.919 467.858C434.919 467.852 434.919 467.845 434.919 467.838C434.919 467.832 434.919 467.825 434.919 467.818C434.919 467.812 434.919 467.805 434.919 467.798C434.919 467.792 434.919 467.785 434.919 467.778C434.919 467.772 434.919 467.765 434.919 467.758C434.919 467.752 434.919 467.745 434.919 467.738C434.919 467.731 434.919 467.725 434.919 467.718C434.919 467.711 434.919 467.705 434.919 467.698C434.919 467.691 434.919 467.685 434.919 467.678C434.919 467.671 434.919 467.664 434.919 467.658C434.919 467.651 434.919 467.644 434.919 467.637C434.919 467.631 434.919 467.624 434.919 467.617C434.919 467.611 434.919 467.604 434.919 467.597C434.919 467.59 434.919 467.584 434.919 467.577C434.919 467.57 434.919 467.563 434.919 467.557C434.919 467.55 434.919 467.543 434.919 467.536C434.919 467.53 434.919 467.523 434.919 467.516C434.919 467.509 434.919 467.502 434.919 467.496C434.919 467.489 434.919 467.482 434.919 467.475C434.919 467.469 434.919 467.462 434.919 467.455C434.919 467.448 434.919 467.441 434.919 467.435C434.919 467.428 434.919 467.421 434.919 467.414C434.919 467.408 434.919 467.401 434.919 467.394C434.919 467.387 434.919 467.38 434.919 467.373C434.919 467.367 434.919 467.36 434.919 467.353C434.919 467.346 434.919 467.339 434.919 467.333C434.919 467.326 434.919 467.319 434.919 467.312C434.919 467.305 434.919 467.298 434.919 467.292C434.919 467.285 434.919 467.278 434.919 467.271C434.919 467.264 434.919 467.257 434.919 467.251C434.919 467.244 434.919 467.237 434.919 467.23C434.919 467.223 434.919 467.216 434.919 467.209C434.919 467.203 434.919 467.196 434.919 467.189C434.919 467.182 434.919 467.175 434.919 467.168C434.919 467.161 434.919 467.155 434.919 467.148C434.919 467.141 434.919 467.134 434.919 467.127C434.919 467.12 434.919 467.113 434.919 467.106C434.919 467.1 434.919 467.093 434.919 467.086C434.919 467.079 434.919 467.072 434.919 467.065C434.919 467.058 434.919 467.051 434.919 467.044C434.919 467.037 434.919 467.031 434.919 467.024C434.919 467.017 434.919 467.01 434.919 467.003C434.919 466.996 434.919 466.989 434.919 466.982C434.919 466.975 434.919 466.968 434.919 466.961C434.919 466.954 434.919 466.948 434.919 466.941C434.919 466.934 434.919 466.927 434.919 466.92C434.919 466.913 434.919 466.906 434.919 466.899C434.919 466.892 434.919 466.885 434.919 466.878C434.919 466.871 434.919 466.864 434.919 466.857C434.919 466.85 434.919 466.843 434.919 466.836C434.919 466.829 434.919 466.822 434.919 466.816C434.919 466.809 434.919 466.802 434.919 466.795C434.919 466.788 434.919 466.781 434.919 466.774C434.919 466.767 434.919 466.76 434.919 466.753C434.919 466.746 434.919 466.739 434.919 466.732C434.919 466.725 434.919 466.718 434.919 466.711C434.919 466.704 434.919 466.697 434.919 466.69C434.919 466.683 434.919 466.676 434.919 466.669C434.919 466.662 434.919 466.655 434.919 466.648C434.919 466.641 434.919 466.634 434.919 466.627C434.919 466.62 434.919 466.613 434.919 466.606C434.919 466.599 434.919 466.592 434.919 466.585C434.919 466.578 434.919 466.571 434.919 466.564C434.919 466.557 434.919 466.55 434.919 466.543C434.919 466.536 434.919 466.529 434.919 466.522C434.919 466.514 434.919 466.507 434.919 466.5C434.919 466.493 434.919 466.486 434.919 466.479C434.919 466.472 434.919 466.465 434.919 466.458C434.919 466.451 434.919 466.444 434.919 466.437C434.919 466.43 434.919 466.423 434.919 466.416C434.919 466.409 434.919 466.402 434.919 466.395C434.919 466.388 434.919 466.38 434.919 466.373C434.919 466.366 434.919 466.359 434.919 466.352C434.919 466.345 434.919 466.338 434.919 466.331C434.919 466.324 434.919 466.317 434.919 466.31C434.919 466.303 434.919 466.296 434.919 466.288C434.919 466.281 434.919 466.274 434.919 466.267C434.919 466.26 434.919 466.253 434.919 466.246C434.919 466.239 434.919 466.232 434.919 466.225C434.919 466.218 434.919 466.21 434.919 466.203C434.919 466.196 434.919 466.189 434.919 466.182C434.919 466.175 434.919 466.168 434.919 466.161C434.919 466.154 434.919 466.146 434.919 466.139C434.919 466.132 434.919 466.125 434.919 466.118C434.919 466.111 434.919 466.104 434.919 466.097C434.919 466.089 434.919 466.082 434.919 466.075C434.919 466.068 434.919 466.061 434.919 466.054C434.919 466.047 434.919 466.039 434.919 466.032C434.919 466.025 434.919 466.018 434.919 466.011C434.919 466.004 434.919 465.997 434.919 465.989C434.919 465.982 434.919 465.975 434.919 465.968C434.919 465.961 434.919 465.954 434.919 465.947C434.919 465.939 434.919 465.932 434.919 465.925C434.919 465.918 434.919 465.911 434.919 465.904C434.919 465.896 434.919 465.889 434.919 465.882C434.919 465.875 434.919 465.868 434.919 465.861C434.919 465.853 434.919 465.846 434.919 465.839C434.919 465.832 434.919 465.825 434.919 465.817C434.919 465.81 434.919 465.803 434.919 465.796C434.919 465.789 434.919 465.782 434.919 465.774C434.919 465.767 434.919 465.76 434.919 465.753C434.919 465.746 434.919 465.738 434.919 465.731C434.919 465.724 434.919 465.717 434.919 465.71C434.919 465.702 434.919 465.695 434.919 465.688C434.919 465.681 434.919 465.674 434.919 465.666C434.919 465.659 434.919 465.652 434.919 465.645C434.919 465.638 434.919 465.63 434.919 465.623C434.919 465.616 434.919 465.609 434.919 465.601C434.919 465.594 434.919 465.587 434.919 465.58C434.919 465.573 434.919 465.565 434.919 465.558C434.919 465.551 434.919 465.544 434.919 465.536C434.919 465.529 434.919 465.522 434.919 465.515C434.919 465.507 434.919 465.5 434.919 465.493C434.919 465.486 434.919 465.479 434.919 465.471C434.919 465.464 434.919 465.457 434.919 465.45C434.919 465.442 434.919 465.435 434.919 465.428C434.919 465.421 434.919 465.413 434.919 465.406C434.919 465.399 434.919 465.392 434.919 465.384C434.919 465.377 434.919 465.37 434.919 465.363C434.919 465.355 434.919 465.348 434.919 465.341C434.919 465.333 434.919 465.326 434.919 465.319C434.919 465.312 434.919 465.304 434.919 465.297C434.919 465.29 434.919 465.283 434.919 465.275C434.919 465.268 434.919 465.261 434.919 465.253C434.919 465.246 434.919 465.239 434.919 465.232C434.919 465.224 434.919 465.217 434.919 465.21C434.919 465.203 434.919 465.195 434.919 465.188C434.919 465.181 434.919 465.173 434.919 465.166C434.919 465.159 434.919 465.152 434.919 465.144C434.919 465.137 434.919 465.13 434.919 465.122C434.919 465.115 434.919 465.108 434.919 465.1C434.919 465.093 434.919 465.086 434.919 465.079C434.919 465.071 434.919 465.064 434.919 465.057C434.919 465.049 434.919 465.042 434.919 465.035C434.919 465.027 434.919 465.02 434.919 465.013C434.919 465.006 434.919 464.998 434.919 464.991C434.919 464.984 434.919 464.976 434.919 464.969C434.919 464.962 434.919 464.954 434.919 464.947C434.919 464.94 434.919 464.932 434.919 464.925C434.919 464.918 434.919 464.91 434.919 464.903C434.919 464.896 434.919 464.888 434.919 464.881C434.919 464.874 434.919 464.866 434.919 464.859C434.919 464.852 434.919 464.844 434.919 464.837C434.919 464.83 434.919 464.822 434.919 464.815C434.919 464.808 434.919 464.8 434.919 464.793C434.919 464.786 434.919 464.778 434.919 464.771C434.919 464.764 434.919 464.756 434.919 464.749C434.919 464.742 434.919 464.734 434.919 464.727C434.919 464.72 434.919 464.712 434.919 464.705C434.919 464.698 434.919 464.69 434.919 464.683C434.919 464.676 434.919 464.668 434.919 464.661C434.919 464.654 434.919 464.646 434.919 464.639C434.919 464.631 434.919 464.624 434.919 464.617C434.919 464.609 434.919 464.602 434.919 464.595C434.919 464.587 434.919 464.58 434.919 464.573C434.919 464.565 434.919 464.558 434.919 464.551C434.919 464.543 434.919 464.536 434.919 464.528C434.919 464.521 434.919 464.514 434.919 464.506C434.919 464.499 434.919 464.492 434.919 464.484C434.919 464.477 434.919 464.469 434.919 464.462C434.919 464.455 434.919 464.447 434.919 464.44C434.919 464.433 434.919 464.425 434.919 464.418C434.919 464.41 434.919 464.403 434.919 464.396C434.919 464.388 434.919 464.381 434.919 464.374C434.919 464.366 434.919 464.359 434.919 464.351C434.919 464.344 434.919 464.337 434.919 464.329C434.919 464.322 434.919 464.314 434.919 464.307C434.919 464.3 434.919 464.292 434.919 464.285C434.919 464.278 434.919 464.27 434.919 464.263C434.919 464.255 434.919 464.248 434.919 464.241C434.919 464.233 434.919 464.226 434.919 464.218C434.919 464.211 434.919 464.204 434.919 464.196C434.919 464.189 434.919 464.181 434.919 464.174C434.919 464.167 434.919 464.159 434.919 464.152C434.919 464.144 434.919 464.137 434.919 464.13C434.919 464.122 434.919 464.115 434.919 464.107C434.919 464.1 434.919 464.093 434.919 464.085C434.919 464.078 434.919 464.07 434.919 464.063C434.919 464.056 434.919 464.048 434.919 464.041C434.919 464.033 434.919 464.026 434.919 464.018C434.919 464.011 434.919 464.004 434.919 463.996C434.919 463.989 434.919 463.981 434.919 463.974C434.919 463.967 434.919 463.959 434.919 463.952C434.919 463.944 434.919 463.937 434.919 463.93C434.919 463.922 434.919 463.915 434.919 463.907C434.919 463.9 434.919 463.892 434.919 463.885C434.919 463.878 434.919 463.87 434.919 463.863C434.919 463.855 434.919 463.848 434.919 463.84C434.919 463.833 434.919 463.826 434.919 463.818C434.919 463.811 434.919 463.803 434.919 463.796C434.919 463.788 434.919 463.781 434.919 463.774C434.919 463.766 434.919 463.759 434.919 463.751C434.919 463.744 434.919 463.736 434.919 463.729C434.919 463.722 434.919 463.714 434.919 463.707C434.919 463.699 434.919 463.692 434.919 463.684H422.919C422.919 463.692 422.919 463.699 422.919 463.707C422.919 463.714 422.919 463.722 422.919 463.729C422.919 463.736 422.919 463.744 422.919 463.751C422.919 463.759 422.919 463.766 422.919 463.774C422.919 463.781 422.919 463.788 422.919 463.796C422.919 463.803 422.919 463.811 422.919 463.818C422.919 463.826 422.919 463.833 422.919 463.84C422.919 463.848 422.919 463.855 422.919 463.863C422.919 463.87 422.919 463.878 422.919 463.885C422.919 463.892 422.919 463.9 422.919 463.907C422.919 463.915 422.919 463.922 422.919 463.93C422.919 463.937 422.919 463.944 422.919 463.952C422.919 463.959 422.919 463.967 422.919 463.974C422.919 463.981 422.919 463.989 422.919 463.996C422.919 464.004 422.919 464.011 422.919 464.018C422.919 464.026 422.919 464.033 422.919 464.041C422.919 464.048 422.919 464.056 422.919 464.063C422.919 464.07 422.919 464.078 422.919 464.085C422.919 464.093 422.919 464.1 422.919 464.107C422.919 464.115 422.919 464.122 422.919 464.13C422.919 464.137 422.919 464.144 422.919 464.152C422.919 464.159 422.919 464.167 422.919 464.174C422.919 464.181 422.919 464.189 422.919 464.196C422.919 464.204 422.919 464.211 422.919 464.218C422.919 464.226 422.919 464.233 422.919 464.241C422.919 464.248 422.919 464.255 422.919 464.263C422.919 464.27 422.919 464.278 422.919 464.285C422.919 464.292 422.919 464.3 422.919 464.307C422.919 464.314 422.919 464.322 422.919 464.329C422.919 464.337 422.919 464.344 422.919 464.351C422.919 464.359 422.919 464.366 422.919 464.374C422.919 464.381 422.919 464.388 422.919 464.396C422.919 464.403 422.919 464.41 422.919 464.418C422.919 464.425 422.919 464.433 422.919 464.44C422.919 464.447 422.919 464.455 422.919 464.462C422.919 464.469 422.919 464.477 422.919 464.484C422.919 464.492 422.919 464.499 422.919 464.506C422.919 464.514 422.919 464.521 422.919 464.528C422.919 464.536 422.919 464.543 422.919 464.551C422.919 464.558 422.919 464.565 422.919 464.573C422.919 464.58 422.919 464.587 422.919 464.595C422.919 464.602 422.919 464.609 422.919 464.617C422.919 464.624 422.919 464.631 422.919 464.639C422.919 464.646 422.919 464.654 422.919 464.661C422.919 464.668 422.919 464.676 422.919 464.683C422.919 464.69 422.919 464.698 422.919 464.705C422.919 464.712 422.919 464.72 422.919 464.727C422.919 464.734 422.919 464.742 422.919 464.749C422.919 464.756 422.919 464.764 422.919 464.771C422.919 464.778 422.919 464.786 422.919 464.793C422.919 464.8 422.919 464.808 422.919 464.815C422.919 464.822 422.919 464.83 422.919 464.837C422.919 464.844 422.919 464.852 422.919 464.859C422.919 464.866 422.919 464.874 422.919 464.881C422.919 464.888 422.919 464.896 422.919 464.903C422.919 464.91 422.919 464.918 422.919 464.925C422.919 464.932 422.919 464.94 422.919 464.947C422.919 464.954 422.919 464.962 422.919 464.969C422.919 464.976 422.919 464.984 422.919 464.991C422.919 464.998 422.919 465.006 422.919 465.013C422.919 465.02 422.919 465.027 422.919 465.035C422.919 465.042 422.919 465.049 422.919 465.057C422.919 465.064 422.919 465.071 422.919 465.079C422.919 465.086 422.919 465.093 422.919 465.1C422.919 465.108 422.919 465.115 422.919 465.122C422.919 465.13 422.919 465.137 422.919 465.144C422.919 465.152 422.919 465.159 422.919 465.166C422.919 465.173 422.919 465.181 422.919 465.188C422.919 465.195 422.919 465.203 422.919 465.21C422.919 465.217 422.919 465.224 422.919 465.232C422.919 465.239 422.919 465.246 422.919 465.253C422.919 465.261 422.919 465.268 422.919 465.275C422.919 465.283 422.919 465.29 422.919 465.297C422.919 465.304 422.919 465.312 422.919 465.319C422.919 465.326 422.919 465.333 422.919 465.341C422.919 465.348 422.919 465.355 422.919 465.363C422.919 465.37 422.919 465.377 422.919 465.384C422.919 465.392 422.919 465.399 422.919 465.406C422.919 465.413 422.919 465.421 422.919 465.428C422.919 465.435 422.919 465.442 422.919 465.45C422.919 465.457 422.919 465.464 422.919 465.471C422.919 465.479 422.919 465.486 422.919 465.493C422.919 465.5 422.919 465.507 422.919 465.515C422.919 465.522 422.919 465.529 422.919 465.536C422.919 465.544 422.919 465.551 422.919 465.558C422.919 465.565 422.919 465.573 422.919 465.58C422.919 465.587 422.919 465.594 422.919 465.601C422.919 465.609 422.919 465.616 422.919 465.623C422.919 465.63 422.919 465.638 422.919 465.645C422.919 465.652 422.919 465.659 422.919 465.666C422.919 465.674 422.919 465.681 422.919 465.688C422.919 465.695 422.919 465.702 422.919 465.71C422.919 465.717 422.919 465.724 422.919 465.731C422.919 465.738 422.919 465.746 422.919 465.753C422.919 465.76 422.919 465.767 422.919 465.774C422.919 465.782 422.919 465.789 422.919 465.796C422.919 465.803 422.919 465.81 422.919 465.817C422.919 465.825 422.919 465.832 422.919 465.839C422.919 465.846 422.919 465.853 422.919 465.861C422.919 465.868 422.919 465.875 422.919 465.882C422.919 465.889 422.919 465.896 422.919 465.904C422.919 465.911 422.919 465.918 422.919 465.925C422.919 465.932 422.919 465.939 422.919 465.947C422.919 465.954 422.919 465.961 422.919 465.968C422.919 465.975 422.919 465.982 422.919 465.989C422.919 465.997 422.919 466.004 422.919 466.011C422.919 466.018 422.919 466.025 422.919 466.032C422.919 466.039 422.919 466.047 422.919 466.054C422.919 466.061 422.919 466.068 422.919 466.075C422.919 466.082 422.919 466.089 422.919 466.097C422.919 466.104 422.919 466.111 422.919 466.118C422.919 466.125 422.919 466.132 422.919 466.139C422.919 466.146 422.919 466.154 422.919 466.161C422.919 466.168 422.919 466.175 422.919 466.182C422.919 466.189 422.919 466.196 422.919 466.203C422.919 466.21 422.919 466.218 422.919 466.225C422.919 466.232 422.919 466.239 422.919 466.246C422.919 466.253 422.919 466.26 422.919 466.267C422.919 466.274 422.919 466.281 422.919 466.288C422.919 466.296 422.919 466.303 422.919 466.31C422.919 466.317 422.919 466.324 422.919 466.331C422.919 466.338 422.919 466.345 422.919 466.352C422.919 466.359 422.919 466.366 422.919 466.373C422.919 466.38 422.919 466.388 422.919 466.395C422.919 466.402 422.919 466.409 422.919 466.416C422.919 466.423 422.919 466.43 422.919 466.437C422.919 466.444 422.919 466.451 422.919 466.458C422.919 466.465 422.919 466.472 422.919 466.479C422.919 466.486 422.919 466.493 422.919 466.5C422.919 466.507 422.919 466.514 422.919 466.522C422.919 466.529 422.919 466.536 422.919 466.543C422.919 466.55 422.919 466.557 422.919 466.564C422.919 466.571 422.919 466.578 422.919 466.585C422.919 466.592 422.919 466.599 422.919 466.606C422.919 466.613 422.919 466.62 422.919 466.627C422.919 466.634 422.919 466.641 422.919 466.648C422.919 466.655 422.919 466.662 422.919 466.669C422.919 466.676 422.919 466.683 422.919 466.69C422.919 466.697 422.919 466.704 422.919 466.711C422.919 466.718 422.919 466.725 422.919 466.732C422.919 466.739 422.919 466.746 422.919 466.753C422.919 466.76 422.919 466.767 422.919 466.774C422.919 466.781 422.919 466.788 422.919 466.795C422.919 466.802 422.919 466.809 422.919 466.816C422.919 466.822 422.919 466.829 422.919 466.836C422.919 466.843 422.919 466.85 422.919 466.857C422.919 466.864 422.919 466.871 422.919 466.878C422.919 466.885 422.919 466.892 422.919 466.899C422.919 466.906 422.919 466.913 422.919 466.92C422.919 466.927 422.919 466.934 422.919 466.941C422.919 466.948 422.919 466.954 422.919 466.961C422.919 466.968 422.919 466.975 422.919 466.982C422.919 466.989 422.919 466.996 422.919 467.003C422.919 467.01 422.919 467.017 422.919 467.024C422.919 467.031 422.919 467.037 422.919 467.044C422.919 467.051 422.919 467.058 422.919 467.065C422.919 467.072 422.919 467.079 422.919 467.086C422.919 467.093 422.919 467.1 422.919 467.106C422.919 467.113 422.919 467.12 422.919 467.127C422.919 467.134 422.919 467.141 422.919 467.148C422.919 467.155 422.919 467.161 422.919 467.168C422.919 467.175 422.919 467.182 422.919 467.189C422.919 467.196 422.919 467.203 422.919 467.209C422.919 467.216 422.919 467.223 422.919 467.23C422.919 467.237 422.919 467.244 422.919 467.251C422.919 467.257 422.919 467.264 422.919 467.271C422.919 467.278 422.919 467.285 422.919 467.292C422.919 467.298 422.919 467.305 422.919 467.312C422.919 467.319 422.919 467.326 422.919 467.333C422.919 467.339 422.919 467.346 422.919 467.353C422.919 467.36 422.919 467.367 422.919 467.373C422.919 467.38 422.919 467.387 422.919 467.394C422.919 467.401 422.919 467.408 422.919 467.414C422.919 467.421 422.919 467.428 422.919 467.435C422.919 467.441 422.919 467.448 422.919 467.455C422.919 467.462 422.919 467.469 422.919 467.475C422.919 467.482 422.919 467.489 422.919 467.496C422.919 467.502 422.919 467.509 422.919 467.516C422.919 467.523 422.919 467.53 422.919 467.536C422.919 467.543 422.919 467.55 422.919 467.557C422.919 467.563 422.919 467.57 422.919 467.577C422.919 467.584 422.919 467.59 422.919 467.597C422.919 467.604 422.919 467.611 422.919 467.617C422.919 467.624 422.919 467.631 422.919 467.637C422.919 467.644 422.919 467.651 422.919 467.658C422.919 467.664 422.919 467.671 422.919 467.678C422.919 467.685 422.919 467.691 422.919 467.698C422.919 467.705 422.919 467.711 422.919 467.718C422.919 467.725 422.919 467.731 422.919 467.738C422.919 467.745 422.919 467.752 422.919 467.758C422.919 467.765 422.919 467.772 422.919 467.778C422.919 467.785 422.919 467.792 422.919 467.798C422.919 467.805 422.919 467.812 422.919 467.818C422.919 467.825 422.919 467.832 422.919 467.838C422.919 467.845 422.919 467.852 422.919 467.858C422.919 467.865 422.919 467.872 422.919 467.878C422.919 467.885 422.919 467.892 422.919 467.898C422.919 467.905 422.919 467.911 422.919 467.918C422.919 467.925 422.919 467.931 422.919 467.938C422.919 467.945 422.919 467.951 422.919 467.958C422.919 467.964 422.919 467.971 422.919 467.978C422.919 467.984 422.919 467.991 422.919 467.998C422.919 468.004 422.919 468.011 422.919 468.017C422.919 468.024 422.919 468.031 422.919 468.037C422.919 468.044 422.919 468.05 422.919 468.057C422.919 468.064 422.919 468.07 422.919 468.077C422.919 468.083 422.919 468.09 422.919 468.096C422.919 468.103 422.919 468.11 422.919 468.116C422.919 468.123 422.919 468.129 422.919 468.136C422.919 468.142 422.919 468.149 422.919 468.155C422.919 468.162 422.919 468.169 422.919 468.175C422.919 468.182 422.919 468.188 422.919 468.195C422.919 468.201 422.919 468.208 422.919 468.214C422.919 468.221 422.919 468.227 422.919 468.234C422.919 468.24 422.919 468.247 422.919 468.253C422.919 468.26 422.919 468.266 422.919 468.273C422.919 468.279 422.919 468.286 422.919 468.292C422.919 468.299 422.919 468.305 422.919 468.312C422.919 468.318 422.919 468.325 422.919 468.331C422.919 468.338 422.919 468.344 422.919 468.351C422.919 468.357 422.919 468.364 422.919 468.37C422.919 468.377 422.919 468.383 422.919 468.39C422.919 468.396 422.919 468.403 422.919 468.409C422.919 468.415 422.919 468.422 422.919 468.428C422.919 468.435 422.919 468.441 422.919 468.448C422.919 468.454 422.919 468.461 422.919 468.467C422.919 468.473 422.919 468.48 422.919 468.486C422.919 468.493 422.919 468.499 422.919 468.506C422.919 468.512 422.919 468.518 422.919 468.525C422.919 468.531 422.919 468.538 422.919 468.544C422.919 468.55 422.919 468.557 422.919 468.563C422.919 468.57 422.919 468.576 422.919 468.582C422.919 468.589 422.919 468.595 422.919 468.601C422.919 468.608 422.919 468.614 422.919 468.621C422.919 468.627 422.919 468.633 422.919 468.64C422.919 468.646 422.919 468.652 422.919 468.659C422.919 468.665 422.919 468.671 422.919 468.678C422.919 468.684 422.919 468.691 422.919 468.697C422.919 468.703 422.919 468.71 422.919 468.716C422.919 468.722 422.919 468.728 422.919 468.735C422.919 468.741 422.919 468.747 422.919 468.754C422.919 468.76 422.919 468.766 422.919 468.773C422.919 468.779 422.919 468.785 422.919 468.792C422.919 468.798 422.919 468.804 422.919 468.81C422.919 468.817 422.919 468.823 422.919 468.829C422.919 468.836 422.919 468.842 422.919 468.848C422.919 468.854 422.919 468.861 422.919 468.867C422.919 468.873 422.919 468.879 422.919 468.886C422.919 468.892 422.919 468.898 422.919 468.904C422.919 468.911 422.919 468.917 422.919 468.923C422.919 468.929 422.919 468.936 422.919 468.942C422.919 468.948 422.919 468.954 422.919 468.961C422.919 468.967 422.919 468.973 422.919 468.979C422.919 468.985 422.919 468.992 422.919 468.998C422.919 469.004 422.919 469.01 422.919 469.016C422.919 469.023 422.919 469.029 422.919 469.035C422.919 469.041 422.919 469.047 422.919 469.054C422.919 469.06 422.919 469.066 422.919 469.072C422.919 469.078 422.919 469.084 422.919 469.091C422.919 469.097 422.919 469.103 422.919 469.109C422.919 469.115 422.919 469.121 422.919 469.128C422.919 469.134 422.919 469.14 422.919 469.146C422.919 469.152 422.919 469.158 422.919 469.164C422.919 469.17 422.919 469.177 422.919 469.183C422.919 469.189 422.919 469.195 422.919 469.201C422.919 469.207 422.919 469.213 422.919 469.219C422.919 469.225 422.919 469.232 422.919 469.238C422.919 469.244 422.919 469.25 422.919 469.256C422.919 469.262 422.919 469.268 422.919 469.274C422.919 469.28 422.919 469.286 422.919 469.292C422.919 469.298 422.919 469.305 422.919 469.311C422.919 469.317 422.919 469.323 422.919 469.329C422.919 469.335 422.919 469.341 422.919 469.347C422.919 469.353 422.919 469.359 422.919 469.365C422.919 469.371 422.919 469.377 422.919 469.383C422.919 469.389 422.919 469.395 422.919 469.401C422.919 469.407 422.919 469.413 422.919 469.419C422.919 469.425 422.919 469.431 422.919 469.437C422.919 469.443 422.919 469.449 422.919 469.455C422.919 469.461 422.919 469.467 422.919 469.473C422.919 469.479 422.919 469.485 422.919 469.491C422.919 469.497 422.919 469.503 422.919 469.509C422.919 469.515 422.919 469.521 422.919 469.527C422.919 469.533 422.919 469.539 422.919 469.544C422.919 469.55 422.919 469.556 422.919 469.562C422.919 469.568 422.919 469.574 422.919 469.58C422.919 469.586 422.919 469.592 422.919 469.598C422.919 469.604 422.919 469.61 422.919 469.616C422.919 469.621 422.919 469.627 422.919 469.633C422.919 469.639 422.919 469.645 422.919 469.651C422.919 469.657 422.919 469.663 422.919 469.668C422.919 469.674 422.919 469.68 422.919 469.686C422.919 469.692 422.919 469.698 422.919 469.704C422.919 469.71 422.919 469.715 422.919 469.721C422.919 469.727 422.919 469.733 422.919 469.739C422.919 469.745 422.919 469.75 422.919 469.756C422.919 469.762 422.919 469.768 422.919 469.774C422.919 469.779 422.919 469.785 422.919 469.791C422.919 469.797 422.919 469.803 422.919 469.808C422.919 469.814 422.919 469.82 422.919 469.826C422.919 469.832 422.919 469.837 422.919 469.843C422.919 469.849 422.919 469.855 422.919 469.86C422.919 469.866 422.919 469.872 422.919 469.878C422.919 469.884 422.919 469.889 422.919 469.895C422.919 469.901 422.919 469.907 422.919 469.912C422.919 469.918 422.919 469.924 422.919 469.929C422.919 469.935 422.919 469.941 422.919 469.947C422.919 469.952 422.919 469.958 422.919 469.964C422.919 469.969 422.919 469.975 422.919 469.981C422.919 469.987 422.919 469.992 422.919 469.998C422.919 470.004 422.919 470.009 422.919 470.015C422.919 470.021 422.919 470.026 422.919 470.032C422.919 470.038 422.919 470.043 422.919 470.049C422.919 470.055 422.919 470.06 422.919 470.066C422.919 470.072 422.919 470.077 422.919 470.083C422.919 470.088 422.919 470.094 422.919 470.1C422.919 470.105 422.919 470.111 422.919 470.117C422.919 470.122 422.919 470.128 422.919 470.133C422.919 470.139 422.919 470.145 422.919 470.15C422.919 470.156 422.919 470.161 422.919 470.167C422.919 470.173 422.919 470.178 422.919 470.184C422.919 470.189 422.919 470.195 422.919 470.2C422.919 470.206 422.919 470.211 422.919 470.217C422.919 470.223 422.919 470.228 422.919 470.234C422.919 470.239 422.919 470.245 422.919 470.25C422.919 470.256 422.919 470.261 422.919 470.267C422.919 470.272 422.919 470.278 422.919 470.283C422.919 470.289 422.919 470.294 422.919 470.3C422.919 470.305 422.919 470.311 422.919 470.316C422.919 470.322 422.919 470.327 422.919 470.333C422.919 470.338 422.919 470.344 422.919 470.349C422.919 470.355 422.919 470.36 422.919 470.366C422.919 470.371 422.919 470.377 422.919 470.382C422.919 470.387 422.919 470.393 422.919 470.398C422.919 470.404 422.919 470.409 422.919 470.415C422.919 470.42 422.919 470.425 422.919 470.431C422.919 470.436 422.919 470.442 422.919 470.447C422.919 470.452 422.919 470.458 422.919 470.463C422.919 470.469 422.919 470.474 422.919 470.479C422.919 470.485 422.919 470.49 422.919 470.496C422.919 470.501 422.919 470.506 422.919 470.512C422.919 470.517 422.919 470.522 422.919 470.528C422.919 470.533 422.919 470.538 422.919 470.544C422.919 470.549 422.919 470.554 422.919 470.56C422.919 470.565 422.919 470.57 422.919 470.576C422.919 470.581 422.919 470.586 422.919 470.592C422.919 470.597 422.919 470.602 422.919 470.608C422.919 470.613 422.919 470.618 422.919 470.623C422.919 470.629 422.919 470.634 422.919 470.639C422.919 470.644 422.919 470.65 422.919 470.655C422.919 470.66 422.919 470.666 422.919 470.671C422.919 470.676 422.919 470.681 422.919 470.686C422.919 470.692 422.919 470.697 422.919 470.702C422.919 470.707 422.919 470.713 422.919 470.718C422.919 470.723 422.919 470.728 422.919 470.733C422.919 470.739 422.919 470.744 422.919 470.749C422.919 470.754 422.919 470.759 422.919 470.765C422.919 470.77 422.919 470.775 422.919 470.78C422.919 470.785 422.919 470.79 422.919 470.796C422.919 470.801 422.919 470.806 422.919 470.811C422.919 470.816 422.919 470.821 422.919 470.826C422.919 470.832 422.919 470.837 422.919 470.842C422.919 470.847 422.919 470.852 422.919 470.857C422.919 470.862 422.919 470.867 422.919 470.873C422.919 470.878 422.919 470.883 422.919 470.888C422.919 470.893 422.919 470.898 422.919 470.903C422.919 470.908 422.919 470.913 422.919 470.918C422.919 470.923 422.919 470.928 422.919 470.933C422.919 470.938 422.919 470.944 422.919 470.949C422.919 470.954 422.919 470.959 422.919 470.964C422.919 470.969 422.919 470.974 422.919 470.979C422.919 470.984 422.919 470.989 422.919 470.994C422.919 470.999 422.919 471.004 422.919 471.009C422.919 471.014 422.919 471.019 422.919 471.024C422.919 471.029 422.919 471.034 422.919 471.039C422.919 471.044 422.919 471.049 422.919 471.054C422.919 471.059 422.919 471.063 422.919 471.068C422.919 471.073 422.919 471.078 422.919 471.083C422.919 471.088 422.919 471.093 422.919 471.098C422.919 471.103 422.919 471.108 422.919 471.113C422.919 471.118 422.919 471.123 422.919 471.127C422.919 471.132 422.919 471.137 422.919 471.142C422.919 471.147 422.919 471.152 422.919 471.157C422.919 471.162 422.919 471.167 422.919 471.171C422.919 471.176 422.919 471.181 422.919 471.186C422.919 471.191 422.919 471.196 422.919 471.2C422.919 471.205 422.919 471.21 422.919 471.215C422.919 471.22 422.919 471.225 422.919 471.229C422.919 471.234 422.919 471.239 422.919 471.244C422.919 471.249 422.919 471.253 422.919 471.258C422.919 471.263 422.919 471.268 422.919 471.273C422.919 471.277 422.919 471.282 422.919 471.287C422.919 471.292 422.919 471.296 422.919 471.301C422.919 471.306 422.919 471.311 422.919 471.315C422.919 471.32 422.919 471.325 422.919 471.33C422.919 471.334 422.919 471.339 422.919 471.344C422.919 471.348 422.919 471.353 422.919 471.358C422.919 471.363 422.919 471.367 422.919 471.372C422.919 471.377 422.919 471.381 422.919 471.386C422.919 471.391 422.919 471.395 422.919 471.4C422.919 471.405 422.919 471.409 422.919 471.414C422.919 471.419 422.919 471.423 422.919 471.428C422.919 471.432 422.919 471.437 422.919 471.442C422.919 471.446 422.919 471.451 422.919 471.456C422.919 471.46 422.919 471.465 422.919 471.469C422.919 471.474 422.919 471.479 422.919 471.483C422.919 471.488 422.919 471.492 422.919 471.497C422.919 471.501 422.919 471.506 422.919 471.511C422.919 471.515 422.919 471.52 422.919 471.524C422.919 471.529 422.919 471.533 422.919 471.538C422.919 471.542 422.919 471.547 422.919 471.551C422.919 471.556 422.919 471.56 422.919 471.565C422.919 471.57 422.919 471.574 422.919 471.579C422.919 471.583 422.919 471.587 422.919 471.592C422.919 471.596 422.919 471.601 422.919 471.605C422.919 471.61 422.919 471.614 422.919 471.619C422.919 471.623 422.919 471.628 422.919 471.632C422.919 471.637 422.919 471.641 422.919 471.645C422.919 471.65 422.919 471.654 422.919 471.659C422.919 471.663 422.919 471.668 422.919 471.672C422.919 471.676 422.919 471.681 422.919 471.685C422.919 471.69 422.919 471.694 422.919 471.698C422.919 471.703 422.919 471.707 422.919 471.711C422.919 471.716 422.919 471.72 422.919 471.724C422.919 471.729 422.919 471.733 422.919 471.737C422.919 471.742 422.919 471.746 422.919 471.75C422.919 471.755 422.919 471.759 422.919 471.763C422.919 471.768 422.919 471.772 422.919 471.776C422.919 471.781 422.919 471.785 422.919 471.789C422.919 471.793 422.919 471.798 422.919 471.802C422.919 471.806 422.919 471.811 422.919 471.815C422.919 471.819 422.919 471.823 422.919 471.828C422.919 471.832 422.919 471.836 422.919 471.84C422.919 471.844 422.919 471.849 422.919 471.853C422.919 471.857 422.919 471.861 422.919 471.866C422.919 471.87 422.919 471.874 422.919 471.878C422.919 471.882 422.919 471.886 422.919 471.891C422.919 471.895 422.919 471.899 422.919 471.903C422.919 471.907 422.919 471.911 422.919 471.916C422.919 471.92 422.919 471.924 422.919 471.928C422.919 471.932 422.919 471.936 422.919 471.94C422.919 471.945 422.919 471.949 422.919 471.953C422.919 471.957 422.919 471.961 422.919 471.965C422.919 471.969 422.919 471.973 422.919 471.977C422.919 471.981 422.919 471.985 422.919 471.989C422.919 471.994 422.919 471.998 422.919 472.002C422.919 472.006 422.919 472.01 422.919 472.014C422.919 472.018 422.919 472.022 422.919 472.026C422.919 472.03 422.919 472.034 422.919 472.038C422.919 472.042 422.919 472.046 422.919 472.05C422.919 472.054 422.919 472.058 422.919 472.062C422.919 472.066 422.919 472.07 422.919 472.074C422.919 472.078 422.919 472.082 422.919 472.086C422.919 472.09 422.919 472.094 422.919 472.097C422.919 472.101 422.919 472.105 422.919 472.109C422.919 472.113 422.919 472.117 422.919 472.121C422.919 472.125 422.919 472.129 422.919 472.133C422.919 472.137 422.919 472.14 422.919 472.144C422.919 472.148 422.919 472.152 422.919 472.156C422.919 472.16 422.919 472.164 422.919 472.168C422.919 472.171 422.919 472.175 422.919 472.179C422.919 472.183 422.919 472.187 422.919 472.191C422.919 472.194 422.919 472.198 422.919 472.202C422.919 472.206 422.919 472.21 422.919 472.213C422.919 472.217 422.919 472.221 422.919 472.225C422.919 472.229 422.919 472.232 422.919 472.236C422.919 472.24 422.919 472.244 422.919 472.247C422.919 472.251 422.919 472.255 422.919 472.259C422.919 472.262 422.919 472.266 422.919 472.27C422.919 472.273 422.919 472.277 422.919 472.281C422.919 472.285 422.919 472.288 422.919 472.292C422.919 472.296 422.919 472.299 422.919 472.303C422.919 472.307 422.919 472.31 422.919 472.314C422.919 472.318 422.919 472.321 422.919 472.325C422.919 472.329 422.919 472.332 422.919 472.336C422.919 472.34 422.919 472.343 422.919 472.347C422.919 472.35 422.919 472.354 422.919 472.358C422.919 472.361 422.919 472.365 422.919 472.368C422.919 472.372 422.919 472.376 422.919 472.379C422.919 472.383 422.919 472.386 422.919 472.39C422.919 472.393 422.919 472.397 422.919 472.4C422.919 472.404 422.919 472.408 422.919 472.411C422.919 472.415 422.919 472.418 422.919 472.422C422.919 472.425 422.919 472.429 422.919 472.432C422.919 472.436 422.919 472.439 422.919 472.443C422.919 472.446 422.919 472.45 422.919 472.453C422.919 472.456 422.919 472.46 422.919 472.463C422.919 472.467 422.919 472.47 422.919 472.474C422.919 472.477 422.919 472.481 422.919 472.484C422.919 472.487 422.919 472.491 422.919 472.494C422.919 472.498 422.919 472.501 422.919 472.504C422.919 472.508 422.919 472.511 422.919 472.515C422.919 472.518 422.919 472.521 422.919 472.525C422.919 472.528 422.919 472.531 422.919 472.535C422.919 472.538 422.919 472.541 422.919 472.545C422.919 472.548 422.919 472.551 422.919 472.555C422.919 472.558 422.919 472.561 422.919 472.565C422.919 472.568 422.919 472.571 422.919 472.575C422.919 472.578 422.919 472.581 422.919 472.584C422.919 472.588 422.919 472.591 422.919 472.594C422.919 472.597 422.919 472.601 422.919 472.604C422.919 472.607 422.919 472.61 422.919 472.614C422.919 472.617 422.919 472.62 422.919 472.623C422.919 472.626 422.919 472.63 422.919 472.633C422.919 472.636 422.919 472.639 422.919 472.642C422.919 472.646 422.919 472.649 422.919 472.652C422.919 472.655 422.919 472.658 422.919 472.661C422.919 472.664 422.919 472.668 422.919 472.671C422.919 472.674 422.919 472.677 422.919 472.68C422.919 472.683 422.919 472.686 422.919 472.689C422.919 472.692 422.919 472.696 422.919 472.699C422.919 472.702 422.919 472.705 422.919 472.708H434.919ZM882.661 993.935C886.783 990.951 889.679 988.908 892.314 985.519L882.84 978.154C881.45 979.943 880.064 981.001 875.623 984.216L882.661 993.935ZM886.419 961.668C886.419 968.185 886.367 970.322 885.742 972.47L897.264 975.824C898.471 971.675 898.419 967.592 898.419 961.668H886.419ZM892.314 985.519C894.402 982.834 896.313 979.09 897.264 975.824L885.742 972.47C885.215 974.282 883.998 976.664 882.84 978.154L892.314 985.519ZM243.82 281.5C247.175 279.415 249.416 278.028 251.232 277.078C252.986 276.162 253.954 275.869 254.68 275.769L253.039 263.882C250.397 264.246 248.042 265.206 245.674 266.443C243.369 267.647 240.691 269.317 237.487 271.307L243.82 281.5ZM277.819 277C275.325 274.219 273.238 271.885 271.373 270.095C269.454 268.254 267.469 266.684 265.041 265.597L260.136 276.548C260.81 276.851 261.653 277.399 263.064 278.753C264.528 280.159 266.271 282.097 268.885 285.011L277.819 277ZM254.68 275.769C256.539 275.512 258.424 275.782 260.136 276.548L265.041 265.597C261.277 263.911 257.124 263.318 253.039 263.882L254.68 275.769ZM418.321 451.668C420.764 454.393 421.356 455.103 421.767 455.833L432.23 449.958C431.023 447.808 429.347 445.99 427.255 443.656L418.321 451.668ZM434.919 463.684C434.919 460.55 434.953 458.078 434.416 455.672L422.704 458.282C422.886 459.1 422.919 460.024 422.919 463.684H434.919ZM421.767 455.833C422.197 456.6 422.513 457.425 422.704 458.282L434.416 455.672C433.97 453.671 433.234 451.745 432.23 449.958L421.767 455.833ZM819.696 352.862C819.934 345.903 820.128 340.366 819.969 335.99C819.81 331.623 819.293 327.734 817.717 324.292L806.806 329.288C807.392 330.568 807.836 332.564 807.977 336.426C808.117 340.278 807.947 345.314 807.703 352.451L819.696 352.862ZM772.151 318.723C780.975 319.249 787.327 319.63 792.047 320.189C796.91 320.765 799.147 321.452 800.253 322.089L806.248 311.694C802.855 309.737 798.469 308.866 793.459 308.272C788.306 307.662 781.535 307.261 772.864 306.744L772.151 318.723ZM817.717 324.292C816.462 321.551 815.021 319.151 813.068 317.005C811.115 314.859 808.86 313.201 806.248 311.694L800.253 322.089C802.134 323.174 803.305 324.107 804.194 325.083C805.084 326.06 805.902 327.313 806.806 329.288L817.717 324.292Z" fill="#FFFFFE"/>
<path d="M54.6256 79V56.6H57.8256V76.216H69.9536V79H54.6256ZM83.3314 79.256C81.6247 79.256 80.0354 78.968 78.5634 78.392C77.1127 77.816 75.854 77.016 74.7874 75.992C73.7207 74.9467 72.8887 73.7307 72.2914 72.344C71.694 70.9573 71.3954 69.4427 71.3954 67.8C71.3954 66.1573 71.694 64.6427 72.2914 63.256C72.8887 61.8693 73.7207 60.664 74.7874 59.64C75.854 58.5947 77.1127 57.784 78.5634 57.208C80.014 56.632 81.6034 56.344 83.3314 56.344C85.038 56.344 86.606 56.632 88.0354 57.208C89.486 57.7627 90.7447 58.5627 91.8114 59.608C92.8994 60.632 93.7314 61.8373 94.3074 63.224C94.9047 64.6107 95.2034 66.136 95.2034 67.8C95.2034 69.464 94.9047 70.9893 94.3074 72.376C93.7314 73.7627 92.8994 74.9787 91.8114 76.024C90.7447 77.048 89.486 77.848 88.0354 78.424C86.606 78.9787 85.038 79.256 83.3314 79.256ZM83.3314 76.408C84.5687 76.408 85.71 76.1947 86.7554 75.768C87.822 75.3413 88.7394 74.744 89.5074 73.976C90.2967 73.1867 90.9047 72.2693 91.3314 71.224C91.7794 70.1787 92.0034 69.0373 92.0034 67.8C92.0034 66.5627 91.7794 65.4213 91.3314 64.376C90.9047 63.3307 90.2967 62.424 89.5074 61.656C88.7394 60.8667 87.822 60.2587 86.7554 59.832C85.71 59.4053 84.5687 59.192 83.3314 59.192C82.0727 59.192 80.91 59.4053 79.8434 59.832C78.798 60.2587 77.8807 60.8667 77.0914 61.656C76.302 62.424 75.6834 63.3307 75.2354 64.376C74.8087 65.4213 74.5954 66.5627 74.5954 67.8C74.5954 69.0373 74.8087 70.1787 75.2354 71.224C75.6834 72.2693 76.302 73.1867 77.0914 73.976C77.8807 74.744 78.798 75.3413 79.8434 75.768C80.91 76.1947 82.0727 76.408 83.3314 76.408ZM61.6751 118.256C59.9471 118.256 58.3578 117.979 56.9071 117.424C55.4565 116.848 54.1978 116.048 53.1311 115.024C52.0645 113.979 51.2325 112.763 50.6351 111.376C50.0378 109.989 49.7391 108.464 49.7391 106.8C49.7391 105.136 50.0378 103.611 50.6351 102.224C51.2325 100.837 52.0645 99.632 53.1311 98.608C54.2191 97.5627 55.4885 96.7627 56.9391 96.208C58.3898 95.632 59.9898 95.344 61.7391 95.344C63.5098 95.344 65.1311 95.632 66.6031 96.208C68.0751 96.784 69.3231 97.648 70.3471 98.8L68.3631 100.784C67.4458 99.888 66.4431 99.2373 65.3551 98.832C64.2885 98.4053 63.1258 98.192 61.8671 98.192C60.5871 98.192 59.3925 98.4053 58.2831 98.832C57.1951 99.2587 56.2458 99.856 55.4351 100.624C54.6458 101.392 54.0271 102.309 53.5791 103.376C53.1525 104.421 52.9391 105.563 52.9391 106.8C52.9391 108.016 53.1525 109.157 53.5791 110.224C54.0271 111.269 54.6458 112.187 55.4351 112.976C56.2458 113.744 57.1951 114.341 58.2831 114.768C59.3711 115.195 60.5551 115.408 61.8351 115.408C63.0298 115.408 64.1711 115.227 65.2591 114.864C66.3685 114.48 67.3925 113.851 68.3311 112.976L70.1551 115.408C69.0458 116.347 67.7445 117.061 66.2511 117.552C64.7791 118.021 63.2538 118.256 61.6751 118.256ZM67.0831 114.992V106.672H70.1551V115.408L67.0831 114.992ZM86.3939 118.256C84.6872 118.256 83.0979 117.968 81.6259 117.392C80.1752 116.816 78.9165 116.016 77.8499 114.992C76.7832 113.947 75.9512 112.731 75.3539 111.344C74.7565 109.957 74.4579 108.443 74.4579 106.8C74.4579 105.157 74.7565 103.643 75.3539 102.256C75.9512 100.869 76.7832 99.664 77.8499 98.64C78.9165 97.5947 80.1752 96.784 81.6259 96.208C83.0765 95.632 84.6659 95.344 86.3939 95.344C88.1005 95.344 89.6685 95.632 91.0979 96.208C92.5485 96.7627 93.8072 97.5627 94.8739 98.608C95.9619 99.632 96.7939 100.837 97.3699 102.224C97.9672 103.611 98.2659 105.136 98.2659 106.8C98.2659 108.464 97.9672 109.989 97.3699 111.376C96.7939 112.763 95.9619 113.979 94.8739 115.024C93.8072 116.048 92.5485 116.848 91.0979 117.424C89.6685 117.979 88.1005 118.256 86.3939 118.256ZM86.3939 115.408C87.6312 115.408 88.7725 115.195 89.8179 114.768C90.8845 114.341 91.8019 113.744 92.5699 112.976C93.3592 112.187 93.9672 111.269 94.3939 110.224C94.8419 109.179 95.0659 108.037 95.0659 106.8C95.0659 105.563 94.8419 104.421 94.3939 103.376C93.9672 102.331 93.3592 101.424 92.5699 100.656C91.8019 99.8667 90.8845 99.2587 89.8179 98.832C88.7725 98.4053 87.6312 98.192 86.3939 98.192C85.1352 98.192 83.9725 98.4053 82.9059 98.832C81.8605 99.2587 80.9432 99.8667 80.1539 100.656C79.3645 101.424 78.7459 102.331 78.2979 103.376C77.8712 104.421 77.6579 105.563 77.6579 106.8C77.6579 108.037 77.8712 109.179 78.2979 110.224C78.7459 111.269 79.3645 112.187 80.1539 112.976C80.9432 113.744 81.8605 114.341 82.9059 114.768C83.9725 115.195 85.1352 115.408 86.3939 115.408Z" fill="white"/>
<path d="M539.831 964.925H527.056C525.826 964.925 524.83 965.922 524.83 967.15V976.943C524.83 978.464 526.652 979.245 527.754 978.196L527.83 978.124C528.103 977.864 528.466 977.719 528.843 977.719C529.654 977.719 530.311 977.062 530.311 976.251V972.373C530.311 971.144 531.308 970.148 532.537 970.148H539.831C544.859 970.414 548.008 975.062 548.957 977.682C549.223 978.413 550.12 979.323 550.899 979.323C551.478 979.323 551.948 979.792 551.948 980.371V980.955C551.948 981.535 551.478 982.004 550.899 982.004C550.12 982.004 549.223 982.913 548.957 983.645C548.008 986.265 544.859 990.913 539.831 991.179H530.311H527.056C525.826 991.179 524.83 992.175 524.83 993.404V994.318C524.83 995.546 525.826 996.543 527.056 996.543H539.831C546.329 995.67 555.181 990.344 554.545 979.323C553.214 970.293 548.012 965.909 539.831 964.925Z" fill="#FFFFFE" stroke="#FFFFFE"/>
<path d="M513.161 977.964V966.988C513.161 965.759 514.157 964.763 515.387 964.763H517.118C518.347 964.763 519.344 965.759 519.344 966.988V992.412C519.344 994.269 517.191 995.298 515.745 994.132C515.583 994.002 515.403 993.895 515.21 993.814L514.528 993.529C513.7 993.183 513.161 992.374 513.161 991.476V977.964Z" fill="#FFFFFE" stroke="#FFFFFE"/>
<path d="M438.47 1029V1019.2H442.6C443.645 1019.2 444.565 1019.41 445.358 1019.82C446.161 1020.23 446.781 1020.8 447.22 1021.54C447.668 1022.28 447.892 1023.13 447.892 1024.1C447.892 1025.07 447.668 1025.92 447.22 1026.66C446.781 1027.4 446.161 1027.97 445.358 1028.38C444.565 1028.79 443.645 1029 442.6 1029H438.47ZM439.87 1027.78H442.516C443.328 1027.78 444.028 1027.63 444.616 1027.32C445.213 1027.01 445.675 1026.58 446.002 1026.03C446.329 1025.47 446.492 1024.83 446.492 1024.1C446.492 1023.36 446.329 1022.72 446.002 1022.17C445.675 1021.62 445.213 1021.19 444.616 1020.88C444.028 1020.57 443.328 1020.42 442.516 1020.42H439.87V1027.78ZM453.144 1029.08C452.351 1029.08 451.651 1028.92 451.044 1028.59C450.447 1028.27 449.98 1027.82 449.644 1027.25C449.318 1026.68 449.154 1026.03 449.154 1025.29C449.154 1024.55 449.313 1023.9 449.63 1023.33C449.957 1022.76 450.4 1022.32 450.96 1022C451.53 1021.67 452.169 1021.51 452.878 1021.51C453.597 1021.51 454.232 1021.67 454.782 1021.99C455.333 1022.3 455.762 1022.75 456.07 1023.33C456.388 1023.9 456.546 1024.57 456.546 1025.33C456.546 1025.39 456.542 1025.45 456.532 1025.53C456.532 1025.6 456.528 1025.67 456.518 1025.74H450.204V1024.77H455.818L455.272 1025.11C455.282 1024.63 455.184 1024.21 454.978 1023.83C454.773 1023.46 454.488 1023.17 454.124 1022.97C453.77 1022.75 453.354 1022.64 452.878 1022.64C452.412 1022.64 451.996 1022.75 451.632 1022.97C451.268 1023.17 450.984 1023.47 450.778 1023.85C450.573 1024.22 450.47 1024.65 450.47 1025.14V1025.36C450.47 1025.85 450.582 1026.3 450.806 1026.69C451.04 1027.07 451.362 1027.37 451.772 1027.59C452.183 1027.8 452.654 1027.91 453.186 1027.91C453.625 1027.91 454.022 1027.83 454.376 1027.68C454.74 1027.53 455.058 1027.31 455.328 1027.01L456.07 1027.88C455.734 1028.27 455.314 1028.57 454.81 1028.78C454.316 1028.98 453.76 1029.08 453.144 1029.08ZM460.541 1029.08C459.925 1029.08 459.337 1029 458.777 1028.83C458.226 1028.66 457.792 1028.46 457.475 1028.22L458.035 1027.15C458.352 1027.37 458.744 1027.55 459.211 1027.7C459.677 1027.85 460.153 1027.92 460.639 1027.92C461.264 1027.92 461.712 1027.83 461.983 1027.66C462.263 1027.48 462.403 1027.23 462.403 1026.91C462.403 1026.68 462.319 1026.5 462.151 1026.37C461.983 1026.24 461.759 1026.14 461.479 1026.07C461.208 1026.01 460.905 1025.95 460.569 1025.91C460.233 1025.85 459.897 1025.78 459.561 1025.71C459.225 1025.63 458.917 1025.51 458.637 1025.37C458.357 1025.22 458.133 1025.02 457.965 1024.77C457.797 1024.51 457.713 1024.17 457.713 1023.74C457.713 1023.29 457.839 1022.9 458.091 1022.56C458.343 1022.22 458.697 1021.97 459.155 1021.79C459.621 1021.6 460.172 1021.51 460.807 1021.51C461.292 1021.51 461.782 1021.57 462.277 1021.69C462.781 1021.8 463.191 1021.97 463.509 1022.18L462.935 1023.25C462.599 1023.02 462.249 1022.87 461.885 1022.78C461.521 1022.7 461.157 1022.66 460.793 1022.66C460.205 1022.66 459.766 1022.76 459.477 1022.95C459.187 1023.14 459.043 1023.38 459.043 1023.68C459.043 1023.93 459.127 1024.13 459.295 1024.27C459.472 1024.4 459.696 1024.5 459.967 1024.58C460.247 1024.65 460.555 1024.72 460.891 1024.77C461.227 1024.82 461.563 1024.88 461.899 1024.97C462.235 1025.04 462.538 1025.15 462.809 1025.29C463.089 1025.43 463.313 1025.63 463.481 1025.88C463.658 1026.13 463.747 1026.47 463.747 1026.89C463.747 1027.33 463.616 1027.72 463.355 1028.05C463.093 1028.37 462.725 1028.63 462.249 1028.82C461.773 1029 461.203 1029.08 460.541 1029.08ZM465.426 1029V1021.58H466.77V1029H465.426ZM466.098 1020.15C465.837 1020.15 465.618 1020.07 465.44 1019.9C465.272 1019.73 465.188 1019.53 465.188 1019.28C465.188 1019.03 465.272 1018.82 465.44 1018.65C465.618 1018.49 465.837 1018.4 466.098 1018.4C466.36 1018.4 466.574 1018.49 466.742 1018.65C466.92 1018.81 467.008 1019.01 467.008 1019.26C467.008 1019.51 466.924 1019.72 466.756 1019.9C466.588 1020.07 466.369 1020.15 466.098 1020.15ZM472.585 1031.8C471.903 1031.8 471.241 1031.7 470.597 1031.51C469.962 1031.32 469.444 1031.05 469.043 1030.69L469.687 1029.66C470.032 1029.96 470.457 1030.19 470.961 1030.36C471.465 1030.54 471.992 1030.62 472.543 1030.62C473.42 1030.62 474.064 1030.42 474.475 1030.01C474.885 1029.6 475.091 1028.97 475.091 1028.13V1026.56L475.231 1025.09L475.161 1023.61V1021.58H476.435V1027.99C476.435 1029.3 476.108 1030.26 475.454 1030.88C474.801 1031.49 473.845 1031.8 472.585 1031.8ZM472.417 1028.69C471.698 1028.69 471.054 1028.54 470.485 1028.24C469.925 1027.94 469.477 1027.51 469.141 1026.97C468.814 1026.43 468.651 1025.8 468.651 1025.09C468.651 1024.38 468.814 1023.75 469.141 1023.22C469.477 1022.68 469.925 1022.26 470.485 1021.96C471.054 1021.66 471.698 1021.51 472.417 1021.51C473.051 1021.51 473.63 1021.64 474.153 1021.9C474.675 1022.15 475.091 1022.55 475.399 1023.08C475.716 1023.61 475.875 1024.28 475.875 1025.09C475.875 1025.9 475.716 1026.56 475.399 1027.1C475.091 1027.63 474.675 1028.03 474.153 1028.3C473.63 1028.56 473.051 1028.69 472.417 1028.69ZM472.571 1027.52C473.065 1027.52 473.504 1027.41 473.887 1027.21C474.269 1027 474.568 1026.72 474.783 1026.35C475.007 1025.99 475.119 1025.57 475.119 1025.09C475.119 1024.62 475.007 1024.2 474.783 1023.83C474.568 1023.47 474.269 1023.19 473.887 1022.99C473.504 1022.79 473.065 1022.69 472.571 1022.69C472.076 1022.69 471.633 1022.79 471.241 1022.99C470.858 1023.19 470.555 1023.47 470.331 1023.83C470.116 1024.2 470.009 1024.62 470.009 1025.09C470.009 1025.57 470.116 1025.99 470.331 1026.35C470.555 1026.72 470.858 1027 471.241 1027.21C471.633 1027.41 472.076 1027.52 472.571 1027.52ZM482.965 1021.51C483.571 1021.51 484.103 1021.63 484.561 1021.86C485.027 1022.09 485.391 1022.45 485.653 1022.92C485.914 1023.4 486.045 1024 486.045 1024.73V1029H484.701V1024.88C484.701 1024.17 484.523 1023.62 484.169 1023.26C483.823 1022.9 483.333 1022.71 482.699 1022.71C482.223 1022.71 481.807 1022.81 481.453 1022.99C481.098 1023.18 480.823 1023.46 480.627 1023.82C480.44 1024.18 480.347 1024.64 480.347 1025.18V1029H479.003V1021.58H480.291V1023.58L480.081 1023.05C480.323 1022.56 480.697 1022.19 481.201 1021.92C481.705 1021.65 482.293 1021.51 482.965 1021.51ZM496.226 1029.08C495.591 1029.08 495.017 1028.94 494.504 1028.66C494 1028.37 493.598 1027.95 493.3 1027.39C493.01 1026.83 492.866 1026.13 492.866 1025.29C492.866 1024.45 493.015 1023.75 493.314 1023.19C493.622 1022.63 494.028 1022.21 494.532 1021.93C495.045 1021.65 495.61 1021.51 496.226 1021.51C496.954 1021.51 497.598 1021.67 498.158 1021.99C498.718 1022.3 499.161 1022.75 499.488 1023.32C499.814 1023.88 499.978 1024.53 499.978 1025.29C499.978 1026.05 499.814 1026.71 499.488 1027.28C499.161 1027.85 498.718 1028.29 498.158 1028.61C497.598 1028.93 496.954 1029.08 496.226 1029.08ZM492.292 1029V1018.61H493.636V1023.55L493.496 1025.28L493.58 1027V1029H492.292ZM496.114 1027.91C496.59 1027.91 497.014 1027.8 497.388 1027.59C497.77 1027.37 498.069 1027.07 498.284 1026.68C498.508 1026.27 498.62 1025.81 498.62 1025.29C498.62 1024.76 498.508 1024.3 498.284 1023.92C498.069 1023.53 497.77 1023.22 497.388 1023.01C497.014 1022.79 496.59 1022.69 496.114 1022.69C495.647 1022.69 495.222 1022.79 494.84 1023.01C494.466 1023.22 494.168 1023.53 493.944 1023.92C493.729 1024.3 493.622 1024.76 493.622 1025.29C493.622 1025.81 493.729 1026.27 493.944 1026.68C494.168 1027.07 494.466 1027.37 494.84 1027.59C495.222 1027.8 495.647 1027.91 496.114 1027.91ZM501.951 1031.8C501.597 1031.8 501.251 1031.74 500.915 1031.62C500.579 1031.51 500.29 1031.34 500.047 1031.11L500.621 1030.11C500.808 1030.28 501.013 1030.42 501.237 1030.51C501.461 1030.61 501.699 1030.65 501.951 1030.65C502.278 1030.65 502.549 1030.57 502.763 1030.4C502.978 1030.23 503.179 1029.93 503.365 1029.5L503.827 1028.48L503.967 1028.31L506.879 1021.58H508.195L504.597 1029.74C504.383 1030.26 504.14 1030.68 503.869 1030.97C503.608 1031.27 503.319 1031.48 503.001 1031.6C502.684 1031.73 502.334 1031.8 501.951 1031.8ZM503.715 1029.24L500.327 1021.58H501.727L504.611 1028.19L503.715 1029.24ZM509.867 1023.43C509.606 1023.43 509.382 1023.34 509.195 1023.16C509.009 1022.98 508.915 1022.74 508.915 1022.46C508.915 1022.18 509.009 1021.95 509.195 1021.78C509.382 1021.6 509.606 1021.51 509.867 1021.51C510.119 1021.51 510.334 1021.6 510.511 1021.78C510.698 1021.95 510.791 1022.18 510.791 1022.46C510.791 1022.74 510.698 1022.98 510.511 1023.16C510.334 1023.34 510.119 1023.43 509.867 1023.43ZM509.867 1029.08C509.606 1029.08 509.382 1029 509.195 1028.82C509.009 1028.63 508.915 1028.4 508.915 1028.12C508.915 1027.84 509.009 1027.61 509.195 1027.43C509.382 1027.25 509.606 1027.17 509.867 1027.17C510.119 1027.17 510.334 1027.25 510.511 1027.43C510.698 1027.61 510.791 1027.84 510.791 1028.12C510.791 1028.4 510.698 1028.63 510.511 1028.82C510.334 1029 510.119 1029.08 509.867 1029.08ZM522.427 1031.83C521.456 1031.83 520.57 1031.67 519.767 1031.35C518.964 1031.03 518.274 1030.59 517.695 1030.02C517.116 1029.45 516.668 1028.78 516.351 1028.01C516.034 1027.22 515.875 1026.37 515.875 1025.44C515.875 1024.52 516.034 1023.67 516.351 1022.9C516.668 1022.12 517.116 1021.45 517.695 1020.88C518.283 1020.31 518.983 1019.87 519.795 1019.56C520.607 1019.26 521.503 1019.1 522.483 1019.1C523.444 1019.1 524.322 1019.25 525.115 1019.55C525.908 1019.85 526.594 1020.27 527.173 1020.82C527.761 1021.37 528.214 1022.01 528.531 1022.77C528.848 1023.52 529.007 1024.34 529.007 1025.25C529.007 1026.04 528.909 1026.72 528.713 1027.29C528.517 1027.86 528.232 1028.3 527.859 1028.62C527.495 1028.93 527.047 1029.08 526.515 1029.08C525.992 1029.08 525.572 1028.93 525.255 1028.61C524.947 1028.29 524.793 1027.84 524.793 1027.25V1026.3L524.863 1025.44L524.737 1023.83V1021.97H525.955V1027.01C525.955 1027.39 526.03 1027.65 526.179 1027.8C526.338 1027.95 526.529 1028.02 526.753 1028.02C527.024 1028.02 527.257 1027.91 527.453 1027.7C527.658 1027.48 527.808 1027.17 527.901 1026.76C528.004 1026.34 528.055 1025.84 528.055 1025.26C528.055 1024.48 527.92 1023.77 527.649 1023.13C527.388 1022.49 527.005 1021.93 526.501 1021.47C526.006 1021 525.418 1020.65 524.737 1020.4C524.065 1020.15 523.314 1020.03 522.483 1020.03C521.652 1020.03 520.892 1020.16 520.201 1020.43C519.52 1020.69 518.932 1021.07 518.437 1021.55C517.942 1022.03 517.56 1022.6 517.289 1023.26C517.028 1023.92 516.897 1024.65 516.897 1025.44C516.897 1026.25 517.028 1026.98 517.289 1027.66C517.55 1028.32 517.924 1028.89 518.409 1029.36C518.904 1029.85 519.487 1030.22 520.159 1030.48C520.84 1030.75 521.596 1030.89 522.427 1030.89C522.856 1030.89 523.309 1030.84 523.785 1030.74C524.261 1030.64 524.709 1030.49 525.129 1030.27L525.437 1031.17C525.008 1031.38 524.522 1031.55 523.981 1031.66C523.44 1031.77 522.922 1031.83 522.427 1031.83ZM522.175 1029.08C521.512 1029.08 520.924 1028.93 520.411 1028.62C519.898 1028.3 519.492 1027.88 519.193 1027.33C518.894 1026.79 518.745 1026.18 518.745 1025.49C518.745 1024.79 518.894 1024.17 519.193 1023.64C519.492 1023.1 519.898 1022.68 520.411 1022.38C520.924 1022.07 521.512 1021.92 522.175 1021.92C522.819 1021.92 523.384 1022.06 523.869 1022.34C524.354 1022.61 524.732 1023.01 525.003 1023.54C525.283 1024.07 525.423 1024.72 525.423 1025.49C525.423 1026.25 525.288 1026.9 525.017 1027.43C524.746 1027.96 524.368 1028.37 523.883 1028.66C523.398 1028.94 522.828 1029.08 522.175 1029.08ZM522.371 1027.99C522.828 1027.99 523.234 1027.89 523.589 1027.7C523.953 1027.49 524.238 1027.2 524.443 1026.83C524.658 1026.45 524.765 1026 524.765 1025.49C524.765 1024.96 524.658 1024.52 524.443 1024.14C524.238 1023.77 523.953 1023.48 523.589 1023.29C523.234 1023.09 522.828 1022.99 522.371 1022.99C521.904 1022.99 521.489 1023.1 521.125 1023.3C520.77 1023.5 520.49 1023.78 520.285 1024.16C520.089 1024.53 519.991 1024.97 519.991 1025.49C519.991 1025.99 520.089 1026.43 520.285 1026.8C520.49 1027.18 520.77 1027.47 521.125 1027.68C521.489 1027.89 521.904 1027.99 522.371 1027.99ZM529.258 1029.87V1029H536.258V1029.87H529.258ZM537.532 1029V1021.58H538.876V1029H537.532ZM538.204 1020.15C537.942 1020.15 537.723 1020.07 537.546 1019.9C537.378 1019.73 537.294 1019.53 537.294 1019.28C537.294 1019.03 537.378 1018.82 537.546 1018.65C537.723 1018.49 537.942 1018.4 538.204 1018.4C538.465 1018.4 538.68 1018.49 538.848 1018.65C539.025 1018.81 539.114 1019.01 539.114 1019.26C539.114 1019.51 539.03 1019.72 538.862 1019.9C538.694 1020.07 538.474 1020.15 538.204 1020.15ZM545.376 1029.08C544.741 1029.08 544.167 1028.94 543.654 1028.66C543.15 1028.37 542.749 1027.95 542.45 1027.39C542.161 1026.83 542.016 1026.13 542.016 1025.29C542.016 1024.45 542.165 1023.75 542.464 1023.19C542.772 1022.63 543.178 1022.21 543.682 1021.93C544.195 1021.65 544.76 1021.51 545.376 1021.51C546.104 1021.51 546.748 1021.67 547.308 1021.99C547.868 1022.3 548.311 1022.75 548.638 1023.32C548.965 1023.88 549.128 1024.53 549.128 1025.29C549.128 1026.05 548.965 1026.71 548.638 1027.28C548.311 1027.85 547.868 1028.29 547.308 1028.61C546.748 1028.93 546.104 1029.08 545.376 1029.08ZM541.442 1029V1018.61H542.786V1023.55L542.646 1025.28L542.73 1027V1029H541.442ZM545.264 1027.91C545.74 1027.91 546.165 1027.8 546.538 1027.59C546.921 1027.37 547.219 1027.07 547.434 1026.68C547.658 1026.27 547.77 1025.81 547.77 1025.29C547.77 1024.76 547.658 1024.3 547.434 1023.92C547.219 1023.53 546.921 1023.22 546.538 1023.01C546.165 1022.79 545.74 1022.69 545.264 1022.69C544.797 1022.69 544.373 1022.79 543.99 1023.01C543.617 1023.22 543.318 1023.53 543.094 1023.92C542.879 1024.3 542.772 1024.76 542.772 1025.29C542.772 1025.81 542.879 1026.27 543.094 1026.68C543.318 1027.07 543.617 1027.37 543.99 1027.59C544.373 1027.8 544.797 1027.91 545.264 1027.91ZM554.947 1021.51C555.554 1021.51 556.086 1021.63 556.543 1021.86C557.01 1022.09 557.374 1022.45 557.635 1022.92C557.896 1023.4 558.027 1024 558.027 1024.73V1029H556.683V1024.88C556.683 1024.17 556.506 1023.62 556.151 1023.26C555.806 1022.9 555.316 1022.71 554.681 1022.71C554.205 1022.71 553.79 1022.81 553.435 1022.99C553.08 1023.18 552.805 1023.46 552.609 1023.82C552.422 1024.18 552.329 1024.64 552.329 1025.18V1029H550.985V1021.58H552.273V1023.58L552.063 1023.05C552.306 1022.56 552.679 1022.19 553.183 1021.92C553.687 1021.65 554.275 1021.51 554.947 1021.51ZM563.636 1029.08C563.002 1029.08 562.442 1028.97 561.956 1028.73C561.48 1028.5 561.107 1028.15 560.836 1027.67C560.575 1027.18 560.444 1026.58 560.444 1025.85V1021.58H561.788V1025.7C561.788 1026.42 561.961 1026.97 562.306 1027.33C562.661 1027.7 563.156 1027.88 563.79 1027.88C564.257 1027.88 564.663 1027.79 565.008 1027.6C565.354 1027.4 565.62 1027.12 565.806 1026.76C565.993 1026.39 566.086 1025.94 566.086 1025.42V1021.58H567.43V1029H566.156V1027L566.366 1027.53C566.124 1028.02 565.76 1028.41 565.274 1028.68C564.789 1028.95 564.243 1029.08 563.636 1029.08ZM573.111 1029.08C572.476 1029.08 571.916 1028.97 571.431 1028.73C570.955 1028.5 570.582 1028.15 570.311 1027.67C570.05 1027.18 569.919 1026.58 569.919 1025.85V1021.58H571.263V1025.7C571.263 1026.42 571.436 1026.97 571.781 1027.33C572.136 1027.7 572.63 1027.88 573.265 1027.88C573.732 1027.88 574.138 1027.79 574.483 1027.6C574.828 1027.4 575.094 1027.12 575.281 1026.76C575.468 1026.39 575.561 1025.94 575.561 1025.42V1021.58H576.905V1029H575.631V1027L575.841 1027.53C575.598 1028.02 575.234 1028.41 574.749 1028.68C574.264 1028.95 573.718 1029.08 573.111 1029.08ZM582.585 1029.08C581.951 1029.08 581.391 1028.97 580.905 1028.73C580.429 1028.5 580.056 1028.15 579.785 1027.67C579.524 1027.18 579.393 1026.58 579.393 1025.85V1021.58H580.737V1025.7C580.737 1026.42 580.91 1026.97 581.255 1027.33C581.61 1027.7 582.105 1027.88 582.739 1027.88C583.206 1027.88 583.612 1027.79 583.957 1027.6C584.303 1027.4 584.569 1027.12 584.755 1026.76C584.942 1026.39 585.035 1025.94 585.035 1025.42V1021.58H586.379V1029H585.105V1027L585.315 1027.53C585.073 1028.02 584.709 1028.41 584.223 1028.68C583.738 1028.95 583.192 1029.08 582.585 1029.08ZM592.004 1029.08C591.285 1029.08 590.641 1028.93 590.072 1028.61C589.512 1028.29 589.069 1027.85 588.742 1027.28C588.415 1026.71 588.252 1026.05 588.252 1025.29C588.252 1024.53 588.415 1023.88 588.742 1023.32C589.069 1022.75 589.512 1022.3 590.072 1021.99C590.641 1021.67 591.285 1021.51 592.004 1021.51C592.629 1021.51 593.194 1021.65 593.698 1021.93C594.202 1022.21 594.603 1022.63 594.902 1023.19C595.21 1023.75 595.364 1024.45 595.364 1025.29C595.364 1026.13 595.215 1026.83 594.916 1027.39C594.627 1027.95 594.23 1028.37 593.726 1028.66C593.222 1028.94 592.648 1029.08 592.004 1029.08ZM592.116 1027.91C592.583 1027.91 593.003 1027.8 593.376 1027.59C593.759 1027.37 594.057 1027.07 594.272 1026.68C594.496 1026.27 594.608 1025.81 594.608 1025.29C594.608 1024.76 594.496 1024.3 594.272 1023.92C594.057 1023.53 593.759 1023.22 593.376 1023.01C593.003 1022.79 592.583 1022.69 592.116 1022.69C591.64 1022.69 591.215 1022.79 590.842 1023.01C590.469 1023.22 590.17 1023.53 589.946 1023.92C589.722 1024.3 589.61 1024.76 589.61 1025.29C589.61 1025.81 589.722 1026.27 589.946 1026.68C590.17 1027.07 590.469 1027.37 590.842 1027.59C591.215 1027.8 591.64 1027.91 592.116 1027.91ZM594.65 1029V1027L594.734 1025.28L594.594 1023.55V1018.61H595.938V1029H594.65ZM601.785 1029.08C600.992 1029.08 600.292 1028.92 599.685 1028.59C599.088 1028.27 598.621 1027.82 598.285 1027.25C597.958 1026.68 597.795 1026.03 597.795 1025.29C597.795 1024.55 597.954 1023.9 598.271 1023.33C598.598 1022.76 599.041 1022.32 599.601 1022C600.17 1021.67 600.81 1021.51 601.519 1021.51C602.238 1021.51 602.872 1021.67 603.423 1021.99C603.974 1022.3 604.403 1022.75 604.711 1023.33C605.028 1023.9 605.187 1024.57 605.187 1025.33C605.187 1025.39 605.182 1025.45 605.173 1025.53C605.173 1025.6 605.168 1025.67 605.159 1025.74H598.845V1024.77H604.459L603.913 1025.11C603.922 1024.63 603.824 1024.21 603.619 1023.83C603.414 1023.46 603.129 1023.17 602.765 1022.97C602.41 1022.75 601.995 1022.64 601.519 1022.64C601.052 1022.64 600.637 1022.75 600.273 1022.97C599.909 1023.17 599.624 1023.47 599.419 1023.85C599.214 1024.22 599.111 1024.65 599.111 1025.14V1025.36C599.111 1025.85 599.223 1026.3 599.447 1026.69C599.68 1027.07 600.002 1027.37 600.413 1027.59C600.824 1027.8 601.295 1027.91 601.827 1027.91C602.266 1027.91 602.662 1027.83 603.017 1027.68C603.381 1027.53 603.698 1027.31 603.969 1027.01L604.711 1027.88C604.375 1028.27 603.955 1028.57 603.451 1028.78C602.956 1028.98 602.401 1029.08 601.785 1029.08ZM609.181 1029.08C608.565 1029.08 607.977 1029 607.417 1028.83C606.867 1028.66 606.433 1028.46 606.115 1028.22L606.675 1027.15C606.993 1027.37 607.385 1027.55 607.851 1027.7C608.318 1027.85 608.794 1027.92 609.279 1027.92C609.905 1027.92 610.353 1027.83 610.623 1027.66C610.903 1027.48 611.043 1027.23 611.043 1026.91C611.043 1026.68 610.959 1026.5 610.791 1026.37C610.623 1026.24 610.399 1026.14 610.119 1026.07C609.849 1026.01 609.545 1025.95 609.209 1025.91C608.873 1025.85 608.537 1025.78 608.201 1025.71C607.865 1025.63 607.557 1025.51 607.277 1025.37C606.997 1025.22 606.773 1025.02 606.605 1024.77C606.437 1024.51 606.353 1024.17 606.353 1023.74C606.353 1023.29 606.479 1022.9 606.731 1022.56C606.983 1022.22 607.338 1021.97 607.795 1021.79C608.262 1021.6 608.813 1021.51 609.447 1021.51C609.933 1021.51 610.423 1021.57 610.917 1021.69C611.421 1021.8 611.832 1021.97 612.149 1022.18L611.575 1023.25C611.239 1023.02 610.889 1022.87 610.525 1022.78C610.161 1022.7 609.797 1022.66 609.433 1022.66C608.845 1022.66 608.407 1022.76 608.117 1022.95C607.828 1023.14 607.683 1023.38 607.683 1023.68C607.683 1023.93 607.767 1024.13 607.935 1024.27C608.113 1024.4 608.337 1024.5 608.607 1024.58C608.887 1024.65 609.195 1024.72 609.531 1024.77C609.867 1024.82 610.203 1024.88 610.539 1024.97C610.875 1025.04 611.179 1025.15 611.449 1025.29C611.729 1025.43 611.953 1025.63 612.121 1025.88C612.299 1026.13 612.387 1026.47 612.387 1026.89C612.387 1027.33 612.257 1027.72 611.995 1028.05C611.734 1028.37 611.365 1028.63 610.889 1028.82C610.413 1029 609.844 1029.08 609.181 1029.08ZM614.067 1029V1021.58H615.411V1029H614.067ZM614.739 1020.15C614.478 1020.15 614.258 1020.07 614.081 1019.9C613.913 1019.73 613.829 1019.53 613.829 1019.28C613.829 1019.03 613.913 1018.82 614.081 1018.65C614.258 1018.49 614.478 1018.4 614.739 1018.4C615 1018.4 615.215 1018.49 615.383 1018.65C615.56 1018.81 615.649 1019.01 615.649 1019.26C615.649 1019.51 615.565 1019.72 615.397 1019.9C615.229 1020.07 615.01 1020.15 614.739 1020.15ZM621.225 1031.8C620.544 1031.8 619.881 1031.7 619.237 1031.51C618.602 1031.32 618.084 1031.05 617.683 1030.69L618.327 1029.66C618.672 1029.96 619.097 1030.19 619.601 1030.36C620.105 1030.54 620.632 1030.62 621.183 1030.62C622.06 1030.62 622.704 1030.42 623.115 1030.01C623.526 1029.6 623.731 1028.97 623.731 1028.13V1026.56L623.871 1025.09L623.801 1023.61V1021.58H625.075V1027.99C625.075 1029.3 624.748 1030.26 624.095 1030.88C623.442 1031.49 622.485 1031.8 621.225 1031.8ZM621.057 1028.69C620.338 1028.69 619.694 1028.54 619.125 1028.24C618.565 1027.94 618.117 1027.51 617.781 1026.97C617.454 1026.43 617.291 1025.8 617.291 1025.09C617.291 1024.38 617.454 1023.75 617.781 1023.22C618.117 1022.68 618.565 1022.26 619.125 1021.96C619.694 1021.66 620.338 1021.51 621.057 1021.51C621.692 1021.51 622.27 1021.64 622.793 1021.9C623.316 1022.15 623.731 1022.55 624.039 1023.08C624.356 1023.61 624.515 1024.28 624.515 1025.09C624.515 1025.9 624.356 1026.56 624.039 1027.1C623.731 1027.63 623.316 1028.03 622.793 1028.3C622.27 1028.56 621.692 1028.69 621.057 1028.69ZM621.211 1027.52C621.706 1027.52 622.144 1027.41 622.527 1027.21C622.91 1027 623.208 1026.72 623.423 1026.35C623.647 1025.99 623.759 1025.57 623.759 1025.09C623.759 1024.62 623.647 1024.2 623.423 1023.83C623.208 1023.47 622.91 1023.19 622.527 1022.99C622.144 1022.79 621.706 1022.69 621.211 1022.69C620.716 1022.69 620.273 1022.79 619.881 1022.99C619.498 1023.19 619.195 1023.47 618.971 1023.83C618.756 1024.2 618.649 1024.62 618.649 1025.09C618.649 1025.57 618.756 1025.99 618.971 1026.35C619.195 1026.72 619.498 1027 619.881 1027.21C620.273 1027.41 620.716 1027.52 621.211 1027.52ZM631.605 1021.51C632.212 1021.51 632.744 1021.63 633.201 1021.86C633.668 1022.09 634.032 1022.45 634.293 1022.92C634.554 1023.4 634.685 1024 634.685 1024.73V1029H633.341V1024.88C633.341 1024.17 633.164 1023.62 632.809 1023.26C632.464 1022.9 631.974 1022.71 631.339 1022.71C630.863 1022.71 630.448 1022.81 630.093 1022.99C629.738 1023.18 629.463 1023.46 629.267 1023.82C629.08 1024.18 628.987 1024.64 628.987 1025.18V1029H627.643V1021.58H628.931V1023.58L628.721 1023.05C628.964 1022.56 629.337 1022.19 629.841 1021.92C630.345 1021.65 630.933 1021.51 631.605 1021.51ZM635.898 1029.87V1029H642.898V1029.87H635.898Z" fill="#FFFFFE"/>
</svg>
