<svg width="1080" height="1080" viewBox="0 0 1080 1080" fill="none" xmlns="http://www.w3.org/2000/svg">
<path d="M558.976 596.239H573.727V566.927H558.976V596.239Z" fill="#FFFFFE"/>
<path d="M538.419 472.708V667.617H573.727V596.239H558.976V566.927H573.727V502.211H606.085C614.904 502.211 622.105 503.511 627.689 506.113C633.272 508.651 637.428 512.394 640.157 517.343C642.885 522.228 644.249 528.129 644.249 535.045C644.249 541.96 642.885 547.797 640.157 552.556C637.492 557.251 633.367 560.836 627.784 563.31C622.201 565.721 615.031 566.927 606.276 566.927H573.727V596.239H609.656L600.565 579.299H639.11L645.203 590.453C646.472 589.941 647.708 589.396 648.912 588.816C659.191 583.804 666.962 576.729 672.228 567.593C677.558 558.393 680.222 547.544 680.222 535.045C680.222 522.609 677.589 511.728 672.323 502.401C667.121 493.011 659.413 485.714 649.198 480.512C639.046 475.309 626.483 472.708 611.51 472.708H538.419Z" fill="#FFFFFE"/>
<path d="M647.961 667.617H687.36L645.203 590.453C635.644 594.311 624.254 596.239 611.034 596.239H609.656L647.961 667.617Z" fill="#FFFFFE"/>
<path d="M639.11 579.299H600.565L609.656 596.239H611.034C624.254 596.239 635.644 594.311 645.203 590.453L639.11 579.299Z" fill="#FFFFFE"/>
<path d="M393.611 472.708H428.919V667.617H393.611V632.824V472.708Z" fill="#FFFFFE"/>
<path d="M238.554 591.195L248.083 619.556H262.709V591.195H238.554Z" fill="#FFFFFE"/>
<path d="M121 667.617H158.688L174.806 619.556H159.925V591.195H184.318L210.651 512.679H212.173L238.554 591.195H262.709V619.556H248.083L264.231 667.617H301.919L232.871 472.708L189.618 472.708L121 667.617Z" fill="#FFFFFE"/>
<path d="M159.925 591.195V619.556H174.806L184.318 591.195H159.925Z" fill="#FFFFFE"/>
<path d="M248.083 619.556L238.554 591.195H184.318L174.806 619.556H248.083Z" fill="#FFFFFE"/>
<path d="M431.801 139.754C429.157 141.752 428.635 145.515 430.633 148.158C432.632 150.801 436.395 151.324 439.038 149.325L431.801 139.754ZM558.976 86.5394L564.87 85.4161L558.976 86.5394ZM538.419 154.539L532.443 154.008L532.419 154.273V154.539H538.419ZM538.419 667.617H532.419V673.617H538.419V667.617ZM649.198 480.512L646.461 485.851L646.468 485.855L646.475 485.858L649.198 480.512ZM672.323 502.401L667.075 505.309L667.087 505.33L667.099 505.351L672.323 502.401ZM672.228 567.593L667.037 564.585L667.03 564.597L672.228 567.593ZM648.912 588.816L651.515 594.222L651.528 594.215L651.541 594.209L648.912 588.816ZM558.976 596.239H552.976V602.239H558.976V596.239ZM558.976 566.927V560.927H552.976V566.927H558.976ZM627.784 563.31L630.163 568.818L630.189 568.807L630.215 568.796L627.784 563.31ZM640.157 552.556L634.951 549.572L634.945 549.583L634.939 549.594L640.157 552.556ZM640.157 517.343L634.902 520.24L634.91 520.254L634.918 520.268L640.157 517.343ZM627.689 506.113L625.155 511.551L625.18 511.563L625.206 511.575L627.689 506.113ZM573.727 502.211V496.211H567.727V502.211H573.727ZM573.727 667.617V673.617H579.727V667.617H573.727ZM639.11 579.299L644.375 576.422L642.669 573.299H639.11V579.299ZM687.36 667.617V673.617H697.475L692.625 664.74L687.36 667.617ZM647.961 667.617L642.674 670.454L644.371 673.617H647.961V667.617ZM600.565 579.299V573.299H590.536L595.278 582.136L600.565 579.299ZM698.419 942.552L694.064 946.679L694.141 946.76L694.22 946.837L698.419 942.552ZM814.5 699.5L820.261 697.822L820.208 697.643L820.145 697.468L814.5 699.5ZM876.004 960.618C873.279 962.504 872.6 966.242 874.486 968.966C876.372 971.691 880.11 972.37 882.834 970.484L876.004 960.618ZM158.688 667.617V673.617H163.004L164.376 669.525L158.688 667.617ZM121 667.617L115.34 665.624L112.527 673.617H121V667.617ZM189.618 472.708L189.618 466.708L185.369 466.708L183.958 470.715L189.618 472.708ZM232.871 472.708L238.526 470.704L238.172 469.703L237.495 468.885L232.871 472.708ZM301.919 667.617V673.617H310.41L307.575 665.613L301.919 667.617ZM264.231 667.617L258.544 669.528L259.918 673.617H264.231V667.617ZM212.173 512.679L217.861 510.768L216.487 506.679H212.173V512.679ZM210.651 512.679V506.679H206.334L204.962 510.772L210.651 512.679ZM159.925 591.195V585.195H153.925V591.195H159.925ZM262.709 591.195H268.709V585.195H262.709V591.195ZM262.709 619.556V625.556H268.709V619.556H262.709ZM159.925 619.556H153.925V625.556H159.925V619.556ZM393.611 667.617H387.611V673.617H393.611V667.617ZM393.611 472.708V466.708H387.611V472.708H393.611ZM653.607 260.931C651.36 258.496 647.564 258.343 645.129 260.591C642.693 262.838 642.541 266.634 644.788 269.069L653.607 260.931ZM879.142 989.076L882.661 993.935L879.142 989.076ZM887.577 981.837L882.84 978.154L887.577 981.837ZM891.503 974.147L885.742 972.47L891.503 974.147ZM253.859 269.825L253.039 263.882L253.859 269.825ZM273.352 281.006L277.819 277L273.352 281.006ZM262.588 271.073L265.041 265.597L262.588 271.073ZM422.788 447.662L427.255 443.656L422.788 447.662ZM426.998 452.896L421.767 455.833L426.998 452.896ZM428.56 456.977L422.704 458.282L428.56 456.977ZM813.699 352.656L807.703 352.451L813.699 352.656ZM812.262 326.79L806.806 329.288L812.262 326.79ZM803.251 316.892L800.253 322.089L803.251 316.892ZM439.038 149.325C459.616 133.767 477.146 119.586 491.882 107.846C506.715 96.0283 518.539 86.8325 527.99 80.9322C532.706 77.988 536.583 76.0253 539.752 74.9532C542.942 73.8741 544.928 73.8628 546.151 74.1838C548.002 74.6697 551.035 76.9233 553.082 87.6628L564.87 85.4161C562.737 74.2264 558.485 65.0154 549.198 62.5771C544.852 61.436 540.306 62.0977 535.906 63.5861C531.486 65.0816 526.716 67.581 521.635 70.7529C511.493 77.0849 499.119 86.7376 484.405 98.4603C469.592 110.261 452.223 124.312 431.801 139.754L439.038 149.325ZM553.082 87.6628C553.512 89.9194 553.047 93.9727 551.374 99.8724C549.77 105.528 547.329 111.991 544.668 118.65C542.06 125.177 539.181 132.03 536.947 137.96C534.764 143.755 532.839 149.554 532.443 154.008L544.395 155.071C544.626 152.474 545.941 148.123 548.177 142.191C550.361 136.392 553.08 129.939 555.811 123.103C558.49 116.4 561.132 109.444 562.919 103.147C564.636 97.0937 565.869 90.6595 564.87 85.4161L553.082 87.6628ZM544.419 667.617V472.708H532.419V667.617H544.419ZM538.419 478.708H611.51V466.708H538.419V478.708ZM611.51 478.708C625.818 478.708 637.379 481.197 646.461 485.851L651.934 475.172C640.713 469.421 627.149 466.708 611.51 466.708V478.708ZM646.475 485.858C655.7 490.557 662.493 497.037 667.075 505.309L677.572 499.493C671.75 488.984 663.126 480.872 651.921 475.165L646.475 485.858ZM667.099 505.351C671.78 513.642 674.222 523.475 674.222 535.045H686.222C686.222 521.743 683.399 509.814 677.548 499.451L667.099 505.351ZM674.222 535.045C674.222 546.675 671.751 556.449 667.037 564.585L677.42 570.601C683.366 560.337 686.222 548.413 686.222 535.045H674.222ZM667.03 564.597C662.412 572.608 655.58 578.889 646.282 583.423L651.541 594.209C662.802 588.718 671.512 580.85 677.427 570.589L667.03 564.597ZM564.976 596.239V566.927H552.976V596.239H564.976ZM606.276 572.927C615.518 572.927 623.574 571.664 630.163 568.818L625.405 557.802C620.827 559.779 614.545 560.927 606.276 560.927V572.927ZM630.215 568.796C636.812 565.872 641.993 561.475 645.375 555.518L634.939 549.594C632.99 553.027 629.922 555.8 625.353 557.825L630.215 568.796ZM645.362 555.54C648.73 549.665 650.249 542.738 650.249 535.045H638.249C638.249 541.182 637.039 545.929 634.951 549.572L645.362 555.54ZM650.249 535.045C650.249 527.344 648.727 520.385 645.395 514.418L634.918 520.268C637.042 524.072 638.249 528.914 638.249 535.045H650.249ZM645.411 514.446C642.005 508.268 636.825 503.675 630.172 500.65L625.206 511.575C629.72 513.626 632.851 516.52 634.902 520.24L645.411 514.446ZM630.223 500.674C623.58 497.579 615.429 496.211 606.085 496.211V508.211C614.379 508.211 620.631 509.444 625.155 511.551L630.223 500.674ZM606.085 496.211H573.727V508.211H606.085V496.211ZM573.727 661.617H538.419V673.617H573.727V661.617ZM687.36 661.617H647.961V673.617H687.36V661.617ZM600.565 585.299H639.11V573.299H600.565V585.299ZM807.703 352.451C806.657 382.959 804.727 415.8 802.779 448.998C800.832 482.165 798.868 515.683 797.767 547.417C796.666 579.142 796.422 609.206 797.936 635.473C799.444 661.646 802.716 684.48 808.855 701.532L820.145 697.468C814.599 682.061 811.404 660.607 809.916 634.782C808.433 609.051 808.664 579.408 809.759 547.833C810.855 516.268 812.81 482.897 814.758 449.701C816.705 416.537 818.644 383.543 819.696 352.862L807.703 352.451ZM808.739 701.178C846.044 829.223 888.587 874.662 910.634 897.944C916.194 903.816 919.757 907.605 921.768 910.84C923.501 913.627 923.596 915.203 922.973 917.035C922.103 919.593 919.571 923.241 913.711 929.144C907.986 934.911 899.776 942.175 888.476 952.029L896.363 961.073C907.582 951.29 916.14 943.73 922.227 937.598C928.18 931.602 932.505 926.278 934.334 920.899C936.41 914.794 935.046 909.469 931.959 904.504C929.15 899.985 924.531 895.168 919.347 889.693C898.414 867.588 856.957 823.777 820.261 697.822L808.739 701.178ZM889.004 951.618L876.004 960.618L882.834 970.484L895.834 961.484L889.004 951.618ZM694.22 946.837C717.394 969.543 743.709 996.383 774.389 1009.94C789.91 1016.8 806.708 1020.35 824.918 1018.31C843.112 1016.27 862.289 1008.69 882.661 993.935L875.623 984.216C856.585 998.002 839.331 1004.62 823.58 1006.39C807.844 1008.15 793.183 1005.13 779.239 998.964C750.991 986.481 726.354 961.522 702.618 938.266L694.22 946.837ZM898.419 961.668V956.551H886.419V961.668H898.419ZM158.688 661.617H121V673.617H158.688V661.617ZM126.66 669.609L195.277 474.7L183.958 470.715L115.34 665.624L126.66 669.609ZM227.215 474.711L296.264 669.62L307.575 665.613L238.526 470.704L227.215 474.711ZM301.919 661.617H264.231V673.617H301.919V661.617ZM212.173 506.679H210.651V518.679H212.173V506.679ZM256.709 591.195V619.556H268.709V591.195H256.709ZM165.925 619.556V591.195H153.925V619.556H165.925ZM393.611 478.708H428.919V466.708H393.611V478.708ZM399.611 667.617V632.824H387.611V667.617H399.611ZM399.611 632.824V472.708H387.611V632.824H399.611ZM237.487 271.307C209.668 288.592 188.318 302.011 173.876 314.284C159.396 326.589 150.683 338.711 150.169 353.648C149.67 368.126 156.996 383.655 169.911 402.585C182.944 421.687 202.546 445.447 228.246 476.531L237.495 468.885C211.648 437.623 192.471 414.359 179.824 395.822C167.06 377.113 161.806 364.388 162.162 354.061C162.501 344.194 168.075 334.962 181.647 323.428C195.256 311.863 215.723 298.958 243.82 281.5L237.487 271.307ZM189.618 478.708L232.871 478.708L232.871 466.708L189.618 466.708L189.618 478.708ZM424.702 671.884C497.819 744.142 587.097 833.811 694.064 946.679L702.774 938.424C595.692 825.436 506.317 735.669 433.137 663.349L424.702 671.884ZM393.611 673.617H428.919V661.617H393.611V673.617ZM434.919 667.617V472.708H422.919V667.617H434.919ZM644.788 269.069C656.803 282.089 676.118 293.701 698.392 302.417C720.764 311.172 746.625 317.203 772.151 318.723L772.864 306.744C748.662 305.303 724.033 299.565 702.765 291.242C681.397 282.881 663.921 272.108 653.607 260.931L644.788 269.069ZM558.976 602.239H573.727V590.239H558.976V602.239ZM579.727 596.239V566.927H567.727V596.239H579.727ZM573.727 560.927H558.976V572.927H573.727V560.927ZM573.727 572.927H606.276V560.927H573.727V572.927ZM567.727 502.211V566.927H579.727V502.211H567.727ZM567.727 596.239V667.617H579.727V596.239H567.727ZM573.727 602.239H609.656V590.239H573.727V602.239ZM614.943 593.402L605.852 576.462L595.278 582.136L604.369 599.076L614.943 593.402ZM633.844 582.176L639.938 593.33L650.469 587.576L644.375 576.422L633.844 582.176ZM647.449 596.017C648.835 595.458 650.191 594.859 651.515 594.222L646.309 583.41C645.225 583.932 644.108 584.425 642.958 584.889L647.449 596.017ZM639.938 593.33L682.095 670.493L692.625 664.74L650.469 587.576L639.938 593.33ZM642.958 584.889C634.282 588.39 623.692 590.239 611.034 590.239V602.239C624.815 602.239 637.005 600.231 647.449 596.017L642.958 584.889ZM611.034 590.239H609.656V602.239H611.034V590.239ZM653.248 664.78L614.943 593.402L604.369 599.076L642.674 670.454L653.248 664.78ZM232.866 593.106L242.396 621.467L253.771 617.645L244.242 589.284L232.866 593.106ZM248.083 625.556H262.709V613.556H248.083V625.556ZM262.709 585.195H238.554V597.195H262.709V585.195ZM269.919 665.706L253.771 617.645L242.396 621.467L258.544 669.528L269.919 665.706ZM244.242 589.284L217.861 510.768L206.486 514.59L232.866 593.106L244.242 589.284ZM164.376 669.525L180.495 621.464L169.118 617.648L152.999 665.709L164.376 669.525ZM174.806 613.556H159.925V625.556H174.806V613.556ZM159.925 597.195H184.318V585.195H159.925V597.195ZM190.007 593.103L216.339 514.587L204.962 510.772L178.629 589.287L190.007 593.103ZM184.318 597.195H238.554V585.195H184.318V597.195ZM248.083 613.556H174.806V625.556H248.083V613.556ZM178.629 589.287L169.118 617.648L180.495 621.464L190.007 593.103L178.629 589.287ZM532.419 154.539V381.539H544.419V154.539H532.419ZM532.419 381.539V472.708H544.419V381.539H532.419ZM687.36 661.617H660.419V673.617H687.36V661.617ZM268.885 285.011L418.321 451.668L427.255 443.656L277.819 277L268.885 285.011ZM434.919 472.708C434.919 472.705 434.919 472.702 434.919 472.699C434.919 472.696 434.919 472.692 434.919 472.689C434.919 472.686 434.919 472.683 434.919 472.68C434.919 472.677 434.919 472.674 434.919 472.671C434.919 472.668 434.919 472.664 434.919 472.661C434.919 472.658 434.919 472.655 434.919 472.652C434.919 472.649 434.919 472.646 434.919 472.642C434.919 472.639 434.919 472.636 434.919 472.633C434.919 472.63 434.919 472.626 434.919 472.623C434.919 472.62 434.919 472.617 434.919 472.614C434.919 472.61 434.919 472.607 434.919 472.604C434.919 472.601 434.919 472.597 434.919 472.594C434.919 472.591 434.919 472.588 434.919 472.584C434.919 472.581 434.919 472.578 434.919 472.575C434.919 472.571 434.919 472.568 434.919 472.565C434.919 472.561 434.919 472.558 434.919 472.555C434.919 472.551 434.919 472.548 434.919 472.545C434.919 472.541 434.919 472.538 434.919 472.535C434.919 472.531 434.919 472.528 434.919 472.525C434.919 472.521 434.919 472.518 434.919 472.515C434.919 472.511 434.919 472.508 434.919 472.504C434.919 472.501 434.919 472.498 434.919 472.494C434.919 472.491 434.919 472.487 434.919 472.484C434.919 472.481 434.919 472.477 434.919 472.474C434.919 472.47 434.919 472.467 434.919 472.463C434.919 472.46 434.919 472.456 434.919 472.453C434.919 472.45 434.919 472.446 434.919 472.443C434.919 472.439 434.919 472.436 434.919 472.432C434.919 472.429 434.919 472.425 434.919 472.422C434.919 472.418 434.919 472.415 434.919 472.411C434.919 472.408 434.919 472.404 434.919 472.4C434.919 472.397 434.919 472.393 434.919 472.39C434.919 472.386 434.919 472.383 434.919 472.379C434.919 472.376 434.919 472.372 434.919 472.368C434.919 472.365 434.919 472.361 434.919 472.358C434.919 472.354 434.919 472.35 434.919 472.347C434.919 472.343 434.919 472.34 434.919 472.336C434.919 472.332 434.919 472.329 434.919 472.325C434.919 472.321 434.919 472.318 434.919 472.314C434.919 472.31 434.919 472.307 434.919 472.303C434.919 472.299 434.919 472.296 434.919 472.292C434.919 472.288 434.919 472.285 434.919 472.281C434.919 472.277 434.919 472.273 434.919 472.27C434.919 472.266 434.919 472.262 434.919 472.259C434.919 472.255 434.919 472.251 434.919 472.247C434.919 472.244 434.919 472.24 434.919 472.236C434.919 472.232 434.919 472.229 434.919 472.225C434.919 472.221 434.919 472.217 434.919 472.213C434.919 472.21 434.919 472.206 434.919 472.202C434.919 472.198 434.919 472.194 434.919 472.191C434.919 472.187 434.919 472.183 434.919 472.179C434.919 472.175 434.919 472.171 434.919 472.168C434.919 472.164 434.919 472.16 434.919 472.156C434.919 472.152 434.919 472.148 434.919 472.144C434.919 472.14 434.919 472.137 434.919 472.133C434.919 472.129 434.919 472.125 434.919 472.121C434.919 472.117 434.919 472.113 434.919 472.109C434.919 472.105 434.919 472.101 434.919 472.097C434.919 472.094 434.919 472.09 434.919 472.086C434.919 472.082 434.919 472.078 434.919 472.074C434.919 472.07 434.919 472.066 434.919 472.062C434.919 472.058 434.919 472.054 434.919 472.05C434.919 472.046 434.919 472.042 434.919 472.038C434.919 472.034 434.919 472.03 434.919 472.026C434.919 472.022 434.919 472.018 434.919 472.014C434.919 472.01 434.919 472.006 434.919 472.002C434.919 471.998 434.919 471.994 434.919 471.989C434.919 471.985 434.919 471.981 434.919 471.977C434.919 471.973 434.919 471.969 434.919 471.965C434.919 471.961 434.919 471.957 434.919 471.953C434.919 471.949 434.919 471.945 434.919 471.94C434.919 471.936 434.919 471.932 434.919 471.928C434.919 471.924 434.919 471.92 434.919 471.916C434.919 471.911 434.919 471.907 434.919 471.903C434.919 471.899 434.919 471.895 434.919 471.891C434.919 471.886 434.919 471.882 434.919 471.878C434.919 471.874 434.919 471.87 434.919 471.866C434.919 471.861 434.919 471.857 434.919 471.853C434.919 471.849 434.919 471.844 434.919 471.84C434.919 471.836 434.919 471.832 434.919 471.828C434.919 471.823 434.919 471.819 434.919 471.815C434.919 471.811 434.919 471.806 434.919 471.802C434.919 471.798 434.919 471.793 434.919 471.789C434.919 471.785 434.919 471.781 434.919 471.776C434.919 471.772 434.919 471.768 434.919 471.763C434.919 471.759 434.919 471.755 434.919 471.75C434.919 471.746 434.919 471.742 434.919 471.737C434.919 471.733 434.919 471.729 434.919 471.724C434.919 471.72 434.919 471.716 434.919 471.711C434.919 471.707 434.919 471.703 434.919 471.698C434.919 471.694 434.919 471.69 434.919 471.685C434.919 471.681 434.919 471.676 434.919 471.672C434.919 471.668 434.919 471.663 434.919 471.659C434.919 471.654 434.919 471.65 434.919 471.645C434.919 471.641 434.919 471.637 434.919 471.632C434.919 471.628 434.919 471.623 434.919 471.619C434.919 471.614 434.919 471.61 434.919 471.605C434.919 471.601 434.919 471.596 434.919 471.592C434.919 471.587 434.919 471.583 434.919 471.579C434.919 471.574 434.919 471.57 434.919 471.565C434.919 471.56 434.919 471.556 434.919 471.551C434.919 471.547 434.919 471.542 434.919 471.538C434.919 471.533 434.919 471.529 434.919 471.524C434.919 471.52 434.919 471.515 434.919 471.511C434.919 471.506 434.919 471.501 434.919 471.497C434.919 471.492 434.919 471.488 434.919 471.483C434.919 471.479 434.919 471.474 434.919 471.469C434.919 471.465 434.919 471.46 434.919 471.456C434.919 471.451 434.919 471.446 434.919 471.442C434.919 471.437 434.919 471.432 434.919 471.428C434.919 471.423 434.919 471.419 434.919 471.414C434.919 471.409 434.919 471.405 434.919 471.4C434.919 471.395 434.919 471.391 434.919 471.386C434.919 471.381 434.919 471.377 434.919 471.372C434.919 471.367 434.919 471.363 434.919 471.358C434.919 471.353 434.919 471.348 434.919 471.344C434.919 471.339 434.919 471.334 434.919 471.33C434.919 471.325 434.919 471.32 434.919 471.315C434.919 471.311 434.919 471.306 434.919 471.301C434.919 471.296 434.919 471.292 434.919 471.287C434.919 471.282 434.919 471.277 434.919 471.273C434.919 471.268 434.919 471.263 434.919 471.258C434.919 471.253 434.919 471.249 434.919 471.244C434.919 471.239 434.919 471.234 434.919 471.229C434.919 471.225 434.919 471.22 434.919 471.215C434.919 471.21 434.919 471.205 434.919 471.2C434.919 471.196 434.919 471.191 434.919 471.186C434.919 471.181 434.919 471.176 434.919 471.171C434.919 471.167 434.919 471.162 434.919 471.157C434.919 471.152 434.919 471.147 434.919 471.142C434.919 471.137 434.919 471.132 434.919 471.127C434.919 471.123 434.919 471.118 434.919 471.113C434.919 471.108 434.919 471.103 434.919 471.098C434.919 471.093 434.919 471.088 434.919 471.083C434.919 471.078 434.919 471.073 434.919 471.068C434.919 471.063 434.919 471.059 434.919 471.054C434.919 471.049 434.919 471.044 434.919 471.039C434.919 471.034 434.919 471.029 434.919 471.024C434.919 471.019 434.919 471.014 434.919 471.009C434.919 471.004 434.919 470.999 434.919 470.994C434.919 470.989 434.919 470.984 434.919 470.979C434.919 470.974 434.919 470.969 434.919 470.964C434.919 470.959 434.919 470.954 434.919 470.949C434.919 470.944 434.919 470.938 434.919 470.933C434.919 470.928 434.919 470.923 434.919 470.918C434.919 470.913 434.919 470.908 434.919 470.903C434.919 470.898 434.919 470.893 434.919 470.888C434.919 470.883 434.919 470.878 434.919 470.873C434.919 470.867 434.919 470.862 434.919 470.857C434.919 470.852 434.919 470.847 434.919 470.842C434.919 470.837 434.919 470.832 434.919 470.826C434.919 470.821 434.919 470.816 434.919 470.811C434.919 470.806 434.919 470.801 434.919 470.796C434.919 470.79 434.919 470.785 434.919 470.78C434.919 470.775 434.919 470.77 434.919 470.765C434.919 470.759 434.919 470.754 434.919 470.749C434.919 470.744 434.919 470.739 434.919 470.733C434.919 470.728 434.919 470.723 434.919 470.718C434.919 470.713 434.919 470.707 434.919 470.702C434.919 470.697 434.919 470.692 434.919 470.686C434.919 470.681 434.919 470.676 434.919 470.671C434.919 470.666 434.919 470.66 434.919 470.655C434.919 470.65 434.919 470.644 434.919 470.639C434.919 470.634 434.919 470.629 434.919 470.623C434.919 470.618 434.919 470.613 434.919 470.608C434.919 470.602 434.919 470.597 434.919 470.592C434.919 470.586 434.919 470.581 434.919 470.576C434.919 470.57 434.919 470.565 434.919 470.56C434.919 470.554 434.919 470.549 434.919 470.544C434.919 470.538 434.919 470.533 434.919 470.528C434.919 470.522 434.919 470.517 434.919 470.512C434.919 470.506 434.919 470.501 434.919 470.496C434.919 470.49 434.919 470.485 434.919 470.479C434.919 470.474 434.919 470.469 434.919 470.463C434.919 470.458 434.919 470.452 434.919 470.447C434.919 470.442 434.919 470.436 434.919 470.431C434.919 470.425 434.919 470.42 434.919 470.415C434.919 470.409 434.919 470.404 434.919 470.398C434.919 470.393 434.919 470.387 434.919 470.382C434.919 470.377 434.919 470.371 434.919 470.366C434.919 470.36 434.919 470.355 434.919 470.349C434.919 470.344 434.919 470.338 434.919 470.333C434.919 470.327 434.919 470.322 434.919 470.316C434.919 470.311 434.919 470.305 434.919 470.3C434.919 470.294 434.919 470.289 434.919 470.283C434.919 470.278 434.919 470.272 434.919 470.267C434.919 470.261 434.919 470.256 434.919 470.25C434.919 470.245 434.919 470.239 434.919 470.234C434.919 470.228 434.919 470.223 434.919 470.217C434.919 470.211 434.919 470.206 434.919 470.2C434.919 470.195 434.919 470.189 434.919 470.184C434.919 470.178 434.919 470.173 434.919 470.167C434.919 470.161 434.919 470.156 434.919 470.15C434.919 470.145 434.919 470.139 434.919 470.133C434.919 470.128 434.919 470.122 434.919 470.117C434.919 470.111 434.919 470.105 434.919 470.1C434.919 470.094 434.919 470.088 434.919 470.083C434.919 470.077 434.919 470.072 434.919 470.066C434.919 470.06 434.919 470.055 434.919 470.049C434.919 470.043 434.919 470.038 434.919 470.032C434.919 470.026 434.919 470.021 434.919 470.015C434.919 470.009 434.919 470.004 434.919 469.998C434.919 469.992 434.919 469.987 434.919 469.981C434.919 469.975 434.919 469.969 434.919 469.964C434.919 469.958 434.919 469.952 434.919 469.947C434.919 469.941 434.919 469.935 434.919 469.929C434.919 469.924 434.919 469.918 434.919 469.912C434.919 469.907 434.919 469.901 434.919 469.895C434.919 469.889 434.919 469.884 434.919 469.878C434.919 469.872 434.919 469.866 434.919 469.86C434.919 469.855 434.919 469.849 434.919 469.843C434.919 469.837 434.919 469.832 434.919 469.826C434.919 469.82 434.919 469.814 434.919 469.808C434.919 469.803 434.919 469.797 434.919 469.791C434.919 469.785 434.919 469.779 434.919 469.774C434.919 469.768 434.919 469.762 434.919 469.756C434.919 469.75 434.919 469.745 434.919 469.739C434.919 469.733 434.919 469.727 434.919 469.721C434.919 469.715 434.919 469.71 434.919 469.704C434.919 469.698 434.919 469.692 434.919 469.686C434.919 469.68 434.919 469.674 434.919 469.668C434.919 469.663 434.919 469.657 434.919 469.651C434.919 469.645 434.919 469.639 434.919 469.633C434.919 469.627 434.919 469.621 434.919 469.616C434.919 469.61 434.919 469.604 434.919 469.598C434.919 469.592 434.919 469.586 434.919 469.58C434.919 469.574 434.919 469.568 434.919 469.562C434.919 469.556 434.919 469.55 434.919 469.544C434.919 469.539 434.919 469.533 434.919 469.527C434.919 469.521 434.919 469.515 434.919 469.509C434.919 469.503 434.919 469.497 434.919 469.491C434.919 469.485 434.919 469.479 434.919 469.473C434.919 469.467 434.919 469.461 434.919 469.455C434.919 469.449 434.919 469.443 434.919 469.437C434.919 469.431 434.919 469.425 434.919 469.419C434.919 469.413 434.919 469.407 434.919 469.401C434.919 469.395 434.919 469.389 434.919 469.383C434.919 469.377 434.919 469.371 434.919 469.365C434.919 469.359 434.919 469.353 434.919 469.347C434.919 469.341 434.919 469.335 434.919 469.329C434.919 469.323 434.919 469.317 434.919 469.311C434.919 469.305 434.919 469.298 434.919 469.292C434.919 469.286 434.919 469.28 434.919 469.274C434.919 469.268 434.919 469.262 434.919 469.256C434.919 469.25 434.919 469.244 434.919 469.238C434.919 469.232 434.919 469.225 434.919 469.219C434.919 469.213 434.919 469.207 434.919 469.201C434.919 469.195 434.919 469.189 434.919 469.183C434.919 469.177 434.919 469.17 434.919 469.164C434.919 469.158 434.919 469.152 434.919 469.146C434.919 469.14 434.919 469.134 434.919 469.128C434.919 469.121 434.919 469.115 434.919 469.109C434.919 469.103 434.919 469.097 434.919 469.091C434.919 469.084 434.919 469.078 434.919 469.072C434.919 469.066 434.919 469.06 434.919 469.054C434.919 469.047 434.919 469.041 434.919 469.035C434.919 469.029 434.919 469.023 434.919 469.016C434.919 469.01 434.919 469.004 434.919 468.998C434.919 468.992 434.919 468.985 434.919 468.979C434.919 468.973 434.919 468.967 434.919 468.961C434.919 468.954 434.919 468.948 434.919 468.942C434.919 468.936 434.919 468.929 434.919 468.923C434.919 468.917 434.919 468.911 434.919 468.904C434.919 468.898 434.919 468.892 434.919 468.886C434.919 468.879 434.919 468.873 434.919 468.867C434.919 468.861 434.919 468.854 434.919 468.848C434.919 468.842 434.919 468.836 434.919 468.829C434.919 468.823 434.919 468.817 434.919 468.81C434.919 468.804 434.919 468.798 434.919 468.792C434.919 468.785 434.919 468.779 434.919 468.773C434.919 468.766 434.919 468.76 434.919 468.754C434.919 468.747 434.919 468.741 434.919 468.735C434.919 468.728 434.919 468.722 434.919 468.716C434.919 468.71 434.919 468.703 434.919 468.697C434.919 468.691 434.919 468.684 434.919 468.678C434.919 468.671 434.919 468.665 434.919 468.659C434.919 468.652 434.919 468.646 434.919 468.64C434.919 468.633 434.919 468.627 434.919 468.621C434.919 468.614 434.919 468.608 434.919 468.601C434.919 468.595 434.919 468.589 434.919 468.582C434.919 468.576 434.919 468.57 434.919 468.563C434.919 468.557 434.919 468.55 434.919 468.544C434.919 468.538 434.919 468.531 434.919 468.525C434.919 468.518 434.919 468.512 434.919 468.506C434.919 468.499 434.919 468.493 434.919 468.486C434.919 468.48 434.919 468.473 434.919 468.467C434.919 468.461 434.919 468.454 434.919 468.448C434.919 468.441 434.919 468.435 434.919 468.428C434.919 468.422 434.919 468.415 434.919 468.409C434.919 468.403 434.919 468.396 434.919 468.39C434.919 468.383 434.919 468.377 434.919 468.37C434.919 468.364 434.919 468.357 434.919 468.351C434.919 468.344 434.919 468.338 434.919 468.331C434.919 468.325 434.919 468.318 434.919 468.312C434.919 468.305 434.919 468.299 434.919 468.292C434.919 468.286 434.919 468.279 434.919 468.273C434.919 468.266 434.919 468.26 434.919 468.253C434.919 468.247 434.919 468.24 434.919 468.234C434.919 468.227 434.919 468.221 434.919 468.214C434.919 468.208 434.919 468.201 434.919 468.195C434.919 468.188 434.919 468.182 434.919 468.175C434.919 468.169 434.919 468.162 434.919 468.155C434.919 468.149 434.919 468.142 434.919 468.136C434.919 468.129 434.919 468.123 434.919 468.116C434.919 468.11 434.919 468.103 434.919 468.096C434.919 468.09 434.919 468.083 434.919 468.077C434.919 468.07 434.919 468.064 434.919 468.057C434.919 468.05 434.919 468.044 434.919 468.037C434.919 468.031 434.919 468.024 434.919 468.017C434.919 468.011 434.919 468.004 434.919 467.998C434.919 467.991 434.919 467.984 434.919 467.978C434.919 467.971 434.919 467.964 434.919 467.958C434.919 467.951 434.919 467.945 434.919 467.938C434.919 467.931 434.919 467.925 434.919 467.918C434.919 467.911 434.919 467.905 434.919 467.898C434.919 467.892 434.919 467.885 434.919 467.878C434.919 467.872 434.919 467.865 434.919 467.858C434.919 467.852 434.919 467.845 434.919 467.838C434.919 467.832 434.919 467.825 434.919 467.818C434.919 467.812 434.919 467.805 434.919 467.798C434.919 467.792 434.919 467.785 434.919 467.778C434.919 467.772 434.919 467.765 434.919 467.758C434.919 467.752 434.919 467.745 434.919 467.738C434.919 467.731 434.919 467.725 434.919 467.718C434.919 467.711 434.919 467.705 434.919 467.698C434.919 467.691 434.919 467.685 434.919 467.678C434.919 467.671 434.919 467.664 434.919 467.658C434.919 467.651 434.919 467.644 434.919 467.637C434.919 467.631 434.919 467.624 434.919 467.617C434.919 467.611 434.919 467.604 434.919 467.597C434.919 467.59 434.919 467.584 434.919 467.577C434.919 467.57 434.919 467.563 434.919 467.557C434.919 467.55 434.919 467.543 434.919 467.536C434.919 467.53 434.919 467.523 434.919 467.516C434.919 467.509 434.919 467.502 434.919 467.496C434.919 467.489 434.919 467.482 434.919 467.475C434.919 467.469 434.919 467.462 434.919 467.455C434.919 467.448 434.919 467.441 434.919 467.435C434.919 467.428 434.919 467.421 434.919 467.414C434.919 467.408 434.919 467.401 434.919 467.394C434.919 467.387 434.919 467.38 434.919 467.373C434.919 467.367 434.919 467.36 434.919 467.353C434.919 467.346 434.919 467.339 434.919 467.333C434.919 467.326 434.919 467.319 434.919 467.312C434.919 467.305 434.919 467.298 434.919 467.292C434.919 467.285 434.919 467.278 434.919 467.271C434.919 467.264 434.919 467.257 434.919 467.251C434.919 467.244 434.919 467.237 434.919 467.23C434.919 467.223 434.919 467.216 434.919 467.209C434.919 467.203 434.919 467.196 434.919 467.189C434.919 467.182 434.919 467.175 434.919 467.168C434.919 467.161 434.919 467.155 434.919 467.148C434.919 467.141 434.919 467.134 434.919 467.127C434.919 467.12 434.919 467.113 434.919 467.106C434.919 467.1 434.919 467.093 434.919 467.086C434.919 467.079 434.919 467.072 434.919 467.065C434.919 467.058 434.919 467.051 434.919 467.044C434.919 467.037 434.919 467.031 434.919 467.024C434.919 467.017 434.919 467.01 434.919 467.003C434.919 466.996 434.919 466.989 434.919 466.982C434.919 466.975 434.919 466.968 434.919 466.961C434.919 466.954 434.919 466.948 434.919 466.941C434.919 466.934 434.919 466.927 434.919 466.92C434.919 466.913 434.919 466.906 434.919 466.899C434.919 466.892 434.919 466.885 434.919 466.878C434.919 466.871 434.919 466.864 434.919 466.857C434.919 466.85 434.919 466.843 434.919 466.836C434.919 466.829 434.919 466.822 434.919 466.816C434.919 466.809 434.919 466.802 434.919 466.795C434.919 466.788 434.919 466.781 434.919 466.774C434.919 466.767 434.919 466.76 434.919 466.753C434.919 466.746 434.919 466.739 434.919 466.732C434.919 466.725 434.919 466.718 434.919 466.711C434.919 466.704 434.919 466.697 434.919 466.69C434.919 466.683 434.919 466.676 434.919 466.669C434.919 466.662 434.919 466.655 434.919 466.648C434.919 466.641 434.919 466.634 434.919 466.627C434.919 466.62 434.919 466.613 434.919 466.606C434.919 466.599 434.919 466.592 434.919 466.585C434.919 466.578 434.919 466.571 434.919 466.564C434.919 466.557 434.919 466.55 434.919 466.543C434.919 466.536 434.919 466.529 434.919 466.522C434.919 466.514 434.919 466.507 434.919 466.5C434.919 466.493 434.919 466.486 434.919 466.479C434.919 466.472 434.919 466.465 434.919 466.458C434.919 466.451 434.919 466.444 434.919 466.437C434.919 466.43 434.919 466.423 434.919 466.416C434.919 466.409 434.919 466.402 434.919 466.395C434.919 466.388 434.919 466.38 434.919 466.373C434.919 466.366 434.919 466.359 434.919 466.352C434.919 466.345 434.919 466.338 434.919 466.331C434.919 466.324 434.919 466.317 434.919 466.31C434.919 466.303 434.919 466.296 434.919 466.288C434.919 466.281 434.919 466.274 434.919 466.267C434.919 466.26 434.919 466.253 434.919 466.246C434.919 466.239 434.919 466.232 434.919 466.225C434.919 466.218 434.919 466.21 434.919 466.203C434.919 466.196 434.919 466.189 434.919 466.182C434.919 466.175 434.919 466.168 434.919 466.161C434.919 466.154 434.919 466.146 434.919 466.139C434.919 466.132 434.919 466.125 434.919 466.118C434.919 466.111 434.919 466.104 434.919 466.097C434.919 466.089 434.919 466.082 434.919 466.075C434.919 466.068 434.919 466.061 434.919 466.054C434.919 466.047 434.919 466.039 434.919 466.032C434.919 466.025 434.919 466.018 434.919 466.011C434.919 466.004 434.919 465.997 434.919 465.989C434.919 465.982 434.919 465.975 434.919 465.968C434.919 465.961 434.919 465.954 434.919 465.947C434.919 465.939 434.919 465.932 434.919 465.925C434.919 465.918 434.919 465.911 434.919 465.904C434.919 465.896 434.919 465.889 434.919 465.882C434.919 465.875 434.919 465.868 434.919 465.861C434.919 465.853 434.919 465.846 434.919 465.839C434.919 465.832 434.919 465.825 434.919 465.817C434.919 465.81 434.919 465.803 434.919 465.796C434.919 465.789 434.919 465.782 434.919 465.774C434.919 465.767 434.919 465.76 434.919 465.753C434.919 465.746 434.919 465.738 434.919 465.731C434.919 465.724 434.919 465.717 434.919 465.71C434.919 465.702 434.919 465.695 434.919 465.688C434.919 465.681 434.919 465.674 434.919 465.666C434.919 465.659 434.919 465.652 434.919 465.645C434.919 465.638 434.919 465.63 434.919 465.623C434.919 465.616 434.919 465.609 434.919 465.601C434.919 465.594 434.919 465.587 434.919 465.58C434.919 465.573 434.919 465.565 434.919 465.558C434.919 465.551 434.919 465.544 434.919 465.536C434.919 465.529 434.919 465.522 434.919 465.515C434.919 465.507 434.919 465.5 434.919 465.493C434.919 465.486 434.919 465.479 434.919 465.471C434.919 465.464 434.919 465.457 434.919 465.45C434.919 465.442 434.919 465.435 434.919 465.428C434.919 465.421 434.919 465.413 434.919 465.406C434.919 465.399 434.919 465.392 434.919 465.384C434.919 465.377 434.919 465.37 434.919 465.363C434.919 465.355 434.919 465.348 434.919 465.341C434.919 465.333 434.919 465.326 434.919 465.319C434.919 465.312 434.919 465.304 434.919 465.297C434.919 465.29 434.919 465.283 434.919 465.275C434.919 465.268 434.919 465.261 434.919 465.253C434.919 465.246 434.919 465.239 434.919 465.232C434.919 465.224 434.919 465.217 434.919 465.21C434.919 465.203 434.919 465.195 434.919 465.188C434.919 465.181 434.919 465.173 434.919 465.166C434.919 465.159 434.919 465.152 434.919 465.144C434.919 465.137 434.919 465.13 434.919 465.122C434.919 465.115 434.919 465.108 434.919 465.1C434.919 465.093 434.919 465.086 434.919 465.079C434.919 465.071 434.919 465.064 434.919 465.057C434.919 465.049 434.919 465.042 434.919 465.035C434.919 465.027 434.919 465.02 434.919 465.013C434.919 465.006 434.919 464.998 434.919 464.991C434.919 464.984 434.919 464.976 434.919 464.969C434.919 464.962 434.919 464.954 434.919 464.947C434.919 464.94 434.919 464.932 434.919 464.925C434.919 464.918 434.919 464.91 434.919 464.903C434.919 464.896 434.919 464.888 434.919 464.881C434.919 464.874 434.919 464.866 434.919 464.859C434.919 464.852 434.919 464.844 434.919 464.837C434.919 464.83 434.919 464.822 434.919 464.815C434.919 464.808 434.919 464.8 434.919 464.793C434.919 464.786 434.919 464.778 434.919 464.771C434.919 464.764 434.919 464.756 434.919 464.749C434.919 464.742 434.919 464.734 434.919 464.727C434.919 464.72 434.919 464.712 434.919 464.705C434.919 464.698 434.919 464.69 434.919 464.683C434.919 464.676 434.919 464.668 434.919 464.661C434.919 464.654 434.919 464.646 434.919 464.639C434.919 464.631 434.919 464.624 434.919 464.617C434.919 464.609 434.919 464.602 434.919 464.595C434.919 464.587 434.919 464.58 434.919 464.573C434.919 464.565 434.919 464.558 434.919 464.551C434.919 464.543 434.919 464.536 434.919 464.528C434.919 464.521 434.919 464.514 434.919 464.506C434.919 464.499 434.919 464.492 434.919 464.484C434.919 464.477 434.919 464.469 434.919 464.462C434.919 464.455 434.919 464.447 434.919 464.44C434.919 464.433 434.919 464.425 434.919 464.418C434.919 464.41 434.919 464.403 434.919 464.396C434.919 464.388 434.919 464.381 434.919 464.374C434.919 464.366 434.919 464.359 434.919 464.351C434.919 464.344 434.919 464.337 434.919 464.329C434.919 464.322 434.919 464.314 434.919 464.307C434.919 464.3 434.919 464.292 434.919 464.285C434.919 464.278 434.919 464.27 434.919 464.263C434.919 464.255 434.919 464.248 434.919 464.241C434.919 464.233 434.919 464.226 434.919 464.218C434.919 464.211 434.919 464.204 434.919 464.196C434.919 464.189 434.919 464.181 434.919 464.174C434.919 464.167 434.919 464.159 434.919 464.152C434.919 464.144 434.919 464.137 434.919 464.13C434.919 464.122 434.919 464.115 434.919 464.107C434.919 464.1 434.919 464.093 434.919 464.085C434.919 464.078 434.919 464.07 434.919 464.063C434.919 464.056 434.919 464.048 434.919 464.041C434.919 464.033 434.919 464.026 434.919 464.018C434.919 464.011 434.919 464.004 434.919 463.996C434.919 463.989 434.919 463.981 434.919 463.974C434.919 463.967 434.919 463.959 434.919 463.952C434.919 463.944 434.919 463.937 434.919 463.93C434.919 463.922 434.919 463.915 434.919 463.907C434.919 463.9 434.919 463.892 434.919 463.885C434.919 463.878 434.919 463.87 434.919 463.863C434.919 463.855 434.919 463.848 434.919 463.84C434.919 463.833 434.919 463.826 434.919 463.818C434.919 463.811 434.919 463.803 434.919 463.796C434.919 463.788 434.919 463.781 434.919 463.774C434.919 463.766 434.919 463.759 434.919 463.751C434.919 463.744 434.919 463.736 434.919 463.729C434.919 463.722 434.919 463.714 434.919 463.707C434.919 463.699 434.919 463.692 434.919 463.684H422.919C422.919 463.692 422.919 463.699 422.919 463.707C422.919 463.714 422.919 463.722 422.919 463.729C422.919 463.736 422.919 463.744 422.919 463.751C422.919 463.759 422.919 463.766 422.919 463.774C422.919 463.781 422.919 463.788 422.919 463.796C422.919 463.803 422.919 463.811 422.919 463.818C422.919 463.826 422.919 463.833 422.919 463.84C422.919 463.848 422.919 463.855 422.919 463.863C422.919 463.87 422.919 463.878 422.919 463.885C422.919 463.892 422.919 463.9 422.919 463.907C422.919 463.915 422.919 463.922 422.919 463.93C422.919 463.937 422.919 463.944 422.919 463.952C422.919 463.959 422.919 463.967 422.919 463.974C422.919 463.981 422.919 463.989 422.919 463.996C422.919 464.004 422.919 464.011 422.919 464.018C422.919 464.026 422.919 464.033 422.919 464.041C422.919 464.048 422.919 464.056 422.919 464.063C422.919 464.07 422.919 464.078 422.919 464.085C422.919 464.093 422.919 464.1 422.919 464.107C422.919 464.115 422.919 464.122 422.919 464.13C422.919 464.137 422.919 464.144 422.919 464.152C422.919 464.159 422.919 464.167 422.919 464.174C422.919 464.181 422.919 464.189 422.919 464.196C422.919 464.204 422.919 464.211 422.919 464.218C422.919 464.226 422.919 464.233 422.919 464.241C422.919 464.248 422.919 464.255 422.919 464.263C422.919 464.27 422.919 464.278 422.919 464.285C422.919 464.292 422.919 464.3 422.919 464.307C422.919 464.314 422.919 464.322 422.919 464.329C422.919 464.337 422.919 464.344 422.919 464.351C422.919 464.359 422.919 464.366 422.919 464.374C422.919 464.381 422.919 464.388 422.919 464.396C422.919 464.403 422.919 464.41 422.919 464.418C422.919 464.425 422.919 464.433 422.919 464.44C422.919 464.447 422.919 464.455 422.919 464.462C422.919 464.469 422.919 464.477 422.919 464.484C422.919 464.492 422.919 464.499 422.919 464.506C422.919 464.514 422.919 464.521 422.919 464.528C422.919 464.536 422.919 464.543 422.919 464.551C422.919 464.558 422.919 464.565 422.919 464.573C422.919 464.58 422.919 464.587 422.919 464.595C422.919 464.602 422.919 464.609 422.919 464.617C422.919 464.624 422.919 464.631 422.919 464.639C422.919 464.646 422.919 464.654 422.919 464.661C422.919 464.668 422.919 464.676 422.919 464.683C422.919 464.69 422.919 464.698 422.919 464.705C422.919 464.712 422.919 464.72 422.919 464.727C422.919 464.734 422.919 464.742 422.919 464.749C422.919 464.756 422.919 464.764 422.919 464.771C422.919 464.778 422.919 464.786 422.919 464.793C422.919 464.8 422.919 464.808 422.919 464.815C422.919 464.822 422.919 464.83 422.919 464.837C422.919 464.844 422.919 464.852 422.919 464.859C422.919 464.866 422.919 464.874 422.919 464.881C422.919 464.888 422.919 464.896 422.919 464.903C422.919 464.91 422.919 464.918 422.919 464.925C422.919 464.932 422.919 464.94 422.919 464.947C422.919 464.954 422.919 464.962 422.919 464.969C422.919 464.976 422.919 464.984 422.919 464.991C422.919 464.998 422.919 465.006 422.919 465.013C422.919 465.02 422.919 465.027 422.919 465.035C422.919 465.042 422.919 465.049 422.919 465.057C422.919 465.064 422.919 465.071 422.919 465.079C422.919 465.086 422.919 465.093 422.919 465.1C422.919 465.108 422.919 465.115 422.919 465.122C422.919 465.13 422.919 465.137 422.919 465.144C422.919 465.152 422.919 465.159 422.919 465.166C422.919 465.173 422.919 465.181 422.919 465.188C422.919 465.195 422.919 465.203 422.919 465.21C422.919 465.217 422.919 465.224 422.919 465.232C422.919 465.239 422.919 465.246 422.919 465.253C422.919 465.261 422.919 465.268 422.919 465.275C422.919 465.283 422.919 465.29 422.919 465.297C422.919 465.304 422.919 465.312 422.919 465.319C422.919 465.326 422.919 465.333 422.919 465.341C422.919 465.348 422.919 465.355 422.919 465.363C422.919 465.37 422.919 465.377 422.919 465.384C422.919 465.392 422.919 465.399 422.919 465.406C422.919 465.413 422.919 465.421 422.919 465.428C422.919 465.435 422.919 465.442 422.919 465.45C422.919 465.457 422.919 465.464 422.919 465.471C422.919 465.479 422.919 465.486 422.919 465.493C422.919 465.5 422.919 465.507 422.919 465.515C422.919 465.522 422.919 465.529 422.919 465.536C422.919 465.544 422.919 465.551 422.919 465.558C422.919 465.565 422.919 465.573 422.919 465.58C422.919 465.587 422.919 465.594 422.919 465.601C422.919 465.609 422.919 465.616 422.919 465.623C422.919 465.63 422.919 465.638 422.919 465.645C422.919 465.652 422.919 465.659 422.919 465.666C422.919 465.674 422.919 465.681 422.919 465.688C422.919 465.695 422.919 465.702 422.919 465.71C422.919 465.717 422.919 465.724 422.919 465.731C422.919 465.738 422.919 465.746 422.919 465.753C422.919 465.76 422.919 465.767 422.919 465.774C422.919 465.782 422.919 465.789 422.919 465.796C422.919 465.803 422.919 465.81 422.919 465.817C422.919 465.825 422.919 465.832 422.919 465.839C422.919 465.846 422.919 465.853 422.919 465.861C422.919 465.868 422.919 465.875 422.919 465.882C422.919 465.889 422.919 465.896 422.919 465.904C422.919 465.911 422.919 465.918 422.919 465.925C422.919 465.932 422.919 465.939 422.919 465.947C422.919 465.954 422.919 465.961 422.919 465.968C422.919 465.975 422.919 465.982 422.919 465.989C422.919 465.997 422.919 466.004 422.919 466.011C422.919 466.018 422.919 466.025 422.919 466.032C422.919 466.039 422.919 466.047 422.919 466.054C422.919 466.061 422.919 466.068 422.919 466.075C422.919 466.082 422.919 466.089 422.919 466.097C422.919 466.104 422.919 466.111 422.919 466.118C422.919 466.125 422.919 466.132 422.919 466.139C422.919 466.146 422.919 466.154 422.919 466.161C422.919 466.168 422.919 466.175 422.919 466.182C422.919 466.189 422.919 466.196 422.919 466.203C422.919 466.21 422.919 466.218 422.919 466.225C422.919 466.232 422.919 466.239 422.919 466.246C422.919 466.253 422.919 466.26 422.919 466.267C422.919 466.274 422.919 466.281 422.919 466.288C422.919 466.296 422.919 466.303 422.919 466.31C422.919 466.317 422.919 466.324 422.919 466.331C422.919 466.338 422.919 466.345 422.919 466.352C422.919 466.359 422.919 466.366 422.919 466.373C422.919 466.38 422.919 466.388 422.919 466.395C422.919 466.402 422.919 466.409 422.919 466.416C422.919 466.423 422.919 466.43 422.919 466.437C422.919 466.444 422.919 466.451 422.919 466.458C422.919 466.465 422.919 466.472 422.919 466.479C422.919 466.486 422.919 466.493 422.919 466.5C422.919 466.507 422.919 466.514 422.919 466.522C422.919 466.529 422.919 466.536 422.919 466.543C422.919 466.55 422.919 466.557 422.919 466.564C422.919 466.571 422.919 466.578 422.919 466.585C422.919 466.592 422.919 466.599 422.919 466.606C422.919 466.613 422.919 466.62 422.919 466.627C422.919 466.634 422.919 466.641 422.919 466.648C422.919 466.655 422.919 466.662 422.919 466.669C422.919 466.676 422.919 466.683 422.919 466.69C422.919 466.697 422.919 466.704 422.919 466.711C422.919 466.718 422.919 466.725 422.919 466.732C422.919 466.739 422.919 466.746 422.919 466.753C422.919 466.76 422.919 466.767 422.919 466.774C422.919 466.781 422.919 466.788 422.919 466.795C422.919 466.802 422.919 466.809 422.919 466.816C422.919 466.822 422.919 466.829 422.919 466.836C422.919 466.843 422.919 466.85 422.919 466.857C422.919 466.864 422.919 466.871 422.919 466.878C422.919 466.885 422.919 466.892 422.919 466.899C422.919 466.906 422.919 466.913 422.919 466.92C422.919 466.927 422.919 466.934 422.919 466.941C422.919 466.948 422.919 466.954 422.919 466.961C422.919 466.968 422.919 466.975 422.919 466.982C422.919 466.989 422.919 466.996 422.919 467.003C422.919 467.01 422.919 467.017 422.919 467.024C422.919 467.031 422.919 467.037 422.919 467.044C422.919 467.051 422.919 467.058 422.919 467.065C422.919 467.072 422.919 467.079 422.919 467.086C422.919 467.093 422.919 467.1 422.919 467.106C422.919 467.113 422.919 467.12 422.919 467.127C422.919 467.134 422.919 467.141 422.919 467.148C422.919 467.155 422.919 467.161 422.919 467.168C422.919 467.175 422.919 467.182 422.919 467.189C422.919 467.196 422.919 467.203 422.919 467.209C422.919 467.216 422.919 467.223 422.919 467.23C422.919 467.237 422.919 467.244 422.919 467.251C422.919 467.257 422.919 467.264 422.919 467.271C422.919 467.278 422.919 467.285 422.919 467.292C422.919 467.298 422.919 467.305 422.919 467.312C422.919 467.319 422.919 467.326 422.919 467.333C422.919 467.339 422.919 467.346 422.919 467.353C422.919 467.36 422.919 467.367 422.919 467.373C422.919 467.38 422.919 467.387 422.919 467.394C422.919 467.401 422.919 467.408 422.919 467.414C422.919 467.421 422.919 467.428 422.919 467.435C422.919 467.441 422.919 467.448 422.919 467.455C422.919 467.462 422.919 467.469 422.919 467.475C422.919 467.482 422.919 467.489 422.919 467.496C422.919 467.502 422.919 467.509 422.919 467.516C422.919 467.523 422.919 467.53 422.919 467.536C422.919 467.543 422.919 467.55 422.919 467.557C422.919 467.563 422.919 467.57 422.919 467.577C422.919 467.584 422.919 467.59 422.919 467.597C422.919 467.604 422.919 467.611 422.919 467.617C422.919 467.624 422.919 467.631 422.919 467.637C422.919 467.644 422.919 467.651 422.919 467.658C422.919 467.664 422.919 467.671 422.919 467.678C422.919 467.685 422.919 467.691 422.919 467.698C422.919 467.705 422.919 467.711 422.919 467.718C422.919 467.725 422.919 467.731 422.919 467.738C422.919 467.745 422.919 467.752 422.919 467.758C422.919 467.765 422.919 467.772 422.919 467.778C422.919 467.785 422.919 467.792 422.919 467.798C422.919 467.805 422.919 467.812 422.919 467.818C422.919 467.825 422.919 467.832 422.919 467.838C422.919 467.845 422.919 467.852 422.919 467.858C422.919 467.865 422.919 467.872 422.919 467.878C422.919 467.885 422.919 467.892 422.919 467.898C422.919 467.905 422.919 467.911 422.919 467.918C422.919 467.925 422.919 467.931 422.919 467.938C422.919 467.945 422.919 467.951 422.919 467.958C422.919 467.964 422.919 467.971 422.919 467.978C422.919 467.984 422.919 467.991 422.919 467.998C422.919 468.004 422.919 468.011 422.919 468.017C422.919 468.024 422.919 468.031 422.919 468.037C422.919 468.044 422.919 468.05 422.919 468.057C422.919 468.064 422.919 468.07 422.919 468.077C422.919 468.083 422.919 468.09 422.919 468.096C422.919 468.103 422.919 468.11 422.919 468.116C422.919 468.123 422.919 468.129 422.919 468.136C422.919 468.142 422.919 468.149 422.919 468.155C422.919 468.162 422.919 468.169 422.919 468.175C422.919 468.182 422.919 468.188 422.919 468.195C422.919 468.201 422.919 468.208 422.919 468.214C422.919 468.221 422.919 468.227 422.919 468.234C422.919 468.24 422.919 468.247 422.919 468.253C422.919 468.26 422.919 468.266 422.919 468.273C422.919 468.279 422.919 468.286 422.919 468.292C422.919 468.299 422.919 468.305 422.919 468.312C422.919 468.318 422.919 468.325 422.919 468.331C422.919 468.338 422.919 468.344 422.919 468.351C422.919 468.357 422.919 468.364 422.919 468.37C422.919 468.377 422.919 468.383 422.919 468.39C422.919 468.396 422.919 468.403 422.919 468.409C422.919 468.415 422.919 468.422 422.919 468.428C422.919 468.435 422.919 468.441 422.919 468.448C422.919 468.454 422.919 468.461 422.919 468.467C422.919 468.473 422.919 468.48 422.919 468.486C422.919 468.493 422.919 468.499 422.919 468.506C422.919 468.512 422.919 468.518 422.919 468.525C422.919 468.531 422.919 468.538 422.919 468.544C422.919 468.55 422.919 468.557 422.919 468.563C422.919 468.57 422.919 468.576 422.919 468.582C422.919 468.589 422.919 468.595 422.919 468.601C422.919 468.608 422.919 468.614 422.919 468.621C422.919 468.627 422.919 468.633 422.919 468.64C422.919 468.646 422.919 468.652 422.919 468.659C422.919 468.665 422.919 468.671 422.919 468.678C422.919 468.684 422.919 468.691 422.919 468.697C422.919 468.703 422.919 468.71 422.919 468.716C422.919 468.722 422.919 468.728 422.919 468.735C422.919 468.741 422.919 468.747 422.919 468.754C422.919 468.76 422.919 468.766 422.919 468.773C422.919 468.779 422.919 468.785 422.919 468.792C422.919 468.798 422.919 468.804 422.919 468.81C422.919 468.817 422.919 468.823 422.919 468.829C422.919 468.836 422.919 468.842 422.919 468.848C422.919 468.854 422.919 468.861 422.919 468.867C422.919 468.873 422.919 468.879 422.919 468.886C422.919 468.892 422.919 468.898 422.919 468.904C422.919 468.911 422.919 468.917 422.919 468.923C422.919 468.929 422.919 468.936 422.919 468.942C422.919 468.948 422.919 468.954 422.919 468.961C422.919 468.967 422.919 468.973 422.919 468.979C422.919 468.985 422.919 468.992 422.919 468.998C422.919 469.004 422.919 469.01 422.919 469.016C422.919 469.023 422.919 469.029 422.919 469.035C422.919 469.041 422.919 469.047 422.919 469.054C422.919 469.06 422.919 469.066 422.919 469.072C422.919 469.078 422.919 469.084 422.919 469.091C422.919 469.097 422.919 469.103 422.919 469.109C422.919 469.115 422.919 469.121 422.919 469.128C422.919 469.134 422.919 469.14 422.919 469.146C422.919 469.152 422.919 469.158 422.919 469.164C422.919 469.17 422.919 469.177 422.919 469.183C422.919 469.189 422.919 469.195 422.919 469.201C422.919 469.207 422.919 469.213 422.919 469.219C422.919 469.225 422.919 469.232 422.919 469.238C422.919 469.244 422.919 469.25 422.919 469.256C422.919 469.262 422.919 469.268 422.919 469.274C422.919 469.28 422.919 469.286 422.919 469.292C422.919 469.298 422.919 469.305 422.919 469.311C422.919 469.317 422.919 469.323 422.919 469.329C422.919 469.335 422.919 469.341 422.919 469.347C422.919 469.353 422.919 469.359 422.919 469.365C422.919 469.371 422.919 469.377 422.919 469.383C422.919 469.389 422.919 469.395 422.919 469.401C422.919 469.407 422.919 469.413 422.919 469.419C422.919 469.425 422.919 469.431 422.919 469.437C422.919 469.443 422.919 469.449 422.919 469.455C422.919 469.461 422.919 469.467 422.919 469.473C422.919 469.479 422.919 469.485 422.919 469.491C422.919 469.497 422.919 469.503 422.919 469.509C422.919 469.515 422.919 469.521 422.919 469.527C422.919 469.533 422.919 469.539 422.919 469.544C422.919 469.55 422.919 469.556 422.919 469.562C422.919 469.568 422.919 469.574 422.919 469.58C422.919 469.586 422.919 469.592 422.919 469.598C422.919 469.604 422.919 469.61 422.919 469.616C422.919 469.621 422.919 469.627 422.919 469.633C422.919 469.639 422.919 469.645 422.919 469.651C422.919 469.657 422.919 469.663 422.919 469.668C422.919 469.674 422.919 469.68 422.919 469.686C422.919 469.692 422.919 469.698 422.919 469.704C422.919 469.71 422.919 469.715 422.919 469.721C422.919 469.727 422.919 469.733 422.919 469.739C422.919 469.745 422.919 469.75 422.919 469.756C422.919 469.762 422.919 469.768 422.919 469.774C422.919 469.779 422.919 469.785 422.919 469.791C422.919 469.797 422.919 469.803 422.919 469.808C422.919 469.814 422.919 469.82 422.919 469.826C422.919 469.832 422.919 469.837 422.919 469.843C422.919 469.849 422.919 469.855 422.919 469.86C422.919 469.866 422.919 469.872 422.919 469.878C422.919 469.884 422.919 469.889 422.919 469.895C422.919 469.901 422.919 469.907 422.919 469.912C422.919 469.918 422.919 469.924 422.919 469.929C422.919 469.935 422.919 469.941 422.919 469.947C422.919 469.952 422.919 469.958 422.919 469.964C422.919 469.969 422.919 469.975 422.919 469.981C422.919 469.987 422.919 469.992 422.919 469.998C422.919 470.004 422.919 470.009 422.919 470.015C422.919 470.021 422.919 470.026 422.919 470.032C422.919 470.038 422.919 470.043 422.919 470.049C422.919 470.055 422.919 470.06 422.919 470.066C422.919 470.072 422.919 470.077 422.919 470.083C422.919 470.088 422.919 470.094 422.919 470.1C422.919 470.105 422.919 470.111 422.919 470.117C422.919 470.122 422.919 470.128 422.919 470.133C422.919 470.139 422.919 470.145 422.919 470.15C422.919 470.156 422.919 470.161 422.919 470.167C422.919 470.173 422.919 470.178 422.919 470.184C422.919 470.189 422.919 470.195 422.919 470.2C422.919 470.206 422.919 470.211 422.919 470.217C422.919 470.223 422.919 470.228 422.919 470.234C422.919 470.239 422.919 470.245 422.919 470.25C422.919 470.256 422.919 470.261 422.919 470.267C422.919 470.272 422.919 470.278 422.919 470.283C422.919 470.289 422.919 470.294 422.919 470.3C422.919 470.305 422.919 470.311 422.919 470.316C422.919 470.322 422.919 470.327 422.919 470.333C422.919 470.338 422.919 470.344 422.919 470.349C422.919 470.355 422.919 470.36 422.919 470.366C422.919 470.371 422.919 470.377 422.919 470.382C422.919 470.387 422.919 470.393 422.919 470.398C422.919 470.404 422.919 470.409 422.919 470.415C422.919 470.42 422.919 470.425 422.919 470.431C422.919 470.436 422.919 470.442 422.919 470.447C422.919 470.452 422.919 470.458 422.919 470.463C422.919 470.469 422.919 470.474 422.919 470.479C422.919 470.485 422.919 470.49 422.919 470.496C422.919 470.501 422.919 470.506 422.919 470.512C422.919 470.517 422.919 470.522 422.919 470.528C422.919 470.533 422.919 470.538 422.919 470.544C422.919 470.549 422.919 470.554 422.919 470.56C422.919 470.565 422.919 470.57 422.919 470.576C422.919 470.581 422.919 470.586 422.919 470.592C422.919 470.597 422.919 470.602 422.919 470.608C422.919 470.613 422.919 470.618 422.919 470.623C422.919 470.629 422.919 470.634 422.919 470.639C422.919 470.644 422.919 470.65 422.919 470.655C422.919 470.66 422.919 470.666 422.919 470.671C422.919 470.676 422.919 470.681 422.919 470.686C422.919 470.692 422.919 470.697 422.919 470.702C422.919 470.707 422.919 470.713 422.919 470.718C422.919 470.723 422.919 470.728 422.919 470.733C422.919 470.739 422.919 470.744 422.919 470.749C422.919 470.754 422.919 470.759 422.919 470.765C422.919 470.77 422.919 470.775 422.919 470.78C422.919 470.785 422.919 470.79 422.919 470.796C422.919 470.801 422.919 470.806 422.919 470.811C422.919 470.816 422.919 470.821 422.919 470.826C422.919 470.832 422.919 470.837 422.919 470.842C422.919 470.847 422.919 470.852 422.919 470.857C422.919 470.862 422.919 470.867 422.919 470.873C422.919 470.878 422.919 470.883 422.919 470.888C422.919 470.893 422.919 470.898 422.919 470.903C422.919 470.908 422.919 470.913 422.919 470.918C422.919 470.923 422.919 470.928 422.919 470.933C422.919 470.938 422.919 470.944 422.919 470.949C422.919 470.954 422.919 470.959 422.919 470.964C422.919 470.969 422.919 470.974 422.919 470.979C422.919 470.984 422.919 470.989 422.919 470.994C422.919 470.999 422.919 471.004 422.919 471.009C422.919 471.014 422.919 471.019 422.919 471.024C422.919 471.029 422.919 471.034 422.919 471.039C422.919 471.044 422.919 471.049 422.919 471.054C422.919 471.059 422.919 471.063 422.919 471.068C422.919 471.073 422.919 471.078 422.919 471.083C422.919 471.088 422.919 471.093 422.919 471.098C422.919 471.103 422.919 471.108 422.919 471.113C422.919 471.118 422.919 471.123 422.919 471.127C422.919 471.132 422.919 471.137 422.919 471.142C422.919 471.147 422.919 471.152 422.919 471.157C422.919 471.162 422.919 471.167 422.919 471.171C422.919 471.176 422.919 471.181 422.919 471.186C422.919 471.191 422.919 471.196 422.919 471.2C422.919 471.205 422.919 471.21 422.919 471.215C422.919 471.22 422.919 471.225 422.919 471.229C422.919 471.234 422.919 471.239 422.919 471.244C422.919 471.249 422.919 471.253 422.919 471.258C422.919 471.263 422.919 471.268 422.919 471.273C422.919 471.277 422.919 471.282 422.919 471.287C422.919 471.292 422.919 471.296 422.919 471.301C422.919 471.306 422.919 471.311 422.919 471.315C422.919 471.32 422.919 471.325 422.919 471.33C422.919 471.334 422.919 471.339 422.919 471.344C422.919 471.348 422.919 471.353 422.919 471.358C422.919 471.363 422.919 471.367 422.919 471.372C422.919 471.377 422.919 471.381 422.919 471.386C422.919 471.391 422.919 471.395 422.919 471.4C422.919 471.405 422.919 471.409 422.919 471.414C422.919 471.419 422.919 471.423 422.919 471.428C422.919 471.432 422.919 471.437 422.919 471.442C422.919 471.446 422.919 471.451 422.919 471.456C422.919 471.46 422.919 471.465 422.919 471.469C422.919 471.474 422.919 471.479 422.919 471.483C422.919 471.488 422.919 471.492 422.919 471.497C422.919 471.501 422.919 471.506 422.919 471.511C422.919 471.515 422.919 471.52 422.919 471.524C422.919 471.529 422.919 471.533 422.919 471.538C422.919 471.542 422.919 471.547 422.919 471.551C422.919 471.556 422.919 471.56 422.919 471.565C422.919 471.57 422.919 471.574 422.919 471.579C422.919 471.583 422.919 471.587 422.919 471.592C422.919 471.596 422.919 471.601 422.919 471.605C422.919 471.61 422.919 471.614 422.919 471.619C422.919 471.623 422.919 471.628 422.919 471.632C422.919 471.637 422.919 471.641 422.919 471.645C422.919 471.65 422.919 471.654 422.919 471.659C422.919 471.663 422.919 471.668 422.919 471.672C422.919 471.676 422.919 471.681 422.919 471.685C422.919 471.69 422.919 471.694 422.919 471.698C422.919 471.703 422.919 471.707 422.919 471.711C422.919 471.716 422.919 471.72 422.919 471.724C422.919 471.729 422.919 471.733 422.919 471.737C422.919 471.742 422.919 471.746 422.919 471.75C422.919 471.755 422.919 471.759 422.919 471.763C422.919 471.768 422.919 471.772 422.919 471.776C422.919 471.781 422.919 471.785 422.919 471.789C422.919 471.793 422.919 471.798 422.919 471.802C422.919 471.806 422.919 471.811 422.919 471.815C422.919 471.819 422.919 471.823 422.919 471.828C422.919 471.832 422.919 471.836 422.919 471.84C422.919 471.844 422.919 471.849 422.919 471.853C422.919 471.857 422.919 471.861 422.919 471.866C422.919 471.87 422.919 471.874 422.919 471.878C422.919 471.882 422.919 471.886 422.919 471.891C422.919 471.895 422.919 471.899 422.919 471.903C422.919 471.907 422.919 471.911 422.919 471.916C422.919 471.92 422.919 471.924 422.919 471.928C422.919 471.932 422.919 471.936 422.919 471.94C422.919 471.945 422.919 471.949 422.919 471.953C422.919 471.957 422.919 471.961 422.919 471.965C422.919 471.969 422.919 471.973 422.919 471.977C422.919 471.981 422.919 471.985 422.919 471.989C422.919 471.994 422.919 471.998 422.919 472.002C422.919 472.006 422.919 472.01 422.919 472.014C422.919 472.018 422.919 472.022 422.919 472.026C422.919 472.03 422.919 472.034 422.919 472.038C422.919 472.042 422.919 472.046 422.919 472.05C422.919 472.054 422.919 472.058 422.919 472.062C422.919 472.066 422.919 472.07 422.919 472.074C422.919 472.078 422.919 472.082 422.919 472.086C422.919 472.09 422.919 472.094 422.919 472.097C422.919 472.101 422.919 472.105 422.919 472.109C422.919 472.113 422.919 472.117 422.919 472.121C422.919 472.125 422.919 472.129 422.919 472.133C422.919 472.137 422.919 472.14 422.919 472.144C422.919 472.148 422.919 472.152 422.919 472.156C422.919 472.16 422.919 472.164 422.919 472.168C422.919 472.171 422.919 472.175 422.919 472.179C422.919 472.183 422.919 472.187 422.919 472.191C422.919 472.194 422.919 472.198 422.919 472.202C422.919 472.206 422.919 472.21 422.919 472.213C422.919 472.217 422.919 472.221 422.919 472.225C422.919 472.229 422.919 472.232 422.919 472.236C422.919 472.24 422.919 472.244 422.919 472.247C422.919 472.251 422.919 472.255 422.919 472.259C422.919 472.262 422.919 472.266 422.919 472.27C422.919 472.273 422.919 472.277 422.919 472.281C422.919 472.285 422.919 472.288 422.919 472.292C422.919 472.296 422.919 472.299 422.919 472.303C422.919 472.307 422.919 472.31 422.919 472.314C422.919 472.318 422.919 472.321 422.919 472.325C422.919 472.329 422.919 472.332 422.919 472.336C422.919 472.34 422.919 472.343 422.919 472.347C422.919 472.35 422.919 472.354 422.919 472.358C422.919 472.361 422.919 472.365 422.919 472.368C422.919 472.372 422.919 472.376 422.919 472.379C422.919 472.383 422.919 472.386 422.919 472.39C422.919 472.393 422.919 472.397 422.919 472.4C422.919 472.404 422.919 472.408 422.919 472.411C422.919 472.415 422.919 472.418 422.919 472.422C422.919 472.425 422.919 472.429 422.919 472.432C422.919 472.436 422.919 472.439 422.919 472.443C422.919 472.446 422.919 472.45 422.919 472.453C422.919 472.456 422.919 472.46 422.919 472.463C422.919 472.467 422.919 472.47 422.919 472.474C422.919 472.477 422.919 472.481 422.919 472.484C422.919 472.487 422.919 472.491 422.919 472.494C422.919 472.498 422.919 472.501 422.919 472.504C422.919 472.508 422.919 472.511 422.919 472.515C422.919 472.518 422.919 472.521 422.919 472.525C422.919 472.528 422.919 472.531 422.919 472.535C422.919 472.538 422.919 472.541 422.919 472.545C422.919 472.548 422.919 472.551 422.919 472.555C422.919 472.558 422.919 472.561 422.919 472.565C422.919 472.568 422.919 472.571 422.919 472.575C422.919 472.578 422.919 472.581 422.919 472.584C422.919 472.588 422.919 472.591 422.919 472.594C422.919 472.597 422.919 472.601 422.919 472.604C422.919 472.607 422.919 472.61 422.919 472.614C422.919 472.617 422.919 472.62 422.919 472.623C422.919 472.626 422.919 472.63 422.919 472.633C422.919 472.636 422.919 472.639 422.919 472.642C422.919 472.646 422.919 472.649 422.919 472.652C422.919 472.655 422.919 472.658 422.919 472.661C422.919 472.664 422.919 472.668 422.919 472.671C422.919 472.674 422.919 472.677 422.919 472.68C422.919 472.683 422.919 472.686 422.919 472.689C422.919 472.692 422.919 472.696 422.919 472.699C422.919 472.702 422.919 472.705 422.919 472.708H434.919ZM882.661 993.935C886.783 990.951 889.679 988.908 892.314 985.519L882.84 978.154C881.45 979.943 880.064 981.001 875.623 984.216L882.661 993.935ZM886.419 961.668C886.419 968.185 886.367 970.322 885.742 972.47L897.264 975.824C898.471 971.675 898.419 967.592 898.419 961.668H886.419ZM892.314 985.519C894.402 982.834 896.313 979.09 897.264 975.824L885.742 972.47C885.215 974.282 883.998 976.664 882.84 978.154L892.314 985.519ZM243.82 281.5C247.175 279.415 249.416 278.028 251.232 277.078C252.986 276.162 253.954 275.869 254.68 275.769L253.039 263.882C250.397 264.246 248.042 265.206 245.674 266.443C243.369 267.647 240.691 269.317 237.487 271.307L243.82 281.5ZM277.819 277C275.325 274.219 273.238 271.885 271.373 270.095C269.454 268.254 267.469 266.684 265.041 265.597L260.136 276.548C260.81 276.851 261.653 277.399 263.064 278.753C264.528 280.159 266.271 282.097 268.885 285.011L277.819 277ZM254.68 275.769C256.539 275.512 258.424 275.782 260.136 276.548L265.041 265.597C261.277 263.911 257.124 263.318 253.039 263.882L254.68 275.769ZM418.321 451.668C420.764 454.393 421.356 455.103 421.767 455.833L432.23 449.958C431.023 447.808 429.347 445.99 427.255 443.656L418.321 451.668ZM434.919 463.684C434.919 460.55 434.953 458.078 434.416 455.672L422.704 458.282C422.886 459.1 422.919 460.024 422.919 463.684H434.919ZM421.767 455.833C422.197 456.6 422.513 457.425 422.704 458.282L434.416 455.672C433.97 453.671 433.234 451.745 432.23 449.958L421.767 455.833ZM819.696 352.862C819.934 345.903 820.128 340.366 819.969 335.99C819.81 331.623 819.293 327.734 817.717 324.292L806.806 329.288C807.392 330.568 807.836 332.564 807.977 336.426C808.117 340.278 807.947 345.314 807.703 352.451L819.696 352.862ZM772.151 318.723C780.975 319.249 787.327 319.63 792.047 320.189C796.91 320.765 799.147 321.452 800.253 322.089L806.248 311.694C802.855 309.737 798.469 308.866 793.459 308.272C788.306 307.662 781.535 307.261 772.864 306.744L772.151 318.723ZM817.717 324.292C816.462 321.551 815.021 319.151 813.068 317.005C811.115 314.859 808.86 313.201 806.248 311.694L800.253 322.089C802.134 323.174 803.305 324.107 804.194 325.083C805.084 326.06 805.902 327.313 806.806 329.288L817.717 324.292Z" fill="#FFFFFE"/>
</svg>
